<?xml version="1.0" encoding="utf-8"?>
<!-- Generator: Adobe Illustrator 24.0.2, SVG Export Plug-In . SVG Version: 6.00 Build 0)  -->
<svg version="1.1" id="Layer_1" xmlns="http://www.w3.org/2000/svg" xmlns:xlink="http://www.w3.org/1999/xlink" x="0px" y="0px"
	 viewBox="0 0 2880 470" style="enable-background:new 0 0 2880 470;" xml:space="preserve">
<style type="text/css">
	.st0{fill:#122D44;}
	.st1{fill:#103C68;}
	.st2{fill:#0084CE;}
	.st3{fill:#064E96;}
	.st4{fill:#E0CB26;}
</style>
<title>banner--news-media-lg</title>
<rect class="st0" width="2880" height="470"/>
<polygon class="st1" points="1320.3,216.4 2051.6,290.1 2051.6,-0.1 "/>
<ellipse class="st2" cx="1637.8" cy="291.5" rx="413.8" ry="117.3"/>
<polygon class="st1" points="451.7,472.1 155.9,-2.1 1218.6,286.7 "/>
<path class="st3" d="M1568,471.8c-0.4-110.3-250.7-199.6-559.4-199.6s-559,89.3-559.4,199.6H1568z"/>
<path class="st4" d="M1224.3,287.6c-0.2,1.3-0.2,2.6-0.2,3.9c0,54.8,132.6,100.8,311.8,113.7
	C1483.1,352.1,1369.2,309.3,1224.3,287.6z"/>
<polygon class="st1" points="2880,134.5 2533.2,-2.1 2877.7,472.1 2880,472.1 "/>
</svg>
