<?xml version="1.0" encoding="utf-8"?>
<!-- Generator: Adobe Illustrator 24.0.2, SVG Export Plug-In . SVG Version: 6.00 Build 0)  -->
<svg version="1.1" id="Layer_1" xmlns="http://www.w3.org/2000/svg" xmlns:xlink="http://www.w3.org/1999/xlink" x="0px" y="0px"
	 viewBox="0 0 2880 470" style="enable-background:new 0 0 2880 470;" xml:space="preserve">
<style type="text/css">
	.st0{fill:#122D44;}
	.st1{fill:#577795;}
	.st2{fill:#0084CE;}
	.st3{fill:#FFFFFF;}
	.st4{fill:#064E96;}
	.st5{fill:#E0CB26;}
</style>
<title>banner--how-we-work-lg</title>
<rect class="st0" width="2880" height="470"/>
<rect x="342" y="249.6" class="st1" width="105" height="105"/>
<rect x="544.3" y="67.6" class="st2" width="106.3" height="106.3"/>
<rect x="544.3" y="249.6" class="st2" width="106.3" height="106.3"/>
<rect x="544.3" y="418.9" class="st2" width="106.3" height="53.1"/>
<rect x="341.4" y="67.6" class="st1" width="106.3" height="106.3"/>
<polygon class="st2" points="2316.3,354.6 2237.5,354.6 2237.5,249.6 2342.5,249.6 2342.5,328.3 "/>
<polygon class="st3" points="2342.5,328.3 2316.3,354.6 2316.3,328.3 "/>
<rect x="2439.8" y="67.6" class="st4" width="106.3" height="106.3"/>
<rect x="2439.8" y="249.6" class="st4" width="106.3" height="106.3"/>
<rect x="2236.9" y="67.6" class="st2" width="106.3" height="106.3"/>
<rect x="1492.1" y="67.6" class="st4" width="106.3" height="106.3"/>
<rect x="1492.1" y="418.9" class="st4" width="106.3" height="53.1"/>
<rect x="1492.1" y="249.6" class="st4" width="106.3" height="106.3"/>
<rect x="1289.1" y="67.6" class="st2" width="106.3" height="106.3"/>
<polygon class="st4" points="894.6,173.2 815.9,173.2 815.9,68.2 920.9,68.2 920.9,147 "/>
<polygon class="st3" points="920.9,147 894.6,173.2 894.6,147 "/>
<rect x="1289.8" y="249.6" class="st2" width="105" height="105"/>
<rect x="1018.2" y="67.6" class="st1" width="106.3" height="106.3"/>
<rect x="1018.2" y="249.6" class="st1" width="106.3" height="106.3"/>
<rect x="815.2" y="249.6" class="st4" width="106.3" height="106.3"/>
<rect x="1965.9" y="418.9" class="st1" width="106.3" height="53.1"/>
<rect x="1763" y="67.6" class="st5" width="106.3" height="106.3"/>
<rect x="1965.9" y="249.6" class="st1" width="106.3" height="106.3"/>
<rect x="1965.9" y="67.6" class="st1" width="106.3" height="106.3"/>
<rect x="1763" y="249.6" class="st1" width="106.3" height="106.3"/>
<rect x="1782.3" y="90.5" class="st1" width="67.7" height="12.7"/>
<rect x="1782.3" y="114.4" class="st1" width="51.5" height="12.7"/>
<rect x="1985.2" y="438.7" class="st0" width="67.7" height="11.4"/>
<rect x="1512" y="120.1" class="st0" width="43.6" height="12.7"/>
<rect x="1512" y="96.2" class="st0" width="69" height="12.7"/>
<rect x="2458.4" y="96.1" class="st0" width="43.6" height="12.7"/>
<rect x="2458.4" y="120" class="st0" width="69" height="12.7"/>
<rect x="1034.7" y="299.7" class="st0" width="67.7" height="12.7"/>
<rect x="1034.7" y="275.8" class="st0" width="51.5" height="12.7"/>
<rect x="360.6" y="96.1" class="st0" width="67.7" height="12.7"/>
<rect x="360.6" y="120" class="st0" width="51.5" height="12.7"/>
</svg>
