<?xml version="1.0" encoding="utf-8"?>
<!-- Generator: Adobe Illustrator 24.0.2, SVG Export Plug-In . SVG Version: 6.00 Build 0)  -->
<svg version="1.1" id="Layer_1" xmlns="http://www.w3.org/2000/svg" xmlns:xlink="http://www.w3.org/1999/xlink" x="0px" y="0px"
	 viewBox="0 0 2880 397.9" style="enable-background:new 0 0 2880 397.9;" xml:space="preserve">
<style type="text/css">
	.st0{fill:#122D44;}
	.st1{fill:#064E96;}
	.st2{fill:#0084CE;}
	.st3{fill:#E0CB26;}
</style>
<title>banner--404-lg</title>
<rect x="-130.5" class="st0" width="3141" height="397.9"/>
<path class="st1" d="M1663.3,174.9c21.6,0.1,39.1,17.6,39.2,39.1v14.7c-0.1,21.6-17.6,39.2-39.2,39.3h-124.1
	c-21.6-0.1-39.1-17.6-39.2-39.2V214c0.1-21.6,17.6-39.1,39.2-39.2L1663.3,174.9 M1663.3,147.3h-124.1c-36.8,0.1-66.6,29.9-66.7,66.7
	v14.7c0.1,36.8,29.9,66.6,66.7,66.7h124.1c36.8-0.1,66.6-29.9,66.7-66.7V214C1729.9,177.2,1700.1,147.4,1663.3,147.3L1663.3,147.3z"
	/>
<path class="st1" d="M1983.3,174.9c21.6,0.1,39.1,17.6,39.2,39.1v14.7c-0.1,21.6-17.6,39.2-39.2,39.3h-124.1
	c-21.6-0.1-39.1-17.6-39.2-39.2V214c0.1-21.6,17.6-39.1,39.2-39.2L1983.3,174.9 M1983.3,147.3h-124.1c-36.8,0.1-66.6,29.9-66.7,66.7
	v14.7c0.1,36.8,29.9,66.6,66.7,66.7h124.1c36.8-0.1,66.6-29.9,66.7-66.7V214C2049.9,177.2,2020.1,147.4,1983.3,147.3L1983.3,147.3z"
	/>
<path class="st1" d="M2303.6,174.9c21.6,0.1,39.1,17.6,39.2,39.1v14.7c-0.1,21.6-17.6,39.2-39.2,39.3h-124.1
	c-21.6-0.1-39.1-17.6-39.2-39.2V214c0.1-21.6,17.6-39.1,39.2-39.2L2303.6,174.9 M2303.6,147.3h-124.1c-36.8,0.1-66.6,29.9-66.7,66.7
	v14.7c0.1,36.8,29.9,66.6,66.7,66.7h124.1c36.8-0.1,66.6-29.9,66.7-66.7V214C2370.2,177.2,2340.4,147.4,2303.6,147.3L2303.6,147.3z"
	/>
<path class="st1" d="M2623.7,174.9c21.6,0.1,39.1,17.6,39.2,39.1v14.7c-0.1,21.6-17.6,39.2-39.2,39.3h-124.1
	c-21.6-0.1-39.1-17.6-39.2-39.2V214c0.1-21.6,17.6-39.1,39.2-39.2L2623.7,174.9 M2623.7,147.3h-124.1c-36.8,0.1-66.6,29.9-66.7,66.7
	v14.7c0.1,36.8,29.9,66.6,66.7,66.7h124.1c36.8-0.1,66.6-29.9,66.7-66.7V214C2690.3,177.2,2660.5,147.4,2623.7,147.3L2623.7,147.3z"
	/>
<path class="st1" d="M2943.8,174.9c21.6,0.1,39.1,17.6,39.2,39.1v14.7c-0.1,21.6-17.6,39.2-39.2,39.3h-124.1
	c-21.6-0.1-39.1-17.6-39.2-39.2V214c0.1-21.6,17.6-39.1,39.2-39.2L2943.8,174.9 M2943.8,147.3h-124.1c-36.8,0.1-66.6,29.9-66.7,66.7
	v14.7c0.1,36.8,29.9,66.6,66.7,66.7h124.1c36.8-0.1,66.6-29.9,66.7-66.7V214C3010.4,177.2,2980.6,147.4,2943.8,147.3L2943.8,147.3z"
	/>
<path class="st1" d="M380.6,174.9c21.6,0.1,39.1,17.6,39.2,39.1v14.7c-0.1,21.6-17.6,39.2-39.2,39.3H256.5
	c-21.6-0.1-39.1-17.6-39.2-39.2V214c0.1-21.6,17.6-39.1,39.2-39.2L380.6,174.9 M380.6,147.3H256.5c-36.8,0.1-66.6,29.9-66.7,66.7
	v14.7c0.1,36.8,29.9,66.6,66.7,66.7h124.1c36.8-0.1,66.6-29.9,66.7-66.7V214C447.2,177.2,417.4,147.4,380.6,147.3L380.6,147.3z"/>
<path class="st1" d="M700.9,174.9c21.6,0.1,39.1,17.6,39.2,39.1v14.7c-0.1,21.6-17.6,39.2-39.2,39.3H576.8
	c-21.6-0.1-39.1-17.6-39.2-39.2V214c0.1-21.6,17.6-39.1,39.2-39.2L700.9,174.9 M700.9,147.3H576.8c-36.8,0.1-66.6,29.9-66.7,66.7
	v14.7c0.1,36.8,29.9,66.6,66.7,66.7h124.1c36.8-0.1,66.6-29.9,66.7-66.7V214C767.5,177.2,737.7,147.4,700.9,147.3L700.9,147.3z"/>
<path class="st1" d="M1021,174.9c21.6,0.1,39.1,17.6,39.2,39.2v14.7c-0.1,21.6-17.6,39.1-39.2,39.2H896.9
	c-21.6-0.1-39.1-17.6-39.2-39.2V214c0.1-21.6,17.6-39.1,39.2-39.2L1021,174.9 M1021,147.3H896.9c-36.8,0.1-66.6,29.9-66.7,66.7v14.7
	c0.1,36.8,29.9,66.6,66.7,66.7H1021c36.8-0.1,66.6-29.9,66.7-66.7V214C1087.6,177.2,1057.8,147.4,1021,147.3L1021,147.3z"/>
<path class="st1" d="M1341.3,174.9c21.6,0.1,39.1,17.6,39.2,39.1v14.7c-0.1,21.6-17.6,39.2-39.2,39.3h-124.1
	c-21.6-0.1-39.1-17.6-39.2-39.2V214c0.1-21.6,17.6-39.1,39.2-39.2L1341.3,174.9 M1341.3,147.3h-124.1c-36.8,0.1-66.6,29.9-66.7,66.7
	v14.7c0.1,36.8,29.9,66.6,66.7,66.7h124.1c36.8-0.1,66.6-29.9,66.7-66.7V214C1407.9,177.2,1378.1,147.4,1341.3,147.3L1341.3,147.3z"
	/>
<path class="st1" d="M60.3,174.9c21.6,0.1,39.1,17.6,39.2,39.1v14.7c-0.1,21.6-17.6,39.2-39.2,39.3H-63.8
	c-10.4,0-20.4-4.2-27.7-11.5c-7.4-7.3-11.6-17.3-11.6-27.7V214c0-10.4,4.1-20.3,11.5-27.6c7.3-7.4,17.3-11.5,27.7-11.5H60.3
	 M60.3,147.3H-63.8c-36.8,0.1-66.6,29.9-66.7,66.7v14.7c0.1,36.8,29.9,66.6,66.7,66.7H60.3c36.8-0.1,66.6-29.9,66.7-66.7V214
	C126.9,177.2,97.1,147.4,60.3,147.3L60.3,147.3z"/>
<path class="st2" d="M243.8,237.4H73c-6.5,0-11.8-6.3-11.8-14.1v-3.9c0-7.8,5.3-14.1,11.8-14.1h170.8c6.5,0,11.9,6.3,11.9,14.1v3.9
	C255.7,231.1,250.3,237.4,243.8,237.4z"/>
<path class="st2" d="M565.8,237.4H395c-6.5,0-11.9-6.3-11.9-14.1v-3.9c0-7.8,5.3-14.1,11.9-14.1h170.8c6.5,0,11.8,6.3,11.8,14.1v3.9
	C577.7,231.1,572.3,237.4,565.8,237.4z"/>
<path class="st2" d="M885.6,237.4H714.8c-6.5,0-11.8-6.3-11.8-14.1v-3.9c0-7.8,5.3-14.1,11.8-14.1h170.8c6.5,0,11.8,6.3,11.8,14.1
	v3.9C897.5,231.1,892.1,237.4,885.6,237.4z"/>
<path class="st2" d="M1207,237.4h-170.9c-6.5,0-11.8-6.3-11.8-14.1v-3.9c0-7.8,5.3-14.1,11.8-14.1H1207c6.5,0,11.8,6.3,11.8,14.1
	v3.9C1218.8,231.1,1213.5,237.4,1207,237.4z"/>
<path class="st2" d="M1525.4,237.4h-170.8c-6.5,0-11.8-6.3-11.8-14.1v-3.9c0-7.8,5.3-14.1,11.8-14.1h170.8c6.5,0,11.8,6.3,11.8,14.1
	v3.9C1537.3,231.1,1531.9,237.4,1525.4,237.4z"/>
<path class="st2" d="M1848.4,237.4h-170.8c-6.5,0-11.8-6.3-11.8-14.1v-3.9c0-7.8,5.3-14.1,11.8-14.1h170.8c6.5,0,11.8,6.3,11.8,14.1
	v3.9C1860.3,231.1,1854.9,237.4,1848.4,237.4z"/>
<path class="st2" d="M2168.4,237.4h-170.8c-6.5,0-11.8-6.3-11.8-14.1v-3.9c0-7.8,5.3-14.1,11.8-14.1h170.8c6.5,0,11.9,6.3,11.9,14.1
	v3.9C2180.3,231.1,2174.9,237.4,2168.4,237.4z"/>
<path class="st2" d="M2486.4,237.4h-170.8c-6.5,0-11.9-6.3-11.9-14.1v-3.9c0-7.8,5.3-14.1,11.9-14.1h170.8c6.5,0,11.9,6.3,11.9,14.1
	v3.9C2498.3,231.1,2492.9,237.4,2486.4,237.4z"/>
<path class="st2" d="M2809.4,237.4h-170.8c-6.5,0-11.9-6.3-11.9-14.1v-3.9c0-7.8,5.3-14.1,11.9-14.1h170.8c6.5,0,11.9,6.3,11.9,14.1
	v3.9C2821.3,231.1,2815.9,237.4,2809.4,237.4z"/>
<rect x="620" y="109.5" class="st0" width="39.7" height="84.8"/>
<polygon class="st3" points="616.7,119.3 578.2,57.3 559.3,74.3 "/>
<polygon class="st3" points="663.9,119.3 702.3,57.3 721.3,74.3 "/>
<polygon class="st3" points="640.3,107.4 653,35.6 627.6,35.6 "/>
</svg>
