<?xml version="1.0" encoding="utf-8"?>
<!-- Generator: Adobe Illustrator 24.0.2, SVG Export Plug-In . SVG Version: 6.00 Build 0)  -->
<svg version="1.1" id="Layer_1" xmlns="http://www.w3.org/2000/svg" xmlns:xlink="http://www.w3.org/1999/xlink" x="0px" y="0px"
	 viewBox="0 0 1146 550" style="enable-background:new 0 0 1146 550;" xml:space="preserve">
<style type="text/css">
	.st0{fill:#122D44;}
	.st1{fill:#064E96;}
	.st2{fill:#577795;}
	.st3{fill:#E0CB26;}
</style>
<title>banner--thank-you-sm</title>
<rect class="st0" width="1146" height="550"/>
<rect x="396.8" y="151" transform="matrix(0.3731 -0.9278 0.9278 0.3731 110.1555 523.2469)" class="st1" width="91" height="58.2"/>
<rect x="620.5" y="191.6" transform="matrix(0.9375 -0.3479 0.3479 0.9375 -35.1791 245.4799)" class="st2" width="91" height="58.2"/>
<rect x="1079.4" y="425.4" transform="matrix(0.9375 -0.3479 0.3479 0.9375 -87.8588 419.7453)" class="st2" width="91" height="58.2"/>
<rect x="272.3" y="263.1" transform="matrix(0.9372 -0.3489 0.3489 0.9372 -82.0009 129.298)" class="st2" width="91.3" height="58.4"/>
<rect x="124.9" y="66.6" transform="matrix(0.9375 -0.3479 0.3479 0.9375 -22.65 65.2586)" class="st2" width="91" height="58.2"/>
<rect x="951.5" y="62.6" transform="matrix(0.3479 -0.9375 0.9375 0.3479 538.1115 989.8233)" class="st1" width="58.2" height="91"/>
<rect x="1025.4" y="289" transform="matrix(0.3479 -0.9375 0.9375 0.3479 374.0726 1206.7301)" class="st1" width="58.2" height="91"/>
<rect x="666.6" y="17.5" transform="matrix(0.3479 -0.9375 0.9375 0.3479 394.6164 693.2548)" class="st1" width="58.2" height="91"/>
<rect x="274.4" y="124.7" transform="matrix(0.3479 -0.9375 0.9375 0.3479 38.3051 395.5246)" class="st3" width="58.2" height="91"/>
<rect x="15.1" y="204.2" transform="matrix(0.3479 -0.9375 0.9375 0.3479 -205.3102 204.223)" class="st1" width="58.2" height="91"/>
<rect x="877.8" y="191.5" transform="matrix(0.9375 -0.3479 0.3479 0.9375 -19.0713 334.9993)" class="st2" width="91" height="58.2"/>
<rect x="756.7" y="141" transform="matrix(0.3731 -0.9278 0.9278 0.3731 345.1021 850.8757)" class="st2" width="91" height="58.2"/>
<rect x="-28" y="76.7" transform="matrix(0.3731 -0.9278 0.9278 0.3731 -87.1518 82.5935)" class="st2" width="91" height="58.2"/>
<rect x="546.4" y="81.8" transform="matrix(0.9278 -0.3731 0.3731 0.9278 -5.9489 223.9176)" class="st2" width="58.2" height="91"/>
<rect x="756.7" y="295.7" transform="matrix(0.3731 -0.9278 0.9278 0.3731 201.5515 947.9563)" class="st1" width="91" height="58.2"/>
<rect x="1092.6" y="46.4" transform="matrix(0.9292 -0.3697 0.3697 0.9292 45.4822 421.1922)" class="st2" width="58.3" height="91.1"/>
<rect x="1020" y="182.5" transform="matrix(0.3731 -0.9278 0.9278 0.3731 471.6539 1121.1873)" class="st2" width="91" height="58.2"/>
<rect x="90" y="329.5" transform="matrix(0.3731 -0.9278 0.9278 0.3731 -247.6908 350.5345)" class="st2" width="91" height="58.2"/>
<rect x="-6.5" y="394.1" transform="matrix(0.9278 -0.3731 0.3731 0.9278 -162.3884 40.1716)" class="st1" width="58.2" height="91"/>
<rect x="148.9" y="189.3" transform="matrix(0.9278 -0.3731 0.3731 0.9278 -74.7622 83.3745)" class="st1" width="58.2" height="91"/>
<polygon class="st1" points="1014.6,0 1010.5,10.2 1064.5,31.9 1077.4,0 "/>
<polygon class="st2" points="813.8,0 811.9,0.8 845.9,85.2 899.9,63.4 874.4,0 "/>
<polygon class="st2" points="485.4,0 414,26.5 434.2,81.1 519.5,49.5 501.2,0 "/>
<polygon class="st1" points="306.2,0 277.7,70.9 331.8,92.6 365.7,8.2 345.3,0 "/>
<polygon class="st1" points="43.2,0 42,3.3 127.3,35 140.2,0 "/>
</svg>
