<?xml version="1.0" encoding="utf-8"?>
<!-- Generator: Adobe Illustrator 24.0.2, SVG Export Plug-In . SVG Version: 6.00 Build 0)  -->
<svg version="1.1" id="Layer_1" xmlns="http://www.w3.org/2000/svg" xmlns:xlink="http://www.w3.org/1999/xlink" x="0px" y="0px"
	 viewBox="0 0 2880 470" style="enable-background:new 0 0 2880 470;" xml:space="preserve">
<style type="text/css">
	.st0{fill:#122D44;}
	.st1{fill:#0084CE;}
	.st2{fill:#064E96;}
	.st3{fill:#E0CB26;}
</style>
<title>banner--contact-us-lg</title>
<rect class="st0" width="2880" height="470"/>
<polygon class="st1" points="177,363.4 227.7,470 126.3,470 "/>
<path class="st1" d="M163.1,350.9c74.2,66.8,168.9,87.5,236.2,54.8c-89.9-6.2-275.7-197.1-313-287.1
	C59.7,189.2,88.2,283.5,163.1,350.9z"/>
<path class="st2" d="M217.3,290.9c86.8,79.5,171.5,128.1,185,112.7s-45.9-92.3-132.8-171.8S101.4,100.3,87.9,115.6
	S130.4,211.4,217.3,290.9z"/>
<polygon class="st1" points="344.7,175.4 294,351.9 329.1,180.9 "/>
<polygon class="st1" points="332.3,194.3 166.6,239.9 344.7,175.4 "/>
<polygon class="st1" points="629.4,300.8 678,403 580.8,403 "/>
<path class="st1" d="M617.9,289.9c54.1,50.4,128.4,64.1,178.7,40.8c-66.5-5.8-208-143.9-234.5-211.1
	C541.8,167.4,563.3,239,617.9,289.9z"/>
<path class="st2" d="M651.8,253.6c64.8,58.7,132.6,90.5,147.1,75.3s-26.4-75-91.2-133.6s-129.1-93.9-143.6-78.8
	S587,194.9,651.8,253.6z"/>
<polygon class="st1" points="754.8,162.1 715,292.3 743.1,166 "/>
<polygon class="st1" points="745.3,175.9 622,207.6 754.8,162.1 "/>
<polygon class="st1" points="1412.2,217.7 1436.4,268.6 1387.9,268.6 "/>
<path class="st1" d="M1399.5,208.7c22.4,29.3,56.2,42.8,82.8,35.4c-32.2-8.4-87.8-89.1-95.3-124.3
	C1372.6,143.6,1376.8,179.1,1399.5,208.7z"/>
<path class="st2" d="M1408.8,196.8c26.2,35.2,63,54.5,77.8,45.8s9.5-48.7-16.7-83.8s-63.4-52.3-78.2-43.5S1382.5,161.6,1408.8,196.8
	z"/>
<polygon class="st1" points="1478.4,153 1437.5,219.8 1471.1,154.1 "/>
<polygon class="st1" points="1471.4,160.1 1396,166.5 1478.4,153 "/>
<polygon class="st1" points="1039.5,254.3 1074.7,328.2 1004.3,328.2 "/>
<path class="st1" d="M1028.7,244.2c34.3,41.1,82.3,58.1,124.4,45.6c-47.2-10.2-136-122.1-148.9-172.7
	C986.3,148.2,994.1,202.7,1028.7,244.2z"/>
<path class="st2" d="M1055.8,221.9c41.4,47.9,87.9,76.4,100.1,66.5s-7-60.4-48.4-108.3S1018.3,105,1006,115S1014.4,174,1055.8,221.9
	z"/>
<polygon class="st1" points="1138.6,165 1098.1,254.8 1129.8,166.7 "/>
<polygon class="st1" points="1130.5,174 1039.1,185.5 1138.6,165 "/>
<circle class="st3" cx="2605.6" cy="101.7" r="55.4"/>
</svg>
