<?xml version="1.0" encoding="utf-8"?>
<!-- Generator: Adobe Illustrator 24.0.2, SVG Export Plug-In . SVG Version: 6.00 Build 0)  -->
<svg version="1.1" id="Layer_1" xmlns="http://www.w3.org/2000/svg" xmlns:xlink="http://www.w3.org/1999/xlink" x="0px" y="0px"
	 viewBox="0 0 598 628" style="enable-background:new 0 0 598 628;" xml:space="preserve">
<style type="text/css">
	.st0{fill:#0084CE;}
</style>
<title>graphic-mission-farmer</title>
<path class="st0" d="M431.2,84.6c1.5-0.3,3.1-0.7,4.6-1c18.4-4.2,30.1-9.5,30.1-15.2c0-9.4-27.4-27.2-67.8-37.7
	c-2.4-0.6-4.9-1.2-7.4-1.8l-3-0.7c-2.9-0.6-6-1.2-9-1.8l-1.3-0.2c-2.9-0.5-5.8-1-8.9-1.5C368,13.3,353,4,334.6,4h-0.3h-0.3
	c-18.4,0-33.3,9.3-33.9,20.9c-3,0.4-5.9,1-8.9,1.5l-1.3,0.2c-3.1,0.5-6.1,1.1-9,1.8l-3,0.7c-2.5,0.6-5,1.1-7.4,1.8
	c-40.4,10.5-67.8,28.3-67.8,37.7c0,5.7,11.7,11,30.1,15.2c1.4,0.3,3,0.7,4.6,1l1.2,0.2c14.8,2.9,29.7,5,44.7,6.2
	c-0.1,1.6-0.2,3.2-0.2,4.8c0,28.1,22.8,50.9,50.9,50.9c0,0,0,0,0,0h0.6c28.1,0,50.9-22.8,50.9-50.9c0-1.6-0.1-3.2-0.2-4.8
	c15-1.2,29.9-3.3,44.7-6.2L431.2,84.6z"/>
<path class="st0" d="M430.6,188.2c-8.2-12.5-17.9-20.5-26.8-25c-5.8-2.9-13.3-5.9-21.5-5.9h-93.6c-14.6,0-33.3,8.9-43.4,13
	c-30.4,12.3-81.4,34-102.9,44.7c-28.6,14.2,0,0,0,0s-38.5,17.7-40.8,18.8c-10,4.7-14.3,16.7-9.6,26.7c3.4,7.3,13.7,13.1,25,8.6
	c8.6-3.5,92.5-39.9,120-51.3c11.2-4.7,21-8.7,29-11.9v388.4c0,17.1,13.9,31,31,31s31-13.9,31-31V367.7h11.6v226.5
	c0,17.1,13.9,31,31,31s31-13.9,31-31V218.4c1.7,3.5,3.2,7,4.5,10.6c7.1,19.6,13,51.8,13,102c0,13.8-0.4,29-1.4,45.7
	c-0.7,11.1,7.8,20.6,18.8,21.2c0,0,0,0,0.1,0c0.4,0,0.8,0,1.2,0c10.6,0,19.4-8.3,20-18.9c1-17.4,1.5-33.4,1.5-48.1
	C459.2,255.3,447.1,213.4,430.6,188.2z"/>
<path class="st0" d="M189.8,155.3V44.2h-14.6v111.1c0,1.3-1.1,2.4-2.4,2.4h-43.2V44.2h-14.6v113.6H71.8c-1.3,0-2.4-1.1-2.4-2.4V44.2
	H54.7v111.1c0,9.4,7.6,17,17,17h43.2v451h14.6v-451h43.2C182.1,172.3,189.7,164.7,189.8,155.3"/>
</svg>
