<?xml version="1.0" encoding="utf-8"?>
<!-- Generator: Adobe Illustrator 24.0.2, SVG Export Plug-In . SVG Version: 6.00 Build 0)  -->
<svg version="1.1" id="Layer_1" xmlns="http://www.w3.org/2000/svg" xmlns:xlink="http://www.w3.org/1999/xlink" x="0px" y="0px"
	 viewBox="0 0 598 628" style="enable-background:new 0 0 598 628;" xml:space="preserve">
<style type="text/css">
	.st0{fill:#0084CE;}
</style>
<title>graphic-mission-small-business-owner</title>
<path class="st0" d="M126.1,312.6l23.7-114.7h0.2l-8.6-60.8c-6.1,0.7-12,2.5-17.5,5.3c-14.1,7-29.3,22.3-39.9,49.4
	s-18,66.5-18,125.8c0,15.3,0.5,32,1.6,50.2c0.7,11,9.8,19.7,20.9,19.7c0.4,0,0.8,0,1.2,0c11.5-0.7,20.3-10.6,19.7-22.1
	c-1-17.4-1.5-33.3-1.5-47.7c-0.1-63.5,9.1-99.1,18.2-117.7V312.6z"/>
<path class="st0" d="M203,592.9c0.3,17.9,15.1,32.1,33,31.8c17.4-0.3,31.5-14.4,31.8-31.8V445.2c-12.2,4.8-37.8,13.7-64.8,15V592.9z
	"/>
<polygon class="st0" points="240.2,136.8 231.2,136.8 235.6,123.9 202.6,134.7 202.6,152.8 192.2,152.8 192.2,135 158.3,123.9 
	162.6,136.8 153.7,136.8 162.3,197.9 196.2,197.9 231.5,197.9 "/>
<path class="st0" d="M284.5,365.4c-0.6,11.5,8.2,21.4,19.7,22.1c0.4,0,0.8,0,1.2,0c11.1,0,20.3-8.7,20.9-19.7
	c1-18.2,1.5-34.8,1.5-50.2c-0.1-79-12.7-122.8-30-149.1c-8.6-13.1-18.7-21.4-28-26.1c-5.5-2.8-11.4-4.6-17.5-5.3l-9.1,64.3
	l24.4,118.1V200.1c1.7,3.6,3.3,7.3,4.7,11.1c7.4,20.5,13.6,54,13.6,106.4C286,332.1,285.5,348,284.5,365.4z"/>
<path class="st0" d="M126.1,592.9c0.3,17.9,15.1,32.1,33,31.8c17.4-0.3,31.5-14.4,31.8-31.8V460.3c-26.4-1-51.9-9.5-64.8-14.5V592.9
	z"/>
<circle class="st0" cx="196.9" cy="62.9" r="58.9"/>
<rect x="344.9" y="338" class="st0" width="218.9" height="18.5"/>
<path class="st0" d="M411.9,599.5h93.1c8.9,0,16.1,7.2,16.1,16.1v8l0,0H395.8l0,0v-8C395.8,606.7,403,599.5,411.9,599.5z"/>
<rect x="451.1" y="347.3" class="st0" width="14.6" height="273.8"/>
<path class="st0" d="M532.4,147.1h-29.1c-5.2,0-9.5,4.2-9.5,9.5v28.5c-7.2,1.6-14.2,3.9-21,6.9l-10.5,5.3
	c-9.3,5.4-17.8,12-25.1,19.8l-7.7,8.9c-6.5,8.5-11.8,18-15.7,28l-3.6,11.2c-2.5,9.4-3.8,19.1-3.8,28.9h135.4V156.6
	C541.8,151.3,537.6,147.1,532.4,147.1z M504.5,249c-3.6,0-6.9-1.5-9.3-4.2L464,260.3c0.1,4.8-3.7,8.7-8.5,8.8s-8.7-3.7-8.8-8.5
	c-0.1-4.8,3.7-8.7,8.5-8.8c2,0,3.9,0.6,5.5,1.9l31.5-15.6c-0.8-6.8,4.1-13,10.9-13.9c6.8-0.8,13,4.1,13.9,10.9
	c0.8,6.8-4.1,13-10.9,13.9C505.5,249,505,249,504.5,249z"/>
<path class="st0" d="M469.2,182.1l4.3-2.2c1.3-0.7,1.9-2.3,1.2-3.7l-0.9-1.8c-0.7-1.3-2.3-1.9-3.7-1.2L447.6,185
	c-1.3,0.7-1.9,2.3-1.2,3.7l0.9,1.8c0.7,1.3,2.3,1.9,3.7,1.2l4.9-2.7l5.5,10.6c7.4-1,11.3-3.2,13.3-6.8L469.2,182.1z"/>
<path class="st0" d="M430.6,209.1l3.1-3.7c1-1.2,0.8-2.9-0.3-3.9l-1.5-1.3c-1.1-1-2.9-0.9-3.9,0.3l-16.4,19.4
	c-1,1.1-0.8,2.8,0.3,3.8l1.5,1.3c1.1,1,2.9,0.8,3.9-0.3l3.6-4.4l9.1,7.8c6.5-3.8,9.2-7.2,9.7-11.3L430.6,209.1z"/>
<path class="st0" d="M404.6,249.2l1.5-4.6c0.5-1.4-0.3-3-1.7-3.5l-1.9-0.6c-1.4-0.5-3,0.2-3.5,1.7l-8.2,23.9c-0.5,1.4,0.3,3,1.7,3.5
	l1.9,0.7c1.4,0.5,3-0.3,3.5-1.7l1.8-5.2l11.3,3.9c4.6-5.9,6-10.1,4.9-14.1L404.6,249.2z"/>
<rect x="366.9" y="303.4" class="st0" width="174.9" height="35.1"/>
</svg>
