<?xml version="1.0" encoding="utf-8"?>
<!-- Generator: Adobe Illustrator 24.0.2, SVG Export Plug-In . SVG Version: 6.00 Build 0)  -->
<svg version="1.1" id="Layer_1" xmlns="http://www.w3.org/2000/svg" xmlns:xlink="http://www.w3.org/1999/xlink" x="0px" y="0px"
	 viewBox="0 0 598 628" style="enable-background:new 0 0 598 628;" xml:space="preserve">
<style type="text/css">
	.st0{fill:#0084CE;}
</style>
<title>graphic-mission-medicare-beneficiary</title>
<path class="st0" d="M356,224.8c-5.3,11.2-41,39.7-41.1,39.7S279,236,273.8,224.8c-5.4-11.8-0.3-25.8,11.5-31.2
	c10.6-4.9,23.3-1.2,29.6,8.6c7-10.9,21.5-14.1,32.5-7.1C357.3,201.4,361,214.1,356,224.8 M399.1,179.3
	c-8.4-12.8-18.2-20.9-27.3-25.5c-6.4-3.3-13.4-5.2-20.6-5.4c-0.4,0-0.9-0.1-1.3-0.1h-98.8c-0.4,0-0.8,0-1.2,0.1
	c-7.2,0.3-14.3,2.1-20.7,5.4c-13.8,6.8-28.6,21.7-39,48.2s-17.5,65-17.5,122.9c0,15,0.5,31.3,1.5,49c0.6,10.8,9.6,19.2,20.4,19.3
	c0.4,0,0.8,0,1.2,0c11.3-0.7,19.9-10.3,19.2-21.6c-1-17-1.4-32.5-1.4-46.6c-0.1-61.9,8.9-96.7,17.8-114.9v383.5
	c0,17.5,14.2,31.6,31.6,31.6c17.5,0,31.6-14.2,31.6-31.6l0,0V362.8h11.9v230.9c0.3,17.5,14.7,31.4,32.2,31.1
	c17-0.3,30.8-14,31.1-31.1V261.7c0,9.3,3-44.9,4.5-40.7c7.2,20,13.3,52.8,13.2,103.9c0,14.1-0.5,29.6-1.5,46.6
	c-0.6,11.3,8,21,19.2,21.6h1.2c10.8,0,19.8-8.4,20.4-19.3c1-17.7,1.5-34,1.5-49C428.2,247.7,415.9,205,399.1,179.3"/>
<path class="st0" d="M365.7,99.3c-5.4-12.3,3.5-25.1-7.7-52.8c-1.4-3.9-3.2-7.7-5.3-11.4c-0.3-0.5-0.5-1-0.8-1.5v0.2
	C340.8,15.9,321.7,4,300,4c-31.4,0-57.3,24.8-61.6,56.9c-3.8,18.2,1.1,28.5-3.2,38.4c-2.5,5.6-7.8,9.8-12.5,7.3
	c3.1,12.2,21.1,18.8,46.6,18.8c1.2,0,2.4-0.1,3.6-0.5c9.1,5,18.7,7.8,27.1,7.8s18.2-2.9,27.4-8c1.3,0.5,2.8,0.7,4.2,0.7
	c25.5,0,43.5-6.6,46.6-18.8C373.5,109.2,368.2,105,365.7,99.3"/>
</svg>
