<?xml version="1.0" encoding="utf-8"?>
<!-- Generator: Adobe Illustrator 24.0.2, SVG Export Plug-In . SVG Version: 6.00 Build 0)  -->
<svg version="1.1" id="Layer_1" xmlns="http://www.w3.org/2000/svg" xmlns:xlink="http://www.w3.org/1999/xlink" x="0px" y="0px"
	 viewBox="0 0 2000 2000" style="enable-background:new 0 0 2000 2000;" xml:space="preserve">
<style type="text/css">
	.st0{fill:#F1F1F1;}
	.st1{fill:#0084CE;}
	.st2{fill:#122D44;}
	.st3{fill:#E0CB26;}
	.st4{fill:#A39634;}
</style>
<title>graphic-mission-go-where-work-is</title>
<g>
	<g id="Layer_1_1_">
		<path class="st0" d="M100,0h1800c55.2,0,100,44.8,100,100v1800c0,55.2-44.8,100-100,100H100c-55.2,0-100-44.8-100-100V100
			C0,44.8,44.8,0,100,0z"/>
		<polygon class="st1" points="970.5,1171.2 966,1755.4 1022.4,1755.9 1026.9,1171.6 998.8,1083.5 		"/>
		<polygon class="st2" points="1029.5,829.1 1034,244.6 977.6,244.1 973.1,828.7 1001.2,916.8 		"/>
		<polygon class="st2" points="1171.2,1029.5 1755.4,1034 1755.9,977.6 1171.6,973.1 1083.5,1001.2 		"/>
		<polygon class="st3" points="829.1,970.5 244.6,966 244.1,1022.4 828.7,1026.9 916.8,998.8 		"/>
		<polygon class="st1" points="1142.3,900.3 1558.6,490.3 1518.2,449.2 1101.9,859.2 1059.9,941.8 		"/>
		<polygon class="st1" points="857.9,1099.5 441.4,1509.7 481.8,1550.8 898.3,1140.6 940.3,1058 		"/>
		<polygon class="st1" points="900.3,857.7 490.3,441.4 449.2,481.8 859.2,898.1 941.8,940.1 		"/>
		<polygon class="st2" points="1099.5,1142.1 1509.7,1558.6 1550.8,1518.2 1140.6,1101.7 1058,1059.7 		"/>
		<polygon class="st1" points="1145.9,1094.4 1682.3,1326.1 1705.1,1273.2 1168.8,1041.5 1076.5,1033.6 		"/>
		<polygon class="st1" points="854.4,905.7 317.7,673.9 294.9,726.8 831.5,958.6 923.8,966.5 		"/>
		<polygon class="st4" points="1094.4,854.1 1326.1,317.7 1273.2,294.9 1041.5,831.2 1033.6,923.5 		"/>
		<polygon class="st2" points="905.7,1145.6 673.9,1682.3 726.8,1705.1 958.6,1168.5 966.5,1076.2 		"/>
		<polygon class="st1" points="963.6,830.1 748.2,287 694.6,308.2 910,851.3 969.7,922.2 		"/>
		<polygon class="st4" points="1036.3,1169.7 1251.8,1713.1 1305.4,1691.8 1089.9,1148.4 1030.2,1077.6 		"/>
		<polygon class="st2" points="830.1,1036.4 287,1251.8 308.2,1305.4 851.3,1090 922.2,1030.3 		"/>
		<polygon class="st4" points="1169.7,963.7 1713,748.2 1691.8,694.6 1148.4,910.1 1077.6,969.8 		"/>
		<g>
			<polygon class="st1" points="1004.2,1173.6 1113,1747.7 1168.5,1737.2 1059.6,1163.1 1015,1082.2 			"/>
			<polygon class="st4" points="995.9,826.7 887,252.3 831.5,262.8 940.4,837.2 985,918.1 			"/>
			<polygon class="st1" points="1173.6,995.8 1747.7,887 1737.2,831.5 1163.1,940.4 1082.2,985 			"/>
			<polygon class="st1" points="826.7,1004.1 252.3,1113 262.8,1168.5 837.2,1059.6 918.1,1015 			"/>
			<polygon class="st2" points="1120.3,874.6 1449.3,391.7 1401.6,359.3 1072.7,842.1 1047.5,931.3 			"/>
			<polygon class="st4" points="879.8,1125.2 550.7,1608.3 598.4,1640.7 927.5,1157.6 952.7,1068.5 			"/>
			<polygon class="st4" points="874.6,879.7 391.7,550.7 359.3,598.4 842.1,927.3 931.3,952.5 			"/>
			<polygon class="st4" points="1125.2,1120.2 1608.3,1449.3 1640.7,1401.6 1157.6,1072.5 1068.5,1047.3 			"/>
			<polygon class="st1" points="1161.4,1064.4 1732.5,1187.8 1744.7,1131.4 1173.6,1008 1081.5,1018.2 			"/>
			<polygon class="st2" points="838.9,935.7 267.5,812.2 255.3,868.6 826.7,992 918.8,981.9 			"/>
			<polygon class="st3" points="1064.4,838.6 1187.7,267.5 1131.4,255.3 1008,826.4 1018.2,918.5 			"/>
			<polygon class="st4" points="935.7,1161.1 812.2,1732.5 868.6,1744.7 992.1,1173.3 981.9,1081.2 			"/>
			<polygon class="st2" points="931.4,840.3 614.8,349.3 566.3,380.5 882.9,871.6 955.2,929.5 			"/>
			<polygon class="st3" points="1068.5,1159.4 1385.2,1650.7 1433.7,1619.5 1116.9,1128.2 1044.6,1070.2 			"/>
			<polygon class="st1" points="840.3,1068.6 349.3,1385.2 380.5,1433.7 871.6,1117.1 929.5,1044.8 			"/>
			<polygon class="st2" points="1159.4,931.5 1650.7,614.8 1619.5,566.3 1128.2,883.1 1070.2,955.4 			"/>
		</g>
	</g>
</g>
</svg>
