<?xml version="1.0" encoding="utf-8"?>
<!-- Generator: Adobe Illustrator 24.0.2, SVG Export Plug-In . SVG Version: 6.00 Build 0)  -->
<svg version="1.1" id="Layer_1" xmlns="http://www.w3.org/2000/svg" xmlns:xlink="http://www.w3.org/1999/xlink" x="0px" y="0px"
	 viewBox="0 0 700 700" style="enable-background:new 0 0 700 700;" xml:space="preserve">
<style type="text/css">
	.st0{fill:#122D44;}
	.st1{fill:#577795;}
	.st2{fill:#0084CE;}
	.st3{fill:#1F5594;}
	.st4{fill:#064E96;}
	.st5{fill:#E0CB26;}
</style>
<title>graphic-how-we-work-hcd</title>
<circle class="st0" cx="350" cy="350" r="350"/>
<path class="st1" d="M546.7,211.4H152.2c-10.1,0-20.4,8.4-20.4,22.6s10.3,22.7,20.4,22.7h142.4v324.7c0,16.4,8.7,24.3,24.5,24.3
	s24.2-7.4,24.2-24.3V390.9h13.4v190.4c0,16.9,11.9,24.3,24.2,24.3s24.5-7.4,24.5-24.3V256.6h141.4c10.1,0,21.5-8.3,21.5-22.6
	S556.8,211.4,546.7,211.4z"/>
<path class="st2" d="M350.1,289.7c-26.5-126.7-210-72.9-164.8,64C219.6,457.6,322.1,499,350.1,518.3l0,0
	C378,499,481.4,457.9,514.9,353.8C560.2,212.5,371.2,166.7,350.1,289.7z"/>
<path class="st3" d="M356.7,390.9h-13.4V514c2.6,1.5,4.8,3,6.7,4.3l0,0c1.9-1.3,4.1-2.7,6.6-4.2L356.7,390.9z"/>
<path class="st4" d="M294.6,437.9V256.6h-99.5c-16.7,23.4-23.3,56.6-9.9,97.1c21.4,64.9,69.5,105.4,109.4,131.3V437.9z"/>
<path class="st4" d="M405.4,256.6v228.8c40.1-25.9,88.6-66.4,109.5-131.7c13.2-41,6.6-74-9.9-97.1H405.4z"/>
<circle class="st5" cx="350" cy="148.3" r="44.4"/>
</svg>
