<?xml version="1.0" encoding="utf-8"?>
<!-- Generator: Adobe Illustrator 24.0.2, SVG Export Plug-In . SVG Version: 6.00 Build 0)  -->
<svg version="1.1" id="Layer_1" xmlns="http://www.w3.org/2000/svg" xmlns:xlink="http://www.w3.org/1999/xlink" x="0px" y="0px"
	 viewBox="0 0 2000 2000" style="enable-background:new 0 0 2000 2000;" xml:space="preserve">
<style type="text/css">
	.st0{fill:#F1F1F1;}
	.st1{fill:#E0CB26;}
	.st2{opacity:0.9;fill:#122D44;enable-background:new    ;}
	.st3{fill:#122D44;}
	.st4{fill:#0084CE;}
</style>
<title>graphic-mission-design-with-users</title>
<g>
	<g id="Layer_1_1_">
		<path class="st0" d="M100,0h1800c55.2,0,100,44.8,100,100v1800c0,55.2-44.8,100-100,100H100c-55.2,0-100-44.8-100-100V100
			C0,44.8,44.8,0,100,0z"/>
		<path class="st1" d="M502.5,1361.3c60.2-60.2,157.7-60.2,217.9,0c60.2,60.2,60.2,157.7,0,217.9c-60.2,60.2-157.7,60.2-217.9,0
			C442.3,1519,442.3,1421.4,502.5,1361.3z"/>
		<path class="st2" d="M398.2,854.4c85.1,0,154.1,69,154,154.1c0,85.1-69,154.1-154.1,154c-85.1,0-154-69-154-154.1
			C244.1,923.4,313.1,854.4,398.2,854.4C398.2,854.4,398.2,854.4,398.2,854.4z"/>
		<path class="st1" d="M1164.1,393.8c0,85.1-69,154.1-154.1,154.1s-154.1-69-154.1-154.1s69-154.1,154.1-154.1c0,0,0,0,0,0
			C1095.1,239.8,1164.1,308.8,1164.1,393.8z"/>
		<path class="st1" d="M505.6,685.2c73.4,43,98,137.4,55,210.8c-43,73.4-137.4,98-210.8,55c-73.4-43-98-137.4-55-210.8
			C337.8,666.8,432.2,642.2,505.6,685.2C505.6,685.2,505.6,685.2,505.6,685.2z"/>
		<circle class="st3" cx="1541.6" cy="1321.9" r="154.1"/>
		<path class="st1" d="M1562.9,705.9c82.3-21.5,166.5,27.9,187.9,110.2S1723,982.6,1640.6,1004c-82.3,21.5-166.5-27.9-187.9-110.2
			C1431.2,811.5,1480.6,727.4,1562.9,705.9C1562.9,705.9,1562.9,705.9,1562.9,705.9z"/>
		<path class="st2" d="M1464.4,561.9c72.9-43.8,167.6-20.2,211.4,52.7s20.2,167.6-52.7,211.4c-72.9,43.8-167.6,20.2-211.4-52.7
			C1367.9,700.4,1391.5,605.7,1464.4,561.9z"/>
		
			<rect x="375" y="1192.3" transform="matrix(0.3608 -0.9326 0.9326 0.3608 -908.0789 1303.6876)" class="st4" width="244.2" height="244.1"/>
		
			<rect x="1254.9" y="404.6" transform="matrix(0.9552 -0.296 0.296 0.9552 -94.1966 431.2355)" class="st1" width="244.1" height="244.1"/>
		
			<rect x="610.5" y="334.7" transform="matrix(0.291 -0.9567 0.9567 0.291 82.3809 1024.723)" class="st2" width="244.1" height="244.1"/>
		
			<rect x="1179.5" y="1421.5" transform="matrix(0.2945 -0.9556 0.9556 0.2945 -556.8367 2332.7585)" class="st1" width="244.1" height="244.1"/>
		<path class="st4" d="M1306.5,449.2c-20.6,82.6-104.2,132.8-186.8,112.2c-82.6-20.6-132.8-104.2-112.2-186.8
			s104.2-132.8,186.8-112.2c0,0,0,0,0,0C1276.8,283.1,1327.1,366.7,1306.5,449.2z"/>
		<path class="st4" d="M719.8,432.6c60.2,60.2,60.2,157.7,0,217.9c-60.2,60.2-157.7,60.2-217.9,0c-60.2-60.2-60.2-157.7,0-217.9
			C562.1,372.4,659.6,372.4,719.8,432.6C719.8,432.6,719.8,432.6,719.8,432.6z"/>
		
			<rect x="1467" y="1061.1" transform="matrix(0.884 -0.4675 0.4675 0.884 -368.7613 880.0663)" class="st4" width="244.2" height="244.1"/>
		<path class="st2" d="M1074.7,1643.4c-20.6,82.6-104.2,132.8-186.8,112.2s-132.8-104.2-112.2-186.8
			c20.6-82.6,104.2-132.8,186.8-112.2c0,0,0,0,0,0C1045,1477.2,1095.2,1560.9,1074.7,1643.4z"/>
		<path class="st4" d="M1308.3,1566.6c21.5,82.3-27.9,166.5-110.2,187.9c-82.3,21.5-166.5-27.9-187.9-110.2
			c-21.5-82.3,27.9-166.5,110.2-187.9C1202.7,1434.9,1286.9,1484.3,1308.3,1566.6C1308.3,1566.6,1308.3,1566.6,1308.3,1566.6z"/>
	</g>
</g>
</svg>
