<?xml version="1.0" encoding="utf-8"?>
<!-- Generator: Adobe Illustrator 24.0.2, SVG Export Plug-In . SVG Version: 6.00 Build 0)  -->
<svg version="1.1" id="Layer_1" xmlns="http://www.w3.org/2000/svg" xmlns:xlink="http://www.w3.org/1999/xlink" x="0px" y="0px"
	 viewBox="0 0 598 628" style="enable-background:new 0 0 598 628;" xml:space="preserve">
<style type="text/css">
	.st0{fill:#0084CE;}
</style>
<title>graphic-mission-student</title>
<path class="st0" d="M220.2,288.9v-11.2c-18.7,5.4-44.7-4.4-50.1-23.9l-12.6,43.1c3.6,0.1,7,0.2,10.4,0.2
	C191.9,297.1,206.5,294.4,220.2,288.9z"/>
<path class="st0" d="M168.1,310.3h-0.2c-4.4,0-9.1-0.1-13.9-0.4c-1.2,26.9,16.4,51.1,42.4,58.2l12.5,3.4c3.8,0.8,7.7,1.4,11.5,1.7
	V304C206.3,308.1,188.1,310.3,168.1,310.3z"/>
<path class="st0" d="M241.6,260.8c10.7-4.7,22.6-11.4,36.4-20.8c9.5-6.5,12-19.4,5.5-29c-6.5-9.5-19.4-12-29-5.6l0,0
	c-12.3,8.4-22.2,13.9-29.6,17.1c-2.5,1.1-5.1,2.1-7.7,2.9c0.6-2.6,1.3-5.2,2.3-7.7c2.3-6,5.2-11.7,8.7-17.1l0,0
	c2.5-3.9,5.4-7.6,8.6-11c-0.1,4.9-1.5,9.7-4.2,13.9c-1.3,2-2.6,4.2-3.8,6.3v2.1c7.6-4,14.9-8.5,21.9-13.4c3.6-2.4,7.8-3.9,12.1-4.4
	c-4.3-26.8-14.6-48.2-17.7-54.6c-0.1-0.2-0.1-0.3-0.2-0.5c-11.5,1.3-20.9,6.8-28.7,13c-8.9,7.4-16.6,16.1-22.8,25.8
	c0,0,0,0.1-0.1,0.1c-5.2,7.9-9.6,16.4-12.9,25.3c-3.2,8.8-5.4,17.6-5.4,27c0,8,1.7,17.4,8.6,25.8c3.5,4.2,8,7.4,13,9.4
	c4.8,1.9,9.9,2.9,15.1,2.8C221.4,268.2,230.9,265.5,241.6,260.8z"/>
<path class="st0" d="M358.3,302c22.5-1.5,40.7-7.9,54.2-19.2c6.5-5.4,11.9-12.1,15.8-19.6l13.9,21.7L375,328L358.3,302z"/>
<path class="st0" d="M314.9,234.4l49.7-31.9c7.2,9.3,11.4,21.3,11.2,27.5v0.1c0,1.5-0.2,2.9-0.6,4.3c-0.6,1.2-1,2-3.9,3.6
	c-2.8,1.5-9.5,3.9-22.9,3.9c-3.8,0-7.9-0.2-12.4-0.6c-0.9-0.1-1.9-0.1-2.8-0.1c-4.2,0-8.4,0.9-12.2,2.6L314.9,234.4z"/>
<path class="st0" d="M346.5,138.9h-81.6c5.5,12.7,14,31.8,16.9,58.5c3.2,2.8,6.1,6,8.7,9.4c3.9,5.8,6.1,15.1,4.8,21.9
	c-1.2,8.8-8.1,15.8-16,20c-0.3,0.2-0.1,0.7-0.4,0.9c-3.7,12.2-10.5,23.3-19.6,32.3c-7.9,7.8-18,14.2-30.4,19V593
	c0.3,17.8,15,32,32.8,31.7c17.4-0.3,31.4-14.3,31.7-31.7V357.6h12.1V593c0.3,17.8,15,32,32.8,31.7c17.4-0.3,31.4-14.3,31.7-31.7
	V337.4l-0.5-0.9l-21.9-34.2c-14.1-1.2-34.5-0.2-41.6-19.3c-6.1-16.4,0.9-28.7,7.2-34.1l-8.2-13l-2.8-4.4l4.4-2.8L362,193
	c-2-2.8-3.4-6-4.1-9.3c3.7,2.4,7.2,5.2,10.1,8.5l0,0c10.1,10.5,17.5,27.4,17.1,38c0.1,2.8-0.4,5.5-1.4,8.1c-1.4,3.1-3.1,5.4-8,8.1
	s-13.7,5-27.3,5c-4,0-8.4-0.2-13.2-0.6c-11.5-1-21.6,7.4-22.7,18.9s7.4,21.6,18.9,22.7c5.9,0.5,12.2,1.5,17.6,1.5
	c24.2,0,43.2-6.2,57.6-18.2c6.9-5.7,12.2-13,15.7-21.3c3.1-7.7,4.7-15.9,4.6-24.2c-0.3-25.4-12.1-48.7-28.3-66.4l0,0
	c-4-4.3-8.5-8.3-13.3-11.8c-2.7-2-5.6-3.9-8.5-5.6c-2.4-1.3-4.9-2.5-7.5-3.6c-6.4-2.6-13.3-4-20.2-4.1
	C348.2,138.8,347.3,138.8,346.5,138.9z"/>
<path class="st0" d="M360.4,92.4c-5-11.4,3.2-23.3-7.1-49c-1.3-3.7-3-7.2-4.9-10.5l-0.8-1.4c0,0.1,0,0.1,0,0.2
	C337.2,15,319.5,4,299.4,4c-29.1,0-53.1,23-57.1,52.8c-3.5,16.9,1.1,26.4-3,35.6c-2.3,5.2-7.2,9.1-11.6,6.8
	c2.8,11.3,19.5,17.4,43.2,17.4c1.1,0,2.2-0.1,3.3-0.4c8.4,4.7,17.3,7.2,25.1,7.2s16.9-2.7,25.5-7.4c1.2,0.4,2.6,0.6,3.9,0.6
	c23.7,0,40.4-6.1,43.2-17.4C367.6,101.6,362.7,97.7,360.4,92.4z"/>
</svg>
