<?xml version="1.0" encoding="utf-8"?>
<!-- Generator: Adobe Illustrator 24.0.2, SVG Export Plug-In . SVG Version: 6.00 Build 0)  -->
<svg version="1.1" id="Layer_1" xmlns="http://www.w3.org/2000/svg" xmlns:xlink="http://www.w3.org/1999/xlink" x="0px" y="0px"
	 viewBox="0 0 2000 2000" style="enable-background:new 0 0 2000 2000;" xml:space="preserve">
<style type="text/css">
	.st0{fill:#103C68;}
	.st1{fill:#0084CE;}
	.st2{fill:#FFFFFF;}
	.st3{fill:#A39634;}
	.st4{fill:#122D44;}
</style>
<title>graphic-mission-hire-empower</title>
<g>
	<g id="Layer_1_1_">
		<path class="st0" d="M100,0h1800c55.2,0,100,44.8,100,100v1800c0,55.2-44.8,100-100,100H100c-55.2,0-100-44.8-100-100V100
			C0,44.8,44.8,0,100,0z"/>
		<polyline class="st1" points="113.4,1623.7 239.6,1749.9 113.4,1876 		"/>
		<polyline class="st2" points="366.5,1623.3 239.9,1749.6 113.7,1623.3 		"/>
		<polyline class="st3" points="366.5,1875.6 240.4,1749.4 366.5,1623.3 		"/>
		<polyline class="st4" points="113.4,1876 240,1749.8 366.3,1876 		"/>
		<polyline class="st1" points="366.8,1370.4 492.9,1496.5 366.8,1622.7 		"/>
		<polyline class="st2" points="619.9,1370 493.2,1496.2 367,1370 		"/>
		<polyline class="st3" points="619.9,1622.2 493.7,1496.1 619.9,1370 		"/>
		<polyline class="st4" points="366.8,1622.7 493.4,1496.4 619.6,1622.7 		"/>
		<polyline class="st1" points="620.1,1623.7 746.2,1749.9 620.1,1876 		"/>
		<polyline class="st2" points="873.2,1623.3 746.6,1749.6 620.3,1623.3 		"/>
		<polyline class="st3" points="873.2,1875.6 747.1,1749.4 873.2,1623.3 		"/>
		<polyline class="st4" points="620.1,1876 746.7,1749.8 873,1876 		"/>
		<polyline class="st1" points="873.5,1370.4 999.6,1496.5 873.5,1622.7 		"/>
		<polyline class="st2" points="1126.6,1370 999.9,1496.2 873.7,1370 		"/>
		<polyline class="st3" points="1126.6,1622.2 1000.4,1496.1 1126.6,1370 		"/>
		<polyline class="st4" points="873.5,1622.7 1000.1,1496.4 1126.3,1622.7 		"/>
		<polyline class="st1" points="1126.8,1623.7 1252.9,1749.9 1126.8,1876 		"/>
		<polyline class="st2" points="1379.9,1623.3 1253.3,1749.6 1127.1,1623.3 		"/>
		<polyline class="st3" points="1379.9,1875.6 1253.8,1749.4 1379.9,1623.3 		"/>
		<polyline class="st4" points="1126.8,1876 1253.4,1749.8 1379.7,1876 		"/>
		<polyline class="st1" points="1633.5,1623.7 1759.6,1749.9 1633.5,1876 		"/>
		<polyline class="st2" points="1886.6,1623.3 1760,1749.6 1633.7,1623.3 		"/>
		<polyline class="st3" points="1886.6,1875.6 1760.4,1749.4 1886.6,1623.3 		"/>
		<polyline class="st4" points="1633.5,1876 1760.1,1749.8 1886.3,1876 		"/>
		<polyline class="st1" points="1380.1,1370.4 1506.3,1496.5 1380.1,1622.7 		"/>
		<polyline class="st2" points="1633.2,1370 1506.6,1496.2 1380.4,1370 		"/>
		<polyline class="st3" points="1633.2,1622.2 1507.1,1496.1 1633.2,1370 		"/>
		<polyline class="st4" points="1380.1,1622.7 1506.8,1496.4 1633,1622.7 		"/>
		<polyline class="st1" points="620.1,1117.1 746.2,1243.2 620.1,1369.3 		"/>
		<polyline class="st2" points="873.2,1116.6 746.6,1242.9 620.3,1116.6 		"/>
		<polyline class="st3" points="873.2,1368.9 747.1,1242.8 873.2,1116.6 		"/>
		<polyline class="st4" points="620.1,1369.3 746.7,1243.1 873,1369.3 		"/>
		<polyline class="st1" points="1126.8,1117.1 1252.9,1243.2 1126.8,1369.3 		"/>
		<polyline class="st2" points="1379.9,1116.6 1253.3,1242.9 1127.1,1116.6 		"/>
		<polyline class="st3" points="1379.9,1368.9 1253.8,1242.8 1379.9,1116.6 		"/>
		<polyline class="st4" points="1126.8,1369.3 1253.4,1243.1 1379.7,1369.3 		"/>
		<polyline class="st1" points="873.5,863.7 999.6,989.8 873.5,1116 		"/>
		<polyline class="st2" points="1126.6,863.3 999.9,989.5 873.7,863.3 		"/>
		<polyline class="st3" points="1126.6,1115.6 1000.4,989.4 1126.6,863.3 		"/>
		<polyline class="st4" points="873.5,1116 1000.1,989.7 1126.3,1116 		"/>
	</g>
</g>
</svg>
