<?xml version="1.0" encoding="utf-8"?>
<!-- Generator: Adobe Illustrator 24.0.2, SVG Export Plug-In . SVG Version: 6.00 Build 0)  -->
<svg version="1.1" id="Layer_1" xmlns="http://www.w3.org/2000/svg" xmlns:xlink="http://www.w3.org/1999/xlink" x="0px" y="0px"
	 viewBox="0 0 2000 2000" style="enable-background:new 0 0 2000 2000;" xml:space="preserve">
<style type="text/css">
	.st0{clip-path:url(#SVGID_2_);}
	.st1{clip-path:url(#SVGID_4_);}
	.st2{fill:#E0CB26;}
	.st3{fill:#103C68;}
	.st4{fill:#A39634;}
	.st5{fill:#0084CE;}
	.st6{fill:#FFFFFF;}
</style>
<title>graphic-mission-optimize-results</title>
<g>
	<defs>
		<path id="SVGID_1_" d="M100,0h1800c55.2,0,100,44.8,100,100v1800c0,55.2-44.8,100-100,100H100c-55.2,0-100-44.8-100-100V100
			C0,44.8,44.8,0,100,0z"/>
	</defs>
	<clipPath id="SVGID_2_">
		<use xlink:href="#SVGID_1_"  style="overflow:visible;"/>
	</clipPath>
	<g class="st0">
		<g>
			<defs>
				<polyline id="SVGID_3_" points="2033.3,2043.6 -32,2043.6 -32,-37.3 2033.3,-37.3 				"/>
			</defs>
			<clipPath id="SVGID_4_">
				<use xlink:href="#SVGID_3_"  style="overflow:visible;"/>
			</clipPath>
			<g class="st1">
				
					<rect x="688.2" y="-337.2" transform="matrix(0.7071 -0.7071 0.7071 0.7071 -216.1132 714.4805)" class="st2" width="132.4" height="1910.5"/>
				
					<rect x="1530.7" y="-1179.7" transform="matrix(0.7071 -0.7071 0.7071 0.7071 626.4049 1063.4727)" class="st2" width="132.4" height="1910.5"/>
				
					<rect x="781.8" y="-430.8" transform="matrix(0.7071 -0.7071 0.7071 0.7071 -122.4942 753.2537)" class="st3" width="132.4" height="1910.5"/>
				
					<rect x="875.4" y="-524.4" transform="matrix(0.7071 -0.7071 0.7071 0.7071 -28.8739 792.0298)" class="st4" width="132.4" height="1910.5"/>
				
					<rect x="969.1" y="-618" transform="matrix(0.7071 -0.7071 0.7071 0.7071 64.7281 830.8159)" class="st5" width="132.4" height="1910.5"/>
				
					<rect x="1062.7" y="-711.6" transform="matrix(0.7071 -0.7071 0.7071 0.7071 158.3372 869.585)" class="st6" width="132.4" height="1910.5"/>
				
					<rect x="1156.3" y="-805.2" transform="matrix(0.7071 -0.7071 0.7071 0.7071 251.9616 908.3511)" class="st3" width="132.4" height="1910.5"/>
				
					<rect x="1249.9" y="-898.8" transform="matrix(0.7071 -0.7071 0.7071 0.7071 345.5665 947.1443)" class="st4" width="132.4" height="1910.5"/>
				
					<rect x="1343.5" y="-992.5" transform="matrix(0.7071 -0.7071 0.7071 0.7071 439.1853 985.904)" class="st6" width="132.4" height="1910.5"/>
				
					<rect x="571.2" y="-300.1" transform="matrix(0.7071 -0.7071 0.7071 0.7071 -300.019 652.296)" class="st6" width="132.4" height="1976.7"/>
				
					<rect x="1607" y="-1330" transform="matrix(0.7071 -0.7071 0.7071 0.7071 731.62 1083.1071)" class="st6" width="132.4" height="1976.7"/>
				
					<rect x="1437.1" y="-1086.1" transform="matrix(0.7071 -0.7071 0.7071 0.7071 532.7999 1024.6796)" class="st5" width="132.4" height="1910.5"/>
				
					<rect x="-318" y="695.6" transform="matrix(0.7071 -0.7071 0.7071 0.7071 -1241.3296 304.8854)" class="st4" width="130.8" height="1910.5"/>
				
					<rect x="513.6" y="-138.9" transform="matrix(0.7071 -0.7071 0.7071 0.7071 -407.6644 648.5523)" class="st4" width="130.8" height="1910.5"/>
				
					<rect x="-225.5" y="603.1" transform="matrix(0.7071 -0.7071 0.7071 0.7071 -1148.8292 343.2)" class="st3" width="130.8" height="1910.5"/>
				
					<rect x="-133" y="510.6" transform="matrix(0.7071 -0.7071 0.7071 0.7071 -1056.3287 381.5228)" class="st2" width="130.8" height="1910.5"/>
				
					<rect x="-40.6" y="418.1" transform="matrix(0.7071 -0.7071 0.7071 0.7071 -963.8784 419.8167)" class="st5" width="130.8" height="1910.5"/>
				
					<rect x="51.9" y="325.6" transform="matrix(0.7071 -0.7071 0.7071 0.7071 -871.3667 458.1325)" class="st6" width="130.8" height="1910.5"/>
				
					<rect x="144.4" y="233.2" transform="matrix(0.7071 -0.7071 0.7071 0.7071 -778.8933 496.4358)" class="st3" width="130.8" height="1910.5"/>
				
					<rect x="236.9" y="140.7" transform="matrix(0.7071 -0.7071 0.7071 0.7071 -686.4087 534.7462)" class="st4" width="130.8" height="1910.5"/>
				
					<rect x="329.4" y="48.2" transform="matrix(0.7071 -0.7071 0.7071 0.7071 -593.9183 573.0508)" class="st6" width="130.8" height="1910.5"/>
				
					<rect x="-410.5" y="788.1" transform="matrix(0.7071 -0.7071 0.7071 0.7071 -1333.7942 266.5891)" class="st6" width="130.8" height="1910.5"/>
				
					<rect x="422.8" y="-44.9" transform="matrix(0.7071 -0.7071 0.7071 0.7071 -500.7565 611.8608)" class="st5" width="130.8" height="1910.5"/>
			</g>
		</g>
		<polyline class="st5" points="-17.1,2017.8 26,1973.8 1021.2,978.3 1215.3,1172.2 1953.6,434 1998.7,389 1999.1,2016.7 
			-16.7,2016.7 		"/>
		<rect x="1973.4" y="339" class="st5" width="118.9" height="1681.1"/>
	</g>
</g>
</svg>
