<svg id="Layer_1" data-name="Layer 1" xmlns="http://www.w3.org/2000/svg" viewBox="0 0 800 600"><defs><style>.cls-1{fill:#040404;}.cls-2{fill:#f05829;}.cls-3{fill:#fefefe;}</style></defs><title>events-sre-con</title><path class="cls-1" d="M527.28,437.61v-4.56q0-36.15,0-72.3c0-7.1.77-7.86,7.79-7.86,4.56,0,9.13,0,13.69,0,3.35,0,5,1.64,5.07,4.94,0,1,0,2,0,3V486.19c0,7.09-.73,7.8-7.83,7.81-4.28,0-8.56-.05-12.84,0a6.5,6.5,0,0,1-6.24-3.58c-13.85-23.86-27.82-47.65-41.67-71.52-1.88-3.25-3.32-6.76-5.62-10.08v77.58c0,6.65-.95,7.57-7.7,7.58-4.13,0-8.27,0-12.41,0-5.36-.05-6.43-1.12-6.43-6.57q0-39.36,0-78.73,0-24.17,0-48.34c0-6.88.6-7.46,7.64-7.46,4.43,0,8.85,0,13.27,0,2.28,0,4.07.57,5.32,2.75q21.59,37.31,43.24,74.56c1.4,2.42,2.5,5,3.74,7.52Z"/><path class="cls-1" d="M337,266q0-31.65,0-63.31c0-6.29.9-7.29,7.08-7.18,18.67.32,37.36-.9,56,.72,8.3.73,16.27,2.81,23.42,7.27,9.44,5.89,14.29,14.42,14.37,25.57,0,6.14-.12,12.27,0,18.4.35,14.34-6.38,24.19-19.22,29.87-3.07,1.36-3.23,2.44-2,5.22,6.75,15.35,13.32,30.79,19.93,46.2,2.35,5.49.95,7.64-5,7.69-4.71,0-9.44-.31-14.11.1s-6.92-1.63-8.59-5.73c-5.88-14.47-12.2-28.76-17.94-43.29-1.53-3.87-3.47-5.07-7.43-4.8a124.44,124.44,0,0,1-15,0c-2.88-.14-3.53.82-3.5,3.57.13,14.54.07,29.09.06,43.63,0,5.53-1,6.48-6.42,6.51q-7.71,0-15.4,0c-5.12,0-6.28-1.14-6.29-6.29Q336.94,298.12,337,266Zm28.12-26.92c0,6,.05,12,0,18,0,1.68.2,2.59,2.26,2.54,8.13-.17,16.29.25,24.38-.33,12.88-.92,18.18-6.38,18.31-17.78,0-2,.08-4,0-6-.43-8.9-3.84-13.29-12.53-15.35-10.11-2.41-20.45-.79-30.67-1.22-2.18-.09-1.68,1.45-1.68,2.62C365.07,227.41,365.08,233.26,365.08,239.11Z"/><path class="cls-1" d="M437.84,423.26v34.65c0,18.92-8,29.71-26.47,34.59-17,4.5-34.14,4.51-51-.92C344.21,486.36,337,475.92,337,459.06c0-24.38,0-48.76,0-73.15,0-13.57,6.38-23.05,18.44-28.72,12.48-5.86,25.85-6.41,39.31-5.67,8.42.46,16.68,1.89,24.42,5.53,12.27,5.77,18.73,15.3,18.72,29Zm-28.26.39c0-11,0-21.95,0-32.92,0-7.22-3.17-11.8-10.06-14.13a38,38,0,0,0-23.92-.16c-6.74,2.1-10.29,6.85-10.33,14q-.18,32.93,0,65.83c0,7.4,3.6,12,10.69,14.18a37.82,37.82,0,0,0,23.52-.24c6.93-2.36,10.08-6.85,10.1-14.1C409.61,445.31,409.58,434.48,409.58,423.65Z"/><path class="cls-1" d="M453.1,265.91q0-31.67,0-63.33c0-6.33.76-7.06,7.18-7.06q42.38,0,84.73,0c5.8,0,6.68.89,6.69,6.63,0,3.57,0,7.14,0,10.7,0,5-1,6.05-6,6.07-16.41.05-32.81,0-49.21,0-4.14,0-8.28.08-12.41,0-2-.05-2.76.41-2.73,2.59.12,9.41.18,18.83,0,28.24-.07,3.18,1.84,2.55,3.59,2.55q28.25,0,56.48,0c6.45,0,7,.61,7.06,7.11,0,3.14,0,6.28,0,9.41-.06,4.8-1.25,6-6.11,6-16.84,0-33.67,0-50.5.05-3.37,0-8-1.52-9.78.66s-.63,6.5-.64,9.89c-.05,8,.12,16-.09,24-.08,3,.78,3.76,3.76,3.74,20.54-.14,41.08-.08,61.62-.07,6.52,0,7.15.64,7.18,7q0,4.71,0,9.42c0,6.17-.88,7-7.3,7H463.11c-10,0-10,0-10-9.81Z"/><path class="cls-1" d="M322.43,295.71c0,3.36,0,5.79,0,8.21.15,13.62-6.15,23.54-18.53,28.52-20.36,8.19-41.22,8.26-61.58-.07-12.51-5.12-18.91-15.05-18.65-28.88.08-4.27,0-8.55,0-12.83,0-3.17,1.55-4.85,4.64-4.89q9.19-.12,18.39,0c2.9,0,4.36,1.75,4.39,4.67,0,3.56.07,7.13.12,10.69.1,6.18,3.34,10.26,9,12.19a38.79,38.79,0,0,0,25.18.11c6.35-2.09,9.31-6.55,9.39-13.23.15-12.31-2-15.59-13.58-20s-23.13-8.72-34.67-13.14c-13.3-5.09-20.23-15.21-20.21-29.55,0-5.27-.28-10.62.51-15.79,2.14-14.16,11.59-21.82,24.67-25.21a84.8,84.8,0,0,1,46,.61c15.95,4.71,23.81,15.56,23.87,32.23,0,12.72.64,12.25-12,12.13-3.56,0-7.13,0-10.69,0-3.18,0-4.77-1.49-4.69-4.69,0-.43,0-.86,0-1.28-.12-13.66-4.59-18.18-18.49-18.77a32.2,32.2,0,0,0-13,1.69c-6.19,2.35-8.67,6.38-8.69,14.08,0,7.38,2.05,10.79,8.51,13.14,12.29,4.46,24.68,8.62,36.93,13.18,11.18,4.17,20.06,10.86,22.82,23.31C323,286.91,322.22,291.81,322.43,295.71Z"/><path class="cls-1" d="M225.1,423.38q0-19.26,0-38.52c0-13.57,6.26-23.52,18.79-28.31,20-7.66,40.53-7.72,60.47.31,11.89,4.79,18,14.45,18.06,27.5,0,3.57-.11,7.14,0,10.7s-1.42,5.35-5,5.35H300.35c-3.51,0-5.2-1.86-5.3-5.28,0-1.29,0-2.57,0-3.85,0-9.21-3.46-13.76-12.35-15.73a38.42,38.42,0,0,0-17,0c-8.66,2-12.24,6.49-12.3,15.42-.08,14,0,28,0,41.94q0,10.92,0,21.83c0,10.31,3.76,15.12,13.78,16.77,6.35,1,12.8,1.08,19-1.33,5.88-2.28,8.76-6.44,8.87-12.74.05-2.85-.09-5.71,0-8.56.16-3.51,1.75-5.47,5.65-5.32,5.42.19,10.85.16,16.26,0,3.77-.11,5.61,1.32,5.49,5.22-.19,6.27.38,12.63-.47,18.79-1.64,11.85-9,19.66-20,23.41-18.91,6.44-38.12,6.58-57-.26-13.42-4.87-19.91-15.06-19.92-29.28Q225.09,442.43,225.1,423.38Z"/><path class="cls-2" d="M618.91,494c-12.11,0-24.23,0-36.35,0-5.59,0-6.76-1.23-6.78-6.75,0-3.71,0-7.41,0-11.12,0-2.71,1.28-4.29,4-4.51,1.41-.11,2.83-.24,4.25-.24h69.7c7.42,0,8.22.83,8.22,8.41v6c0,7.32-1,8.23-8.45,8.24Z"/><path class="cls-1" d="M372.42,131.9c-3.42,0-6.84-.07-10.26,0-1,0-2.46-.74-3,.66-.47,1.16.54,2.15,1.18,3.05,3.23,4.53,7.94,5.7,13.14,5.53a28.19,28.19,0,0,0,4.65-.68c4.09-.81,6.08,1,6.07,5.26,0,1.45-.78,1.57-1.74,1.89-6.91,2.23-13.89,3.23-21,1-8.56-2.66-13.35-10.28-13-20.7.15-4.87.95-9.61,3.51-13.92,5-8.46,16.34-12.3,25.37-8.37,7.07,3.07,8.41,9.56,9,16.25.86,10,.75,10-9.17,10Zm-4.77-8.43a53.82,53.82,0,0,1,6,0c2.76.32,3.08-1,2.57-3.18-.87-3.79-2.78-6.51-6.95-7s-7.89,2-9.63,6.22c-1.09,2.62-1.2,4.35,2.51,3.92A46.5,46.5,0,0,1,367.65,123.47Z"/><path class="cls-1" d="M263.21,127.33c0,5.84.07,11.68,0,17.51,0,1.38,1,3.64-1,4s-5.09,1.31-6.36-.61c-1.55-2.34-2.73-1.18-4.18-.64-4.58,1.71-9.2,3-14.15,1.87-6.46-1.44-10.16-5-10.68-12.6-.68-9.93-.29-19.92-.41-29.89,0-1.52.67-1.8,2-2,7.76-.89,8.12-.63,8.12,7,0,6.84,0,13.67,0,20.51,0,3.33.88,6.2,4.45,7.46,2.67,1,10.39-.37,11.82-2,.86-1,.51-2.17.51-3.27,0-8.54.15-17.09-.05-25.63-.07-3.06.53-4.28,3.91-4.14,6,.26,6,0,6,6.13Z"/><path class="cls-1" d="M412.86,126.79c0-5.85-.07-11.7.06-17.55,0-1.38-1.07-3.64,1.06-4s5-1.24,6.43.67,2.39,1.26,3.86.65a26.6,26.6,0,0,1,11.65-2.32c7.52.4,12,4.15,13.09,11.6,1.55,10.34.35,20.79.68,31.19.05,1.47-.61,1.86-2,2-7.43.95-8,.53-8-6.78,0-6.71,0-13.41-.05-20.12,0-3.44-.73-6.79-4.39-8-4-1.35-7.91-.27-11.53,1.68-1.39.74-.82,2.3-.82,3.51,0,8.56-.15,17.12,0,25.68.07,3.07-.57,4.65-3.94,4a6.1,6.1,0,0,0-2.13,0c-3.07.49-4.26-.48-4.09-3.85C413.08,139.07,412.86,132.92,412.86,126.79Z"/><path class="cls-1" d="M553.9,105.64c-4.42,6.11-8.5,12.1-13,17.79-2.25,2.86-2.6,4.84-.13,7.89,4.35,5.38,8.14,11.23,12.74,17.68H542.74c-1.61,0-2-1.38-2.75-2.37-2.75-3.78-5.47-7.59-8.34-11.58-1.66,2.4-3.5,4.33-4.5,6.63-3.08,7.1-8.43,8.72-15.9,6.81,3.46-4.9,6.85-9.71,10.27-14.52,4.71-6.62,4.71-6.61-.13-13.39q-5.08-7.14-10.11-14.29c-.14-.2-.11-.52-.25-1.24,3.15,0,6.23.08,9.3,0,1.72-.06,2.54.9,3.39,2.12,2.36,3.39,4.89,6.66,7.15,10.11,1.35,2,2.27,2.74,3.72.12,1-1.86,2.67-3.41,3.53-5.33C541.22,105.13,546.56,103.68,553.9,105.64Z"/><path class="cls-1" d="M305.5,149.9c-4.75-.07-9.24-1.35-13.73-2.76-3.6-1.14-1.86-3.3-1-4.94s0-5.12,4.06-3.44c4.32,1.79,8.87,3.25,13.68,2.32,2.34-.46,5-.87,5.28-4,.22-2.9-2.45-3.19-4.29-4-3.78-1.62-7.9-2.29-11.58-4.26-4.18-2.23-7-5.27-7.14-10.27-.14-5.27,2.48-9.06,6.87-11.42,7.46-4,15.33-3.49,23.22-1.3,1.33.37,1.66,1.06,1.34,2.51-1.22,5.61-1.74,6-7.34,5a22.58,22.58,0,0,0-9.75-.07c-2,.54-3.89,1.62-4,3.86-.14,2,1.89,2.69,3.42,3.31,4,1.6,8,3,11.92,4.57,5,2,8.25,5.5,8.05,11.31-.19,5.47-3.41,9.86-8.89,11.84A30,30,0,0,1,305.5,149.9Z"/><path class="cls-1" d="M478.07,127.33c0-6.27.15-12.54-.07-18.8-.1-2.83.73-3.89,3.53-3.5a13.42,13.42,0,0,0,3.41,0c2.66-.35,3.36.73,3.33,3.35q-.21,18.59,0,37.17c0,2.87-.85,3.86-3.61,3.5a15,15,0,0,0-3.84,0c-2.37.3-2.85-.78-2.8-2.92C478.14,139.87,478.07,133.6,478.07,127.33Z"/><path class="cls-3" d="M365.08,239.11c0-5.85,0-11.7,0-17.55,0-1.17-.5-2.71,1.68-2.62,10.22.43,20.56-1.19,30.67,1.22,8.69,2.06,12.1,6.45,12.53,15.35.1,2,0,4,0,6-.13,11.4-5.43,16.86-18.31,17.78-8.09.58-16.25.16-24.38.33-2.06.05-2.28-.86-2.26-2.54C365.13,251.09,365.08,245.1,365.08,239.11Z"/><path class="cls-3" d="M409.58,423.65c0,10.83,0,21.66,0,32.48,0,7.25-3.17,11.74-10.1,14.1a37.82,37.82,0,0,1-23.52.24c-7.09-2.15-10.65-6.78-10.69-14.18q-.18-32.91,0-65.83c0-7.17,3.59-11.92,10.33-14a38,38,0,0,1,23.92.16c6.89,2.33,10,6.91,10.06,14.13C409.6,401.7,409.58,412.68,409.58,423.65Z"/><path class="cls-3" d="M367.65,123.47a46.5,46.5,0,0,0-5.54,0c-3.71.43-3.6-1.3-2.51-3.92,1.74-4.21,5.43-6.68,9.63-6.22s6.08,3.17,6.95,7c.51,2.21.19,3.5-2.57,3.18A53.82,53.82,0,0,0,367.65,123.47Z"/><path class="cls-3" d="M563.43,362.16c-.83,1.41,2.26,1.82.94,3s-3,.84-4.45.2c-4-1.75-4.35-6.79-.26-10.17v9.53c1.51-1.46,1.11-5.15,3.87-2.54Z"/><path class="cls-3" d="M565.27,356.44c-.56-.27-1.13-.52-1.67-.82,0,0,.1-.56.25-.62.9-.35,1.49.22,2,.8Z"/></svg>