<svg id="Layer_1" data-name="Layer 1" xmlns="http://www.w3.org/2000/svg" viewBox="0 0 800 600"><defs><style>.cls-1{fill:#0ca6d9;}</style></defs><title>events-tech-inclusion</title><path d="M266.06,500.62V481c0-.71,0-.71.7-.71h7.45c.6,0,.62,0,.62.63v14.67c0,.65,0,.66.65.66h15c.64,0,.64,0,.64-.63V481c0-.73,0-.74.74-.74h7.5c.64,0,.67,0,.67.67v39.41c0,.66,0,.68-.7.68h-7.54c-.66,0-.67,0-.67-.66V504.66c0-.67,0-.67-.68-.67h-15c-.65,0-.65,0-.65.65v15.69c0,.68,0,.68-.69.68h-7.49c-.57,0-.59,0-.59-.6Z"/><path d="M184.56,481c0-.72,0-.72.7-.72h29.13c.68,0,.7,0,.7.68v6.26c0,.62,0,.65-.65.65H194c-.71,0-.71,0-.71.69v7.32c0,.64,0,.64.63.64h18.51c.38,0,.53.14.52.52v6.43a.65.65,0,0,1-.64.65H193.79c-.33,0-.49.09-.47.45v8.19c0,.66,0,.66.64.66h20.41c.71,0,.71,0,.71.7v6.35c0,.54,0,.57-.58.57H185.16c-.59,0-.6,0-.6-.63Z"/><path d="M230.66,500.55a13.5,13.5,0,0,0,2.37,8.23,11.56,11.56,0,0,0,4.28,3.78,11.72,11.72,0,0,0,5.94,1.36,10.7,10.7,0,0,0,9.29-5.52c.17-.29.33-.36.63-.22,2.25,1.1,4.49,2.2,6.74,3.28.34.16.37.33.18.64a21.07,21.07,0,0,1-5.44,6.11,17.71,17.71,0,0,1-6.32,2.92,22.69,22.69,0,0,1-18.78-3.7,19.76,19.76,0,0,1-6.2-7.93,21,21,0,0,1-1.73-7.64,25.55,25.55,0,0,1,.22-4.79,20.32,20.32,0,0,1,3.16-8.28,20,20,0,0,1,5.37-5.47,22,22,0,0,1,10.4-3.65,24.67,24.67,0,0,1,6.36.25,17.16,17.16,0,0,1,6.16,2.27,20.73,20.73,0,0,1,5.18,4.66,26.46,26.46,0,0,1,1.61,2.31c.21.33.18.51-.18.69-2.27,1.1-4.53,2.22-6.79,3.34-.27.13-.4,0-.53-.19a11.1,11.1,0,0,0-11.09-5.49,11.6,11.6,0,0,0-5.93,2.39,12.3,12.3,0,0,0-4.09,5.72A13,13,0,0,0,230.66,500.55Z"/><path d="M165.33,504.53v15.78c0,.7,0,.7-.71.7h-7.45c-.69,0-.69,0-.69-.68V488.86c0-.16,0-.33,0-.49s-.11-.35-.35-.34H144.75c-.68,0-.69,0-.69-.7,0-2.14,0-4.29,0-6.43,0-.61,0-.65.64-.65H177c.61,0,.64,0,.64.66,0,2.17,0,4.35,0,6.52,0,.57,0,.6-.6.6H166c-.48,0-.63,0-.63.63Z"/><path d="M354.89,494.06a1.29,1.29,0,0,0-.09.7q0,12.72,0,25.43c0,.82,0,.82-.84.82h-7.33c-.64,0-.66,0-.66-.66V480.88c0-.64.05-.68.71-.69h7.72a1,1,0,0,1,.93.49l6.23,8.7c2.52,3.52,5,7.05,7.54,10.58q2.18,3,4.37,6.07a.92.92,0,0,0,.14.14,1,1,0,0,0,.07-.59V480.93c0-.68.06-.73.72-.74h7.68c.35,0,.51.16.49.51v39.42c0,.11,0,.23,0,.34.05.43-.16.56-.57.56H374.5a.84.84,0,0,1-.77-.4l-8-11.25q-3.57-5-7.15-10C357.39,497.61,356.16,495.86,354.89,494.06Z"/><path d="M505.33,493.1c0,3.77,0,7.54,0,11.3a21.54,21.54,0,0,1-.76,6.14,14.27,14.27,0,0,1-8.16,9.54,20.92,20.92,0,0,1-6.33,1.56,20,20,0,0,1-3.45.12,21.34,21.34,0,0,1-8.4-1.84,14.11,14.11,0,0,1-6.85-6.82,18,18,0,0,1-1.57-5.67,26.08,26.08,0,0,1-.15-2.92V481a.84.84,0,0,1,.85-.84h7.23c.86,0,.86,0,.86.84q0,11.69,0,23.37a11.58,11.58,0,0,0,.88,4.62,7.5,7.5,0,0,0,4.65,4.33,11.38,11.38,0,0,0,5.49.35c3.88-.75,6.11-3.59,6.63-7.31a25.78,25.78,0,0,0,.16-3.51V481c0-.83,0-.83.84-.83h7.14c.95,0,.95,0,.95.93Z"/><path d="M412.11,479.58a19.81,19.81,0,0,1,6.65,1,16.06,16.06,0,0,1,5.37,3,21,21,0,0,1,4.69,5.39c.32.53.31.63-.28.92-2.19,1.07-4.39,2.13-6.58,3.22-.33.16-.47,0-.62-.22a11.16,11.16,0,0,0-8.12-5.42,12.11,12.11,0,0,0-4.37.22,11.82,11.82,0,0,0-8.26,7,14.5,14.5,0,0,0-.81,9.47,12,12,0,0,0,7.37,8.83,11.48,11.48,0,0,0,8.45.22,10.5,10.5,0,0,0,5.71-4.8c.21-.37.42-.41.78-.23q3.27,1.61,6.55,3.17c.43.21.46.4.23.78a19.74,19.74,0,0,1-7.13,7.16,18.43,18.43,0,0,1-7.17,2.27,25.58,25.58,0,0,1-2.77.17,22.17,22.17,0,0,1-9.4-1.92,19.75,19.75,0,0,1-9.35-8.43,20.59,20.59,0,0,1-2.59-8.12,22.3,22.3,0,0,1,1.3-10.71,19.48,19.48,0,0,1,7.95-9.68,21.74,21.74,0,0,1,8.28-3.08A27.3,27.3,0,0,1,412.11,479.58Z"/><path d="M435,500.59V481c0-.78,0-.79.8-.79H443c.84,0,.85,0,.85.84v31.25a4,4,0,0,1,0,.49c0,.37.15.49.5.48h18.45c.75,0,.78,0,.78.77q0,3.18,0,6.36c0,.6,0,.63-.64.63H435.69c-.64,0-.66,0-.66-.66Z"/><path d="M327.55,500.58V481c0-.77,0-.78.8-.78h7.33c.66,0,.7.05.7.69v39.47c0,.64,0,.66-.65.66h-7.34c-.84,0-.84,0-.84-.82Z"/><path d="M647,506.34a1,1,0,0,0,.09-.6q0-12.36,0-24.72v-.47c0-.22.12-.31.32-.32h7.84c.62,0,.65,0,.65.65v39.49c0,.66,0,.66-.67.66h-7.17a1.07,1.07,0,0,1-1-.51c-1.08-1.55-2.18-3.08-3.27-4.62q-2.52-3.55-5.05-7.09l-4.92-6.95q-2.7-3.81-5.42-7.61c-.05-.07-.09-.19-.19-.17s-.09.15-.09.24,0,.24,0,.35v25.67c0,.68,0,.68-.67.68h-7.57c-.55,0-.58,0-.58-.58V480.83c0-.57,0-.61.61-.61h7.81a1.07,1.07,0,0,1,1,.5q4.57,6.43,9.19,12.84,3.09,4.31,6.16,8.63l2.81,3.93C646.94,506.17,647,506.23,647,506.34Z"/><path d="M569,500.67a20.73,20.73,0,0,1,1.41-8.17,19.76,19.76,0,0,1,5.89-8.15,20.6,20.6,0,0,1,8-4,24.25,24.25,0,0,1,7.73-.68,22.3,22.3,0,0,1,6.21,1.28,20.08,20.08,0,0,1,6.65,4,19.79,19.79,0,0,1,5.33,7.8,22.36,22.36,0,0,1,1.25,5.3,21.83,21.83,0,0,1,.1,4.57,21.54,21.54,0,0,1-2.13,7.89,19.88,19.88,0,0,1-4.13,5.62,20.32,20.32,0,0,1-6.06,4,21.57,21.57,0,0,1-5.67,1.54,26,26,0,0,1-5.92.07,22.16,22.16,0,0,1-6.41-1.64,20,20,0,0,1-8.16-6.39,20.42,20.42,0,0,1-4.07-11.5C569,501.62,569,501.14,569,500.67Zm21.22,13.21a12.6,12.6,0,0,0,4.81-.83,11.24,11.24,0,0,0,4.26-3,13.37,13.37,0,0,0,3.23-8.37,15.09,15.09,0,0,0-1.67-8.15,11.45,11.45,0,0,0-4.45-4.6,11.89,11.89,0,0,0-5.23-1.51,12.39,12.39,0,0,0-6.91,1.44,11.14,11.14,0,0,0-4.61,4.76,15.4,15.4,0,0,0-1.38,10,13.09,13.09,0,0,0,2.92,6.32,11.27,11.27,0,0,0,4.07,3A12.44,12.44,0,0,0,590.18,513.88Z"/><path d="M521.85,491.35a3,3,0,0,0,2.12,2.89,31.84,31.84,0,0,0,3.91,1.27c2.22.59,4.47,1,6.67,1.7a23,23,0,0,1,4.86,1.88,11.7,11.7,0,0,1,4.73,4.6,8.66,8.66,0,0,1,1,3.6,15.76,15.76,0,0,1-.15,3.94,11.61,11.61,0,0,1-3.3,6.27,14.43,14.43,0,0,1-7.57,3.78,30,30,0,0,1-4.12.45,27.4,27.4,0,0,1-6.07-.34,22.42,22.42,0,0,1-8.55-3.07,20.41,20.41,0,0,1-3.61-2.82.37.37,0,0,1-.06-.57q2.2-3,4.38-6.07c.17-.24.3-.26.52,0a17.66,17.66,0,0,0,8.49,4.75,15.78,15.78,0,0,0,7,.2,6,6,0,0,0,3.35-1.92,3.41,3.41,0,0,0-1.15-5.39,23.26,23.26,0,0,0-4.77-1.66,85.33,85.33,0,0,1-8.89-2.45,12.37,12.37,0,0,1-6.3-4.75,8.7,8.7,0,0,1-1.39-4.33,11.93,11.93,0,0,1,.28-4.12,11.21,11.21,0,0,1,2.27-4.4,14.29,14.29,0,0,1,7.33-4.43,23.5,23.5,0,0,1,8-.59,24.13,24.13,0,0,1,5.7,1.09,20.65,20.65,0,0,1,7.57,4.32.3.3,0,0,1,0,.47c-1.49,2-3,3.92-4.48,5.89-.22.28-.38.19-.59,0a16.15,16.15,0,0,0-6.52-3.5,17.14,17.14,0,0,0-5.91-.64,6.16,6.16,0,0,0-3.26,1.08A3.5,3.5,0,0,0,521.85,491.35Z"/><path d="M560.51,500.61v19.73c0,.68,0,.68-.66.68h-7.57c-.55,0-.58,0-.58-.58V480.8c0-.53,0-.58.6-.58h7.64c.55,0,.57,0,.57.59Z"/><path class="cls-1" d="M394.68,66.86c10,5.87,20,11.81,30.09,17.57,3.58,2,4.85,3.51,1,6.94-8.07,7.11-15.87,14.56-22.47,23.12-2.62,3.4-5.24,3.67-8.83,1.5-7.91-4.8-15.9-9.48-24-13.91-3.89-2.12-4.26-4.25-1.5-7.52,7.77-9.19,15.46-18.46,23.18-27.7Z"/><path class="cls-1" d="M212.42,242.65c9.16-5.24,18.37-10.38,27.44-15.77,4-2.36,6.52-2.2,8.57,2.4,4.3,9.67,9.88,18.65,15.77,27.4,1.91,2.84,2.25,4.78-1.23,6.7-8.29,4.59-16.51,9.31-24.59,14.24-3.92,2.39-6.16,1.33-8.28-2.35-5.79-10.07-11.77-20-17.68-30Z"/><path class="cls-1" d="M398.63,327.13c0,5.16-.08,10.33,0,15.49.06,3.58-1.48,5.63-5,6.28-10.79,2-21.55,4-32.34,6-3.58.65-5.26-1.13-5.26-4.63q0-14.85,0-29.69c0-3.32,1.62-5.08,4.92-5.65a249.9,249.9,0,0,0,31.93-7.82c4.53-1.41,5.89.36,5.81,4.57C398.56,316.81,398.64,322,398.63,327.13Z"/><path class="cls-1" d="M397.39,174.76c0-20.43,0-20.47,20-24.47,5.47-1.1,11-1.77,16.51-2.82,4.06-.78,6.2.37,6.16,4.8q-.1,14.52,0,29c0,3.7-1.77,5.34-5.28,6a227.13,227.13,0,0,0-31.25,7.85c-4.18,1.4-6.17.19-6.14-4.26C397.41,185.51,397.39,180.13,397.39,174.76Z"/><path class="cls-1" d="M240.76,327.07c0-5.15.09-10.31,0-15.46-.09-4.28,1.36-5.95,5.82-4.48a211.36,211.36,0,0,0,31.84,8c3.61.6,5.08,2.72,5.06,6.25q-.06,14.19,0,28.36c0,4.25-2,5.81-6.09,5-10.13-1.91-20.25-3.88-30.41-5.57-4.76-.8-6.5-3.31-6.26-8S240.75,331.8,240.76,327.07Z"/><path class="cls-1" d="M556.07,175.39c0,5.37,0,10.73,0,16.1,0,3.7-1.81,5-5.42,3.77a215.2,215.2,0,0,0-32.38-8.33c-3.22-.57-4.8-2.42-4.78-5.78q.07-14.47,0-29c0-3.89,1.66-5.53,5.59-4.79,10.53,2,21.07,4,31.62,5.87,3.81.69,5.51,2.85,5.45,6.67-.07,5.15,0,10.3,0,15.45Z"/><path class="cls-1" d="M315.3,200a358.77,358.77,0,0,1,12.1-34c1.15-2.76,2.94-2.64,5.17-1.33,8.72,5.11,17.43,10.23,26.22,15.22,3.26,1.85,3.72,4.2,2.52,7.55a253.72,253.72,0,0,0-9,31.62c-.83,3.84-2.57,4.59-5.86,2.67q-14.19-8.31-28.43-16.55C316,204,314.47,202.59,315.3,200Z"/><path class="cls-1" d="M350.11,278.35a24.7,24.7,0,0,1-3.06,2.6c-9.44,5.54-18.94,11-28.37,16.54-2.68,1.58-4.68,1.14-6.83-1-8-8.12-15.1-17-22.14-25.95-2.26-2.87-1.35-4.44,1.45-6,8.77-5,17.5-10.06,26.2-15.16,2.35-1.38,4.42-1.56,6.26.73,7.3,9,15.92,16.84,24.08,25.07A29,29,0,0,1,350.11,278.35Z"/><path class="cls-1" d="M481,302.06A264.59,264.59,0,0,1,469.2,335.4c-1,2.35-2.8,3.32-5.18,2q-14-7.94-27.94-16c-2.4-1.38-2.08-3.5-1.34-5.65,3.7-10.77,7.18-21.6,9.41-32.79.66-3.3,2.58-4.24,5.62-2.49q14.5,8.37,29,16.72A4.19,4.19,0,0,1,481,302.06Z"/><path class="cls-1" d="M429.7,404.33c-.67,1-1.35,2.06-2.13,3.06a286.1,286.1,0,0,1-20.86,24.48c-2.39,2.44-4.5,3.53-7.81,1.53-9-5.42-18.08-10.74-27.27-15.84-4.15-2.31-3.73-4.19-.68-7.2,7.94-7.83,15.71-15.84,23.37-23.94,2-2.09,3.66-2.63,6.13-1.18,8.88,5.21,17.8,10.35,26.69,15.55C428.4,401.53,429.78,402.3,429.7,404.33Z"/><path class="cls-1" d="M508.64,236.12c-.21,1.93-1.4,2.53-2.51,3.17-8.75,5.06-17.54,10-26.23,15.18-2.95,1.74-4.92,1.24-7.2-1.31-7.45-8.32-14.54-17-23.39-24-2.91-2.3-2.93-4.42.57-6.39,9.37-5.27,18.67-10.65,28-16,2.72-1.58,5.2-1.91,7.49.71,7.49,8.58,15.35,16.85,21.93,26.18A21.06,21.06,0,0,1,508.64,236.12Z"/><path class="cls-1" d="M544.92,301.81c2.29-.34,2.81,1.51,3.46,3,4.46,10.49,8.12,21.26,11.54,32.12.83,2.62.34,4.47-2.2,5.92q-14.54,8.3-29,16.8c-3.18,1.87-4.59.83-5.37-2.52a287.47,287.47,0,0,0-9.46-33.45c-.74-2-.81-3.83,1.29-5q14.2-8.22,28.46-16.4A8.18,8.18,0,0,1,544.92,301.81Z"/><path class="cls-1" d="M236.75,165.57c-.44-2.36.92-3.67,2.69-4.7,9.3-5.39,18.62-10.75,27.92-16.16,3.5-2,5.43-1.27,6.38,2.84,2.52,10.89,5.21,21.75,9.16,32.25,1.13,3-.08,4.9-2.66,6.38-8.39,4.81-16.74,9.71-25.15,14.51-2,1.16-4.53,2.7-6-.53A246.65,246.65,0,0,1,236.75,165.57Z"/><path class="cls-1" d="M318.19,319.07c5.78-.29,11.59-.34,17.33-.95,4.27-.45,6.05,1.19,6.05,5.26,0,9.23,0,18.46,0,27.68,0,3.62-1.51,5.65-5.18,6a180.9,180.9,0,0,1-33.4,0c-3.64-.33-5.25-2.31-5.22-5.95.07-9.23.05-18.46,0-27.69,0-3.79,1.55-5.29,5.55-5,4.91.38,9.86.09,14.8.09Z"/><path class="cls-1" d="M317.56,370.77c6-.29,12.06-.35,18.05-1,4.36-.45,6,1.38,6,5.39,0,9.26,0,18.52,0,27.78,0,3.77-1.87,5.52-5.43,5.81a166.06,166.06,0,0,1-33.51-.23c-3.47-.41-4.85-2.27-4.84-5.58q0-13.89,0-27.79c0-3.77,1.46-5.38,5.52-5.05,4.7.4,9.47.1,14.2.1Z"/><path class="cls-1" d="M517.09,250.83c2.2-.3,3.22,1.17,4.18,2.6a291.26,291.26,0,0,1,16.81,29c1.4,2.72,1.26,4.79-1.66,6.46q-13.17,7.49-26.22,15.19c-2.79,1.65-4.34.74-5.57-1.87a211.87,211.87,0,0,0-17.12-29.54c-1.33-1.94-2.18-3.92.47-5.45q13.68-7.92,27.4-15.75A10.24,10.24,0,0,1,517.09,250.83Z"/><path class="cls-1" d="M344.28,106.6c-.45.78-1,1.92-1.76,3A200.29,200.29,0,0,0,326.83,137c-1.89,4.06-4,5-7.91,2.57-7.89-4.81-15.91-9.41-24-13.91-3.34-1.87-4.09-4.12-2.21-7.36q8.41-14.51,16.83-29c1.41-2.41,3.25-3.16,5.9-1.59,8.71,5.12,17.48,10.13,26.21,15.21C342.94,103.63,344.42,104.28,344.28,106.6Z"/><path class="cls-1" d="M504.93,381.15c-.35.78-.71,1.8-1.22,2.73-5.11,9.45-10.25,18.87-16.1,27.9-2.2,3.4-4.35,4.15-7.89,2q-12.15-7.29-24.54-14.2c-3.31-1.84-3.37-3.77-1.42-6.71a223.89,223.89,0,0,0,16.31-28.5c1.45-3.08,3.15-4.26,6.5-2.25,8.47,5.08,17.08,9.93,25.62,14.89C503.68,377.89,505.25,378.74,504.93,381.15Z"/><path class="cls-1" d="M279.5,253.39c-2.2.29-2.92-1.45-3.84-2.85-5.94-9-11.25-18.3-16.32-27.77-1.78-3.33-1.94-5.94,1.84-8.06q12.63-7.1,25.1-14.52c3-1.79,4.76-.82,6.11,2a257.16,257.16,0,0,0,16.77,29c1.33,2,1.84,4.07-.62,5.53C299.3,242.21,290,247.59,280.72,253A6,6,0,0,1,279.5,253.39Z"/><path class="cls-1" d="M358.35,112.79c1,.47,2.38,1,3.67,1.77,7.82,4.49,15.53,9.17,23.44,13.49,3.83,2.1,4.06,4.29,1.71,7.67a198.62,198.62,0,0,0-16.09,27.85c-1.56,3.25-3.47,3.91-6.6,2.08-8.52-5-17.08-9.89-25.67-14.77-2.47-1.4-3.45-3.13-1.92-5.76q8.73-15,17.49-30C355.14,113.79,356.12,112.58,358.35,112.79Z"/><path class="cls-1" d="M583.72,259.11c.32,2.45-1.52,3.36-3.18,4.33-8.18,4.76-16.4,9.43-24.54,14.25-3,1.78-4.91,1.61-6.63-1.82a207.23,207.23,0,0,0-16.64-28.33c-2.36-3.27-1.72-5.31,1.64-7.19,8.26-4.62,16.44-9.37,24.64-14.08,2.46-1.4,4.79-2.06,6.71.84a244,244,0,0,1,17.6,30.77A10.39,10.39,0,0,1,583.72,259.11Z"/><path class="cls-1" d="M438.46,389.43c-.93-.44-2.12-.91-3.22-1.54-8-4.61-16-9.37-24.09-13.82-3.63-2-4.44-3.85-1.9-7.51a204.64,204.64,0,0,0,15.8-27.39c1.74-3.59,3.46-5,7.37-2.58,7.89,4.84,16,9.34,24,13.94,2.93,1.68,4.82,3.54,2.75,7.2-5.39,9.56-10.29,19.41-16.6,28.43C441.6,387.56,440.74,389.11,438.46,389.43Z"/><path class="cls-1" d="M479.12,131.35c-6.21.27-12.44.37-18.64.9-3.71.32-5.17-1.1-5.15-4.63q0-14.49,0-29c0-3.12,1.49-4.78,4.54-5.14a154,154,0,0,1,33.39-.07c3.32.34,5,2,4.93,5.48-.06,9.66,0,19.32,0,29,0,3.39-1.63,4.35-4.9,4.15-4.71-.3-9.44-.08-14.16-.08Z"/><path class="cls-1" d="M478.75,183.84c-6,0-12-.31-18,.11-4.1.29-5.47-1.22-5.44-5,.06-9.23.12-18.47,0-27.7-.07-4,1.75-5.93,5.61-6.25a175,175,0,0,1,32.13.08c3.62.36,5.25,2.21,5.21,5.92q-.15,13.84,0,27.69c0,3.78-1.19,5.43-5.34,5-4.68-.44-9.43-.1-14.15-.1Z"/></svg>