<svg id="Layer_1" data-name="Layer 1" xmlns="http://www.w3.org/2000/svg" viewBox="0 0 475 122"><defs><style>.cls-1{fill:#adabac;}</style></defs><title>press-logo-wsj</title><g id="layer1"><g id="g7067"><path id="path11107" class="cls-1" d="M61.8,107.32H43.67v-1.19h.89c1.19,0,1.79-.6,1.79-2.08V75.53c0-1.49-.6-2.08-1.79-2.08h-.89V72.26H61.8V84.44H60.61c0-7.13-2.08-10.4-6.24-10.4h-3V88.6h.89c2.38,0,3.27-2.08,3.27-6.83h1.19V96.92H55.56c0-4.46-.89-6.84-3.27-6.84H51.4v16h2.67c3.86,0,6.24-3.86,6.24-10.4H61.5v11.59Z"/><path id="path11109" class="cls-1" d="M42.48,107.32H31.79v-1.19h.89a1.88,1.88,0,0,0,2.08-2.08v-14H27v14a1.88,1.88,0,0,0,2.08,2.08H30v1.19H19.31v-1.19h.89a1.88,1.88,0,0,0,2.08-2.08V75.53a1.87,1.87,0,0,0-2.08-2.08h-.89V72.26H30v1.19h-.89A1.87,1.87,0,0,0,27,75.53V88.3h7.72V75.53a1.87,1.87,0,0,0-2.08-2.08h-.89V72.26H42.48v1.19h-.89a1.88,1.88,0,0,0-2.08,2.08v28.52a1.88,1.88,0,0,0,2.08,2.08h.89Z"/><path id="path11111" class="cls-1" d="M18.72,84.14H17.53c0-5.64-2.08-10.4-4.75-10.4H11.59v30.31a1.88,1.88,0,0,0,2.08,2.08h1.18v1.19h-11v-1.19h.89a1.88,1.88,0,0,0,2.08-2.08V73.74H5.94c-2.37,0-4.75,4.46-4.75,10.4H0V72H18.72Z"/><path id="path11113" class="cls-1" d="M151.82,107.32H134v-1.19h1.19a1.88,1.88,0,0,0,2.08-2.08V75.53a1.87,1.87,0,0,0-2.08-2.08h-.89V72.26h10.4v1.19h-.9a1.87,1.87,0,0,0-2.07,2.08v30.3h2.67c4.75,0,5.94-5.35,5.94-10.4h1.19v11.89Z"/><path id="path11115" class="cls-1" d="M133.4,107.32H115.57l.59-1.19h.6a1.88,1.88,0,0,0,2.08-2.08V75.53a1.87,1.87,0,0,0-2.08-2.08h-.89V72.26h10.4v1.19h-.9a1.87,1.87,0,0,0-2.07,2.08v30.3H126c4.75,0,5.94-5.35,5.94-10.4h1.19v11.89Z"/><path id="path11117" class="cls-1" d="M101.31,73.15H101c-1.78,0-2.67.3-3.27,3.27l-6.53,30.9H89.13L85,87.11h0l-4.16,20.21H78.73L72.49,75.53c-.3-2.08-.89-2.38-2.67-2.38h0V72h9.5v1.19H79c-1.49,0-1.78.59-1.78,1.49v.89L81.4,96.92h0l2.68-14.26-1.49-7.13c-.29-1.79-.89-2.38-2.08-2.38h-.29V72h9.5v1.19h-.29c-1.79,0-2.08.59-2.08,1.78v1.19l4.16,20.5h0l3.86-20.5v-.89c0-1.49-.6-2.08-2.38-2.08h-.3V72h8v1.19Z"/><path id="path11119" class="cls-1" d="M116.46,107.32h-10.1v-1.19h.3c1.78,0,2.37-.6,2.37-1.49v-1.19l-.89-4.75H102.2l-.89,4.75v1.19c0,1.19.3,1.49,2.38,1.49H104v1.19H96.56v-1.19h.29c1.49,0,2.38-.3,3-2.38L106.06,72h2.38l6.24,31.79c.3,1.78,1.48,2.67,2.08,2.67h.3v.9Zm-8.91-10.4-2.67-15.75h0L102.2,96.92Z"/><path id="path11121" class="cls-1" d="M276.89,84.14h-1.18c0-5.64-2.08-10.4-4.76-10.4h-1.19v30.31a1.88,1.88,0,0,0,2.08,2.08H273v1.19H262v-1.19h.89a1.88,1.88,0,0,0,2.08-2.08V73.74h-.89c-2.67,0-4.75,4.46-4.75,10.4h-1.19V72h18.71Z"/><path id="path11123" class="cls-1" d="M256.69,107.32H238.57v-1.19h.89c1.19,0,1.78-.6,1.78-2.08V75.53c0-1.49-.59-2.08-1.78-2.08h-.89V72.26h18.12V84.44H255.5c0-7.13-2.08-10.4-6.24-10.4h-3V88.6h.89c2.38,0,3.27-2.08,3.27-6.83h1.19V96.92h-1.19c0-4.46-.89-6.84-3.27-6.84h-.89v16H249c3.86,0,6.24-3.86,6.24-10.4h1.18v11.59Z"/><path id="path11125" class="cls-1" d="M237.38,107.32H219.26v-1.19h.89c1.19,0,1.78-.6,1.78-2.08V75.53c0-1.49-.59-2.08-1.78-2.08h-.89V72.26h18.12V84.44h-1.19c0-7.13-2.08-10.4-6.24-10.4h-3V88.6h.89c2.38,0,3.27-2.08,3.27-6.83h1.19V96.92h-1.19c0-4.46-.89-6.84-3.27-6.84H227v16h2.68c3.86,0,6.23-3.86,6.23-10.4h1.19v11.59Z"/><path id="path11127" class="cls-1" d="M196.68,84.14h-1.19c0-5.64-2.08-10.4-4.75-10.4h-1.19v30.31a1.88,1.88,0,0,0,2.08,2.08h1.19v1.19h-11v-1.19h.89a1.88,1.88,0,0,0,2.08-2.08V73.74h-.89c-2.67,0-4.75,4.46-4.75,10.4H178V72h18.72Z"/><path id="path11129" class="cls-1" d="M178,98.7c0,6.24-3.86,8.91-8.32,8.91a10.26,10.26,0,0,1-6.24-2.08l-.89,1.79h-.89V95.13h1.19v.3c0,8.62,4.16,10.4,6.54,10.4,3.26,0,4.75-1.78,4.75-5.64,0-4.16-2.67-7.13-6.24-9.81-3.27-2.38-6.54-5.64-6.54-10.69,0-5.35,3.27-8,7.13-8,3.27,0,4.76,1.19,5.65,2.08L175,72h.89V84.14h-1.19v-.29c0-6.54-2.08-10.7-5.94-10.7-2.38,0-3.86,1.78-3.86,4.46,0,3.26,2.08,5.34,5.64,8C175,88.9,178,92.16,178,98.7"/><path id="path11131" class="cls-1" d="M219,102.27c0,3-1.19,5-4.16,5s-4.16-2.08-4.46-6.54l-.29-6.54c-.3-3.56-1.49-4.45-3.57-4.45h-1.19v14c0,1.49.6,2.08,1.79,2.08h1.18V107H197.87v-1.19h.89a1.87,1.87,0,0,0,2.08-2.08V75.23a1.87,1.87,0,0,0-2.08-2.08h-.89V72h9.8c5.94,0,9.51,3,9.51,8.62,0,5.94-4.16,8-7.73,8.61h0a5.92,5.92,0,0,1,5.65,6l.3,7.72c0,1.49.29,2.08.89,2.08.89,0,1.18-.59,1.18-3v-1.19H219v1.49Zm-7.13-21.69c0-5.65-2.08-7.13-5.05-7.13h-1.19V88.3h1.19c3.27,0,5.05-2.08,5.05-7.72"/><path id="path11133" class="cls-1" d="M416.23,107.32H398.41l.59-1.19h.6a1.88,1.88,0,0,0,2.08-2.08V75.53a1.88,1.88,0,0,0-2.08-2.08h-.9V72.26h10.4v1.19h-.89a1.87,1.87,0,0,0-2.08,2.08v30.3h2.68c4.75,0,5.94-5.35,5.94-10.4h1.19v11.89Z"/><path id="path11135" class="cls-1" d="M422.47,104.94a2.1,2.1,0,1,1-2.08-2.38,2.55,2.55,0,0,1,2.08,2.38"/><path id="path11137" class="cls-1" d="M380.58,73.15h-.89c-1.19,0-2.08.89-2.08,2.67v31.5h-1.49l-11-27.63h0v23.76c0,1.79.89,2.68,2.08,2.68h.89v1.19h-7.42v-1.19h.89c1.19,0,2.08-.89,2.08-2.68V75.53c0-1.19-.6-2.08-1.79-2.08h-1.18V72.26h6.83l8.91,22.58h0V76.12c0-1.78-.89-2.67-2.08-2.67h-1.19V72.26h7.43Z"/><path id="path11139" class="cls-1" d="M339.88,73.15H338.1c-1.19,0-1.79.89-1.79,2.67V99.29c0,4.76-1.48,8-6.53,8-5.35,0-8.62-3.27-8.62-8V75.23c0-1.49-.59-2.08-1.78-2.08h-.89V72h10.4v1.19h-.6c-1.19,0-1.78.59-1.78,2.08V99.59c0,3.86,1.48,6.24,4.16,6.24s4.46-2.08,4.46-6.24V75.82c0-1.48-.6-2.67-1.79-2.67h-.89V72h8v1.19Z"/><path id="path11141" class="cls-1" d="M300.07,73.15h-.89a1.87,1.87,0,0,0-2.08,2.08V99.89c0,5.64-3.57,7.72-8,7.72-3.27,0-6.24-2.67-6.24-7.72,0-2.68,1.78-3.86,3-3.86,1.48,0,2.37.89,2.37,2.67,0,2.08-1.18,3-3,3.27a3.93,3.93,0,0,0,3.87,3.86c2.37,0,3-1.19,3-5V75.23c0-1.49-.6-2.08-1.79-2.08h-.89V72h10.4v1.19Z"/><path id="path11143" class="cls-1" d="M399.3,107.32H389.2v-1.19h.29c1.79,0,2.38-.6,2.38-1.49v-1.19L391,98.7H385l-.89,4.75v1.19c0,1.19.29,1.49,2.37,1.49h.3v1.19h-7.43v-1.19h.3c1.49,0,2.38-.3,3-2.38L388.9,72h2.38l6.24,31.79c.29,1.78,1.48,2.67,2.07,2.67h.3v.9Zm-8.62-10.4L388,81.47h0l-2.68,15.74h5.35Z"/><path id="path11145" class="cls-1" d="M360.08,102.27c0,3-1.19,5-4.16,5s-4.16-2.08-4.45-6.54l-.3-6.54c-.3-3.56-1.49-4.45-3.57-4.45h-1.19v14c0,1.49.6,2.08,1.79,2.08h1.19V107h-10.7v-1.19h.89a1.87,1.87,0,0,0,2.08-2.08V75.23a1.87,1.87,0,0,0-2.08-2.08h-.89V72h9.8c5.95,0,9.51,3,9.51,8.62,0,5.94-4.16,8-7.72,8.61h0a5.91,5.91,0,0,1,5.64,6l.3,7.72c0,1.49.3,2.08.89,2.08.89,0,1.19-.59,1.19-3v-1.19h1.48v1.49ZM353,80.58c0-5.65-2.08-7.13-5.05-7.13h-1.19V88.3h1.19c3.27,0,5.05-2.08,5.05-7.72"/><path id="path11147" class="cls-1" d="M318.49,89.49c0,10.1-3.27,18.12-9.21,18.12s-9.21-8-9.21-18.12,3.27-17.83,9.21-17.83C314.92,71.66,318.49,79.39,318.49,89.49Zm-5.65,8.32V81.17c0-5.94-1.48-8-3.86-8s-3.86,1.78-3.86,8V97.81c0,5.94,1.19,8,3.86,8s3.86-2.38,3.86-8"/></g></g></svg>