<svg id="Layer_1" data-name="Layer 1" xmlns="http://www.w3.org/2000/svg" viewBox="0 0 475 122"><defs><style>.cls-1{fill:#adabac;fill-rule:evenodd;}</style></defs><title>press-logo-nbc-news</title><polygon class="cls-1" points="239.31 70.02 257.2 109.07 265.04 93.07 272.88 109.07 290.44 70.02 281.5 70.02 272.1 91.34 268.64 84.13 275.23 70.17 266.92 70.01 265.04 75.19 262.53 70.01 254.53 70.01 260.96 83.81 257.66 91.19 247.62 70.02 239.31 70.02 239.31 70.02 239.31 70.02"/><polygon class="cls-1" points="75.15 68.48 98.45 90.45 98.45 69.88 105.99 69.88 105.99 107.98 82.74 85.58 82.74 106.73 75.15 106.73 75.15 68.48 75.15 68.48 75.15 68.48"/><path class="cls-1" d="M110.21,70h15.91c2.43,0,9.34,1.85,9.58,9.29a9.29,9.29,0,0,1-4.37,8.12,10.55,10.55,0,0,1,6.27,9.87c0,5.7-5,9.88-9.29,9.88h-18.1V70Zm7.64,15h5.79a4.47,4.47,0,0,0,4-4.52,4.4,4.4,0,0,0-4.19-4.24h-5.64V85Zm.05,16.2h6.71a5.06,5.06,0,0,0,4.62-5,4.91,4.91,0,0,0-4.43-4.87h-6.91v9.83Z"/><path class="cls-1" d="M166.4,77.93c-8-5.3-18.78.1-19.46,9.92-.29,11.92,11.48,16.84,19.46,11.68v7.64c-14.11,5.25-27.05-4.67-27.1-19.07,0-12.21,13.53-23,27.1-17.61v7.44Z"/><path class="cls-1" d="M304.17,93.31c-11.25-7.5-10.35-6.71-11.18-8a12.12,12.12,0,0,1,2.24-13.77c5.41-5.76,16.35-.82,16.35-.82v7.41s-9.3-5.41-11.88-.47,7.06,7.88,7.06,7.88,6.47,3.76,7.05,7.88.12,12.35-6.47,13.88c0,0-6.35,3.53-14.94-.94l.12-8.35s3.65,4,8.83,3.76,6.7-5.88,2.82-8.46Z"/><polygon class="cls-1" points="216.77 69.71 216.77 107.12 237.24 107.12 237.36 100.88 224.86 100.88 224.86 91.94 237.36 91.94 237.36 85 224.86 85 224.86 76.65 237.36 76.65 237.36 69.71 216.77 69.71 216.77 69.71 216.77 69.71"/><polygon class="cls-1" points="182.34 68.56 205.63 90.74 205.63 69.97 213.18 69.97 213.18 108.44 189.92 85.82 189.92 107.18 182.34 107.18 182.34 68.56 182.34 68.56"/><path class="cls-1" d="M55.21,91.73,36.33,104.35l6.36-15.11,3-7a7,7,0,0,1,6-3.77,6.89,6.89,0,0,1,5.89,3.24,7.39,7.39,0,0,1,.08,7.57,8.69,8.69,0,0,1-2.49,2.49Z"/><path class="cls-1" d="M45.81,79.8l-9.33,22.08-.42-2.41L33.25,81.38a2.75,2.75,0,0,1,1.22-2.65l1.34-.8c.08-.28-.31-.37-.49-.47l-2.63,0a6.83,6.83,0,0,1,9.43-6.91,7.14,7.14,0,0,1,4.25,6.36,7.74,7.74,0,0,1-.56,2.92Z"/><path class="cls-1" d="M27.88,102,18.69,79.83a7.38,7.38,0,0,1,1.12-7.4,6.87,6.87,0,0,1,7-2.18,7.11,7.11,0,0,1,4.85,5A8.46,8.46,0,0,1,31.81,78L27.88,102Z"/><path class="cls-1" d="M8.23,90.93a7.06,7.06,0,0,1-2.46-6.35,7.26,7.26,0,0,1,4.7-5.83,6.81,6.81,0,0,1,7,1.69A7.58,7.58,0,0,1,19,82.89l8.88,21.51L8.23,90.93Z"/><path class="cls-1" d="M6.22,106.64a6.84,6.84,0,0,1-5.51-3.86,7.41,7.41,0,0,1,.71-7.52,6.93,6.93,0,0,1,6.69-2.58,7.07,7.07,0,0,1,2.67,1.11L29.9,106.64Z"/><path class="cls-1" d="M58.11,106.64a6.82,6.82,0,0,0,5.5-3.86,7.41,7.41,0,0,0-.71-7.52,6.93,6.93,0,0,0-6.69-2.58,7.14,7.14,0,0,0-2.67,1.11L34.42,106.64H58.11Z"/></svg>