<svg id="Layer_1" data-name="Layer 1" xmlns="http://www.w3.org/2000/svg" viewBox="0 0 475 122"><defs><style>.cls-1{fill:#adabac;}</style></defs><title>press-logo-washingtonian</title><path class="cls-1" d="M90.89,61.92H85.72a.6.6,0,0,0-.61.6V81.7h-7V62.52a.6.6,0,0,0-.61-.6h-5.3a.6.6,0,0,0-.6.6v43.64a.59.59,0,0,0,.59.6h5.31a.59.59,0,0,0,.6-.59h0V87.31h7v18.85a.59.59,0,0,0,.59.6h5.19a.59.59,0,0,0,.6-.59h0V62.52a.6.6,0,0,0-.6-.6Zm34.34,0h-5a.6.6,0,0,0-.61.6V88l-1-3.25-7.5-22.41a.62.62,0,0,0-.58-.41h-4.71a.6.6,0,0,0-.61.6v43.64a.6.6,0,0,0,.6.6h5a.6.6,0,0,0,.61-.6h0V80.81l1.16,3.48,8.2,22.08a.58.58,0,0,0,.56.39h3.85a.6.6,0,0,0,.61-.6h0V62.52A.61.61,0,0,0,125.23,61.92Z"/><rect class="cls-1" x="95.14" y="61.92" width="6.53" height="44.84" rx="0.61" ry="0.61"/><path class="cls-1" d="M31,62.13a.58.58,0,0,0-.48-.21H25.61a.62.62,0,0,0-.59.54L22,88.84,18.56,62.45a.62.62,0,0,0-.61-.53h-4.3a.59.59,0,0,0-.59.51L9,89,6.39,62.47a.62.62,0,0,0-.61-.55H.61a.59.59,0,0,0-.46.21.59.59,0,0,0-.14.48l5.46,43.62a.6.6,0,0,0,.6.53h5a.61.61,0,0,0,.6-.51L15.3,82.11l3.29,24.13a.6.6,0,0,0,.6.52h4.87a.6.6,0,0,0,.6-.52l6.43-43.63A.57.57,0,0,0,31,62.13Zm10.39.3a.61.61,0,0,0-.6-.51H35.27a.6.6,0,0,0-.59.5l-7.37,43.64a.6.6,0,0,0,.5.69h5.06a.59.59,0,0,0,.59-.51l1.45-8.92h5.67l1.23,8.91a.6.6,0,0,0,.6.52h5.4a.6.6,0,0,0,.6-.6v-.1ZM39.76,91.72h-4l2.11-14.43Zm16.06-21.6c0-2.24,1.12-3.37,3.33-3.37s3.25,1.37,3.25,4.18V75.7a.61.61,0,0,0,.61.61h5a.6.6,0,0,0,.6-.6h0V70.52c0-5.54-3.73-9.26-9.27-9.26-6,0-9.8,3.88-9.8,10.11,0,5.71,4.75,12,7.59,15.27,3.85,4.43,5.39,7.83,5.39,11.72,0,2.59-1.19,3.85-3.62,3.85-2.18,0-3.48-1.56-3.48-4.18V93.25a.61.61,0,0,0-.6-.61H49.67a.61.61,0,0,0-.59.61v5c0,5.5,4,9.19,9.87,9.19,4.55,0,9.86-2.65,9.86-10.11,0-4.66-2.16-9.25-7-14.87C57.58,77.43,55.82,74.61,55.82,70.12Zm124.07-8.86c-5.85,0-9.93,4-9.93,9.71V97.71c0,5.8,4,9.71,9.93,9.71s9.94-4,9.94-9.71V71C189.83,65.26,185.75,61.26,179.89,61.26Zm-3.48,9.06c0-2.08,1.3-3.32,3.48-3.32s3.55,1.27,3.55,3.32v28c0,2.08-1.33,3.33-3.55,3.33s-3.48-1.22-3.48-3.33Z"/><rect class="cls-1" x="216.83" y="61.92" width="6.53" height="44.84" rx="0.61" ry="0.61"/><path class="cls-1" d="M239.79,62.43a.61.61,0,0,0-.6-.51h-5.46a.62.62,0,0,0-.61.5l-7.35,43.64a.59.59,0,0,0,.49.69h5.06a.6.6,0,0,0,.6-.51l1.47-8.89h5.66l1.24,8.9a.61.61,0,0,0,.6.53h5.4a.61.61,0,0,0,.59-.62.52.52,0,0,0,0-.11ZM238.2,91.72h-4l2.11-14.43Zm-90.12-7.84h-9a.62.62,0,0,0-.61.6h0V88.6a.6.6,0,0,0,.6.6h3.26v9.36c0,2.12-1.32,3.37-3.54,3.37-3,0-3.48-2.13-3.48-3.37V70.12c0-1.44.91-3.12,3.48-3.12s3.4,1.58,3.4,3.06v6.68a.61.61,0,0,0,.59.61h4.83a.61.61,0,0,0,.6-.61h0v-5.9c0-5.9-3.61-9.58-9.42-9.58s-9.94,3.95-9.94,9.58v27c0,5.73,3.64,9.58,9.06,9.58a7.89,7.89,0,0,0,6.44-2.68l.9,1.7a.59.59,0,0,0,.53.32h2.26a.61.61,0,0,0,.62-.6h0V84.47a.61.61,0,0,0-.62-.59Zm121.33-22h-5a.6.6,0,0,0-.6.6h0V88l-1-3.25-7.51-22.41a.6.6,0,0,0-.57-.41H250a.61.61,0,0,0-.61.6h0v43.64a.6.6,0,0,0,.6.6h5a.6.6,0,0,0,.6-.6h0V80.81l1.16,3.48L265,106.37a.58.58,0,0,0,.56.39h3.85a.6.6,0,0,0,.61-.6h0V62.52A.61.61,0,0,0,269.41,61.92Zm-101.22,0H150.26a.6.6,0,0,0-.6.6V67a.6.6,0,0,0,.6.61h5.88v38.57a.61.61,0,0,0,.61.6h5.18a.61.61,0,0,0,.61-.6h0V67.59h5.65a.61.61,0,0,0,.61-.61h0V62.52a.6.6,0,0,0-.61-.6Zm44.69,0h-5a.6.6,0,0,0-.61.6h0V88l-1-3.25L198.8,62.33a.62.62,0,0,0-.58-.41h-4.73a.6.6,0,0,0-.61.6h0v43.64a.6.6,0,0,0,.6.6h5a.6.6,0,0,0,.61-.6h0V80.82l1.15,3.47,8.24,22.08a.61.61,0,0,0,.57.39h3.85a.6.6,0,0,0,.61-.6h0V62.52a.62.62,0,0,0-.59-.6Z"/></svg>