<svg id="Layer_1" data-name="Layer 1" xmlns="http://www.w3.org/2000/svg" viewBox="0 0 475 122"><defs><style>.cls-1{fill:#afafb0;}</style></defs><title>press-logo-abc-news</title><path class="cls-1" d="M90,64c-1.68-1.78-3.49-2.86-4.74-2.86H84.14v-1h.93c.44,0,5.56.21,6.06.21.81,0,3.17-.21,3.68-.21h1L119.54,86.5V65.72c0-3.31-1.43-4.58-5-4.58h-1.07v-1h1.13c.12,0,5.48.21,5.92.21.62,0,4.17-.21,4.86-.21H126l.06,1c-3.31.26-4.18,1.15-4.18,4.07V98.07h-1.12L92.43,66.61V90.29c0,5,1.13,6.3,5.24,6.3h1.06v1.06H97.54c-.87,0-5.17-.22-6.17-.22-.56,0-4.55.22-5.42.22H85V96.59C89.13,96.2,90,95.5,90,92.45V64Zm43,.38c0-2.47-.94-3.24-3.87-3.24h-.94v-1h2.44c1.68,0,10.79.21,10.85.21,1.31,0,10-.21,11.83-.21h2.49l.12,8.17h-1c-.19-4.26-2.08-6-6.44-6h-8.72V76.79h7.53c2.93,0,4.55-1.4,5-4.4l1.11.07v11.4h-1c-.5-3.57-2.31-5-6.66-5h-6V92.07q0,3.24,3.17,3.24h6.23a8.92,8.92,0,0,0,8.72-5.66H159l-2.62,8c-1.81,0-10.39-.21-13.26-.21-1.93,0-11.22.14-13.35.21h-1.62V96.59h1c2.93-.06,3.87-.83,3.87-3.31V64.38Zm59.91,33.76h-1.75L184,78.37l-7.3,19.77H175L162.86,65c-.93-2.55-1.81-3.56-3.43-3.88v-.93h1.06c.69,0,4.12.21,4.94.21s4.24-.21,5-.21h1.12v1c-1.81.07-2.56.58-2.56,1.59a7.74,7.74,0,0,0,.5,2.29L178,88.54l4.87-13.41-3.18-9c-1.38-3.88-2.56-4.89-5.56-5v-1h1c.87,0,5.37.21,6.43.21.87,0,5.37-.21,6.36-.21h1.5v1H188c-2.06,0-3,.51-3,1.59a9.22,9.22,0,0,0,.62,2.61l8.3,23.39,6.56-19.83a20,20,0,0,0,1.18-5.22c0-1.77-.87-2.54-2.8-2.54h-1.13v-1h.31c.88,0,3.06.21,4.37.21.62,0,3.05-.21,4.23-.21H207v1c-1.56.45-2.36,1.59-3.61,5.47L192.89,98.14ZM207.28,89a9.83,9.83,0,0,0,3.54,4.88,12.89,12.89,0,0,0,8,2.47c5.35,0,9-2.85,9-7,0-3-1.74-4.7-8.18-7.8-6.25-3-7.8-4.57-9.11-5.84a8.92,8.92,0,0,1-2.73-6.54c0-5.83,4.66-9.7,11.71-9.7a28.52,28.52,0,0,1,6.93,1,12,12,0,0,0,2.57.38.84.84,0,0,0,.93-.55H231l.13,8h-.89a9.54,9.54,0,0,0-1.75-3.77c-1.75-2.1-4.49-3.24-8-3.24-4.48,0-7.41,2.16-7.41,5.4,0,2.79,1.69,4.37,7.66,7.17C228.37,77.39,233,80.63,233,86.59c0,6.85-5.51,11.48-13.66,11.48a28.72,28.72,0,0,1-6.59-.82,13,13,0,0,0-2.24-.32,1.55,1.55,0,0,0-1.49.72H208l-.12-.89c-.42-2.51-.93-5-1.5-7.5l.94-.32Zm-193-14.1a5.9,5.9,0,0,0-2.62.6,6.18,6.18,0,0,0,2.62,11.7,6.16,6.16,0,0,0,0-12.31Zm26,0a6.15,6.15,0,1,0,6,6.15,6.1,6.1,0,0,0-6-6.15Z"/><path class="cls-1" d="M66.26,93.3A12.3,12.3,0,1,1,78,78.2H71.64a6,6,0,0,0-5.38-3.36,6.16,6.16,0,0,0,0,12.31,6,6,0,0,0,5.39-3.38l6.4-.06A12.14,12.14,0,0,1,66.25,93.3Zm-26,0A12.18,12.18,0,0,1,28.2,81.08L28.05,59.5h6.12l0,11.58a9.91,9.91,0,0,1,6.08-2.38,12.3,12.3,0,0,1,0,24.6Zm-19.89,0,0-3.08a9.64,9.64,0,0,1-6.54,3.08C7.15,93.3,2.16,87.79,2.16,81a12.09,12.09,0,0,1,15.1-11.91A12.27,12.27,0,0,1,26.32,81v0L26.4,93.3h-6ZM40.28,40C18,40,0,58.35,0,81s18,41,40.28,41,40.28-18.36,40.28-41S62.52,40,40.28,40Z"/></svg>