<svg id="Layer_1" data-name="Layer 1" xmlns="http://www.w3.org/2000/svg" viewBox="0 0 475 122"><defs><style>.cls-1{fill:#adabac;}</style></defs><title>press-logo-politico</title><path class="cls-1" d="M7.11,87.92v19.15H0V59.92H8.06a36.34,36.34,0,0,1,9,.83,12,12,0,0,1,5.37,3.11,13.42,13.42,0,0,1,4.06,10,12.94,12.94,0,0,1-4.33,10.26q-4.34,3.78-11.7,3.78Zm0-6.59H9.77q9.81,0,9.8-7.54,0-7.31-10.11-7.3H7.11Z"/><path class="cls-1" d="M28.73,83.28A23.1,23.1,0,0,1,36,66.18,24,24,0,0,1,53.5,59a23.57,23.57,0,0,1,17.28,7.2A23.56,23.56,0,0,1,78,83.56a23.15,23.15,0,0,1-7.27,17.25,24.9,24.9,0,0,1-34,.79Q28.74,94.61,28.73,83.28Zm7.18.08a17.57,17.57,0,0,0,17.32,17.88,17,17,0,0,0,12.52-5.13,18.27,18.27,0,0,0,.06-25.26,16.64,16.64,0,0,0-12.4-5.13A16.8,16.8,0,0,0,41,70.85,17,17,0,0,0,35.91,83.36Z"/><path class="cls-1" d="M89.08,59.92v40.46H103v6.69H82V59.92Z"/><path class="cls-1" d="M115.12,59.92v47.15H108V59.92Z"/><path class="cls-1" d="M138.1,66.61v40.46H131V66.61H120.14V59.92h28.77v6.69Z"/><path class="cls-1" d="M161.06,59.92v47.15h-7.12V59.92Z"/><path class="cls-1" d="M202.65,62.44v8.41q-6.17-5.16-12.76-5.16a16.26,16.26,0,0,0-12.25,5.22,17.63,17.63,0,0,0-5,12.71,17.19,17.19,0,0,0,5,12.52,16.54,16.54,0,0,0,12.28,5.1A15.13,15.13,0,0,0,196.3,100a18.76,18.76,0,0,0,3-1.65,36.67,36.67,0,0,0,3.31-2.51v8.6a25.62,25.62,0,0,1-12.82,3.47,23.66,23.66,0,0,1-17.26-7.06,23.38,23.38,0,0,1-7.11-17.16,24.2,24.2,0,0,1,5.95-16.06,23.72,23.72,0,0,1,19-8.64A24.15,24.15,0,0,1,202.65,62.44Z"/><path class="cls-1" d="M203.71,83.28a23.1,23.1,0,0,1,7.3-17.1A24,24,0,0,1,228.48,59,24.65,24.65,0,0,1,253,83.56a23.15,23.15,0,0,1-7.27,17.25,24.9,24.9,0,0,1-34,.79q-8-7-8-18.32Zm7.18.08a17.48,17.48,0,0,0,29.84,12.75,18.27,18.27,0,0,0,.06-25.26,17.59,17.59,0,0,0-24.83,0A17,17,0,0,0,210.89,83.36Z"/></svg>