<svg id="Layer_1" data-name="Layer 1" xmlns="http://www.w3.org/2000/svg" viewBox="0 0 475 122"><defs><style>.cls-1{fill:#afafb0;}</style></defs><title>press-logo-bloomberg</title><g id="g22"><path id="path4" class="cls-1" d="M0,65.54H20.5c3.86,0,6.88,1,9,2.65a10.4,10.4,0,0,1,3.68,8.27c0,4-1.63,6.51-5,8v.18C32.57,86.11,35,90,35,94.67c0,4.46-1.69,8-4.53,10.07-2.35,1.69-5.48,2.53-9.58,2.53H.06V65.54ZM18.45,81.88c2.23,0,3.8-1.2,3.8-3.67s-1.69-3.56-3.86-3.56h-7v7.17h7.11Zm1,16.17a4,4,0,0,0,4.34-4.29c0-2.89-2-4.28-4.4-4.28H11.34v8.57Z"/><path id="path6" class="cls-1" d="M37,65.54H47.76v41.79H37Z"/><path id="path8" class="cls-1" d="M49.93,92.44c0-9.41,6.09-15.8,15.5-15.8S80.81,83,80.81,92.44s-6,15.8-15.38,15.8S49.93,101.91,49.93,92.44Zm20.27,0c0-5.19-1.69-8.51-4.89-8.51s-4.76,3.26-4.76,8.51,1.57,8.5,4.76,8.5S70.2,97.74,70.2,92.44Z"/><path id="path10" class="cls-1" d="M82.14,92.44c0-9.41,6.09-15.8,15.5-15.8S113,83,113,92.44s-6,15.8-15.37,15.8S82.14,101.91,82.14,92.44Zm20.26,0c0-5.19-1.69-8.51-4.89-8.51s-4.76,3.26-4.76,8.51,1.57,8.5,4.76,8.5S102.4,97.74,102.4,92.44Z"/><path id="path12" class="cls-1" d="M115.18,77.48h9.95v4.46h.19c2-3.49,4.7-5.36,9-5.36a8.34,8.34,0,0,1,8,5.12h.18a10,10,0,0,1,9.23-5.12c6.93,0,9.89,5.12,9.89,11.94v18.81H151.13V90.45c0-3.08-1-5.07-3.62-5.07s-3.92,2.41-3.92,5.67v16.28H133.22V90.45c0-3.08-1-5.07-3.62-5.07s-3.92,2.41-3.92,5.67v16.28h-10.5Z"/><path id="path14" class="cls-1" d="M174.89,103.41h-.12v3.86h-10V65.48h10.49V80.56h.18a9.9,9.9,0,0,1,8.5-4c7.48,0,11.82,6.75,11.82,15.74,0,10.13-4.7,16-12.48,16A9.41,9.41,0,0,1,174.89,103.41Zm10.19-11.15c0-4.83-1.75-7.9-5-7.9s-5.24,3.07-5.24,7.9,2.05,7.9,5.24,7.9S185.08,97.08,185.08,92.26Z"/><path id="path16" class="cls-1" d="M197,92.32c0-9.29,6.15-15.8,15.08-15.8a14.62,14.62,0,0,1,10.49,3.86c3.44,3.31,5,8.56,4.88,14.65h-20c.42,3.74,2.23,5.61,5.37,5.61a4,4,0,0,0,4.1-2.83h10.07c-1.75,6.81-7.05,10.25-14.53,10.25C203.17,108.12,197,101.91,197,92.32Zm10.43-3.08h9.53c-.18-3.62-2.17-5.49-4.64-5.49C209.38,83.75,207.81,85.8,207.39,89.24Z"/><path id="path18" class="cls-1" d="M239.29,82.61h.18c2.18-4.16,5-5.73,8.57-5.73a3.53,3.53,0,0,1,1.69.3v9.17h-.24c-6.16-1.09-9.77,1.81-9.77,8.56v12.42h-10.5V77.54h9.95v5.07Z"/><path id="path20" class="cls-1" d="M250.93,107.33H261c.37,1.27,1.69,2.54,4.23,2.54,3.37,0,4.52-2.11,4.52-5.19v-2.17h-.24a9,9,0,0,1-7.18,3.38c-6.45,0-12-4.77-12-14.06,0-8.56,4.58-15.19,11.52-15.19,4,0,6.45,1.63,8,4.16h.18V77.54H280v25.81c0,4.77-1.69,8.51-4.16,10.68-2.59,2.35-6.33,3.25-10.55,3.25C257.45,117.28,251.9,114,250.93,107.33Zm19.24-16c0-3.74-1.75-6.69-4.82-6.69s-4.83,2.65-4.83,6.69,1.87,6.88,4.83,6.88S270.17,95.21,270.17,91.29Z"/></g></svg>