<?xml version="1.0" encoding="utf-8"?>
<!-- Generator: Adobe Illustrator 24.0.3, SVG Export Plug-In . SVG Version: 6.00 Build 0)  -->
<svg version="1.1" id="Layer_1" xmlns="http://www.w3.org/2000/svg" xmlns:xlink="http://www.w3.org/1999/xlink" x="0px" y="0px"
	 viewBox="0 0 475 122" style="enable-background:new 0 0 475 122;" xml:space="preserve">
<style type="text/css">
	.st0{fill:#ADABAC;}
</style>
<title>wired</title>
<g id="Page-1">
	<g id="tc">
		<polygon id="Fill-1" class="st0" points="60.9,76.7 91,76.7 91,61.3 60.9,61.3 		"/>
		<polyline id="Fill-2" class="st0" points="0.6,61.3 0.6,76.7 15.6,76.7 15.6,107.4 30.7,107.4 30.7,76.7 45.8,76.7 45.8,61.3 
			0.6,61.3 		"/>
		<polyline id="Fill-3" class="st0" points="45.8,107.4 91,107.4 91,92 60.9,92 60.9,76.7 45.8,76.7 45.8,107.4 		"/>
		<polyline id="Fill-4" class="st0" points="129.4,72.9 107.3,72.9 107.3,79.3 114.7,79.3 114.7,99.3 122,99.3 122,79.3 129.4,79.3 
			129.4,72.9 		"/>
		<path id="Fill-5" class="st0" d="M137.8,79.1c-5.2,0-9.1,3.5-9.1,10.4c0,6.1,3.3,10.3,9.2,10.3c3.1,0,5.6-0.8,8.1-2.3l-2.6-4.4
			c-2,1-3.4,1.4-5.2,1.4c-1.8,0-3.1-1-3.4-3.2h11.7c0.1-0.3,0.1-0.8,0.1-1.3C146.6,82.7,143.2,79.1,137.8,79.1z M135,87.1
			c0.2-2,1.1-3,2.6-3c2,0,2.7,1,3,3H135z"/>
		<path id="Fill-6" class="st0" d="M159.5,94.2c-1.8,0-2.8-1.6-2.8-4.8c0-3.1,0.9-4.9,2.6-4.9c1.5,0,2.1,0.8,3.1,2.6l4.7-3.5
			c-1.7-2.8-3.9-4.5-7.6-4.5c-6.3,0-9.5,4.2-9.5,10.3c0,6.7,3.5,10.4,9.3,10.4c3.5,0,5.6-1.3,8-4.7l-4.3-3.4
			C161.7,93.5,160.8,94.2,159.5,94.2"/>
		<path id="Fill-7" class="st0" d="M183,79.1c-2.4,0-3.8,0.8-5,1.7v-9l-6.8,2.7v24.8h6.8V88.1c0-2.5,0.9-3.2,2.3-3.2
			c1.4,0,2.3,0.7,2.3,3.2v11.3h6.8V87.2C189.4,82,187.3,79.1,183,79.1"/>
		<path id="Fill-8" class="st0" d="M205.8,93.4c-3.2,0-4.5-3.2-4.5-7.3c0-4.2,1.3-7.3,4.4-7.3c2.4,0,3.3,1.6,4.2,4l6.7-2.6
			c-1.8-5-4.4-7.8-10.9-7.8c-7.1,0-12.1,5.2-12.1,13.7c0,7.8,4.2,13.7,12,13.7c6.3,0,9.2-3.4,11-6.8l-6.2-3.3
			C209,92.1,208.1,93.4,205.8,93.4"/>
		<path id="Fill-9" class="st0" d="M227.6,81v-1.5h-6.8v19.8h6.8V88.5c0-2.4,1-3.2,2.7-3.2c1.3,0,2.3,0.7,3.2,1.7l1.6-7
			c-0.8-0.5-1.8-0.9-3.2-0.9C230.1,79.1,228.8,79.8,227.6,81"/>
		<path id="Fill-10" class="st0" d="M249.7,90.8c0,2.5-0.9,3.2-2.3,3.2s-2.3-0.7-2.3-3.2V79.5h-6.8v12.1c0,5.2,2.1,8.1,6.4,8.1
			c2.3,0,3.8-0.8,4.9-1.7v1.3h6.8V79.6h-6.8L249.7,90.8"/>
		<path id="Fill-11" class="st0" d="M273.3,79.1c-2.4,0-3.8,0.8-5,1.7v-1.3h-6.8v19.8h6.8V87.9c0-2.5,0.9-3.2,2.3-3.2
			c1.4,0,2.3,0.7,2.3,3.2v11.3h6.8V87.1C279.7,82,277.6,79.1,273.3,79.1"/>
		<path id="Fill-12" class="st0" d="M293.2,94.2c-1.8,0-2.8-1.6-2.8-4.8c0-3.1,0.9-4.9,2.6-4.9c1.5,0,2.1,0.8,3.1,2.6l4.7-3.5
			c-1.7-2.8-3.9-4.5-7.6-4.5c-6.3,0-9.5,4.2-9.5,10.3c0,6.7,3.5,10.4,9.3,10.4c3.5,0,5.6-1.3,8-4.7l-4.3-3.4
			C295.4,93.5,294.5,94.2,293.2,94.2"/>
		<path id="Fill-13" class="st0" d="M316.6,79.1c-2.4,0-3.8,0.8-5,1.7v-9l-6.8,2.7v24.8h6.8V88.1c0-2.5,0.9-3.2,2.3-3.2
			c1.4,0,2.3,0.7,2.3,3.2v11.3h6.8V87.2C323.1,82,321,79.1,316.6,79.1"/>
	</g>
</g>
</svg>
