<svg id="Layer_1" data-name="Layer 1" xmlns="http://www.w3.org/2000/svg" viewBox="0 0 475 122"><defs><style>.cls-1{fill:#adabac;}</style></defs><title>press-logo-sf-chronicle</title><path class="cls-1" d="M52.26,84.2a6.37,6.37,0,0,1,4.07,4.9l5.11-4.9a15.28,15.28,0,0,1,2.76,2.29,6.4,6.4,0,0,1,1.72,4.38v9.18c0,1.93,1.46,2.34,2,2.81l-4.17,4.39A14,14,0,0,1,61,105a5.93,5.93,0,0,1-1.67-4.17v-8A3.24,3.24,0,0,0,57,89.26l-.62.52v10.53c0,1.88,1.09,2.14,1.56,2.61l-4.33,4.33s-3.85-2.15-3.85-4.8V92.28a3.36,3.36,0,0,0-2-3.33Zm5.06,4.64a3.65,3.65,0,0,1,2.45,3.7v8.19c0,2.86,2,4.58,4,5.94l.94-1c-1.51-1-3.65-2.5-3.65-5V92a4.4,4.4,0,0,0-2.6-4.17Zm-9,0a3.55,3.55,0,0,1,1.88,3.49v10c0,1.72,1.51,3.13,3.38,4.33l.89-.94c-1.41-1-3-1.82-3-3.86V92.08c0-2.51-1.1-3.76-2.14-4.18l-1,.94"/><path class="cls-1" d="M33.49,107.19c-1.72-1.35-4.58-3.6-4.58-8.24,0-3.65,3.07-7.24,9.22-6.67h.47c0-.84.21-3.08-1.25-3.39a6.32,6.32,0,0,1-4,1.72,4.25,4.25,0,0,1-3.55-1.51l5.11-4.9a4.38,4.38,0,0,0,3.65,2.45c.88,0,2.09-.88,3.29-2.45-.11,0,3.38.63,3.38,6.46v8.71a3.89,3.89,0,0,0,2.19,3.23l-4.58,4.59s-4.18-2.14-4.18-5v-.37Zm5.11-5.94v-8.4c-.47.06-2.29-.2-3.18.37a3.79,3.79,0,0,0-1.35,4.12c.52,2.45,3,4.11,3.86,4.53Zm-8.81-4.64a7.09,7.09,0,0,0-.41,2.55,9.3,9.3,0,0,0,4.06,7.4l1.2-1.25a11.29,11.29,0,0,1-3.44-3.44,9.28,9.28,0,0,1-1.3-5.37Zm8-8C39,89.15,39.07,90,39.07,92v10c0,1.82,1.83,3.54,3.7,4.69l1-1c-1.41-.84-3.5-1.93-3.5-4V92.08c0-2.51-.21-3.81-1.51-4.39Zm-4.69.57a4.76,4.76,0,0,1-1.67-1.09l-1,1a3.73,3.73,0,0,0,2.81,1.14,5.68,5.68,0,0,0,2.51-.67l-.06-.16a5.66,5.66,0,0,1-2.55-.21"/><path class="cls-1" d="M119.51,89.88v9.8c0,1.93,1.88,2.77,2.35,3.08l-4.59,4.59s-4.38-2.14-4.38-4.8V92.38a3.56,3.56,0,0,0-2-3.33l4.58-4.8a6.46,6.46,0,0,1,4,4.17l4.33-4.17,3.64,3.81-5.1,4.69Zm-8-.93a3.61,3.61,0,0,1,1.88,3.49v9.85c0,2,2.24,3.6,3.86,4.48l1-1c-1.41-.78-3.6-1.82-3.6-3.86V92.17c0-2.5-1-3.38-2.29-4.06Zm10.85,3.17,1-1-2.87-3-1,1,2.82,3"/><path class="cls-1" d="M176.7,84.2A4.71,4.71,0,0,0,180,86a3.31,3.31,0,0,0,2.24-.73l.16.11a6.18,6.18,0,0,1-2.87,4.53c-.84.47-2.87,1.15-4.12.42v9.8a2,2,0,0,0,1.88,1.88c1,0,1.51-.63,2.24-1.31l.36.37-6.15,6.15A10.78,10.78,0,0,1,170.5,105a5.46,5.46,0,0,1-1.67-4.22V93.22c0-.89-.16-1.67-1.1-1.93v-.15l2.87-2.82S174.36,88.74,176.7,84.2Zm-8.29,6.88a2,2,0,0,1,.89,2.09v7.61c0,2.87,1.67,4.48,4.43,5.89l.88-.94c-1.71-1-4.06-2.14-4.06-5V92.54c0-.46-.21-1.93-1.3-2.29Zm7-2.87v1.62a4,4,0,0,0,1.57.31,5.79,5.79,0,0,0,2.65-.88v-.11a7,7,0,0,1-2.34-.05,6,6,0,0,1-1.88-.89"/><path class="cls-1" d="M105.33,72a11.62,11.62,0,0,1-10,5.89c-3.81,0-4.65-1.15-7.77-1.15-2.82,0-4.54,1.67-4.33,3.34h-.11a5.15,5.15,0,0,1-.88-3c.05-2.66,2.66-5.06,6.3-5.37,3.34-.26,9.39,1.25,12.36,1.2a8,8,0,0,0,4.22-1.1ZM85,76.8a6.18,6.18,0,0,1,2.55-.58c2.25-.1,5.06,1.15,7.83,1.15a11.76,11.76,0,0,0,4.74-1.09l-.06-.21a19.4,19.4,0,0,1-4.74-.32c-2.71-.47-5.68-1-6.78-1-2,0-3.38.84-3.7,2.09H85"/><path class="cls-1" d="M116.59,71.48c-.73,4-4,6.26-7.61,6.88a9.34,9.34,0,0,1-3.6-.1v5h7.41l-6.41,7h-1v5.37a15.09,15.09,0,0,1-2.71,7.72,21.68,21.68,0,0,1-6.15,5.68s-4.69-4.64-10-4.64c-2.46,0-6.63,1.3-6.63,5.11,0,3.13,3.65,6.2,8.76,6.2a11.49,11.49,0,0,0,6.21-1.67l.31.42a12,12,0,0,1-6.62,1.93c-5.79,0-10.43-3.07-10.43-8.65,0-5.9,5.79-9.7,11.68-9.7,2.66,0,4.17.36,8.34,2.24V80.19l2.87-2.77a8.84,8.84,0,0,0,4-2,14.87,14.87,0,0,0,2.92-3.65,8.34,8.34,0,0,0,4.59,1.88,4.09,4.09,0,0,0,3.8-2.3Zm-16.52,7.61-1.41,1.36v20.22s.47.32.73.52.68.68.68.68Zm5.73-3.65-.47.42v1.77a8.58,8.58,0,0,0,3.65.26,9.9,9.9,0,0,0,3.13-1.09l0-.16A10.78,10.78,0,0,1,105.8,75.44ZM81.19,105.78l.06.11c1.3-1.41,3.75-1.88,5.32-1.93,4.58-.11,9,3.55,10.06,4.53l1.56-1.14a15.4,15.4,0,0,0-11.31-4.8C84.9,102.55,82.19,103.65,81.19,105.78Zm24.19-15.9h.79l1.4-1.56h-2.19v1.56"/><path class="cls-1" d="M191.3,99.58c0,2,1.87,2.76,2.34,3.07l-4.58,4.54s-4.38-2.09-4.38-4.74V92.38a3.56,3.56,0,0,0-2-3.33l4.59-4.85c1.78.68,4.07,2.45,4.07,5.06Zm-8-10.63a3.63,3.63,0,0,1,1.88,3.49v9.9c0,1.83,2.29,3.44,3.86,4.33l1-1c-1.4-1-3.59-2-3.59-4V92.17c0-2.34-1.1-3.59-2.24-4.06l-.89.84"/><path class="cls-1" d="M201.41,107.19a.07.07,0,0,0-.1,0,4.59,4.59,0,0,0-3.34-1.72,2.83,2.83,0,0,0-3.13,1.72h-.15c-.63-2.4,1.4-5.11,3.75-5.94a7.5,7.5,0,0,1,4.74-.16V95.25c-2.19.73-4.74,2.09-6.51,1.72a1.6,1.6,0,0,1-1.31-1.82v-4a1.28,1.28,0,0,0-.1-.68,1,1,0,0,0-.47-.37V90L197,87.85a8.79,8.79,0,0,0,7-3.65A4.89,4.89,0,0,0,207.3,86a4.6,4.6,0,0,0,2.92-.78l.16.1c-.11,1.72-2.35,3.86-3.91,4.54a6.48,6.48,0,0,1-4.75.16V93.9c2.92-.47,5.95-2.14,7-1.78.68.21,1.1.47,1.1,1.83v7.14a10.91,10.91,0,0,0-2,.26,8.19,8.19,0,0,0-2.13,1A12.61,12.61,0,0,0,201.41,107.19Zm-.1-.73.36-.62c.16-.26.42-.63.42-.63a4.42,4.42,0,0,0-3-1.3c-2.09,0-2.77,1-2.87,1.25l.1,0a4.78,4.78,0,0,1,3.18.1A4,4,0,0,1,201.31,106.46Zm.41-18.72v1.73a8.5,8.5,0,0,0,2.45.36,5.29,5.29,0,0,0,2.72-.73V89a9.55,9.55,0,0,1-3-.16A8.3,8.3,0,0,1,201.72,87.74ZM195.31,90c.52.36.52.73.52,1.3v2.92c0,1,0,1.61.32,2,.62.73,2.13.26,2.13.26a2.06,2.06,0,0,1-1.2-2.19V90.87c0-.47,0-1.46-.93-1.67Zm9,11.68a2.42,2.42,0,0,1,.57.41V95.72c0-.26,0-.68-.15-.83s-.21-.16-.31-.16l-.79.31v6.31a5,5,0,0,1,.68.32"/><path class="cls-1" d="M188.85,74l3.33,3.34-5,4.85L184,78.93Zm-4.22,4.9,2.6,2.61,1.1-1-2.66-2.66-1,1.09"/><path class="cls-1" d="M150.69,84.2a6.37,6.37,0,0,1,4.07,4.9l5.1-4.9a15.28,15.28,0,0,1,2.76,2.29,6.36,6.36,0,0,1,1.73,4.38v9.18c0,1.93,1.46,2.34,2,2.81l-4.17,4.39a14.17,14.17,0,0,1-2.82-2.3,5.92,5.92,0,0,1-1.66-4.17v-8a3.24,3.24,0,0,0-2.35-3.49l-.62.52v10.53c0,1.88,1.09,2.14,1.56,2.61L152,107.25s-3.86-2.15-3.86-4.8V92.28a3.35,3.35,0,0,0-2-3.33Zm5.06,4.64a3.65,3.65,0,0,1,2.44,3.7v8.19c0,2.86,2,4.58,4,5.94l.93-1c-1.51-1-3.64-2.5-3.64-5V92a4.39,4.39,0,0,0-2.61-4.17Zm-9,0a3.53,3.53,0,0,1,1.88,3.49v10c0,1.72,1.51,3.13,3.39,4.33l.89-.94c-1.41-1-3-1.82-3-3.86V92.08c0-2.51-1.09-3.76-2.13-4.18l-1,.94"/><path class="cls-1" d="M131.92,107.19c-1.72-1.35-4.59-3.6-4.59-8.24,0-3.65,3.08-7.24,9.23-6.67H137c0-.84.21-3.08-1.25-3.39a6.33,6.33,0,0,1-4,1.72,4.22,4.22,0,0,1-3.54-1.51l5.11-4.9A4.38,4.38,0,0,0,137,86.65c.88,0,2.08-.88,3.28-2.45-.1,0,3.39.63,3.39,6.46v8.71a3.87,3.87,0,0,0,2.19,3.23l-4.59,4.59s-4.17-2.14-4.17-5v-.37Zm5.11-5.94v-8.4c-.47.06-2.29-.2-3.18.37a3.78,3.78,0,0,0-1.36,4.12c.53,2.45,3,4.11,3.86,4.53Zm-8.81-4.64a7.07,7.07,0,0,0-.42,2.55,9.28,9.28,0,0,0,4.07,7.4l1.2-1.25a11.29,11.29,0,0,1-3.44-3.44,9.36,9.36,0,0,1-1.31-5.37Zm8-8c1.14.57,1.25,1.46,1.25,3.39v10c0,1.82,1.82,3.54,3.7,4.69l1-1c-1.41-.84-3.49-1.93-3.49-4V92.08c0-2.51-.21-3.81-1.51-4.39Zm-4.7.57a4.68,4.68,0,0,1-1.66-1.09l-1,1a3.76,3.76,0,0,0,2.82,1.14,5.64,5.64,0,0,0,2.5-.67l0-.16a5.7,5.7,0,0,1-2.56-.21"/><path class="cls-1" d="M293,75.39c1.72.57,3.39,3,3.39,6.1V89.1l5.11-4.9a16.71,16.71,0,0,1,2.76,2.35A6.31,6.31,0,0,1,306,90.93v15.84c0,.58-.15,10.69-8.28,10.69a4.4,4.4,0,0,1-4.18-2.55l.37-.26a3.43,3.43,0,0,0,3,1.77c2.71,0,2.5-3.08,2.5-4.75V92.8A3.53,3.53,0,0,0,297,89.15l-.63.58V100.2c0,1.88,1.1,2.14,1.57,2.61l-4.33,4.33s-3.86-2.14-3.86-4.8V83.94c0-2-.68-3.08-1.56-3.65Zm4.43,13.35a3.88,3.88,0,0,1,2.4,3.85v18.93c0,2.29,0,3-.57,4.06h.1c.78-.46,1.72-1.46,1.72-4.74V92.17a4.43,4.43,0,0,0-2.66-4.37Zm-8.55-8.5c.89.52,1.36,1.82,1.36,3.75v18.09c0,1.83,1.51,3.23,3.39,4.43l1-1c-1.41-1-3.13-1.82-3.13-3.86V83.73c0-2.5-.62-3.86-1.77-4.33l-.84.84"/><path class="cls-1" d="M278.2,72.21l-.05.21a14,14,0,0,0-8.3,2.4,16.38,16.38,0,0,0-6.67,13c-.05,7.4,4.17,12.25,5.37,12.77a10.28,10.28,0,0,1-.83-4,5,5,0,0,1,2.82-4.54V82.33a3,3,0,0,0-.16-1.36,1.31,1.31,0,0,0-.63-.63v-.1l2.77-3.34a11.65,11.65,0,0,0,4.9-.78c1.35-.68,3.54-4,3.54-4a7.1,7.1,0,0,0,4.8,2.14,4.31,4.31,0,0,0,4-2.46L290,72a8.42,8.42,0,0,1-5.78,6.83c-4,1.41-6.52.41-6.52.41V94.73c0,.73,0,1.41-.37,1.82-.78.73-2.66-.25-4.38.27s-3.91,2.55-3.75,4.27c0,0,2.87,2.19,8.6,2.19,4.49,0,6.68-1.36,9.44-3.49l.21.15a15.15,15.15,0,0,1-14.34,9.86c-9,0-17.3-7.61-17.3-18.51,0-9.8,7.08-17.62,14.85-19.13C275.85,71.17,278.2,72.21,278.2,72.21Zm-16.42,5.73-.16-.1a19.94,19.94,0,0,0-5.21,13.5,17.75,17.75,0,0,0,11.52,17,16.39,16.39,0,0,0,10.32.15l.16-.2c-2.3.15-7.77-.21-11.06-2a16.4,16.4,0,0,1-7.66-8.08c-1.41-3-1.72-7.66-1.25-10.89C259.38,81.07,261.78,77.94,261.78,77.94Zm16,.68a6.89,6.89,0,0,0,2.87.37,12.39,12.39,0,0,0,3.95-.94l.06-.11a15.72,15.72,0,0,1-3.75-.62,14.5,14.5,0,0,1-2.35-1.1l-.78.52Zm-7.35,1.62a2.66,2.66,0,0,1,.41.52,2.14,2.14,0,0,1,.21,1.15V92.49a6,6,0,0,0-1.56,1.09,3.9,3.9,0,0,0-1.1,2.82l.11.15a6.13,6.13,0,0,1,2.19-2.08,7.58,7.58,0,0,1,2-.57V81.49a4,4,0,0,0-.42-1.77,2.55,2.55,0,0,0-.78-.79l-1,1.31"/><path class="cls-1" d="M242,99.63s-3,2-4.69,3.39a51.54,51.54,0,0,0-4.23,4.17,22.53,22.53,0,0,1-4.53-3.13c-1.05-1.14-2.09-2.19-2.09-4.22V93.17c0-1.15-.21-1.57-.73-1.77v-.16l2.87-2.82a18.68,18.68,0,0,0,7.56-4.17c.78.58,1.61,1.15,2.71,2S242,88,242,90.4Zm-6.63,1.56V93.64c0-1.93-1.14-2.66-2.29-3.29V98a3.66,3.66,0,0,0,1.36,2.5A9.72,9.72,0,0,0,235.34,101.19Zm-9-10c.67.42.57,1.46.57,2v6.78c0,2.76,3.28,5,6.1,6.56l.88-.93c-1.72-1-5.73-3-5.73-5.84V92.65c0-.48,0-2-.94-2.3Zm6.72-3v1.57a8.45,8.45,0,0,1,1.51.94,3.51,3.51,0,0,1,1.25,2.81v8l1.15.88.1-.1v-9a4.5,4.5,0,0,0-1.3-3.44,6.61,6.61,0,0,0-2.71-1.67"/><path class="cls-1" d="M220.49,84.2A4.68,4.68,0,0,0,223.82,86a3.34,3.34,0,0,0,2.25-.73l.15.11a6.12,6.12,0,0,1-2.87,4.53c-.83.47-2.86,1.15-4.11.42v9.8a2,2,0,0,0,1.87,1.88c1,0,1.51-.63,2.24-1.31l.37.37-6.15,6.15a10.89,10.89,0,0,1-3.29-2.24,5.46,5.46,0,0,1-1.67-4.22V93.22c0-.89-.15-1.67-1.09-1.93v-.15l2.87-2.82C214.33,88.27,218.14,88.74,220.49,84.2Zm-8.29,6.88a2,2,0,0,1,.88,2.09v7.61c0,2.87,1.68,4.43,4.44,5.89l.88-.94c-1.72-1-4.07-2.14-4.07-5V92.54c0-.46-.2-1.93-1.3-2.29Zm7-2.87v1.62a3.91,3.91,0,0,0,1.56.31,5.87,5.87,0,0,0,2.66-.88v-.11a7.1,7.1,0,0,1-2.35-.05,5.92,5.92,0,0,1-1.87-.89"/><path class="cls-1" d="M316.46,89.62v9.8c0,1.93,1.88,2.77,2.35,3.08l-4.59,4.59s-4.38-2.14-4.38-4.8V92.12a3.56,3.56,0,0,0-2-3.33l4.58-4.8a6.46,6.46,0,0,1,4,4.17L320.68,84l3.65,3.81-5.1,4.69Zm-8-.94a3.62,3.62,0,0,1,1.88,3.49V102c0,2,2.24,3.6,3.86,4.48l1-1c-1.41-.78-3.6-1.82-3.6-3.85V91.91c0-2.5-1-3.38-2.29-4.06Zm10.85,3.19,1-1-2.87-3-1,1,2.82,3"/><path class="cls-1" d="M339.56,99.53s-3,2-4.69,3.39a51.57,51.57,0,0,0-4.23,4.17,22.53,22.53,0,0,1-4.53-3.13c-1-1.15-2.09-2.19-2.09-4.22V93.06c0-1.15-.21-1.56-.73-1.77v-.15l2.87-2.82a18.83,18.83,0,0,0,7.56-4.17c.78.57,1.62,1.14,2.7,2s3.14,1.77,3.14,4.17Zm-6.63,1.56V93.53c0-1.93-1.14-2.66-2.29-3.28v7.61a3.66,3.66,0,0,0,1.36,2.5C332.36,100.67,332.57,100.83,332.93,101.09Zm-9-10c.68.41.57,1.45.57,2v6.77c0,2.77,3.29,5,6.1,6.57l.88-.93c-1.71-1-5.73-3-5.73-5.84v-7.2c0-.46,0-2-.93-2.29Zm6.72-3v1.56a9.49,9.49,0,0,1,1.51.94,3.51,3.51,0,0,1,1.25,2.82v8l1.15.88.11-.1v-9a4.48,4.48,0,0,0-1.31-3.44,6.61,6.61,0,0,0-2.71-1.67"/><path class="cls-1" d="M396.84,99.48a3.35,3.35,0,0,0,2.34,3.07l-4.58,4.59s-4.38-2.14-4.38-4.8V83.78c0-2-.68-2.87-1.67-3.44l4.59-4.79a6.18,6.18,0,0,1,3.7,5.31Zm-7.57-19.19c.89.52,1.42,1.62,1.42,3.54v18.25c0,2,2,3.29,3.85,4.48l.94-.93c-1.41-1-3.55-1.88-3.55-4V83.68c0-2.51-.67-3.81-1.87-4.22l-.79.83"/><path class="cls-1" d="M407.68,95.62V100a2,2,0,0,0,1.88,1.87c1,0,1.5-.62,2.24-1.3l.47.42-6.25,6.2a11.35,11.35,0,0,1-3.34-2.29,6.2,6.2,0,0,1-1.62-4.28V93.17c0-.89-.37-1.62-1.1-1.77v-.16l2.87-2.82a9.58,9.58,0,0,0,7.45-4.17,28,28,0,0,0,2.25,2.51c1.2,1.19,2.5,2.65,3,3.07C415.5,89.83,409,94.57,407.68,95.62Zm1.93-2.09-1.93-2.45v3.86Zm-9-2.34a2.07,2.07,0,0,1,.94,2.08v7.4c0,2.92,1.72,4.54,4.43,5.94l1-.93c-1.72-.94-4.17-1.93-4.17-5.11V92.65c0-.48-.26-2-1.36-2.3Zm7.09-2.92v1.92l2.35,3,1.09-.84-3.34-4.22-.1.11"/><path class="cls-1" d="M382.87,84.2A4.68,4.68,0,0,0,386.2,86a3.3,3.3,0,0,0,2.24-.73l.16.11a6.15,6.15,0,0,1-2.87,4.53c-.83.47-2.86,1.15-4.12.42v9.8a2,2,0,0,0,1.88,1.88c1,0,1.51-.63,2.24-1.31l.37.37L380,107.19a10.77,10.77,0,0,1-3.29-2.24,5.46,5.46,0,0,1-1.67-4.22V93.22c0-.89-.15-1.67-1.09-1.93v-.15l2.87-2.82S380.52,88.74,382.87,84.2Zm-8.29,6.88a2,2,0,0,1,.89,2.09v7.61c0,2.87,1.71,4.48,4.42,5.89l.89-.94c-1.72-1-4.06-2.14-4.06-5V92.54c0-.46-.21-1.93-1.31-2.29Zm7-2.87v1.62a4,4,0,0,0,1.57.31,5.87,5.87,0,0,0,2.66-.88v-.11a7.1,7.1,0,0,1-2.35-.05,6,6,0,0,1-1.88-.89"/><path class="cls-1" d="M370.77,99.58c0,2,1.88,2.76,2.34,3.07l-4.58,4.54s-4.38-2.09-4.38-4.74V92.38a3.57,3.57,0,0,0-2-3.33l4.58-4.85c1.78.68,4.07,2.45,4.07,5.06Zm-8-10.63a3.62,3.62,0,0,1,1.87,3.49v9.9c0,1.83,2.29,3.44,3.86,4.33l1-1c-1.41-1-3.6-2-3.6-4V92.17c0-2.34-1.1-3.59-2.24-4.06l-.88.84"/><path class="cls-1" d="M368.32,74l3.33,3.34-4.95,4.85-3.28-3.29Zm-4.22,4.9,2.6,2.61,1.1-1-2.66-2.66-1,1.09"/><path class="cls-1" d="M346.27,84.2a6.34,6.34,0,0,1,4.06,4.9l5.11-4.9a15.15,15.15,0,0,1,2.77,2.29,6.4,6.4,0,0,1,1.72,4.38v9.18c0,1.93,1.45,2.34,2,2.81l-4.17,4.39A14,14,0,0,1,355,105a5.89,5.89,0,0,1-1.67-4.17v-8A3.24,3.24,0,0,0,351,89.26l-.63.52v10.53c0,1.88,1.1,2.14,1.57,2.61l-4.33,4.33s-3.86-2.15-3.86-4.8V92.28a3.35,3.35,0,0,0-2-3.33Zm5.06,4.64a3.65,3.65,0,0,1,2.45,3.7v8.19c0,2.86,2,4.58,4,5.94l.93-1c-1.51-1-3.64-2.5-3.64-5V92a4.39,4.39,0,0,0-2.61-4.17Zm-9,0a3.54,3.54,0,0,1,1.87,3.49v10c0,1.72,1.51,3.13,3.39,4.33l.89-.94c-1.41-1-3-1.82-3-3.86V92.08c0-2.51-1.09-3.76-2.14-4.18l-1,.94"/><path class="cls-1" d="M91.87,79.55h4.84v9.16c0,4.74-2.66,7.23-6.56,7.91V90s-1.35,0-1.67.05c-1.66.31-1.66.78-1.87,1.51H86.5a4.54,4.54,0,0,1-1.35-3.17,4.92,4.92,0,0,1,5-4.79V81.22Zm-1.3,1.82v2.19h1.3V80.12Zm-3,8.43a6.4,6.4,0,0,1,3.07-.31v6.56l.73-.16a6.39,6.39,0,0,0,.67-.26V88.08H90.1a4.41,4.41,0,0,0-1.67.32,1.63,1.63,0,0,0-1,1.35l.16,0"/><path class="cls-1" d="M5.31,85c2.44,2.39,5.83,3.38,9.57,3.9,5.16.73,10.26,1.82,10,7.13a6.5,6.5,0,0,1-2.6,4.69l-.16-.11a1.7,1.7,0,0,0-.05-1C20.24,93.94,3,98.36,3.33,88a6.84,6.84,0,0,1,1.4-3.7A2.07,2.07,0,0,0,5.31,85ZM3.9,87.28a6.53,6.53,0,0,0,.89,4.27c1.19,1.92,4.63,3.12,8.06,3.64s6.3,1.14,8,2.08a3.24,3.24,0,0,1,1.77,2.6h.1c.83-.67,1.2-3.38-1.61-4.79-1.88-.93-4.84-1.4-8-1.87-2.3-.36-4-.52-5.89-1.66A5.91,5.91,0,0,1,4,87.28H3.9"/><path class="cls-1" d="M4.63,77.7c1.67-5.15,7.13-6.56,11-6.5a17.89,17.89,0,0,1,9,3.07L20.82,79c-1.25-.83-5.83-3.9-9.74-3.9-2.55,0-5.36.78-5.41,3-.1,3.17,8,3.38,11.87,4.26,10.15,2.34,10.67,7,10.3,11-.67,7.24-7.23,13.53-10.09,15.77,0,0-3.91-5.15-10.1-5.15-2.71,0-6.14,1.56-6.14,4.58,0,4,4.11,6.4,8.12,6.56a11.07,11.07,0,0,0,5.1-1.31l.21.47a12.71,12.71,0,0,1-5.52,1.41c-4.11,0-9.42-2.71-9.42-8.12,0-6.66,6.3-9.94,10.93-9.94a14,14,0,0,1,11.14,4.89c.15.11,3.59-2.76,3.9-6,.73-7.92-8-8.33-10.52-8.75C11.14,86.91,2,85.87,4.63,77.7ZM3,104.61l.1.15a7.71,7.71,0,0,1,4.84-1.45c5.72.26,8.59,3.75,9.94,5l1.51-1.3c-2.14-2.25-6.19-5-10.36-5C5.83,102.06,3.8,103.26,3,104.61Zm9-30a16.3,16.3,0,0,1,4.53,1.2,35,35,0,0,1,4.31,2.49l1-1.35a29.84,29.84,0,0,0-4.74-2.44c-1.25-.47-3.59-.94-5.15,0v.1"/></svg>