<?xml version="1.0" encoding="utf-8"?>
<!-- Generator: Adobe Illustrator 24.0.2, SVG Export Plug-In . SVG Version: 6.00 Build 0)  -->
<svg version="1.1" id="Layer_1" xmlns="http://www.w3.org/2000/svg" xmlns:xlink="http://www.w3.org/1999/xlink" x="0px" y="0px"
	 viewBox="0 0 1146 550" style="enable-background:new 0 0 1146 550;" xml:space="preserve">
<style type="text/css">
	.st0{fill:#122D44;}
	.st1{fill:#E0CB26;}
	.st2{fill:#064E96;}
	.st3{fill:#103C68;}
	.st4{fill:#0084CE;}
	.st5{fill:#577795;}
	.st6{fill:#A39634;}
</style>
<title>banner--join-us-sm</title>
<rect class="st0" width="1146" height="550"/>
<ellipse class="st1" cx="906.3" cy="275" rx="140.1" ry="140.1"/>
<circle class="st2" cx="0.3" cy="275" r="142.7"/>
<circle class="st3" cx="228.5" cy="275" r="142.7"/>
<path class="st4" d="M86,275c0,30.9,10,60.9,28.5,85.6c18.6-24.7,28.6-54.7,28.5-85.6c0-30.9-10-60.9-28.5-85.6
	C96,214.1,86,244.1,86,275z"/>
<ellipse class="st5" cx="456.8" cy="275" rx="142.7" ry="142.7"/>
<path class="st6" d="M314.1,275c0,30.9,10,60.9,28.5,85.6c38.1-50.7,38.1-120.5,0-171.2C324.1,214.1,314.1,244.1,314.1,275z"/>
</svg>
