<?xml version="1.0" encoding="utf-8"?>
<!-- Generator: Adobe Illustrator 24.0.2, SVG Export Plug-In . SVG Version: 6.00 Build 0)  -->
<svg version="1.1" id="Layer_1" xmlns="http://www.w3.org/2000/svg" xmlns:xlink="http://www.w3.org/1999/xlink" x="0px" y="0px"
	 viewBox="0 0 2880 470" style="enable-background:new 0 0 2880 470;" xml:space="preserve">
<style type="text/css">
	.st0{fill:#122D44;}
	.st1{fill:#E0CB26;}
	.st2{fill:#103C68;}
	.st3{fill:#064E96;}
	.st4{fill:#577795;}
	.st5{fill:#0084CE;}
	.st6{fill:#A39634;}
</style>
<title>banner--join-us-lg</title>
<rect class="st0" width="2880" height="470"/>
<ellipse class="st1" cx="2618.7" cy="235" rx="147.5" ry="147.5"/>
<circle class="st2" cx="-1.3" cy="235" r="150.2"/>
<circle class="st3" cx="239" cy="235" r="150.2"/>
<circle class="st2" cx="479.3" cy="235" r="150.2"/>
<circle class="st4" cx="719.6" cy="235" r="150.2"/>
<ellipse transform="matrix(0.7071 -0.7071 0.7071 0.7071 114.9978 747.6321)" class="st2" cx="960" cy="235" rx="150.2" ry="150.2"/>
<ellipse class="st3" cx="1200.1" cy="235" rx="150.2" ry="150.2"/>
<path class="st5" d="M1049.9,235c-0.1,32.5,10.5,64.1,30,90.1c40.1-53.4,40.1-126.8,0-180.2C1060.3,170.9,1049.8,202.5,1049.9,235z"
	/>
<circle class="st2" cx="1440.2" cy="235" r="150.2"/>
<path class="st5" d="M1290,235c-0.1,32.5,10.5,64.1,30,90.1c40.1-53.4,40.1-126.8,0-180.2C1300.5,170.9,1289.9,202.5,1290,235z"/>
<path class="st5" d="M88.8,235c-0.1,32.5,10.5,64.1,30,90.1c40.1-53.4,40.1-126.8,0-180.2C99.2,170.9,88.7,202.5,88.8,235z"/>
<path class="st5" d="M329.1,235c-0.1,32.5,10.5,64.1,30,90.1c40.1-53.4,40.1-126.8,0-180.2C339.6,170.9,329,202.5,329.1,235z"/>
<ellipse transform="matrix(0.7071 -0.7071 0.7071 0.7071 326.033 1257.1161)" class="st4" cx="1680.5" cy="235" rx="150.2" ry="150.2"/>
<path class="st6" d="M1530.3,235c-0.1,32.5,10.5,64.1,30,90.1c40.1-53.4,40.1-126.8,0-180.2C1540.8,170.9,1530.3,202.5,1530.3,235z"
	/>
<path class="st6" d="M569.4,235c-0.1,32.5,10.5,64.1,30,90.1c40.1-53.4,40.1-126.8,0-180.2C579.9,170.9,569.4,202.5,569.4,235z"/>
<path class="st6" d="M809.8,235c-0.1,32.5,10.5,64.1,30,90.1c40.1-53.4,40.1-126.8,0-180.2C820.3,170.9,809.8,202.5,809.8,235z"/>
</svg>
