<?xml version="1.0" encoding="utf-8"?>
<!-- Generator: Adobe Illustrator 24.0.2, SVG Export Plug-In . SVG Version: 6.00 Build 0)  -->
<svg version="1.1" id="Layer_1" xmlns="http://www.w3.org/2000/svg" xmlns:xlink="http://www.w3.org/1999/xlink" x="0px" y="0px"
	 viewBox="0 0 2452.3 237.1" style="enable-background:new 0 0 2452.3 237.1;" xml:space="preserve">
<style type="text/css">
	.st0{fill:#103C68;}
	.st1{clip-path:url(#SVGID_2_);}
	.st2{opacity:0.88;}
	.st3{fill:#122D44;}
</style>
<title>banner--people-projects-lg</title>
<rect class="st0" width="2452.3" height="237.1"/>
<g>
	<g>
		<defs>
			<rect id="SVGID_1_" width="2452.3" height="237.1"/>
		</defs>
		<clipPath id="SVGID_2_">
			<use xlink:href="#SVGID_1_"  style="overflow:visible;"/>
		</clipPath>
		<g class="st1">
			<g class="st2">
				<polygon class="st3" points="220.8,108 222.9,133.4 199.8,144.4 224.6,150.4 227.9,175.7 241.3,153.9 266.4,158.6 249.8,139.2 
					262,116.7 238.4,126.5 				"/>
				<polygon class="st3" points="308.4,69 310.4,94.4 287.4,105.4 312.2,111.4 315.5,136.7 328.9,114.9 354,119.6 337.4,100.2 
					349.6,77.7 326,87.5 				"/>
				<polygon class="st3" points="-41.9,225 -39.9,250.4 -63,261.4 -38.1,267.4 -34.8,292.7 -21.5,270.9 3.6,275.6 -13,256.1 
					-0.8,233.7 -24.4,243.5 				"/>
				<polygon class="st3" points="396,30 398,55.4 375,66.4 399.8,72.4 403.1,97.7 416.5,75.9 441.6,80.6 425,61.2 437.2,38.7 
					413.6,48.5 				"/>
				<polygon class="st3" points="45.7,186 47.7,211.4 24.6,222.4 49.5,228.4 52.8,253.7 66.1,231.9 91.2,236.6 74.6,217.2 
					86.8,194.7 63.2,204.5 				"/>
				<polygon class="st3" points="483.6,-9 485.6,16.4 462.6,27.4 487.4,33.4 490.7,58.7 504.1,36.9 529.2,41.6 512.6,22.2 
					524.8,-0.3 501.2,9.5 				"/>
				<polygon class="st3" points="133.2,147 135.3,172.4 112.2,183.4 137.1,189.4 140.4,214.7 153.7,192.9 178.8,197.6 162.2,178.2 
					174.4,155.7 150.8,165.5 				"/>
				<polygon class="st3" points="571.2,-48 573.2,-22.6 550.2,-11.6 575,-5.6 578.3,19.7 591.6,-2.1 616.8,2.6 600.2,-16.8 
					612.4,-39.3 588.8,-29.5 				"/>
				<polygon class="st3" points="159.4,-30.1 161.4,-4.6 138.3,6.4 163.2,12.3 166.5,37.7 179.8,15.9 204.9,20.5 188.3,1.1 
					200.5,-21.3 176.9,-11.5 				"/>
				<polygon class="st3" points="-15.8,47.9 -13.8,73.4 -36.8,84.4 -12,90.3 -8.7,115.6 4.7,93.8 29.8,98.5 13.2,79.1 25.4,56.7 
					1.8,66.4 				"/>
				<polygon class="st3" points="71.8,8.9 73.8,34.4 50.7,45.4 75.6,51.3 78.9,76.6 92.2,54.8 117.3,59.5 100.8,40.1 112.9,17.7 
					89.4,27.5 				"/>
				<polygon class="st3" points="720.2,51 722.3,76.5 699.2,87.5 724,93.4 727.4,118.8 740.7,97 765.8,101.6 749.2,82.2 761.4,59.8 
					737.8,69.6 				"/>
				<polygon class="st3" points="807.8,12 809.8,37.5 786.8,48.5 811.6,54.4 815,79.8 828.3,58 853.4,62.6 836.8,43.2 849,20.8 
					825.4,30.6 				"/>
				<polygon class="st3" points="369.9,207 371.9,232.5 348.8,243.5 373.7,249.4 377,274.8 390.3,253 415.5,257.6 398.9,238.2 
					411.1,215.8 387.5,225.6 				"/>
				<polygon class="st3" points="895.4,-27 897.4,-1.5 874.4,9.5 899.2,15.4 902.5,40.8 915.9,19 941,23.6 924.4,4.2 936.6,-18.2 
					913,-8.4 				"/>
				<polygon class="st3" points="457.5,168 459.5,193.5 436.4,204.5 461.3,210.4 464.6,235.8 477.9,214 503,218.6 486.4,199.2 
					498.6,176.8 475,186.6 				"/>
				<polygon class="st3" points="983,-66 985,-40.5 962,-29.5 986.8,-23.6 990.1,1.8 1003.5,-20 1028.6,-15.4 1012,-34.8 
					1024.2,-57.2 1000.6,-47.4 				"/>
				<polygon class="st3" points="545.1,129 547.1,154.5 524,165.5 548.9,171.4 552.2,196.8 565.5,175 590.6,179.6 574,160.2 
					586.2,137.8 562.6,147.6 				"/>
				<polygon class="st3" points="632.7,90 634.7,115.5 611.6,126.5 636.5,132.4 639.8,157.8 653.1,136 678.2,140.6 661.6,121.2 
					673.8,98.8 650.2,108.6 				"/>
				<polygon class="st3" points="-1.7,-41.1 0.3,-15.6 -22.8,-4.6 2.1,1.3 5.4,26.6 18.8,4.9 43.9,9.5 27.3,-9.9 39.5,-32.3 
					15.9,-22.5 				"/>
				<polygon class="st3" points="734.3,-38 736.4,-12.5 713.3,-1.5 738.2,4.4 741.5,29.8 754.8,8 779.9,12.6 763.3,-6.8 
					775.5,-29.2 751.9,-19.4 				"/>
				<polygon class="st3" points="296.4,157 298.4,182.5 275.4,193.5 300.2,199.4 303.5,224.8 316.9,203 342,207.6 325.4,188.2 
					337.6,165.8 314,175.6 				"/>
				<polygon class="st3" points="384,118 386,143.5 363,154.5 387.8,160.4 391.1,185.8 404.5,164 429.6,168.6 413,149.2 
					425.2,126.8 401.6,136.6 				"/>
				<polygon class="st3" points="471.6,79 473.6,104.5 450.5,115.5 475.4,121.4 478.7,146.8 492,125 517.2,129.6 500.5,110.2 
					512.8,87.8 489.2,97.6 				"/>
				<polygon class="st3" points="121.2,235 123.2,260.5 100.2,271.5 125,277.4 128.3,302.8 141.7,281 166.8,285.6 150.2,266.2 
					162.4,243.8 138.8,253.6 				"/>
				<polygon class="st3" points="559.2,40 561.2,65.5 538.1,76.5 563,82.4 566.3,107.8 579.6,86 604.7,90.6 588.1,71.2 600.3,48.8 
					576.8,58.6 				"/>
				<polygon class="st3" points="208.8,196 210.8,221.5 187.8,232.5 212.6,238.4 215.9,263.8 229.3,242 254.4,246.6 237.8,227.2 
					250,204.8 226.4,214.6 				"/>
				<polygon class="st3" points="646.8,1 648.8,26.5 625.7,37.5 650.6,43.4 653.9,68.8 667.2,47 692.3,51.7 675.7,32.2 687.9,9.8 
					664.3,19.6 				"/>
				<polygon class="st3" points="234.9,19 237,44.5 213.9,55.4 238.7,61.4 242.1,86.7 255.4,64.9 280.5,69.6 263.9,50.2 276.1,27.7 
					252.5,37.5 				"/>
				<polygon class="st3" points="322.5,-20 324.5,5.4 301.5,16.4 326.3,22.4 329.6,47.7 343,25.9 368.1,30.6 351.5,11.2 
					363.7,-11.3 340.1,-1.5 				"/>
				<polygon class="st3" points="-27.8,136 -25.8,161.4 -48.9,172.4 -24,178.4 -20.7,203.7 -7.4,181.9 17.7,186.6 1.1,167.2 
					13.3,144.7 -10.2,154.5 				"/>
				<polygon class="st3" points="410.1,-59 412.1,-33.5 389.1,-22.6 413.9,-16.6 417.2,8.7 430.6,-13.1 455.7,-8.4 439.1,-27.8 
					451.3,-50.3 427.7,-40.5 				"/>
				<polygon class="st3" points="59.8,97 61.8,122.4 38.7,133.4 63.6,139.4 66.9,164.7 80.2,142.9 105.3,147.6 88.7,128.2 
					100.9,105.7 77.3,115.5 				"/>
				<polygon class="st3" points="147.4,58 149.4,83.4 126.3,94.4 151.1,100.4 154.5,125.7 167.8,103.9 192.9,108.6 176.3,89.2 
					188.5,66.7 164.9,76.5 				"/>
				<polygon class="st3" points="795.8,100.1 797.8,125.6 774.8,136.5 799.6,142.5 802.9,167.8 816.3,146 841.4,150.7 824.8,131.3 
					837,108.8 813.4,118.6 				"/>
				<polygon class="st3" points="883.4,61.1 885.4,86.6 862.4,97.5 887.2,103.5 890.5,128.8 903.9,107 929,111.7 912.4,92.3 
					924.6,69.8 901,79.6 				"/>
				<polygon class="st3" points="971,22.1 973,47.6 950,58.5 974.8,64.5 978.1,89.8 991.5,68 1016.6,72.7 1000,53.3 1012.2,30.9 
					988.6,40.6 				"/>
				<polygon class="st3" points="533,217.1 535.1,242.6 512,253.5 536.8,259.5 540.2,284.8 553.5,263 578.6,267.7 562,248.3 
					574.2,225.8 550.6,235.6 				"/>
				<polygon class="st3" points="1058.6,-16.9 1060.6,8.6 1037.5,19.5 1062.4,25.5 1065.7,50.8 1079,29 1104.2,33.7 1087.6,14.3 
					1099.8,-8.1 1076.2,1.6 				"/>
				<polygon class="st3" points="620.6,178.1 622.7,203.6 599.6,214.5 624.4,220.5 627.8,245.8 641.1,224 666.2,228.7 649.6,209.3 
					661.8,186.8 638.2,196.6 				"/>
				<polygon class="st3" points="1146.2,-55.9 1148.2,-30.4 1125.1,-19.5 1150,-13.5 1153.3,11.8 1166.6,-10 1191.7,-5.3 
					1175.1,-24.7 1187.3,-47.2 1163.8,-37.3 				"/>
				<polygon class="st3" points="708.2,139.1 710.2,164.6 687.2,175.5 712,181.5 715.3,206.8 728.7,185 753.8,189.7 737.2,170.3 
					749.4,147.8 725.8,157.6 				"/>
				<polygon class="st3" points="781.7,189.1 783.7,214.6 760.7,225.5 785.5,231.5 788.8,256.8 802.2,235 827.3,239.7 810.7,220.3 
					822.9,197.8 799.3,207.6 				"/>
				<polygon class="st3" points="1219.7,-5.9 1221.7,19.6 1198.6,30.5 1223.4,36.5 1226.8,61.8 1240.1,40 1265.2,44.7 1248.6,25.3 
					1260.8,2.8 1237.2,12.6 				"/>
				<polygon class="st3" points="869.3,150.1 871.3,175.6 848.2,186.5 873.1,192.5 876.4,217.8 889.8,196 914.9,200.7 898.3,181.3 
					910.5,158.8 886.9,168.6 				"/>
				<polygon class="st3" points="1307.2,-44.9 1309.3,-19.4 1286.2,-8.4 1311,-2.5 1314.4,22.8 1327.7,1 1352.8,5.7 1336.2,-13.7 
					1348.4,-36.2 1324.8,-26.4 				"/>
				<polygon class="st3" points="956.9,111.1 958.9,136.6 935.8,147.5 960.7,153.5 964,178.8 977.3,157 1002.5,161.7 985.8,142.3 
					998,119.8 974.5,129.6 				"/>
				<polygon class="st3" points="1044.5,72.1 1046.5,97.6 1023.4,108.5 1048.3,114.5 1051.6,139.8 1064.9,118 1090,122.7 
					1073.4,103.3 1085.6,80.8 1062.1,90.6 				"/>
				<polygon class="st3" points="1132.1,33.1 1134.1,58.6 1111,69.5 1135.9,75.5 1139.2,100.8 1152.5,79 1177.6,83.7 1161,64.3 
					1173.2,41.8 1149.6,51.6 				"/>
				<polygon class="st3" points="694.1,228.1 696.1,253.5 673.1,264.5 697.9,270.5 701.2,295.8 714.6,274 739.7,278.7 723.1,259.3 
					735.3,236.8 711.7,246.6 				"/>
				<polygon class="st3" points="1430.2,231.2 1432.2,256.7 1409.1,267.6 1434,273.6 1437.3,298.9 1450.6,277.1 1475.7,281.8 
					1459.1,262.4 1471.3,239.9 1447.7,249.7 				"/>
				<polygon class="st3" points="1517.8,192.2 1519.8,217.7 1496.7,228.6 1521.6,234.6 1524.9,259.9 1538.2,238.1 1563.3,242.8 
					1546.7,223.4 1558.9,200.9 1535.3,210.7 				"/>
				<polygon class="st3" points="1281.1,132.1 1283.1,157.6 1260.1,168.6 1284.9,174.5 1288.2,199.9 1301.6,178.1 1326.7,182.8 
					1310.1,163.3 1322.3,140.9 1298.7,150.7 				"/>
				<polygon class="st3" points="1368.7,93.1 1370.7,118.6 1347.7,129.6 1372.5,135.5 1375.8,160.9 1389.2,139.1 1414.3,143.8 
					1397.7,124.3 1409.9,101.9 1386.3,111.7 				"/>
				<polygon class="st3" points="1456.3,54.2 1458.3,79.6 1435.2,90.6 1460.1,96.6 1463.4,121.9 1476.8,100.1 1501.9,104.8 
					1485.3,85.3 1497.5,62.9 1473.9,72.7 				"/>
				<polygon class="st3" points="1105.9,210.1 1108,235.6 1084.9,246.6 1109.7,252.5 1113.1,277.9 1126.4,256.1 1151.5,260.8 
					1134.9,241.3 1147.1,218.9 1123.5,228.7 				"/>
				<polygon class="st3" points="1543.9,15.1 1545.9,40.6 1522.8,51.6 1547.7,57.5 1551,82.9 1564.3,61.1 1589.4,65.8 1572.8,46.3 
					1585.1,23.9 1561.5,33.7 				"/>
				<polygon class="st3" points="1193.5,171.1 1195.6,196.6 1172.5,207.6 1197.3,213.5 1200.6,238.9 1214,217.1 1239.1,221.8 
					1222.5,202.3 1234.7,179.9 1211.1,189.7 				"/>
				<polygon class="st3" points="1295.2,43.2 1297.2,68.6 1274.2,79.6 1299,85.6 1302.3,110.9 1315.7,89.1 1340.8,93.8 1324.2,74.3 
					1336.4,51.9 1312.8,61.7 				"/>
				<polygon class="st3" points="944.9,199.1 946.9,224.6 923.8,235.6 948.7,241.5 952,266.9 965.3,245.1 990.4,249.8 973.8,230.3 
					986,207.9 962.4,217.7 				"/>
				<polygon class="st3" points="1382.8,4.2 1384.8,29.6 1361.8,40.6 1386.6,46.6 1389.9,71.9 1403.3,50.1 1428.4,54.8 1411.8,35.3 
					1424,12.9 1400.4,22.7 				"/>
				<polygon class="st3" points="1032.5,160.1 1034.5,185.6 1011.4,196.6 1036.3,202.5 1039.6,227.9 1052.9,206.1 1078,210.8 
					1061.4,191.3 1073.6,168.9 1050,178.7 				"/>
				<polygon class="st3" points="1470.4,-34.8 1472.4,-9.4 1449.4,1.6 1474.2,7.6 1477.5,32.9 1490.8,11.1 1516,15.8 1499.4,-3.7 
					1511.6,-26.1 1488,-16.3 				"/>
				<polygon class="st3" points="1120.1,121.2 1122.1,146.6 1099,157.6 1123.8,163.6 1127.2,188.9 1140.5,167.1 1165.6,171.8 
					1149,152.3 1161.2,129.9 1137.6,139.7 				"/>
				<polygon class="st3" points="1207.6,82.2 1209.7,107.6 1186.6,118.6 1211.4,124.6 1214.8,149.9 1228.1,128.1 1253.2,132.8 
					1236.6,113.3 1248.8,90.9 1225.2,100.7 				"/>
				<polygon class="st3" points="1356.7,181.2 1358.7,206.7 1335.6,217.6 1360.5,223.6 1363.8,248.9 1377.1,227.1 1402.3,231.8 
					1385.7,212.4 1397.9,189.9 1374.3,199.8 				"/>
				<polygon class="st3" points="1444.3,142.2 1446.3,167.7 1423.2,178.7 1448.1,184.6 1451.4,209.9 1464.7,188.1 1489.8,192.8 
					1473.2,173.4 1485.4,151 1461.8,160.8 				"/>
				<polygon class="st3" points="1531.9,103.2 1533.9,128.7 1510.8,139.7 1535.7,145.6 1539,170.9 1552.3,149.1 1577.4,153.8 
					1560.8,134.4 1573,112 1549.4,121.8 				"/>
				<polygon class="st3" points="1269.1,220.2 1271.1,245.7 1248.1,256.6 1272.9,262.6 1276.2,287.9 1289.6,266.1 1314.7,270.8 
					1298.1,251.4 1310.3,228.9 1286.7,238.7 				"/>
			</g>
			<g class="st2">
				<polygon class="st3" points="1854.9,123.2 1856.9,148.6 1833.8,159.6 1858.7,165.6 1862,190.9 1875.3,169.1 1900.4,173.8 
					1883.8,154.4 1896,131.9 1872.4,141.7 				"/>
				<polygon class="st3" points="1942.5,84.2 1944.5,109.6 1921.4,120.6 1946.3,126.6 1949.6,151.9 1962.9,130.1 1988,134.8 
					1971.4,115.4 1983.6,92.9 1960,102.7 				"/>
				<polygon class="st3" points="2030.1,45.2 2032.1,70.6 2009,81.6 2033.8,87.6 2037.2,112.9 2050.5,91.1 2075.6,95.8 2059,76.4 
					2071.2,53.9 2047.6,63.7 				"/>
				<polygon class="st3" points="1679.7,201.2 1681.7,226.6 1658.7,237.6 1683.5,243.6 1686.8,268.9 1700.2,247.1 1725.3,251.8 
					1708.7,232.4 1720.9,209.9 1697.3,219.7 				"/>
				<polygon class="st3" points="2117.6,6.2 2119.7,31.6 2096.6,42.6 2121.4,48.6 2124.8,73.9 2138.1,52.1 2163.2,56.8 2146.6,37.4 
					2158.8,14.9 2135.2,24.7 				"/>
				<polygon class="st3" points="1767.3,162.2 1769.3,187.6 1746.2,198.6 1771.1,204.6 1774.4,229.9 1787.7,208.1 1812.8,212.8 
					1796.2,193.4 1808.4,170.9 1784.9,180.7 				"/>
				<polygon class="st3" points="2205.2,-32.8 2207.2,-7.3 2184.2,3.6 2209,9.6 2212.4,34.9 2225.7,13.1 2250.8,17.8 2234.2,-1.6 
					2246.4,-24.1 2222.8,-14.3 				"/>
				<polygon class="st3" points="1793.4,-14.9 1795.4,10.6 1772.4,21.6 1797.2,27.5 1800.5,52.8 1813.9,31.1 1839,35.7 1822.4,16.3 
					1834.6,-6.1 1811,3.7 				"/>
				<polygon class="st3" points="1881,-53.9 1883,-28.4 1859.9,-17.4 1884.8,-11.5 1888.1,13.9 1901.4,-7.9 1926.6,-3.3 1910,-22.7 
					1922.2,-45.1 1898.6,-35.3 				"/>
				<polygon class="st3" points="1618.2,63.1 1620.2,88.6 1597.2,99.6 1622,105.5 1625.3,130.8 1638.7,109.1 1663.8,113.7 
					1647.2,94.3 1659.4,71.9 1635.8,81.7 				"/>
				<polygon class="st3" points="1705.8,24.1 1707.8,49.6 1684.8,60.6 1709.6,66.5 1712.9,91.8 1726.3,70.1 1751.4,74.7 
					1734.8,55.3 1747,32.9 1723.4,42.7 				"/>
				<polygon class="st3" points="2354.3,66.2 2356.3,91.7 2333.2,102.7 2358.1,108.6 2361.4,134 2374.7,112.2 2399.9,116.8 
					2383.2,97.4 2395.4,75 2371.9,84.8 				"/>
				<polygon class="st3" points="2441.9,27.2 2443.9,52.7 2420.8,63.7 2445.7,69.6 2449,95 2462.3,73.2 2487.4,77.8 2470.8,58.4 
					2483,36 2459.4,45.8 				"/>
				<polygon class="st3" points="2003.9,222.2 2005.9,247.7 1982.9,258.7 2007.7,264.6 2011,290 2024.4,268.2 2049.5,272.8 
					2032.9,253.4 2045.1,231 2021.5,240.8 				"/>
				<polygon class="st3" points="2091.5,183.2 2093.5,208.7 2070.5,219.7 2095.3,225.6 2098.6,251 2112,229.2 2137.1,233.8 
					2120.5,214.4 2132.7,192 2109.1,201.8 				"/>
				<polygon class="st3" points="2179.1,144.2 2181.1,169.7 2158.1,180.7 2182.9,186.6 2186.2,212 2199.6,190.2 2224.7,194.8 
					2208.1,175.4 2220.3,153 2196.7,162.8 				"/>
				<polygon class="st3" points="2266.7,105.2 2268.7,130.7 2245.6,141.7 2270.5,147.6 2273.8,173 2287.1,151.2 2312.3,155.8 
					2295.7,136.4 2307.9,114 2284.3,123.8 				"/>
				<polygon class="st3" points="1632.3,-25.9 1634.4,-0.4 1611.3,10.6 1636.1,16.5 1639.4,41.9 1652.8,20.1 1677.9,24.7 
					1661.3,5.3 1673.5,-17.1 1649.9,-7.3 				"/>
				<polygon class="st3" points="2368.4,-22.8 2370.4,2.7 2347.3,13.7 2372.2,19.6 2375.5,45 2388.8,23.2 2414,27.9 2397.4,8.4 
					2409.6,-14 2386,-4.2 				"/>
				<polygon class="st3" points="1930.4,172.2 1932.5,197.7 1909.4,208.7 1934.2,214.6 1937.6,240 1950.9,218.2 1976,222.8 
					1959.4,203.4 1971.6,181 1948,190.8 				"/>
				<polygon class="st3" points="2018,133.2 2020.1,158.7 1997,169.7 2021.8,175.6 2025.2,201 2038.5,179.2 2063.6,183.8 
					2047,164.4 2059.2,142 2035.6,151.8 				"/>
				<polygon class="st3" points="2105.6,94.2 2107.6,119.7 2084.6,130.7 2109.4,136.6 2112.7,162 2126.1,140.2 2151.2,144.9 
					2134.6,125.4 2146.8,103 2123.2,112.8 				"/>
				<polygon class="st3" points="2193.2,55.2 2195.2,80.7 2172.2,91.7 2197,97.6 2200.3,123 2213.7,101.2 2238.8,105.8 2222.2,86.4 
					2234.4,64 2210.8,73.8 				"/>
				<polygon class="st3" points="1842.8,211.2 1844.9,236.7 1821.8,247.7 1846.7,253.6 1850,279 1863.3,257.2 1888.4,261.8 
					1871.8,242.4 1884,220 1860.4,229.8 				"/>
				<polygon class="st3" points="2280.8,16.2 2282.8,41.7 2259.8,52.7 2284.6,58.6 2287.9,84 2301.2,62.2 2326.4,66.8 2309.8,47.4 
					2322,25 2298.4,34.8 				"/>
				<polygon class="st3" points="1869,34.2 1871,59.7 1847.9,70.6 1872.8,76.6 1876.1,101.9 1889.4,80.1 1914.6,84.8 1897.9,65.4 
					1910.2,42.9 1886.6,52.7 				"/>
				<polygon class="st3" points="1956.6,-4.8 1958.6,20.6 1935.5,31.6 1960.4,37.6 1963.7,62.9 1977,41.1 2002.1,45.8 1985.5,26.4 
					1997.7,3.9 1974.1,13.7 				"/>
				<polygon class="st3" points="1606.2,151.2 1608.2,176.6 1585.2,187.6 1610,193.6 1613.3,218.9 1626.7,197.1 1651.8,201.8 
					1635.2,182.4 1647.4,159.9 1623.8,169.7 				"/>
				<polygon class="st3" points="2044.2,-43.8 2046.2,-18.3 2023.1,-7.4 2048,-1.4 2051.3,23.9 2064.6,2.1 2089.7,6.8 2073.1,-12.6 
					2085.3,-35.1 2061.7,-25.3 				"/>
				<polygon class="st3" points="1693.8,112.2 1695.8,137.6 1672.8,148.6 1697.6,154.6 1700.9,179.9 1714.2,158.1 1739.4,162.8 
					1722.8,143.4 1735,120.9 1711.4,130.7 				"/>
				<polygon class="st3" points="1781.4,73.2 1783.4,98.7 1760.3,109.6 1785.2,115.6 1788.5,140.9 1801.8,119.1 1827,123.8 
					1810.4,104.4 1822.6,81.9 1799,91.7 				"/>
				<polygon class="st3" points="2429.9,115.3 2431.9,140.8 2408.8,151.8 2433.6,157.7 2437,183 2450.3,161.2 2475.4,165.9 
					2458.8,146.5 2471,124.1 2447.4,133.8 				"/>
				<polygon class="st3" points="2167.1,232.3 2169.1,257.8 2146,268.7 2170.9,274.7 2174.2,300 2187.5,278.2 2212.6,282.9 
					2196.1,263.5 2208.2,241 2184.7,250.8 				"/>
				<polygon class="st3" points="2254.7,193.3 2256.7,218.8 2233.6,229.7 2258.5,235.7 2261.8,261 2275.1,239.2 2300.2,243.9 
					2283.6,224.5 2295.8,202 2272.2,211.8 				"/>
				<polygon class="st3" points="2342.3,154.3 2344.3,179.8 2321.2,190.7 2346.1,196.7 2349.4,222 2362.7,200.2 2387.8,204.9 
					2371.2,185.5 2383.4,163 2359.8,172.8 				"/>
				<polygon class="st3" points="2415.8,204.3 2417.8,229.8 2394.7,240.7 2419.6,246.7 2422.9,272 2436.2,250.2 2461.3,254.9 
					2444.7,235.5 2456.9,213 2433.3,222.8 				"/>
			</g>
		</g>
	</g>
</g>
</svg>
