<?xml version="1.0" encoding="utf-8"?>
<!-- Generator: Adobe Illustrator 24.0.2, SVG Export Plug-In . SVG Version: 6.00 Build 0)  -->
<svg version="1.1" id="Layer_1" xmlns="http://www.w3.org/2000/svg" xmlns:xlink="http://www.w3.org/1999/xlink" x="0px" y="0px"
	 viewBox="0 0 2880 470" style="enable-background:new 0 0 2880 470;" xml:space="preserve">
<style type="text/css">
	.st0{fill:#122D44;}
	.st1{fill:#103C68;}
	.st2{fill:#DCC425;}
	.st3{fill:#E0CB26;}
	.st4{fill:#A39634;}
	.st5{fill:#75692A;}
	.st6{fill:#064E96;}
	.st7{fill:#577795;}
</style>
<title>banner--faq-lg</title>
<rect x="1" class="st0" width="2880" height="470"/>
<polygon class="st1" points="2880,0 520,470 2880,470 "/>
<polygon class="st2" points="319.4,267.4 172,295.6 172,110.2 312.5,83.4 "/>
<polygon class="st3" points="273.7,227.8 172,248.4 172,110.2 273.7,90.8 "/>
<polygon class="st4" points="357.3,260.1 172,295.6 172,248.4 273.7,227.8 "/>
<polygon class="st5" points="357.3,260.1 357.3,74.8 273.7,90.8 273.7,227.8 "/>
<polygon class="st6" points="795.3,415.2 1085.2,470 2447.4,470 1458.8,283 "/>
<polygon class="st7" points="357.3,74.8 357.3,260.1 172,295.5 795.3,415.2 1458.8,283 "/>
</svg>
