<?xml version="1.0" encoding="utf-8"?>
<!-- Generator: Adobe Illustrator 24.0.2, SVG Export Plug-In . SVG Version: 6.00 Build 0)  -->
<svg version="1.1" id="Layer_1" xmlns="http://www.w3.org/2000/svg" xmlns:xlink="http://www.w3.org/1999/xlink" x="0px" y="0px"
	 viewBox="0 0 910.4 225" style="enable-background:new 0 0 910.4 225;" xml:space="preserve">
<style type="text/css">
	.st0{fill:#103C68;}
	.st1{clip-path:url(#SVGID_2_);}
	.st2{opacity:0.88;}
	.st3{fill:#122D44;}
</style>
<title>banner--people-projects-sm</title>
<rect class="st0" width="910.4" height="225"/>
<g>
	<g>
		<defs>
			<rect id="SVGID_1_" width="910.4" height="225"/>
		</defs>
		<clipPath id="SVGID_2_">
			<use xlink:href="#SVGID_1_"  style="overflow:visible;"/>
		</clipPath>
		<g class="st1">
			<g class="st2">
				<polygon class="st3" points="221.8,109.5 223.9,134.9 200.8,145.9 225.6,151.9 228.9,177.2 242.3,155.4 267.4,160.1 
					250.8,140.7 263,118.2 239.4,128 				"/>
				<polygon class="st3" points="309.4,70.5 311.4,95.9 288.4,106.9 313.2,112.9 316.5,138.2 329.9,116.4 355,121.1 338.4,101.7 
					350.6,79.2 327,89 				"/>
				<polygon class="st3" points="397,31.5 399,56.9 376,67.9 400.8,73.9 404.1,99.2 417.5,77.4 442.6,82.1 426,62.7 438.2,40.2 
					414.6,50 				"/>
				<polygon class="st3" points="46.7,187.5 48.7,212.9 25.6,223.9 50.5,229.9 53.8,255.2 67.1,233.4 92.2,238.1 75.6,218.7 
					87.8,196.2 64.2,206 				"/>
				<polygon class="st3" points="484.6,-7.5 486.6,17.9 463.6,28.9 488.4,34.9 491.7,60.2 505.1,38.4 530.2,43.1 513.6,23.7 
					525.8,1.2 502.2,11 				"/>
				<polygon class="st3" points="134.2,148.5 136.3,173.9 113.2,184.9 138.1,190.9 141.4,216.2 154.7,194.4 179.8,199.1 
					163.2,179.7 175.4,157.2 151.8,167 				"/>
				<polygon class="st3" points="572.2,-46.5 574.2,-21.1 551.2,-10.1 576,-4.1 579.3,21.2 592.6,-0.6 617.8,4.1 601.2,-15.3 
					613.4,-37.8 589.8,-28 				"/>
				<polygon class="st3" points="160.4,-28.6 162.4,-3.1 139.3,7.9 164.2,13.8 167.5,39.2 180.8,17.4 205.9,22 189.3,2.6 
					201.5,-19.8 177.9,-10 				"/>
				<polygon class="st3" points="248,-67.6 250,-42.1 226.9,-31.1 251.8,-25.2 255.1,0.2 268.4,-21.6 293.5,-17 276.9,-36.4 
					289.1,-58.8 265.5,-49 				"/>
				<polygon class="st3" points="-14.8,49.4 -12.8,74.9 -35.8,85.9 -11,91.8 -7.7,117.1 5.7,95.3 30.8,100 14.2,80.6 26.4,58.2 
					2.8,67.9 				"/>
				<polygon class="st3" points="72.8,10.4 74.8,35.9 51.7,46.9 76.6,52.8 79.9,78.1 93.2,56.3 118.3,61 101.8,41.6 113.9,19.2 
					90.4,29 				"/>
				<polygon class="st3" points="721.2,52.5 723.3,78 700.2,89 725,94.9 728.4,120.3 741.7,98.5 766.8,103.1 750.2,83.7 762.4,61.3 
					738.8,71.1 				"/>
				<polygon class="st3" points="808.8,13.5 810.8,39 787.8,50 812.6,55.9 816,81.3 829.3,59.5 854.4,64.1 837.8,44.7 850,22.3 
					826.4,32.1 				"/>
				<polygon class="st3" points="370.9,208.5 372.9,234 349.8,245 374.7,250.9 378,276.2 391.3,254.5 416.5,259.1 399.9,239.7 
					412.1,217.3 388.5,227.1 				"/>
				<polygon class="st3" points="896.4,-25.5 898.4,0 875.4,11 900.2,16.9 903.5,42.3 916.9,20.5 942,25.1 925.4,5.7 937.6,-16.7 
					914,-6.9 				"/>
				<polygon class="st3" points="458.5,169.5 460.5,195 437.4,206 462.3,211.9 465.6,237.2 478.9,215.5 504,220.1 487.4,200.7 
					499.6,178.3 476,188.1 				"/>
				<polygon class="st3" points="546.1,130.5 548.1,156 525,167 549.9,172.9 553.2,198.2 566.5,176.5 591.6,181.1 575,161.7 
					587.2,139.3 563.6,149.1 				"/>
				<polygon class="st3" points="633.7,91.5 635.7,117 612.6,128 637.5,133.9 640.8,159.3 654.1,137.5 679.2,142.1 662.6,122.7 
					674.8,100.3 651.2,110.1 				"/>
				<polygon class="st3" points="-0.7,-39.6 1.3,-14.1 -21.8,-3.1 3.1,2.8 6.4,28.1 19.8,6.4 44.9,11 28.3,-8.4 40.5,-30.8 
					16.9,-21 				"/>
				<polygon class="st3" points="735.3,-36.5 737.4,-11 714.3,0 739.2,5.9 742.5,31.3 755.8,9.5 780.9,14.1 764.3,-5.3 776.5,-27.7 
					752.9,-17.9 				"/>
				<polygon class="st3" points="297.4,158.5 299.4,184 276.4,195 301.2,200.9 304.5,226.3 317.9,204.5 343,209.1 326.4,189.7 
					338.6,167.3 315,177.1 				"/>
				<polygon class="st3" points="385,119.5 387,145 364,156 388.8,161.9 392.1,187.3 405.5,165.5 430.6,170.1 414,150.7 
					426.2,128.3 402.6,138.1 				"/>
				<polygon class="st3" points="472.6,80.5 474.6,106 451.5,117 476.4,122.9 479.7,148.3 493,126.5 518.2,131.1 501.5,111.7 
					513.8,89.3 490.2,99.1 				"/>
				<polygon class="st3" points="560.2,41.5 562.2,67 539.1,78 564,83.9 567.3,109.3 580.6,87.5 605.7,92.1 589.1,72.7 601.3,50.3 
					577.8,60.1 				"/>
				<polygon class="st3" points="209.8,197.5 211.8,223 188.8,234 213.6,239.9 216.9,265.2 230.3,243.5 255.4,248.1 238.8,228.7 
					251,206.3 227.4,216.1 				"/>
				<polygon class="st3" points="647.8,2.5 649.8,28 626.7,39 651.6,44.9 654.9,70.3 668.2,48.5 693.3,53.2 676.7,33.7 688.9,11.3 
					665.3,21.1 				"/>
				<polygon class="st3" points="235.9,20.5 238,46 214.9,56.9 239.7,62.9 243.1,88.2 256.4,66.4 281.5,71.1 264.9,51.7 277.1,29.2 
					253.5,39 				"/>
				<polygon class="st3" points="323.5,-18.5 325.5,6.9 302.5,17.9 327.3,23.9 330.6,49.2 344,27.4 369.1,32.1 352.5,12.7 
					364.7,-9.8 341.1,0 				"/>
				<polygon class="st3" points="-26.8,137.5 -24.8,162.9 -47.9,173.9 -23,179.9 -19.7,205.2 -6.4,183.4 18.7,188.1 2.1,168.7 
					14.3,146.2 -9.2,156 				"/>
				<polygon class="st3" points="411.1,-57.5 413.1,-32 390.1,-21.1 414.9,-15.1 418.2,10.2 431.6,-11.6 456.7,-6.9 440.1,-26.3 
					452.3,-48.8 428.7,-39 				"/>
				<polygon class="st3" points="60.8,98.5 62.8,123.9 39.7,134.9 64.6,140.9 67.9,166.2 81.2,144.4 106.3,149.1 89.7,129.7 
					101.9,107.2 78.3,117 				"/>
				<polygon class="st3" points="148.4,59.5 150.4,84.9 127.3,95.9 152.1,101.9 155.5,127.2 168.8,105.4 193.9,110.1 177.3,90.7 
					189.5,68.2 165.9,78 				"/>
				<polygon class="st3" points="796.8,101.6 798.8,127.1 775.8,138 800.6,144 803.9,169.3 817.3,147.5 842.4,152.2 825.8,132.8 
					838,110.3 814.4,120.1 				"/>
				<polygon class="st3" points="884.4,62.6 886.4,88.1 863.4,99 888.2,105 891.5,130.3 904.9,108.5 930,113.2 913.4,93.8 
					925.6,71.3 902,81.1 				"/>
				<polygon class="st3" points="534,218.6 536.1,244.1 513,255 537.8,261 541.2,286.3 554.5,264.5 579.6,269.2 563,249.8 
					575.2,227.3 551.6,237.1 				"/>
				<polygon class="st3" points="621.6,179.6 623.7,205.1 600.6,216 625.4,222 628.8,247.3 642.1,225.5 667.2,230.2 650.6,210.8 
					662.8,188.3 639.2,198.1 				"/>
				<polygon class="st3" points="709.2,140.6 711.2,166.1 688.2,177 713,183 716.3,208.3 729.7,186.5 754.8,191.2 738.2,171.8 
					750.4,149.3 726.8,159.1 				"/>
				<polygon class="st3" points="782.7,190.6 784.7,216.1 761.7,227 786.5,233 789.8,258.3 803.2,236.5 828.3,241.2 811.7,221.8 
					823.9,199.3 800.3,209.1 				"/>
				<polygon class="st3" points="870.3,151.6 872.3,177.1 849.2,188 874.1,194 877.4,219.3 890.8,197.5 915.9,202.2 899.3,182.8 
					911.5,160.3 887.9,170.1 				"/>
			</g>
		</g>
	</g>
</g>
</svg>
