<?xml version="1.0" encoding="utf-8"?>
<!-- Generator: Adobe Illustrator 24.0.2, SVG Export Plug-In . SVG Version: 6.00 Build 0)  -->
<svg version="1.1" id="Layer_1" xmlns="http://www.w3.org/2000/svg" xmlns:xlink="http://www.w3.org/1999/xlink" x="0px" y="0px"
	 viewBox="0 0 1146 550" style="enable-background:new 0 0 1146 550;" xml:space="preserve">
<style type="text/css">
	.st0{fill:#122D44;}
	.st1{fill:#064E96;}
	.st2{fill:#0084CE;}
	.st3{fill:#FFFFFF;}
	.st4{fill:#577795;}
	.st5{fill:#E0CB26;}
</style>
<title>banner--how-we-work-sm</title>
<rect class="st0" width="1146" height="550"/>
<rect x="353.7" y="80.6" class="st1" width="123.5" height="123.5"/>
<rect x="353.7" y="488.8" class="st1" width="123.5" height="61.7"/>
<rect x="353.7" y="292.1" class="st1" width="123.5" height="123.5"/>
<rect x="117.9" y="80.6" class="st2" width="123.5" height="123.5"/>
<polygon class="st2" points="210.1,414 118.7,414 118.7,292.1 240.6,292.1 240.6,383.6 "/>
<polygon class="st3" points="240.6,383.6 210.1,414 210.1,383.6 "/>
<rect x="904.3" y="488.8" class="st4" width="123.5" height="61.7"/>
<rect x="668.5" y="80.6" class="st5" width="123.5" height="123.5"/>
<rect x="904.3" y="292.1" class="st4" width="123.5" height="123.5"/>
<rect x="904.3" y="80.6" class="st4" width="123.5" height="123.5"/>
<rect x="668.5" y="292.1" class="st4" width="123.5" height="123.5"/>
<rect x="690.9" y="107.2" class="st4" width="78.7" height="14.8"/>
<rect x="690.9" y="135" class="st4" width="59.8" height="14.8"/>
<rect x="926.7" y="511.8" class="st0" width="78.7" height="13.2"/>
<rect x="376.9" y="141.6" class="st0" width="50.6" height="14.8"/>
<rect x="376.9" y="113.8" class="st0" width="80.1" height="14.8"/>
</svg>
