<?xml version="1.0" encoding="utf-8"?>
<!-- Generator: Adobe Illustrator 24.0.2, SVG Export Plug-In . SVG Version: 6.00 Build 0)  -->
<svg version="1.1" id="Layer_1" xmlns="http://www.w3.org/2000/svg" xmlns:xlink="http://www.w3.org/1999/xlink" x="0px" y="0px"
	 viewBox="0 0 2880 470" style="enable-background:new 0 0 2880 470;" xml:space="preserve">
<style type="text/css">
	.st0{fill:#122D44;}
	.st1{fill:#064E96;}
	.st2{fill:#577795;}
	.st3{fill:#E0CB26;}
</style>
<title>banner--thank-you-lg</title>
<rect x="-2.3" class="st0" width="2882.3" height="470"/>
<rect x="891.1" y="146.9" transform="matrix(0.3731 -0.9278 0.9278 0.3731 424.2244 993.637)" class="st1" width="112.5" height="72"/>
<rect x="1180" y="214.5" transform="matrix(0.9375 -0.3479 0.3479 0.9375 -9.922 445.739)" class="st2" width="112.5" height="72"/>
<rect x="-56.2" y="143.1" transform="matrix(0.9375 -0.3479 0.3479 0.9375 -62.2968 11.2077)" class="st2" width="112.5" height="72"/>
<rect x="555.1" y="42.6" transform="matrix(0.9375 -0.3479 0.3479 0.9375 10.841 217.5947)" class="st2" width="112.5" height="72"/>
<rect x="1573.1" y="41.3" transform="matrix(0.3489 -0.9372 0.9372 0.3489 956.1784 1571.6301)" class="st1" width="72.2" height="112.8"/>
<rect x="2050.4" y="148.6" transform="matrix(0.3489 -0.9372 0.9372 0.3489 1166.3864 2088.8904)" class="st1" width="72.2" height="112.8"/>
<rect x="1219.9" y="11.7" transform="matrix(0.3479 -0.9375 0.9375 0.3479 755.2247 1221.7948)" class="st1" width="72" height="112.5"/>
<rect x="104.4" y="242.1" transform="matrix(0.3479 -0.9375 0.9375 0.3479 -188.124 326.1278)" class="st1" width="72" height="112.5"/>
<rect x="2275.8" y="71.2" transform="matrix(0.3479 -0.9375 0.9375 0.3479 1388.0161 2250.5037)" class="st1" width="72" height="112.5"/>
<rect x="2844.2" y="71.2" transform="matrix(0.3479 -0.9375 0.9375 0.3479 1758.6301 2783.386)" class="st1" width="72" height="112.5"/>
<rect x="739.9" y="114.5" transform="matrix(0.3479 -0.9375 0.9375 0.3479 345.8615 838.8074)" class="st3" width="72" height="112.5"/>
<rect x="405.8" y="194.3" transform="matrix(0.3479 -0.9375 0.9375 0.3479 53.206 577.5954)" class="st1" width="72" height="112.5"/>
<rect x="2694.5" y="199.1" transform="matrix(0.9375 -0.3479 0.3479 0.9375 90.045 971.7175)" class="st2" width="112.5" height="72"/>
<rect x="2073.3" y="29.6" transform="matrix(0.9375 -0.3479 0.3479 0.9375 110.2047 745.0027)" class="st2" width="112.5" height="72"/>
<rect x="1348" y="134.5" transform="matrix(0.3731 -0.9278 0.9278 0.3731 722.107 1409.7655)" class="st2" width="112.5" height="72"/>
<rect x="2577.3" y="80.1" transform="matrix(0.9278 -0.3731 0.3731 0.9278 137.844 984.8423)" class="st1" width="72" height="112.5"/>
<rect x="366.2" y="55" transform="matrix(0.3731 -0.9278 0.9278 0.3731 180.3844 449.0381)" class="st2" width="112.5" height="72"/>
<rect x="180.1" y="124" transform="matrix(0.3731 -0.9278 0.9278 0.3731 -0.3159 319.5933)" class="st2" width="112.5" height="72"/>
<rect x="2844" y="307.7" transform="matrix(0.9278 -0.3731 0.3731 0.9278 72.1796 1100.7898)" class="st1" width="72" height="112.5"/>
<rect x="1072.1" y="71.1" transform="matrix(0.9278 -0.3731 0.3731 0.9278 32.5156 422.6322)" class="st2" width="72" height="112.5"/>
<rect x="1753.9" y="22.4" transform="matrix(0.9278 -0.3731 0.3731 0.9278 99.8964 673.4708)" class="st2" width="72" height="112.5"/>
<rect x="2221.3" y="194.2" transform="matrix(0.9278 -0.3731 0.3731 0.9278 69.5407 860.2603)" class="st2" width="72" height="112.5"/>
<rect x="2398.6" y="163.9" transform="matrix(0.3731 -0.9278 0.9278 0.3731 1353.5146 2402.8542)" class="st2" width="112.5" height="72"/>
<rect x="2523.3" y="327.7" transform="matrix(0.3731 -0.9278 0.9278 0.3731 1279.7278 2621.2751)" class="st1" width="112.5" height="72"/>
<rect x="1869.2" y="183.4" transform="matrix(0.3731 -0.9278 0.9278 0.3731 1003.5314 1923.9503)" class="st2" width="112.5" height="72"/>
<rect x="584.8" y="194.2" transform="matrix(0.9278 -0.3731 0.3731 0.9278 -48.633 249.7098)" class="st2" width="72" height="112.5"/>
<polygon class="st1" points="426.2,470 399.8,404.4 333,431.3 348.6,470 "/>
<polygon class="st2" points="2729.8,0 2696.6,82.6 2763.4,109.4 2805.4,5.1 2792.7,0 "/>
<polygon class="st2" points="2460.4,0 2485,66.1 2590.4,27 2580.4,0 "/>
<polygon class="st1" points="2297,0 2289.9,17.6 2356.7,44.4 2374.6,0 "/>
<polygon class="st1" points="1932.2,0 1904.4,69.1 1971.2,96 2009.8,0 "/>
<polygon class="st2" points="1419.9,0 1446.2,65.6 1513.1,38.7 1497.5,0 "/>
<polygon class="st2" points="915,0 937.5,60.6 1042.9,21.5 1034.9,0 "/>
<polygon class="st1" points="763.3,0 744,48 810.8,74.8 840.9,0 "/>
<polygon class="st1" points="195.9,0 193.7,6 299.1,45.2 315.9,0 "/>
<polygon class="st1" points="55.7,0 43,5.1 84.9,109.4 151.7,82.6 118.5,0 "/>
</svg>
