<?xml version="1.0" encoding="utf-8"?>
<!-- Generator: Adobe Illustrator 24.0.2, SVG Export Plug-In . SVG Version: 6.00 Build 0)  -->
<svg version="1.1" id="Layer_1" xmlns="http://www.w3.org/2000/svg" xmlns:xlink="http://www.w3.org/1999/xlink" x="0px" y="0px"
	 viewBox="0 0 1146 550" style="enable-background:new 0 0 1146 550;" xml:space="preserve">
<style type="text/css">
	.st0{fill:#122D44;}
	.st1{fill:#103C68;}
	.st2{fill:#064E96;}
	.st3{fill:#0084CE;}
	.st4{fill:#E0CB26;}
</style>
<title>banner--news-media-sm</title>
<rect class="st0" width="1146" height="550"/>
<polygon class="st1" points="674,205.5 1071.9,305.4 1145.7,-0.1 "/>
<polygon class="st1" points="189,523.9 0.3,-2.1 613.3,289.3 "/>
<path class="st2" d="M505.5,274.7c-179.8,0-325.6,90.1-325.9,201.4c0,26.1,8.1,51,22.8,73.9h606.2c14.6-22.9,22.7-47.8,22.8-73.9
	C831.1,364.8,685.3,274.7,505.5,274.7z"/>
<ellipse class="st3" cx="831.4" cy="294.2" rx="241" ry="118.3"/>
<path class="st4" d="M591.6,281.8c-0.9,4.1-1.3,8.2-1.3,12.4c0,62.6,98.9,113.8,224.2,118C780.2,348.9,696.5,299.5,591.6,281.8z"/>
</svg>
