<?xml version="1.0" encoding="utf-8"?>
<!-- Generator: Adobe Illustrator 24.0.2, SVG Export Plug-In . SVG Version: 6.00 Build 0)  -->
<svg version="1.1" id="Layer_1" xmlns="http://www.w3.org/2000/svg" xmlns:xlink="http://www.w3.org/1999/xlink" x="0px" y="0px"
	 viewBox="0 0 1146 550" style="enable-background:new 0 0 1146 550;" xml:space="preserve">
<style type="text/css">
	.st0{fill:#122D44;}
	.st1{fill:#DCC424;}
	.st2{fill:#103C68;}
	.st3{fill:#E0CB26;}
	.st4{fill:#A39634;}
	.st5{fill:#75692A;}
	.st6{fill:#577795;}
	.st7{fill:#064E96;}
</style>
<title>banner--faq-sm</title>
<rect class="st0" width="1146" height="550"/>
<polygon class="st1" points="211.8,249.2 93.7,271.8 93.7,123.3 206.2,101.8 "/>
<polygon class="st2" points="1146.7,317.9 -20.6,551 1146.7,551 "/>
<polygon class="st3" points="175.2,217.5 93.7,234 93.7,123.3 175.2,107.7 "/>
<polygon class="st4" points="242.1,243.4 93.7,271.8 93.7,234 175.2,217.5 "/>
<polygon class="st5" points="242.1,243.4 242.1,94.9 175.2,107.7 175.2,217.5 "/>
<polygon class="st6" points="242.2,94.9 242.2,243.4 93.7,271.8 535.3,550 965.3,550 "/>
<polygon class="st7" points="965.3,550 729,401.3 402.5,466.3 535.3,550 "/>
</svg>
