<?xml version="1.0" encoding="utf-8"?>
<!-- Generator: Adobe Illustrator 24.0.2, SVG Export Plug-In . SVG Version: 6.00 Build 0)  -->
<svg version="1.1" id="Layer_1" xmlns="http://www.w3.org/2000/svg" xmlns:xlink="http://www.w3.org/1999/xlink" x="0px" y="0px"
	 viewBox="0 0 1146 550" style="enable-background:new 0 0 1146 550;" xml:space="preserve">
<style type="text/css">
	.st0{fill:#122D44;}
	.st1{fill:#064E96;}
	.st2{fill:#0084CE;}
	.st3{fill:#E0CB26;}
</style>
<title>banner--404-sm</title>
<rect x="-123.8" class="st0" width="1396.6" height="550"/>
<path class="st1" d="M461.3,244.2c24.8,0.1,44.9,20.2,45,45v16.9c-0.1,24.8-20.2,44.9-45,45H319c-24.8-0.1-44.9-20.2-45-45v-16.9
	c0.1-24.8,20.2-44.9,45-45L461.3,244.2 M461.3,212.6H319c-42.2,0.1-76.4,34.3-76.6,76.6V306c0.1,42.2,34.3,76.4,76.6,76.6h142.3
	c42.2-0.1,76.4-34.3,76.6-76.5v-16.9C537.8,247,503.6,212.8,461.3,212.6L461.3,212.6z"/>
<path class="st1" d="M828.9,244.2c24.8,0.1,44.9,20.2,45,45v16.9c-0.1,24.8-20.2,44.9-45,45H686.5c-24.8-0.1-44.9-20.2-45-45v-16.9
	c0.1-24.8,20.2-44.9,45-45L828.9,244.2 M828.9,212.6H686.5c-42.2,0.1-76.4,34.4-76.5,76.6v16.9c0.1,42.2,34.3,76.4,76.5,76.5h142.4
	c42.2-0.1,76.4-34.3,76.6-76.5v-16.9C905.3,247,871.1,212.8,828.9,212.6L828.9,212.6z"/>
<path class="st1" d="M1196.2,244.2c24.8,0.1,44.9,20.2,45,45v16.9c-0.1,24.8-20.2,44.9-45,45h-142.4c-24.8-0.1-44.9-20.2-45-45
	v-16.9c0.1-24.8,20.2-44.9,45-45L1196.2,244.2 M1196.2,212.6h-142.4c-42.2,0.1-76.4,34.3-76.5,76.6V306
	c0.1,42.2,34.3,76.4,76.5,76.5h142.4c42.2-0.1,76.4-34.3,76.6-76.5v-16.9C1272.6,247,1238.4,212.8,1196.2,212.6L1196.2,212.6z"/>
<path class="st1" d="M93.8,244.2c24.8,0.1,44.9,20.2,45,45v16.9c-0.1,24.8-20.2,44.9-45,45H-48.6c-11.9,0-23.3-4.8-31.7-13.2
	c-8.5-8.4-13.2-19.8-13.2-31.7v-16.9c0-11.9,4.8-23.4,13.2-31.7c8.4-8.5,19.8-13.2,31.7-13.2H93.8 M93.8,212.6H-48.6
	c-42.2,0.1-76.4,34.3-76.6,76.6v16.9c0.1,42.2,34.3,76.4,76.6,76.5H93.8c42.2-0.1,76.4-34.3,76.6-76.5v-16.9
	C170.2,247,136,212.8,93.8,212.6z"/>
<path class="st2" d="M304.4,316h-196c-7.5,0-13.6-7.3-13.6-16.1v-4.4c0-8.9,6.1-16.1,13.6-16.1h196c7.5,0,13.6,7.3,13.6,16.1v4.4
	C318,308.7,311.9,316,304.4,316z"/>
<path class="st2" d="M673.9,316h-196c-7.5,0-13.6-7.3-13.6-16.1v-4.4c0-8.9,6.1-16.1,13.6-16.1h196c7.5,0,13.6,7.3,13.6,16.1v4.4
	C687.5,308.7,681.4,316,673.9,316z"/>
<path class="st2" d="M1040.9,316h-196c-7.5,0-13.6-7.3-13.6-16.1v-4.4c0-8.9,6.1-16.1,13.6-16.1h196c7.5,0,13.6,7.3,13.6,16.1v4.4
	C1054.5,308.7,1048.4,316,1040.9,316z"/>
<rect x="736" y="169.3" class="st0" width="45.5" height="97.4"/>
<polygon class="st3" points="732.2,180.5 688.2,109.3 666.4,128.8 "/>
<polygon class="st3" points="786.5,180.5 830.6,109.3 852.3,128.8 "/>
<polygon class="st3" points="759.4,166.8 774,84.4 744.8,84.4 "/>
</svg>
