<?xml version="1.0" encoding="UTF-8"?>
<svg width="499px" height="513px" viewBox="0 0 499 513" version="1.1" xmlns="http://www.w3.org/2000/svg" xmlns:xlink="http://www.w3.org/1999/xlink">
    <title>fontawesome-sprite</title>
    <g id="Page-1" stroke="none" stroke-width="1" fill="none" fill-rule="evenodd">
        <g id="fontawesome-sprite" transform="translate(0.925000, 0.000000)" fill="#000000" fill-rule="nonzero">
            <g id="external-link-square-alt" transform="translate(0.075000, 32.000000)">
                <path d="M448,48 L448,400 C448,426.51 426.51,448 400,448 L48,448 C21.49,448 0,426.51 0,400 L0,48 C0,21.49 21.49,0 48,0 L400,0 C426.51,0 448,21.49 448,48 Z M360,64 L248.029,64 C226.716,64 215.949,89.861 231.058,104.971 L263.042,136.958 L67.515,332.485 C62.829,337.171 62.829,344.769 67.515,349.456 L98.544,380.485 C103.231,385.171 110.829,385.171 115.515,380.485 L311.041,184.959 L343.029,216.95 C358.058,231.977 384,221.425 384,199.979 L384,88 C384,74.745 373.255,64 360,64 Z" id="Shape"></path>
            </g>
            <g id="bars" transform="translate(0.075000, 60.000000)">
                <path d="M16,72 L432,72 C440.837,72 448,64.837 448,56 L448,16 C448,7.163 440.837,0 432,0 L16,0 C7.163,0 0,7.163 0,16 L0,56 C0,64.837 7.163,72 16,72 Z M16,232 L432,232 C440.837,232 448,224.837 448,216 L448,176 C448,167.163 440.837,160 432,160 L16,160 C7.163,160 0,167.163 0,176 L0,216 C0,224.837 7.163,232 16,232 Z M16,392 L432,392 C440.837,392 448,384.837 448,376 L448,336 C448,327.163 440.837,320 432,320 L16,320 C7.163,320 0,327.163 0,336 L0,376 C0,384.837 7.163,392 16,392 Z" id="Shape"></path>
            </g>
            <g id="twitter" transform="translate(0.075000, 48.000000)">
                <path d="M246.816153,175.74438 L401.205828,0 L364.633306,0 L230.520233,152.565196 L123.484097,0 L0,0 L161.894921,230.72756 L0,415 L36.5725229,415 L178.10791,253.851457 L291.170358,415 L414.654455,415 M49.7723564,27.0078268 L105.958035,27.0078268 L364.605662,389.319067 L308.406162,389.319067" id="Path"></path>
            </g>
            <g id="facebook-f" transform="translate(0.075000, 0.000000)">
                <path d="M76.7,512 L76.7,283 L0,283 L0,192 L76.7,192 L76.7,120.3 C76.7,42.4 124.3,0 193.8,0 C227.1,0 255.7,2.5 264,3.6 L264,85 L215.8,85 C178,85 170.7,103 170.7,129.3 L170.7,192 L256,192 L244.3,283 L170.7,283 L170.7,512" id="Path"></path>
            </g>
            <g id="instagram" transform="translate(0.000000, 31.825000)">
                <path d="M224.175,109.175 C160.575,109.175 109.275,160.475 109.275,224.075 C109.275,287.675 160.575,338.975 224.175,338.975 C287.775,338.975 339.075,287.675 339.075,224.075 C339.075,160.475 287.775,109.175 224.175,109.175 Z M224.175,298.775 C183.075,298.775 149.475,265.275 149.475,224.075 C149.475,182.875 182.975,149.375 224.175,149.375 C265.375,149.375 298.875,182.875 298.875,224.075 C298.875,265.275 265.275,298.775 224.175,298.775 L224.175,298.775 Z M370.575,104.475 C370.575,119.375 358.575,131.275 343.775,131.275 C328.875,131.275 316.975,119.275 316.975,104.475 C316.975,89.675 328.975,77.675 343.775,77.675 C358.575,77.675 370.575,89.675 370.575,104.475 Z M446.675,131.675 C444.975,95.775 436.775,63.975 410.475,37.775 C384.275,11.575 352.475,3.375 316.575,1.575 C279.575,-0.525 168.675,-0.525 131.675,1.575 C95.875,3.275 64.075,11.475 37.775,37.675 C11.475,63.875 3.375,95.675 1.575,131.575 C-0.525,168.575 -0.525,279.475 1.575,316.475 C3.275,352.375 11.475,384.175 37.775,410.375 C64.075,436.575 95.775,444.775 131.675,446.575 C168.675,448.675 279.575,448.675 316.575,446.575 C352.475,444.875 384.275,436.675 410.475,410.375 C436.675,384.175 444.875,352.375 446.675,316.475 C448.775,279.475 448.775,168.675 446.675,131.675 Z M398.875,356.175 C391.075,375.775 375.975,390.875 356.275,398.775 C326.775,410.475 256.775,407.775 224.175,407.775 C191.575,407.775 121.475,410.375 92.075,398.775 C72.475,390.975 57.375,375.875 49.475,356.175 C37.775,326.675 40.475,256.675 40.475,224.075 C40.475,191.475 37.875,121.375 49.475,91.975 C57.275,72.375 72.375,57.275 92.075,49.375 C121.575,37.675 191.575,40.375 224.175,40.375 C256.775,40.375 326.875,37.775 356.275,49.375 C375.875,57.175 390.975,72.275 398.875,91.975 C410.575,121.475 407.875,191.475 407.875,224.075 C407.875,256.675 410.575,326.775 398.875,356.175 Z" id="Shape"></path>
            </g>
            <g id="medium-m" transform="translate(14.275000, 64.000000)">
                <path d="M57.3,78.3 C57.9,72.4 55.6,66.5 51.2,62.5 L6.1,8.1 L6.1,0 L146.3,0 L254.7,237.7 L350,0 L483.7,0 L483.7,8.1 L445.1,45.1 C441.8,47.6 440.1,51.8 440.8,55.9 L440.8,327.9 C440.1,332 441.8,336.2 445.1,338.7 L482.8,375.7 L482.8,383.8 L293.1,383.8 L293.1,375.7 L332.2,337.8 C336,334 336,332.8 336,327 L336,107.2 L227.3,383.1 L212.6,383.1 L86.2,107.2 L86.2,292.1 C85.1,299.9 87.7,307.7 93.2,313.3 L144,374.9 L144,383 L5.68434189e-14,383 L5.68434189e-14,375 L50.8,313.3 C56.2,307.7 58.7,299.8 57.3,292.1 L57.3,78.3 Z" id="Path"></path>
            </g>
            <g id="linkedin-in" transform="translate(0.075000, 0.000000)">
                <path d="M100.3,448 L7.4,448 L7.4,148.9 L100.3,148.9 L100.3,448 Z M53.8,108.1 C24.1,108.1 0,83.5 0,53.8 C0,24.1 24.1,0 53.8,0 C83.5,0 107.6,24.1 107.6,53.8 C107.6,83.5 83.5,108.1 53.8,108.1 Z M448,448 L355.3,448 L355.3,302.4 C355.3,267.7 354.6,223.2 307,223.2 C258.7,223.2 251.3,260.9 251.3,299.9 L251.3,448 L158.5,448 L158.5,148.9 L247.6,148.9 L247.6,189.7 L248.9,189.7 C261.3,166.2 291.6,141.4 336.8,141.4 C430.8,141.4 448.1,203.3 448.1,283.7 L448.1,448 L448,448 Z" id="Shape"></path>
            </g>
            <g id="play" transform="translate(0.075000, 0.032055)">
                <path d="M424.4,214.667945 L72.4,6.5679449 C43.8,-10.3320551 0,6.0679449 0,47.8679449 L0,463.967945 C0,501.467945 40.7,524.067945 72.4,505.267945 L424.4,297.267945 C455.8,278.767945 455.9,233.167945 424.4,214.667945 Z" id="Path"></path>
            </g>
            <g id="angle-left" transform="translate(0.750000, 95.975000)">
                <path d="M3.525,151.525 L150.325,3.525 C155.025,-1.175 162.625,-1.175 167.325,3.525 L187.125,23.325 C191.825,28.025 191.825,35.625 187.125,40.325 L68.625,160.025 L187.125,279.725 C191.825,284.425 191.825,292.025 187.125,296.725 L167.325,316.525 C162.625,321.225 155.025,321.225 150.325,316.525 L3.525,168.525 C-1.175,163.825 -1.175,156.225 3.525,151.525 Z" id="Path"></path>
            </g>
        </g>
    </g>
</svg>