<?xml version="1.0" encoding="utf-8"?>
<!-- Generator: Adobe Illustrator 24.0.2, SVG Export Plug-In . SVG Version: 6.00 Build 0)  -->
<svg version="1.1" id="Layer_1" xmlns="http://www.w3.org/2000/svg" xmlns:xlink="http://www.w3.org/1999/xlink" x="0px" y="0px"
	 viewBox="0 0 700 700" style="enable-background:new 0 0 700 700;" xml:space="preserve">
<style type="text/css">
	.st0{fill:#122D44;}
	.st1{fill:#E0CB26;}
	.st2{fill:#0084CE;}
	.st3{fill:#064E96;}
	.st4{fill:#485A78;}
	.st5{fill:#596681;}
</style>
<title>graphic-how-we-work-decisions</title>
<circle class="st0" cx="350" cy="350" r="350"/>
<ellipse transform="matrix(0.1602 -0.9871 0.9871 0.1602 -7.8685 841.9116)" class="st1" cx="490.8" cy="425.6" rx="36.7" ry="36.7"/>
<path class="st2" d="M490.8,254.8L419,425.7l-0.4,0.9l-0.1,1v0.5c0,13.2,7.6,26.7,20.8,37c13.8,10.7,32,16.6,51.4,16.6
	c19.8,0,38-5.5,51.3-15.4s20.9-23.7,20.9-38.3v-1.2L490.8,254.8z M549.8,425.6H431.9l58.9-140.3L549.8,425.6z"/>
<path class="st2" d="M211.3,173.9l-71.8,170.9l-0.5,1.1v1.2c0,13.3,7.6,26.8,20.8,37.1c13.8,10.7,32.1,16.6,51.4,16.6
	c19.8,0,38-5.5,51.4-15.4s20.9-23.7,20.9-38.3v-1.2L211.3,173.9z M270.2,344.7H152.3l59-140.3L270.2,344.7z"/>
<path class="st3" d="M72.4,563.2C136.4,646.4,237,700,350,700s213.6-53.6,277.6-136.8H72.4z"/>
<path class="st4" d="M520.2,247.3l-160.3-45.9v-60.8c0.2-5.2-3.9-9.6-9.1-9.7c-5.2-0.2-9.6,3.9-9.7,9.1c0,0.2,0,0.4,0,0.6V196
	l-155.2-44.4c-5-1.4-10.2,1.6-11.6,6.6c-1.4,4.9,1.5,10.1,6.4,11.5L341,215.6v315.2c-0.2,5.2,3.9,9.6,9.1,9.7
	c5.2,0.2,9.6-3.9,9.7-9.1c0-0.2,0-0.4,0-0.6V221L515,265.4c5,1.4,10.2-1.6,11.6-6.6C527.9,253.9,525.1,248.8,520.2,247.3
	L520.2,247.3z"/>
<path class="st5" d="M280.8,523h139.4c10.4,0,18.8,8.4,18.9,18.8v21.4l0,0H261.9l0,0v-21.4C262,531.4,270.4,523,280.8,523z"/>
<circle class="st5" cx="350.5" cy="208.4" r="34"/>
</svg>
