<?xml version="1.0" encoding="utf-8"?>
<!-- Generator: Adobe Illustrator 24.0.2, SVG Export Plug-In . SVG Version: 6.00 Build 0)  -->
<svg version="1.1" id="Layer_1" xmlns="http://www.w3.org/2000/svg" xmlns:xlink="http://www.w3.org/1999/xlink" x="0px" y="0px"
	 viewBox="0 0 598 628" style="enable-background:new 0 0 598 628;" xml:space="preserve">
<style type="text/css">
	.st0{fill:#0084CE;}
</style>
<title>graphic-mission-immigrant</title>
<path class="st0" d="M272.4,117.2c1.1,0,2.3-0.1,3.3-0.4c8.5,4.7,17.4,7.3,25.2,7.3s17-2.7,25.6-7.5c1.2,0.4,2.6,0.6,3.9,0.6
	c23.8,0,40.6-6.1,43.4-17.5c-4.4,2.3-9.3-1.6-11.6-6.8c-5-11.4,3.2-23.4-7.1-49.2c-1.3-3.7-3-7.2-5-10.6l-0.8-1.4c0,0.1,0,0.1,0,0.2
	C339.1,15.1,321.3,4,301,4c-29.2,0-53.4,23.1-57.4,53.1c-3.6,17,1.1,26.6-3,35.8c-2.3,5.2-7.3,9.2-11.6,6.8
	C231.9,111.1,248.6,117.2,272.4,117.2z"/>
<path class="st0" d="M557.8,128.4V56.3H450.2v-3.2c0-2.5-2-4.5-4.5-4.5c-2.5,0-4.5,2-4.5,4.5v123c-8.5-1.2-17.3,2.1-21.6,11.4
	c-4.1,9.4-7.7,19-10.8,28.7c-2.7-31.2-12-79.2-43.1-79.2H256.5c-13.7,0-22.3-1.6-36.8,6.4c-10.7,5.9-41.1,28.2-41.1,28.2V82
	c0-13.9-8.2-24.6-22.1-24.6S134,68,134,82v124.9c0,13.6,4,23.2,15.9,27.5s21.9-1.2,26-3.7l57.2-37.1v399.7c0,18.8,10.2,32,28,32
	c16.1,0,29.3-13.9,29.3-32V377h16.4v217.9c0,19.7,12.2,30.3,30,30.3c19,0,28.2-16.4,28.2-32.8V207.9c6.8,25.7,6.2,39.7,10.1,68.9
	c3.4,25.9,32.6,33.7,46.4,8.9c18.2-32.6,30.3-55.9,38.8-79.5c4.5-12.4-1.4-22.3-10.2-27.2v-50.7H557.8z M500.7,63.8h50.2v8.7h-50.2
	V63.8z M500.7,80h50.2v8.8h-50.2V80z M450.5,96.2h100.4v8.6H450.5V96.2z M450.5,112.3h100.4v8.6H450.5V112.3z"/>
</svg>
