<svg id="Layer_1" data-name="Layer 1" xmlns="http://www.w3.org/2000/svg" viewBox="0 0 1092 710"><defs><style>.cls-1,.cls-7{fill:#112e50;}.cls-2{fill:#0d71ba;}.cls-3{fill:#485a78;}.cls-4{fill:#d9c226;}.cls-5,.cls-6{fill:none;}.cls-5{stroke:#0b72b9;}.cls-5,.cls-6,.cls-7{stroke-miterlimit:10;}.cls-5,.cls-7{stroke-width:12.57px;}.cls-6{stroke:#112e50;stroke-width:15.47px;}.cls-7{stroke:#0d71ba;}</style></defs><rect class="cls-1" width="1092" height="710" rx="46"/><path class="cls-2" d="M448.53,317.4V355c0,20.34,44.38,37,98.62,37s98.61-16.64,98.61-37V317.4C626,334,586.59,342.67,547.15,342.67S468.25,334,448.53,317.4Z"/><path class="cls-3" d="M448.53,381v37.6c0,20.34,44.38,37,98.62,37s98.61-16.64,98.61-37V381c-19.72,16.64-59.17,25.27-98.61,25.27S468.25,397.61,448.53,381Z"/><path class="cls-4" d="M547.15,328.41c54.23,0,98.61-16.64,98.61-37s-44.38-37-98.61-37-98.62,16.64-98.62,37S492.91,328.41,547.15,328.41Z"/><circle class="cls-1" cx="491.74" cy="360.39" r="8.63"/><circle class="cls-1" cx="491.74" cy="424.12" r="8.63"/><ellipse class="cls-5" cx="545.99" cy="355" rx="206.89" ry="390.23"/><ellipse class="cls-5" cx="545.99" cy="355" rx="390.23" ry="206.89" transform="translate(-104.4 321.49) rotate(-30.08)"/><ellipse class="cls-5" cx="545.99" cy="355" rx="206.89" ry="390.23" transform="translate(-34.87 649.51) rotate(-59.92)"/><path class="cls-6" d="M883.76,327.15c-13.06,25.06-34.1,54.43-57.56,82.12"/><path class="cls-6" d="M208.78,328.22C243.61,395,329.57,484.64,436.58,546.63c48.66,28.18,98.06,49.52,145.53,64.06"/><path class="cls-6" d="M733.57,440.75c-2.81,27-7.18,53.14-13.72,75.62"/><path class="cls-6" d="M719.12,191.88c8.18,28.2,12.07,55.21,14.51,78.1"/><path class="cls-6" d="M664.4,59.87a332.87,332.87,0,0,1,34,65.94"/><path class="cls-6" d="M699.83,578.89c-8.18,24.12-20,49.45-33.92,69.07"/><path class="cls-6" d="M494.48,164.23c30-15.45,88.86-38.65,118.88-44.65"/><path class="cls-6" d="M353.22,104.08c24.9-2,55.77,1.32,74,5.31"/><path class="cls-6" d="M367.83,634a429.56,429.56,0,0,0,58.25-4.27"/><path class="cls-6" d="M315.26,289c12.18-13.92,47-42.34,60.89-52.2"/><circle class="cls-7" cx="250.42" cy="119.29" r="19.56"/><circle class="cls-7" cx="883.79" cy="294.78" r="19.56"/><circle class="cls-7" cx="369.13" cy="569.34" r="19.56"/></svg>