<?xml version="1.0" encoding="utf-8"?>
<!-- Generator: Adobe Illustrator 24.0.2, SVG Export Plug-In . SVG Version: 6.00 Build 0)  -->
<svg version="1.1" id="Layer_1" xmlns="http://www.w3.org/2000/svg" xmlns:xlink="http://www.w3.org/1999/xlink" x="0px" y="0px"
	 viewBox="0 0 708 708" style="enable-background:new 0 0 708 708;" xml:space="preserve">
<style type="text/css">
	.st0{fill:#122D44;}
	.st1{fill:#A39634;}
	.st2{fill:#0084CE;}
	.st3{fill:#FFFFFF;}
</style>
<title>graphic-news-media-press-kit</title>
<circle class="st0" cx="354" cy="354" r="334.4"/>
<path class="st1" d="M378.9,203.5h-46.3c-30.1,0-47,24.1-47,43l5.4,10.7c0,12.1,6.4,23.3,16.8,29.5c-0.2-1.2-0.3-2.4-0.3-3.5
	l-4.6-36.8c1.2-11.9,10.5-27.2,28.5-27.2h48.5c18,0,27.9,16.9,27.9,28.2l-4,35.7c0,1.2-0.1,2.4-0.3,3.5
	c10.4-6.2,16.8-17.4,16.8-29.5l5.1-10.7C425.4,227.6,410,203.5,378.9,203.5z"/>
<path class="st2" d="M177,246.5h357.3c5.5,0,9.9,4.4,9.9,9.9v221.5c0,5.5-4.4,9.9-9.9,9.9H177c-5.5,0-9.9-4.4-9.9-9.9V256.4
	C167.1,250.9,171.5,246.5,177,246.5z"/>
<path class="st2" d="M170.7,485.8l370.5-236.1c-1.9-2-4.5-3.2-7.2-3.2H176.6c-5.5,0-9.9,4.4-9.9,9.9l0,0v221.5
	C166.7,481,168.2,484,170.7,485.8z"/>
<circle class="st3" cx="355.7" cy="366.5" r="77.5"/>
<polygon class="st2" points="371.1,375.5 371.1,325.8 340.2,325.8 340.2,375.5 313.5,375.5 355.7,411.4 397.9,375.5 "/>
</svg>
