<?xml version="1.0" encoding="utf-8"?>
<!-- Generator: Adobe Illustrator 24.0.2, SVG Export Plug-In . SVG Version: 6.00 Build 0)  -->
<svg version="1.1" id="Layer_1" xmlns="http://www.w3.org/2000/svg" xmlns:xlink="http://www.w3.org/1999/xlink" x="0px" y="0px"
	 viewBox="0 0 1092 710" style="enable-background:new 0 0 1092 710;" xml:space="preserve">
<style type="text/css">
	.st0{fill:#122D44;}
	.st1{fill:none;stroke:#0084CE;stroke-width:9;stroke-miterlimit:10;}
	.st2{fill:none;stroke:#0084CE;stroke-width:11;stroke-miterlimit:10;}
	.st3{fill:#0084CE;}
	.st4{fill:#E0CB26;}
</style>
<title>graphic-how-we-work-engineering</title>
<path class="st0" d="M46-0.3h1000c25.4,0,46,20.6,46,46v618c0,25.4-20.6,46-46,46H46c-25.4,0-46-20.6-46-46v-618
	C0,20.2,20.6-0.3,46-0.3z"/>
<polyline class="st1" points="520.8,160.8 520.8,78.7 221.4,78.7 221.4,134.4 "/>
<line class="st1" x1="615.8" y1="159.8" x2="615.8" y2="-0.3"/>
<line class="st1" x1="712.2" y1="166.8" x2="712.2" y2="76.7"/>
<line class="st1" x1="474.9" y1="636" x2="474.9" y2="543.5"/>
<polyline class="st1" points="761.3,263.6 854.4,263.6 854.4,49.2 "/>
<line class="st1" x1="987" y1="103.2" x2="855.5" y2="103.2"/>
<polyline class="st1" points="1053.5,184.7 960.5,184.7 855.5,229.7 "/>
<polyline class="st1" points="769.2,336.1 926.1,336.1 989.3,389.7 1092.2,389.7 "/>
<polyline class="st1" points="769.2,421.7 926.2,421.7 926.2,578 "/>
<polyline class="st1" points="1004.3,637.5 1004.3,521.1 926.2,460.6 "/>
<polyline class="st1" points="709.1,547.1 709.1,638.2 834.7,638.2 599.2,638.2 599.2,708.9 "/>
<polyline class="st1" points="381,543.5 381,643.2 74.4,643.2 74.4,558.2 221.4,558.2 "/>
<polyline class="st1" points="324.2,220.1 107.3,220.1 107.3,63.4 "/>
<polyline class="st1" points="323.2,421.7 129.3,421.7 78.4,385.4 "/>
<polyline class="st1" points="-0.7,487.7 155.2,487.7 243.9,421.7 "/>
<polyline class="st1" points="323.2,328.4 185.5,328.4 130.4,285.4 -0.7,285.4 "/>
<circle class="st2" cx="221.4" cy="151.9" r="17.5"/>
<circle class="st2" cx="64.2" cy="375.2" r="17.5"/>
<circle class="st2" cx="711.2" cy="60.2" r="17.5"/>
<circle class="st2" cx="1004.3" cy="655" r="17.5"/>
<circle class="st2" cx="852.2" cy="638.2" r="17.5"/>
<circle class="st3" cx="107.3" cy="63.4" r="22"/>
<circle class="st3" cx="854.4" cy="41.5" r="22"/>
<ellipse transform="matrix(0.2298 -0.9732 0.9732 0.2298 623.1691 1156.8881)" class="st3" cx="1042.5" cy="184.7" rx="22" ry="22"/>
<circle class="st3" cx="926.2" cy="582.9" r="22"/>
<circle class="st3" cx="474.9" cy="656.7" r="22"/>
<circle class="st3" cx="227.7" cy="556.4" r="22"/>
<circle class="st2" cx="1003" cy="102.8" r="17.5"/>
<rect x="326.4" y="163" class="st1" width="438.8" height="380.5"/>
<path class="st3" d="M526.3,215.3l-9.6,33.8c-8.7,2.4-17,5.8-24.9,10.3l-30.7-17.1l-27.4,27.4l17.1,30.7
	c-4.4,7.8-7.9,16.2-10.3,24.9l-33.8,9.6v38.9l33.8,9.6c2.4,8.7,5.8,17,10.3,24.9l-17.1,30.7l27.4,27.4l30.7-17.1
	c7.8,4.4,16.2,7.9,24.9,10.3l9.6,33.8h38.9l9.6-33.8c8.7-2.4,17-5.8,24.9-10.3l30.7,17.1l27.5-27.4l-17.1-30.7
	c4.4-7.8,7.9-16.2,10.3-24.9l33.8-9.6v-38.9l-33.8-9.6c-2.4-8.7-5.8-17-10.3-24.9l17.1-30.7l-27.5-27.4l-30.7,17.1
	c-7.8-4.4-16.2-7.9-24.9-10.3l-9.6-33.8L526.3,215.3z M545.7,265.8c48.9,0,88.5,39.6,88.5,88.5c0,48.9-39.6,88.5-88.5,88.5
	c-48.9,0-88.5-39.6-88.5-88.5c0,0,0,0,0,0C457.4,305.5,496.9,265.9,545.7,265.8z"/>
<ellipse transform="matrix(0.1602 -0.9871 0.9871 0.1602 108.6069 836.2322)" class="st4" cx="545.7" cy="354.3" rx="55.1" ry="55.2"/>
</svg>
