<?xml version="1.0" encoding="utf-8"?>
<!-- Generator: Adobe Illustrator 24.0.2, SVG Export Plug-In . SVG Version: 6.00 Build 0)  -->
<svg version="1.1" id="Layer_1" xmlns="http://www.w3.org/2000/svg" xmlns:xlink="http://www.w3.org/1999/xlink" x="0px" y="0px"
	 viewBox="0 0 598 628" style="enable-background:new 0 0 598 628;" xml:space="preserve">
<style type="text/css">
	.st0{fill:#0084CE;}
</style>
<title>graphic-mission-servicemember</title>
<path class="st0" d="M266.6,40.5c0.7,1.3,1.3,2.6,1.8,3.9c10.8-2.4,21.8-3.5,32.8-3.4c31.3,0,55.9,8.2,55.9,18.6
	c0,1.8-0.7,3.5-1.8,4.9l-1,1.3l-1-1.3c-5.7-7.4-27.5-12.7-52-12.7c-10.5-0.1-21,1-31.4,3.2c-0.6,8.8-5.6,16.7-13.2,21
	c-2.9,1.6-5.8,3.3-8.7,5c0,0,0,0.1,0,0.1c-0.6,0.2-1.1,0.5-1.5,1c-0.8,3.5-1.1,7.1-1,10.6c0,1.4,0.1,2.8,0.2,4.2
	c0.2,6.6,0.7,11.8-1.5,16.8s-7,8.8-11.2,6.6c2.4,9.7,15.4,15.4,34.4,16.6c20,15.4,47.8,15.4,67.8,0.1c20.4-0.8,34.6-6.6,37.2-16.7
	c-4.2,2.2-9-1.5-11.2-6.6c-4.6-10.5,2.4-21.4-5.6-43.9c0.2-0.4,0.3-0.8,0.3-1.3c6.5,0.2,11.5-0.8,13.7-4.3
	C376.7,52.7,357.8,4,301.1,4c-27.4,0-45.7,12.9-54.3,23.4C255.2,28.3,262.5,33.2,266.6,40.5z"/>
<path class="st0" d="M314.5,253.9l-5.9-59.1c-2.4,0.7-4.9,1-7.4,1l0,0c-2.5,0-5-0.3-7.4-1l-5.9,59.1c-2.2-1.4-13.3-91.2-13.3-91.2
	h-17.7c-11.3-3.9-22.1-8.9-32.4-15c-7.3-4.4-13.9-9.7-18-14.6s-5.5-8.8-5.5-12.3s1.3-9,8.9-17.9s15.4-16.5,37.5-28.8
	c9.6-5.3,17.6-18.8,11.4-29.4c-5.5-9.5-19.5-11.5-29.1-6.2C205.1,52.3,192,63,180,76.8c-12,13.6-18.7,28.8-18.7,44
	c0,16.3,7.5,29.8,16.4,39.7c13.5,15,30.8,24.4,44.8,31.1c4.2,1.9,8.1,3.6,11.6,5v398c0.3,16.9,14.3,30.4,31.2,30.1
	c16.5-0.3,29.8-13.6,30.1-30.1V370.7h11.5v223.9c0.3,16.9,14.3,30.4,31.2,30.1c16.5-0.3,29.8-13.6,30.1-30.1V222.7
	c1.7,3.4,3.1,6.9,4.4,10.5c7,19.4,12.9,51.2,12.9,100.8c0,13.7-0.4,28.7-1.4,45.2c-0.7,10.9,7.7,20.3,18.6,21c0,0,0,0,0,0
	c0.4,0,0.8,0,1.2,0c10.5,0,19.2-8.2,19.8-18.7c1-17.2,1.5-33,1.5-47.5c-0.1-74.9-12.1-116.3-28.4-141.2
	c-8.1-12.4-17.7-20.3-26.5-24.7c-6.3-3.3-13.3-5.1-20.4-5.3c-0.3,0-0.6,0-0.9,0h-21.3"/>
<path class="st0" d="M301.1,163.8h-6.9l-3.5,18.6l2,4.2c5.4,2.4,11.5,2.4,16.9,0l2-4.2l-3.5-18.6L301.1,163.8z"/>
</svg>
