<?xml version="1.0" encoding="utf-8"?>
<!-- Generator: Adobe Illustrator 24.0.2, SVG Export Plug-In . SVG Version: 6.00 Build 0)  -->
<svg version="1.1" id="Layer_1" xmlns="http://www.w3.org/2000/svg" xmlns:xlink="http://www.w3.org/1999/xlink" x="0px" y="0px"
	 viewBox="0 0 1092 710" style="enable-background:new 0 0 1092 710;" xml:space="preserve">
<style type="text/css">
	.st0{fill:#0084CE;}
	.st1{fill:#122D44;}
	.st2{fill:#E0CB26;}
	.st3{fill:none;stroke:#A39634;stroke-width:15.75;stroke-linecap:round;stroke-linejoin:round;stroke-dasharray:0,27.67;}
</style>
<title>graphic-how-we-work-product</title>
<path class="st0" d="M46,0h1000c25.4,0,46,20.6,46,46v618c0,25.4-20.6,46-46,46H46c-25.4,0-46-20.6-46-46V46C0,20.6,20.6,0,46,0z"/>
<path class="st1" d="M831.3,330c-14.7,0-38.2,4.5-53.5,11.2h-1.9c-9.8-7.9-20.2-7.7-29-4.8c-3.4,0.8-6.5,2.4-9.1,4.8H595.9
	c-1.1-3.9-2.6-7.6-4.6-11.1l100.3-100.3c3.5-0.1,6.8-1.1,9.8-3c8.6-5.3,17.2-14.2,17.2-23.9l4.2-4.2c14.9-6.6,32.7-18.9,42.3-28.5
	c16.4-16.4,21.9-37.5,12.3-47.1s-30.7-4.1-47.1,12.3c-10.3,10.3-23.6,29.7-29.7,45.2l-2.2,2.2c-12.5,1.1-19.5,8.8-23.9,17.1
	c-1.8,2.9-2.9,6.3-3,9.8L571.1,309.9c-3.5-2-7.2-3.5-11.1-4.6V163.4c2.4-2.5,4-5.7,4.8-9.1c2.5-9.8,1.9-22.1-4.8-29v-4.7
	c6.3-15.3,10.3-37.5,10.3-51.5c0-23.2-11-42-24.6-42s-24.7,18.8-24.7,42c0,14.1,4.1,36.3,10.3,51.6v4.7c-6.7,6.9-7.3,19.3-4.8,29
	l0,0c0.7,3.4,2.4,6.5,4.8,9.1v141.8c-3.9,1.1-7.6,2.6-11.1,4.6L420.1,209.6c-0.1-3.5-1.1-6.8-3-9.8l0,0c-4.3-8.3-11.4-16-23.9-17.1
	l0,0l-2.2-2.2c-6.1-15.5-19.5-34.9-29.7-45.2c-16.4-16.4-37.5-21.9-47.1-12.3s-4.1,30.7,12.3,47.1c9.7,9.7,27.4,22,42.3,28.5
	l4.2,4.2c0,9.6,8.5,18.6,17.1,23.9c2.9,1.9,6.3,2.9,9.8,3l100.3,100.3c-2,3.5-3.5,7.2-4.6,11.1H353.8c-2.5-2.4-5.7-4-9.1-4.8
	c-8.9-2.9-19.3-3.1-29,4.8h-1.9c-15.3-6.7-38.8-11.2-53.5-11.2c-23.2,0-42,11-42,24.6s18.8,24.6,42,24.6c13.5,0,34.3-3.7,49.5-9.5
	h5.9c9.8,7.9,20.2,7.7,29,4.8l0,0c3.4-0.8,6.5-2.4,9.1-4.8h141.9c1.1,3.9,2.6,7.6,4.6,11.1L399.9,481.1c-3.5,0.1-6.8,1.1-9.8,3
	c-8.6,5.3-17.1,14.3-17.1,23.9l0,0l-1.4,1.4c-15.5,6.1-34.9,19.5-45.2,29.7c-16.4,16.4-21.9,37.5-12.3,47.1s30.7,4.1,47.1-12.3
	c9.7-9.7,22-27.4,28.5-42.3l3.4-3.4l0,0c12.5-1.2,19.5-8.8,23.8-17.1l0,0l0,0c1.9-2.9,2.9-6.3,3-9.7L520.4,401
	c3.5,1.9,7.2,3.5,11.1,4.6v141.9c-2.4,2.5-4,5.7-4.8,9.1l0,0l0,0c-2.5,9.8-1.9,22.1,4.8,29l0,0v3c-6.3,15.3-10.3,37.5-10.3,51.5
	c0,23.2,11,42,24.7,42s24.6-18.8,24.6-42c0-14.1-4.1-36.3-10.3-51.5v-3l0,0c6.7-6.9,7.3-19.2,4.8-29l0,0l0,0
	c-0.7-3.4-2.4-6.6-4.8-9.1V405.6c3.9-1.1,7.6-2.6,11.1-4.6l100.3,100.3c0.1,3.5,1.1,6.8,3,9.8l0,0l0,0c4.3,8.3,11.4,16,23.8,17.1
	l0,0l3.4,3.4c6.5,14.9,18.8,32.7,28.5,42.3c16.4,16.4,37.5,21.9,47.1,12.3s4.1-30.7-12.3-47.1c-10.3-10.3-29.7-23.6-45.2-29.7
	l-1.3-1.4l0,0c0-9.6-8.5-18.6-17.2-23.9l0,0c-2.9-1.9-6.3-2.9-9.8-3L591.3,380.8c1.9-3.5,3.5-7.2,4.6-11.1h141.8
	c2.6,2.4,5.7,4,9.1,4.8l0,0c8.9,2.9,19.3,3.1,29-4.8h5.9c15.2,5.8,36,9.5,49.5,9.5c23.2,0,42-11,42-24.6S854.5,330,831.3,330z
	 M545.8,379c-13,0-23.6-10.6-23.6-23.6c0-13,10.6-23.6,23.6-23.6c13,0,23.6,10.6,23.6,23.6c0,0,0,0,0,0
	C569.3,368.5,558.8,379,545.8,379z"/>
<circle class="st1" cx="545.7" cy="354.6" r="89.4"/>
<circle class="st2" cx="545.7" cy="354.6" r="44.9"/>
<path class="st1" d="M545.7,577.4c-122.5,0-221.8-99.3-221.8-221.8s99.3-221.8,221.8-221.8c122.5,0,221.8,99.3,221.8,221.8
	c0,58.8-23.3,115.2-64.9,156.8C661.1,554.2,604.6,577.6,545.7,577.4z M545.7,172.2c-101.1,0-183.4,82.3-183.4,183.4
	S444.6,539,545.7,539s183.4-82.3,183.4-183.4S646.9,172.2,545.7,172.2L545.7,172.2z"/>
<circle class="st3" cx="545.7" cy="354.7" r="202.6"/>
</svg>
