<?xml version="1.0" encoding="utf-8"?>
<!-- Generator: Adobe Illustrator 24.0.2, SVG Export Plug-In . SVG Version: 6.00 Build 0)  -->
<svg version="1.1" id="Layer_1" xmlns="http://www.w3.org/2000/svg" xmlns:xlink="http://www.w3.org/1999/xlink" x="0px" y="0px"
	 viewBox="0 0 598 628" style="enable-background:new 0 0 598 628;" xml:space="preserve">
<style type="text/css">
	.st0{fill:#0084CE;}
</style>
<title>graphic-mission-veteran</title>
<circle class="st0" cx="299" cy="63" r="59"/>
<path class="st0" d="M399.3,171.8c-8.5-13-18.5-21.3-27.8-25.9c-6.5-3.4-13.7-5.3-21-5.5c-0.4,0-0.9-0.1-1.3-0.1H248.8
	c-0.4,0-0.8,0-1.2,0.1c-7.4,0.3-14.6,2.1-21.1,5.5c-14,6.9-29.1,22.1-39.6,49s-17.9,66-17.9,124.9c0,15.2,0.5,31.8,1.6,49.8
	c0.6,11,9.7,19.6,20.8,19.6h1.2c11.5-0.7,20.2-10.5,19.5-22c-1-17.3-1.5-33-1.5-47.4c-0.1-63,9.1-85.5,18.1-104v377.3
	c0.3,17.8,15,31.9,32.7,31.6c17.3-0.3,31.3-14.3,31.6-31.6V358.3h12v234.8c0.3,17.8,15,31.9,32.7,31.6c17.3-0.3,31.3-14.3,31.6-31.6
	V255.6c0,9.5,3.1-45.7,4.6-41.4c7.3,20.3,13.5,53.7,13.5,105.7c0,14.4-0.5,30.1-1.5,47.4c-0.7,11.5,8.1,21.3,19.6,22
	c0.4,0,0.8,0,1.2,0c11,0,20.1-8.6,20.8-19.6c1-18,1.5-34.6,1.5-49.8C429,241.3,416.4,197.9,399.3,171.8z M288.1,171.6
	c0-0.9,0.7-1.6,1.5-1.6H348c0.9,0,1.5,0.7,1.5,1.5V196c-0.1,2.1-0.9,4-2.5,5.4c-1.1,1.3-23.5,18.9-23.5,18.9s-1.2,1-1.8,1H316
	c-0.6,0-1.6-1-1.6-1S292,203.1,290.1,201c-2.1-2.5-2.1-2.9-2.1-5.2L288.1,171.6z M352.1,256.2c-4.3,9.1-33.2,33.8-33.3,33.8
	s-29.1-24.7-33.3-33.8c-4.4-9.5-0.8-22.4,9.2-25.2c10.3-3,21.2,5.8,24.1,14.8c2.4-8.7,13-17.7,24.1-14.8
	C353,233.7,356.5,246.8,352.1,256.2L352.1,256.2z"/>
</svg>
