<?xml version="1.0" encoding="utf-8"?>
<!-- Generator: Adobe Illustrator 25.0.0, SVG Export Plug-In . SVG Version: 6.00 Build 0)  -->
<svg version="1.1" id="Layer_1" xmlns="http://www.w3.org/2000/svg" xmlns:xlink="http://www.w3.org/1999/xlink" x="0px" y="0px"
	 viewBox="0 0 1092 710" style="enable-background:new 0 0 1092 710;" xml:space="preserve">
<style type="text/css">
	.st0{fill:#122D44;}
	.st1{fill:#0084CE;}
	.st2{fill:#E0CB26;}
	.st3{fill:none;stroke:#0084CE;stroke-width:13.53;stroke-linecap:round;stroke-linejoin:round;}
</style>
<path class="st0" d="M46,0h1000c25.4,0,46,20.6,46,46v618c0,25.4-20.6,46-46,46H46c-25.4,0-46-20.6-46-46V46C0,20.6,20.6,0,46,0z"/>
<path class="st1" d="M469.8,169.5l-4.5,14c-3.7,0.9-7.2,2.2-10.6,4l-12.6-7.6L430.2,191l6.7,13.1c-2,3.2-3.5,6.7-4.6,10.3l-14.3,3.5
	l-0.5,16.3l14,4.5c0.9,3.7,2.2,7.2,4,10.6l-7.6,12.6l11.1,11.9l13.1-6.7c3.2,2,6.7,3.5,10.3,4.6l3.5,14.3l16.3,0.5l4.5-14
	c3.7-0.9,7.2-2.2,10.6-4l12.6,7.6l11.9-11.1l-6.8-13.1c2-3.2,3.5-6.7,4.7-10.3l14.3-3.5l0.5-16.3l-14-4.5c-0.9-3.7-2.2-7.2-4-10.6
	l7.6-12.6L513,182.2l-13.1,6.8c-3.2-2-6.7-3.5-10.3-4.6l-3.5-14.4L469.8,169.5z M477.2,190.9c20.5,0.7,36.5,17.8,35.8,38.3
	c-0.7,20.5-17.8,36.5-38.3,35.8c-20.5-0.7-36.5-17.8-35.8-38.3C439.6,206.3,456.8,190.3,477.2,190.9z"/>
<circle class="st2" cx="476" cy="228" r="23.1"/>
<path class="st1" d="M593.7,68.1l-5.8,20.3c-5.2,1.4-10.3,3.5-15,6.2l-18.5-10.3l-16.5,16.5l10.3,18.5c-2.7,4.7-4.8,9.8-6.2,15
	l-20.3,5.8v23.4l20.3,5.8c1.4,5.2,3.5,10.3,6.2,15l-10.3,18.5l16.5,16.5l18.5-10.3c4.7,2.7,9.8,4.7,15,6.2l5.8,20.3h23.4l5.8-20.3
	c5.2-1.4,10.3-3.5,15-6.2l18.5,10.3l16.5-16.5l-10.3-18.5c2.7-4.7,4.8-9.8,6.2-15l20.3-5.8v-23.4l-20.3-5.8
	c-1.4-5.2-3.5-10.3-6.2-15l10.3-18.5l-16.6-16.5l-18.5,10.3c-4.7-2.7-9.8-4.8-15-6.2l-5.7-20.3H593.7z M605.4,98.5
	c29.4,0,53.3,23.8,53.3,53.3c0,29.4-23.8,53.3-53.3,53.3c-29.4,0-53.3-23.8-53.3-53.3C552.2,122.4,576,98.6,605.4,98.5L605.4,98.5z"
	/>
<circle class="st2" cx="605.4" cy="151.8" r="33.2"/>
<path class="st1" d="M488.5,556.6c14.9,0,26.9,12,26.9,26.9c0,14.9-12,26.9-26.9,26.9c-14.9,0-26.9-12-26.9-26.9l0,0
	C461.5,568.7,473.6,556.6,488.5,556.6C488.4,556.6,488.5,556.6,488.5,556.6 M488.5,543.1c-22.3,0-40.4,18.1-40.4,40.4
	c0,22.3,18.1,40.4,40.4,40.4c22.3,0,40.4-18.1,40.4-40.4C528.9,561.2,510.8,543.1,488.5,543.1L488.5,543.1z"/>
<path class="st1" d="M612.8,556.6c14.9,0,26.9,12,26.9,26.9s-12,26.9-26.9,26.9s-26.9-12-26.9-26.9c0,0,0,0,0,0
	C585.9,568.7,598,556.6,612.8,556.6 M612.8,543.1c-22.3,0-40.4,18.1-40.4,40.4s18.1,40.4,40.4,40.4s40.4-18.1,40.4-40.4l0,0
	C653.2,561.2,635.1,543.1,612.8,543.1z"/>
<polygon class="st3" points="682.5,504.5 413.5,504.5 369.2,342 726.2,342 "/>
<line class="st3" x1="481.4" y1="342" x2="505.1" y2="504.5"/>
<line class="st3" x1="615.5" y1="342" x2="592.1" y2="504.5"/>
<line class="st3" x1="393.1" y1="423.2" x2="705.2" y2="423.2"/>
<path class="st3" d="M290.2,296.7H333c17.6,0,28.9,19,32.8,33.4c2,7.5,7.5,26.8,7.5,26.8"/>
</svg>
