<?xml version="1.0" encoding="utf-8"?>
<!-- Generator: Adobe Illustrator 24.0.2, SVG Export Plug-In . SVG Version: 6.00 Build 0)  -->
<svg version="1.1" id="Layer_1" xmlns="http://www.w3.org/2000/svg" xmlns:xlink="http://www.w3.org/1999/xlink" x="0px" y="0px"
	 viewBox="0 0 2000 2000" style="enable-background:new 0 0 2000 2000;" xml:space="preserve">
<style type="text/css">
	.st0{clip-path:url(#SVGID_2_);}
	.st1{fill:#F1F1F1;}
	.st2{fill:#0084CE;}
	.st3{fill:#122D44;}
	.st4{fill:#E0CB26;}
	.st5{fill:#A39634;}
	.st6{fill:#C6C6C6;}
	.st7{opacity:0.4;fill:#122D44;enable-background:new    ;}
</style>
<title>graphic-mission-find-truth</title>
<g>
	<g>
		<defs>
			<path id="SVGID_1_" d="M100,0h1800c55.2,0,100,44.8,100,100v1800c0,55.2-44.8,100-100,100H100c-55.2,0-100-44.8-100-100V100
				C0,44.8,44.8,0,100,0z"/>
		</defs>
		<clipPath id="SVGID_2_">
			<use xlink:href="#SVGID_1_"  style="overflow:visible;"/>
		</clipPath>
		<g class="st0">
			<rect class="st1" width="2000" height="2000"/>
			<rect x="1515.5" y="334" class="st2" width="133.9" height="132.5"/>
			<rect x="1322.6" y="1542.2" class="st3" width="133.9" height="132.5"/>
			<rect x="1128.2" y="1542.2" class="st2" width="135.4" height="132.5"/>
			<rect x="935.2" y="1542.2" class="st4" width="133.9" height="132.5"/>
			<rect x="742.2" y="1542.2" class="st2" width="133.9" height="132.5"/>
			<rect x="550.7" y="1542.2" class="st5" width="132.5" height="132.5"/>
			<rect x="356.3" y="1542.2" class="st3" width="133.9" height="132.5"/>
			<rect x="1515.5" y="534.2" class="st3" width="133.9" height="132.5"/>
			<rect x="1322.6" y="1339.1" class="st4" width="133.9" height="133.9"/>
			<rect x="1128.2" y="1339.1" class="st2" width="135.4" height="133.9"/>
			<rect x="1129.6" y="1139" class="st6" width="135.4" height="132.5"/>
			<rect x="1128.2" y="937.4" class="st2" width="135.4" height="132.5"/>
			<rect x="935.2" y="1339.1" class="st2" width="133.9" height="133.9"/>
			<rect x="742.2" y="1339.1" class="st3" width="133.9" height="133.9"/>
			<rect x="550.7" y="1339.1" class="st2" width="132.5" height="133.9"/>
			<rect x="356.3" y="1339.1" class="st5" width="133.9" height="133.9"/>
			<rect x="1515.5" y="735.8" class="st2" width="133.9" height="132.5"/>
			<rect x="1322.6" y="1139" class="st5" width="133.9" height="132.5"/>
			<rect x="935.2" y="1139" class="st4" width="133.9" height="132.5"/>
			<rect x="742.2" y="1139" class="st2" width="133.9" height="132.5"/>
			<rect x="550.7" y="1139" class="st4" width="132.5" height="132.5"/>
			<rect x="356.3" y="1139" class="st2" width="133.9" height="132.5"/>
			<rect x="1515.5" y="937.4" class="st5" width="133.9" height="132.5"/>
			<rect x="1322.6" y="937.4" class="st2" width="133.9" height="132.5"/>
			<rect x="935.2" y="937.4" class="st3" width="133.9" height="132.5"/>
			<rect x="742.2" y="937.4" class="st2" width="133.9" height="132.5"/>
			<rect x="550.7" y="937.4" class="st3" width="132.5" height="132.5"/>
			<rect x="356.3" y="937.4" class="st5" width="133.9" height="132.5"/>
			<rect x="1515.5" y="1139" class="st3" width="133.9" height="132.5"/>
			<rect x="1322.6" y="735.8" class="st5" width="133.9" height="132.5"/>
			<rect x="1128.2" y="735.8" class="st5" width="135.4" height="132.5"/>
			<rect x="935.2" y="735.8" class="st2" width="133.9" height="132.5"/>
			<rect x="742.2" y="735.8" class="st3" width="133.9" height="132.5"/>
			<rect x="550.7" y="735.8" class="st2" width="132.5" height="132.5"/>
			<rect x="356.3" y="735.8" class="st2" width="133.9" height="132.5"/>
			<rect x="1515.5" y="1339.1" class="st5" width="133.9" height="133.9"/>
			<rect x="1322.6" y="534.2" class="st2" width="133.9" height="132.5"/>
			<rect x="1128.2" y="534.2" class="st3" width="135.4" height="132.5"/>
			<rect x="935.2" y="534.2" class="st5" width="133.9" height="132.5"/>
			<rect x="742.2" y="534.2" class="st2" width="133.9" height="132.5"/>
			<rect x="550.7" y="534.2" class="st4" width="132.5" height="132.5"/>
			<rect x="356.3" y="534.2" class="st5" width="133.9" height="132.5"/>
			<rect x="1515.5" y="1542.2" class="st2" width="133.9" height="132.5"/>
			<rect x="1322.6" y="334" class="st3" width="133.9" height="132.5"/>
			<rect x="1128.2" y="334" class="st2" width="135.4" height="132.5"/>
			<rect x="935.2" y="334" class="st3" width="133.9" height="132.5"/>
			<rect x="742.2" y="334" class="st2" width="133.9" height="132.5"/>
			<rect x="550.7" y="334" class="st3" width="132.5" height="132.5"/>
			<rect x="356.3" y="334" class="st2" width="133.9" height="132.5"/>
			<rect x="1515.5" y="1732.2" class="st4" width="133.9" height="132.5"/>
			<rect x="1322.6" y="135.3" class="st3" width="133.9" height="133.9"/>
			<rect x="1128.2" y="135.3" class="st4" width="135.4" height="133.9"/>
			<rect x="935.2" y="135.3" class="st2" width="133.9" height="133.9"/>
			<rect x="742.2" y="135.3" class="st3" width="133.9" height="133.9"/>
			<rect x="550.7" y="135.3" class="st5" width="132.5" height="133.9"/>
			<rect x="356.3" y="135.3" class="st2" width="133.9" height="133.9"/>
			<rect x="356.3" y="1732.2" class="st2" width="133.9" height="132.5"/>
			<rect x="550.7" y="1732.2" class="st3" width="132.5" height="132.5"/>
			<rect x="1697" y="1542.2" class="st5" width="133.9" height="132.5"/>
			<rect x="1697" y="1339.1" class="st2" width="133.9" height="133.9"/>
			<rect x="1697" y="1139" class="st5" width="133.9" height="132.5"/>
			<rect x="1697" y="937.4" class="st3" width="133.9" height="132.5"/>
			<rect x="1697" y="735.8" class="st2" width="133.9" height="132.5"/>
			<rect x="1697" y="534.2" class="st4" width="133.9" height="132.5"/>
			<rect x="1697" y="334" class="st3" width="133.9" height="132.5"/>
			<rect x="1697" y="135.3" class="st5" width="133.9" height="133.9"/>
			<rect x="1697" y="1732.2" class="st3" width="133.9" height="132.5"/>
			<rect x="742.2" y="1732.2" class="st5" width="133.9" height="132.5"/>
			<rect x="935.2" y="1732.2" class="st3" width="133.9" height="132.5"/>
			<rect x="169.1" y="334" class="st5" width="133.9" height="132.5"/>
			<rect x="169.1" y="534.2" class="st2" width="133.9" height="132.5"/>
			<rect x="169.1" y="735.8" class="st4" width="133.9" height="132.5"/>
			<rect x="169.1" y="937.4" class="st3" width="133.9" height="132.5"/>
			<rect x="169.1" y="1139" class="st3" width="133.9" height="132.5"/>
			<rect x="169.1" y="1339.1" class="st4" width="133.9" height="133.9"/>
			<rect x="169.1" y="1542.2" class="st2" width="133.9" height="132.5"/>
			<rect x="169.1" y="1732.2" class="st4" width="133.9" height="132.5"/>
			<rect x="169.1" y="135.3" class="st3" width="133.9" height="133.9"/>
			<rect x="1128.2" y="1732.2" class="st2" width="135.4" height="132.5"/>
			<rect x="1322.6" y="1732.2" class="st3" width="133.9" height="132.5"/>
			<rect x="1515.5" y="135.3" class="st2" width="133.9" height="133.9"/>
			<path class="st7" d="M0,0h2000v2000H0V0z M1196.8,1505.7c169.5,0,306.8-139.1,306.8-310.7s-137.4-310.7-306.8-310.7
				S890,1023.4,890,1195S1027.3,1505.7,1196.8,1505.7z"/>
		</g>
	</g>
</g>
</svg>
