<?xml version="1.0" encoding="utf-8"?>
<!-- Generator: Adobe Illustrator 24.0.2, SVG Export Plug-In . SVG Version: 6.00 Build 0)  -->
<svg version="1.1" id="Layer_1" xmlns="http://www.w3.org/2000/svg" xmlns:xlink="http://www.w3.org/1999/xlink" x="0px" y="0px"
	 viewBox="0 0 58 48" style="enable-background:new 0 0 58 48;" xml:space="preserve">
<style type="text/css">
	.st0{fill-rule:evenodd;clip-rule:evenodd;fill:#064E96;}
</style>
<title>“</title>
<desc>Created with Sketch.</desc>
<g id="PROJECT-DETAIL-PAGE">
	<g id="Desktop-HD-PROJECT-DETAIL" transform="translate(-542.000000, -1591.000000)">
		<g id="Group-6" transform="translate(239.000000, 1591.000000)">
			<g id="Group-4">
				<path id="_x201C_" class="st0" d="M316.1,48c-4.4,0-7.6-1.6-9.8-4.8c-2.2-3.2-3.3-7.7-3.3-13.4c0-6.6,1.6-12.4,4.9-17.4
					c3.2-5,8.2-9.1,14.9-12.4l4.5,8.9c-4.2,2.1-7.3,4.6-9.4,7.3s-3.1,6.2-3.1,10.4c0.3-0.1,0.7-0.1,1.4-0.1c3,0,5.5,0.9,7.6,2.7
					s3.1,4.3,3.1,7.4c0,3.5-1,6.3-3.1,8.3C321.7,47,319.1,48,316.1,48z M348.9,48c-4.4,0-7.6-1.6-9.8-4.8s-3.3-7.7-3.3-13.4
					c0-6.6,1.6-12.4,4.9-17.4s8.2-9.1,14.9-12.4l4.5,8.9c-4.2,2.1-7.3,4.6-9.4,7.3s-3.1,6.2-3.1,10.4c0.3-0.1,0.7-0.1,1.4-0.1
					c3,0,5.5,0.9,7.6,2.7s3.1,4.3,3.1,7.4c0,3.5-1,6.3-3.1,8.3C354.5,47,352,48,348.9,48z"/>
			</g>
		</g>
	</g>
</g>
</svg>
