<?xml version="1.0" encoding="utf-8"?>
<!-- Generator: Adobe Illustrator 24.0.2, SVG Export Plug-In . SVG Version: 6.00 Build 0)  -->
<svg version="1.1" id="Layer_1" xmlns="http://www.w3.org/2000/svg" xmlns:xlink="http://www.w3.org/1999/xlink" x="0px" y="0px"
	 viewBox="0 0 640 102" style="enable-background:new 0 0 640 102;" xml:space="preserve">
<style type="text/css">
	.st0{display:none;}
	.st1{display:inline;}
	.st2{fill:#103C68;}
	.st3{fill:#E0CB26;}
	.st4{fill:#A39634;}
	.st5{fill:#FFFFFF;}
	.st6{display:inline;fill:#103C68;}
</style>
<g id="Layer_1_1_" class="st0">
	
		<image style="display:inline;overflow:visible;enable-background:new    ;" width="550" height="86" xlink:href="E534A896DB9F2983.png"  transform="matrix(1 0 0 1 1 8)">
	</image>
</g>
<g id="Layer_2_1_" class="st0">
	<g class="st1">
		<title>Horizontal Logo</title>
		<path class="st2" d="M257.5,46.6c0,2.3-0.3,4.6-1.1,6.7c-0.7,2-1.8,3.8-3.2,5.3c-1.5,1.5-3.4,2.8-5.4,3.5
			c-4.8,1.7-10.1,1.7-14.9,0c-2-0.8-3.9-2-5.4-3.5c-1.4-1.5-2.6-3.3-3.2-5.3c-0.8-2.2-1.1-4.4-1.1-6.7V21.4h9.1v24.8
			c0,1.2,0.2,2.4,0.6,3.5c0.4,1,0.9,2,1.7,2.8c0.7,0.8,1.6,1.4,2.6,1.8c1,0.4,2.1,0.7,3.3,0.7c1.1,0,2.2-0.2,3.3-0.7
			c1-0.4,1.8-1.1,2.6-1.8c0.7-0.8,1.3-1.8,1.7-2.8c0.4-1.1,0.6-2.3,0.6-3.5V21.4h9.1V46.6z"/>
		<path class="st2" d="M263.5,57.7c0-0.7,0.1-1.4,0.4-2.1c0.3-0.6,0.6-1.2,1.1-1.7s1.1-0.9,1.7-1.1c1.3-0.5,2.8-0.5,4.2,0
			c0.6,0.3,1.2,0.7,1.7,1.1c0.5,0.5,0.9,1.1,1.1,1.7c0.3,0.7,0.4,1.4,0.4,2.1c0,1.4-0.5,2.8-1.5,3.8c-0.5,0.5-1.1,0.9-1.7,1.1
			c-1.3,0.5-2.8,0.5-4.2,0c-1.3-0.5-2.3-1.5-2.8-2.8C263.6,59.1,263.4,58.4,263.5,57.7z"/>
		<path class="st2" d="M311.8,31.7c-0.8-1-1.8-1.7-3-2.1c-1.1-0.4-2.3-0.6-3.5-0.6c-0.7,0-1.4,0.1-2,0.2c-0.7,0.1-1.3,0.4-2,0.7
			c-0.6,0.3-1.1,0.8-1.5,1.3c-0.4,0.6-0.6,1.2-0.6,2c-0.1,1.1,0.5,2.2,1.4,2.8c1.1,0.7,2.2,1.3,3.5,1.7c1.4,0.5,2.9,0.9,4.5,1.4
			c1.6,0.5,3.1,1.1,4.5,2c1.4,0.9,2.6,2,3.5,3.4c0.9,1.4,1.4,3.3,1.4,5.7c0,2.1-0.4,4.1-1.3,6c-0.8,1.7-2,3.1-3.5,4.2
			c-1.5,1.2-3.2,2-5,2.5c-2,0.5-4,0.8-6,0.8c-2.5,0-5-0.4-7.4-1.2c-2.4-0.9-4.5-2.2-6.4-3.9l6.4-7.1c0.9,1.2,2.1,2.2,3.5,2.9
			c1.4,0.7,2.9,1,4.4,1c0.8,0,1.5-0.1,2.2-0.3c0.7-0.2,1.4-0.4,2-0.8c0.6-0.3,1.1-0.8,1.5-1.3c0.4-0.6,0.5-1.2,0.5-1.9
			c0-1.2-0.5-2.2-1.4-2.9c-1.1-0.8-2.3-1.4-3.5-1.9c-1.4-0.5-3-1-4.6-1.5c-1.6-0.5-3.2-1.2-4.6-2c-1.4-0.8-2.6-2-3.6-3.4
			c-1-1.7-1.5-3.6-1.4-5.5c0-2,0.4-4,1.3-5.8c0.8-1.6,2-3,3.5-4.2c1.5-1.1,3.2-2,5-2.5c1.9-0.6,3.9-0.9,5.8-0.8c2.3,0,4.5,0.3,6.7,1
			c2.2,0.7,4.2,1.8,5.8,3.3L311.8,31.7z"/>
		<path class="st2" d="M324.8,57.7c0-0.7,0.1-1.4,0.4-2.1c0.3-0.6,0.6-1.2,1.1-1.7s1.1-0.9,1.7-1.1c1.3-0.5,2.8-0.5,4.2,0
			c0.6,0.3,1.2,0.7,1.7,1.1c0.5,0.5,0.9,1.1,1.1,1.7c0.3,0.7,0.4,1.4,0.4,2.1c0,0.7-0.1,1.4-0.4,2.1c-0.3,0.6-0.6,1.2-1.1,1.7
			c-0.5,0.5-1.1,0.9-1.7,1.1c-1.3,0.5-2.8,0.5-4.2,0c-1.3-0.5-2.3-1.5-2.8-2.8C325,59.1,324.8,58.4,324.8,57.7z"/>
		<path class="st2" d="M371.8,21.4h13.5c3.1,0,6.3,0.3,9.4,1.1c2.8,0.7,5.4,1.9,7.7,3.6c2.2,1.7,4,3.9,5.2,6.4c1.4,3,2,6.3,2,9.5
			c0.1,3-0.6,6-1.9,8.8c-1.2,2.5-2.9,4.6-5.1,6.4c-2.2,1.8-4.7,3.1-7.4,3.9c-2.8,0.9-5.8,1.3-8.7,1.3h-14.8L371.8,21.4L371.8,21.4z
			 M380.8,54.5h4.8c2,0,4-0.2,5.9-0.7c1.7-0.4,3.3-1.1,4.7-2.1c1.4-1,2.4-2.4,3.1-4c0.8-1.9,1.2-3.9,1.1-6c0-1.8-0.4-3.7-1.1-5.3
			c-0.7-1.5-1.8-2.7-3.1-3.7c-1.4-1-2.9-1.8-4.5-2.2c-1.8-0.5-3.6-0.8-5.5-0.7h-5.4L380.8,54.5z"/>
		<path class="st2" d="M424.4,22h9.1v40.9h-9.1V22z"/>
		<path class="st2" d="M487.3,59.7c-2.6,1.4-5.3,2.4-8.1,3c-2.8,0.6-5.7,0.9-8.6,0.9c-3,0-5.9-0.5-8.6-1.5c-2.5-0.9-4.9-2.4-6.8-4.3
			c-2-1.9-3.5-4.2-4.5-6.8c-1.1-2.8-1.6-5.9-1.6-8.9c0-3,0.5-6.1,1.6-8.9c1-2.6,2.5-4.9,4.5-6.8c2-1.9,4.3-3.4,6.8-4.3
			c2.8-1,5.7-1.5,8.6-1.5c3,0,6,0.4,8.8,1.2c2.6,0.8,5.1,2.2,7.1,4.1l-6.2,7c-1.1-1.2-2.5-2.2-4.1-2.9c-1.8-0.7-3.7-1-5.6-1
			c-1.8,0-3.5,0.3-5.1,1c-1.5,0.6-2.8,1.6-3.9,2.7c-1.1,1.2-2,2.6-2.5,4.2c-1.2,3.4-1.2,7.2,0,10.6c0.6,1.5,1.4,3,2.5,4.2
			s2.4,2.1,3.9,2.8c1.6,0.7,3.4,1,5.1,1c1.7,0,3.4-0.2,5-0.7c1.1-0.3,2.3-0.8,3.3-1.4v-6.6h-7.1v-8.4h15.6L487.3,59.7L487.3,59.7z"
			/>
		<path class="st2" d="M503.5,22h9.1v40.9h-9.1L503.5,22L503.5,22z"/>
		<path class="st2" d="M538,29.8h-11.7V22h32.5v7.8h-11.7v33.1H538L538,29.8L538,29.8z"/>
		<path class="st2" d="M579.9,21.4h7.5l17.8,40.9h-10.5l-3.4-8.4h-15.5l-3.3,8.4h-10.2L579.9,21.4z M583.3,33.3l-5,12.7h10
			L583.3,33.3z"/>
		<path class="st2" d="M618.5,22h9.1v32.5h16.9v8.4h-26L618.5,22L618.5,22z"/>
		<path class="st2" d="M703.8,31.7c-0.8-1-1.8-1.7-3-2.1c-1.1-0.4-2.3-0.6-3.6-0.6c-0.7,0-1.4,0.1-2,0.2c-0.7,0.1-1.3,0.4-2,0.7
			c-0.6,0.3-1.1,0.8-1.5,1.3c-0.4,0.6-0.6,1.2-0.6,2c-0.1,1.1,0.5,2.2,1.4,2.8c1.1,0.7,2.3,1.3,3.5,1.7c1.4,0.5,2.9,0.9,4.5,1.4
			c1.6,0.5,3.1,1.1,4.5,2c1.4,0.8,2.6,2,3.5,3.4c1,1.7,1.5,3.7,1.4,5.7c0,2.1-0.4,4.1-1.3,6c-0.8,1.7-2,3.1-3.4,4.2
			c-1.5,1.2-3.2,2-5,2.5c-2,0.5-4,0.8-6.1,0.8c-2.5,0-5-0.4-7.4-1.2c-2.4-0.9-4.5-2.2-6.4-3.9l6.4-7.1c0.9,1.2,2.1,2.2,3.5,2.9
			c1.4,0.7,2.8,1,4.4,1c0.8,0,1.5-0.1,2.2-0.3c0.7-0.2,1.4-0.4,2-0.8c0.6-0.3,1.1-0.8,1.5-1.3c0.4-0.6,0.6-1.2,0.5-1.9
			c0-1.2-0.5-2.2-1.4-2.9c-1.1-0.8-2.3-1.4-3.6-1.8c-1.4-0.5-3-1-4.6-1.5c-1.6-0.5-3.2-1.2-4.6-2c-1.4-0.8-2.6-2-3.6-3.4
			c-1-1.7-1.5-3.6-1.4-5.5c0-2,0.4-4,1.3-5.8c0.8-1.6,2-3,3.5-4.2c1.5-1.1,3.2-2,5-2.5c1.9-0.6,3.9-0.8,5.8-0.8c2.3,0,4.5,0.3,6.7,1
			c2.2,0.7,4.2,1.8,5.8,3.3L703.8,31.7z"/>
		<path class="st2" d="M725.6,22h27.9v7.8h-18.8v7.8h17.5V46h-17.5v8.4h20.1v8.4h-29.2L725.6,22z"/>
		<path class="st2" d="M770.3,22h16c2,0,4,0.2,6,0.6c1.8,0.4,3.5,1,5,2c1.4,1,2.6,2.3,3.4,3.8c0.9,1.9,1.3,3.9,1.3,6
			c0.1,2.6-0.7,5.2-2.3,7.3c-1.6,2.1-4,3.5-6.7,3.9l10.5,17.2h-11.1l-8.5-16.2h-4.4v16.2h-9.1L770.3,22z M779.4,38.3h5.2
			c0.8,0,1.6,0,2.5-0.1c0.8,0,1.6-0.2,2.4-0.5c0.7-0.3,1.3-0.7,1.8-1.3c0.5-0.7,0.8-1.6,0.7-2.5c0-0.9-0.2-1.7-0.6-2.4
			c-0.4-0.6-0.9-1.1-1.6-1.4c-0.7-0.3-1.4-0.5-2.2-0.6c-0.8-0.1-1.6-0.2-2.4-0.2h-5.8L779.4,38.3z"/>
		<path class="st2" d="M812.8,22h10.4l10,26.6h0.1L843.5,22h9.7l-16.8,40.9h-7.2L812.8,22z"/>
		<path class="st2" d="M865.8,22h9.1v40.9h-9.1V22z"/>
		<path class="st2" d="M918.8,32.3c-0.9-1.1-2-1.9-3.2-2.5c-1.4-0.6-3-0.9-4.5-0.9c-3.2,0-6.3,1.3-8.5,3.7c-1.1,1.2-1.9,2.7-2.5,4.2
			c-1.2,3.4-1.2,7.2,0,10.6c0.6,1.5,1.4,2.9,2.5,4.2c1,1.2,2.3,2.1,3.7,2.8c1.4,0.7,3,1,4.5,1c1.7,0,3.4-0.4,4.9-1.2
			c1.4-0.8,2.6-1.9,3.5-3.2l7.5,5.6c-1.7,2.4-4,4.2-6.6,5.4c-2.6,1.1-5.4,1.7-8.2,1.7c-3,0-6-0.5-8.8-1.5c-2.6-0.9-5-2.4-7-4.3
			c-2-1.9-3.6-4.2-4.6-6.8c-1.1-2.8-1.7-5.9-1.7-8.9c0-3,0.5-6.1,1.7-8.9c1-2.6,2.6-4.9,4.6-6.8c2-1.9,4.4-3.4,7-4.3
			c2.8-1,5.8-1.5,8.8-1.5c1.2,0,2.4,0.1,3.6,0.3c1.3,0.2,2.5,0.6,3.7,1c1.2,0.5,2.4,1.1,3.5,1.9c1.1,0.8,2.1,1.7,3,2.8L918.8,32.3z"
			/>
		<path class="st2" d="M941.1,22h27.2v7.8h-18.2v7.8h17.5V46h-18.2v8.4h20.1v8.4h-28.6L941.1,22z"/>
		<path class="st3" d="M63.4,59.7v-7.8H31.8c4.5,7.6,14.1,7.8,14,7.8H63.4z"/>
		<path class="st3" d="M63.4,38.9H17.6c2.6,6.1,9.7,9.7,12.9,9.7h32.9L63.4,38.9L63.4,38.9z"/>
		<path class="st3" d="M63.4,21.4H1.8c-0.5,0-0.9,0.5-0.8,0.9c0,0,0,0.1,0,0.1c1.5,7.2,10.6,13.9,14.9,13.9h47.5V21.4z"/>
		<path class="st3" d="M121.2,59.7v-7.8h31.6c-4.5,7.6-14.1,7.8-14,7.8H121.2z"/>
		<path class="st3" d="M121.2,38.9H167c-2.6,6.1-9.7,9.7-12.9,9.7h-32.9V38.9z"/>
		<path class="st3" d="M121.2,21.4h61.6c0.5,0,0.9,0.5,0.8,0.9c0,0,0,0.1,0,0.1c-1.5,7.2-10.6,13.9-14.9,13.9h-47.5L121.2,21.4
			L121.2,21.4z"/>
		<path class="st4" d="M34.1,22.6C34.9,47.8,60.7,68,92.5,68s57.7-20.2,58.4-45.5c0.1-0.5-0.2-1-0.8-1.1c0,0-0.1,0-0.1,0H35.1
			C34.3,21.4,34,22,34.1,22.6z"/>
		<path class="st5" d="M118.5,7.8H66.2c-1.5,0-2.8,1.2-2.8,2.8l0,0v51c-0.1,0.7,0.2,1.5,0.6,2C66.3,67.2,78,82,84.4,88
			c1,0.9,5.4,5.8,7.9,5.8s6.9-4.9,7.9-5.8c6.4-5.9,18.1-20.8,20.4-24.4c0.4-0.6,0.7-1.3,0.6-2v-51C121.2,9,120,7.8,118.5,7.8
			L118.5,7.8z"/>
		<path class="st2" d="M118.4,7.8H66.2c-1.5,0-2.8,1.2-2.8,2.7l0,0v50.4c-0.1,0.7,0.2,1.4,0.6,2c1.4,2.1,6.1,8.2,11.1,14V35h11.7
			v54.7c1.8,1.7,4.2,3.7,5.8,3.7s4-2,5.8-3.7V35h11v41.9c5-5.8,9.7-11.8,11.1-14c0.4-0.6,0.7-1.3,0.6-2V10.5
			C121.2,9,120,7.8,118.4,7.8L118.4,7.8z M77.5,25.1l-3.2-1.7l-3.2,1.7l0.7-3.5l-2.6-2.5l3.6-0.5l1.5-3.2l1.5,3.2l3.6,0.5l-2.6,2.5
			L77.5,25.1z M96.2,23l1,5.4l-4.8-2.6l-4.8,2.6l1-5.4l-4-3.8l5.5-0.7l2.4-5l2.4,5l5.5,0.7L96.2,23z M113.7,25.1l-3.2-1.7l-3.2,1.7
			l0.7-3.5l-2.6-2.5l3.6-0.5l1.5-3.2l1.5,3.2l3.6,0.5l-2.6,2.5L113.7,25.1z"/>
	</g>
</g>
<g id="Layer_2_copy" class="st0">
	<title>Horizontal Logo</title>
	<path class="st6" d="M225.5,59.4c0,1.2-0.2,2.4-0.6,3.6c-0.4,1.1-1,2-1.7,2.8c-0.8,0.8-1.8,1.5-2.9,1.9c-2.6,0.9-5.4,0.9-8,0
		c-1.1-0.4-2.1-1.1-2.9-1.9c-0.8-0.8-1.4-1.8-1.7-2.8c-0.4-1.2-0.6-2.4-0.6-3.6V46h4.8v13.2c0,0.6,0.1,1.3,0.3,1.9
		c0.2,0.5,0.5,1.1,0.9,1.5c0.4,0.4,0.9,0.8,1.4,1c0.6,0.2,1.1,0.3,1.7,0.3c0.6,0,1.2-0.1,1.7-0.3c0.5-0.2,1-0.6,1.4-1
		c0.4-0.4,0.7-1,0.9-1.5c0.2-0.6,0.3-1.2,0.3-1.9V46h4.8V59.4z"/>
	<path class="st6" d="M228.6,65.3c0-0.4,0.1-0.8,0.2-1.1c0.1-0.3,0.3-0.6,0.6-0.9c0.3-0.3,0.6-0.5,0.9-0.6c0.7-0.3,1.5-0.3,2.2,0
		c0.3,0.1,0.6,0.3,0.9,0.6c0.3,0.3,0.5,0.6,0.6,0.9c0.1,0.3,0.2,0.7,0.2,1.1c0,0.8-0.3,1.5-0.8,2c-0.3,0.3-0.6,0.5-0.9,0.6
		c-0.7,0.3-1.5,0.3-2.2,0c-0.7-0.3-1.2-0.8-1.5-1.5C228.7,66.1,228.6,65.7,228.6,65.3z"/>
	<path class="st6" d="M254.4,51.5c-0.4-0.5-1-0.9-1.6-1.1c-0.6-0.2-1.2-0.3-1.9-0.3c-0.4,0-0.7,0-1.1,0.1c-0.4,0.1-0.7,0.2-1,0.4
		c-0.3,0.2-0.6,0.4-0.8,0.7c-0.2,0.3-0.3,0.7-0.3,1c0,0.6,0.2,1.2,0.7,1.5c0.6,0.4,1.2,0.7,1.8,0.9c0.8,0.2,1.6,0.5,2.4,0.7
		c0.9,0.2,1.7,0.6,2.4,1c0.8,0.5,1.4,1.1,1.9,1.8c0.5,0.8,0.7,1.8,0.7,3c0,1.1-0.2,2.2-0.7,3.2c-0.4,0.9-1.1,1.7-1.8,2.2
		c-0.8,0.6-1.7,1.1-2.7,1.3c-1.1,0.3-2.1,0.4-3.2,0.4c-1.3,0-2.7-0.2-3.9-0.7c-1.3-0.5-2.4-1.2-3.4-2.1l3.4-3.8
		c0.5,0.7,1.1,1.2,1.9,1.5c0.7,0.4,1.5,0.5,2.4,0.6c0.4,0,0.8-0.1,1.2-0.1c0.4-0.1,0.7-0.2,1.1-0.4c0.3-0.2,0.6-0.4,0.8-0.7
		c0.2-0.3,0.3-0.7,0.3-1c0-0.6-0.3-1.2-0.8-1.6c-0.6-0.4-1.2-0.8-1.9-1c-0.8-0.3-1.6-0.5-2.5-0.8c-0.9-0.3-1.7-0.6-2.5-1.1
		c-0.8-0.5-1.4-1.1-1.9-1.8c-0.5-0.9-0.8-1.9-0.8-2.9c0-1.1,0.2-2.1,0.7-3.1c0.4-0.9,1.1-1.6,1.9-2.2c0.8-0.6,1.7-1.1,2.7-1.4
		c1-0.3,2.1-0.5,3.1-0.5c1.2,0,2.4,0.2,3.6,0.5c1.1,0.3,2.2,1,3.1,1.8L254.4,51.5z"/>
	<path class="st6" d="M261.3,65.3c0-0.4,0.1-0.8,0.2-1.1c0.1-0.3,0.3-0.6,0.6-0.9c0.3-0.3,0.6-0.5,0.9-0.6c0.7-0.3,1.5-0.3,2.2,0
		c0.3,0.1,0.6,0.3,0.9,0.6s0.5,0.6,0.6,0.9c0.1,0.3,0.2,0.7,0.2,1.1s-0.1,0.8-0.2,1.1c-0.1,0.3-0.3,0.7-0.6,0.9s-0.6,0.5-0.9,0.6
		c-0.7,0.3-1.5,0.3-2.2,0c-0.7-0.3-1.2-0.8-1.5-1.5C261.4,66.1,261.3,65.7,261.3,65.3z"/>
	<path class="st6" d="M286.4,46h7.2c1.7,0,3.4,0.2,5,0.6c1.5,0.3,2.9,1,4.1,1.9c1.2,0.9,2.1,2.1,2.8,3.4c0.7,1.6,1.1,3.3,1,5.1
		c0,1.6-0.3,3.2-1,4.7c-0.6,1.3-1.6,2.5-2.7,3.4c-1.2,0.9-2.5,1.6-3.9,2.1c-1.5,0.5-3.1,0.7-4.6,0.7h-7.9V46z M291.2,63.6h2.5
		c1.1,0,2.1-0.1,3.2-0.3c0.9-0.2,1.8-0.6,2.5-1.1c0.7-0.5,1.3-1.3,1.7-2.1c0.4-1,0.6-2.1,0.6-3.2c0-1-0.2-2-0.6-2.8
		c-0.4-0.8-1-1.5-1.6-2c-0.7-0.5-1.5-0.9-2.4-1.2c-1-0.3-1.9-0.4-2.9-0.4h-2.9L291.2,63.6z"/>
	<path class="st6" d="M314.4,46.3h4.8v21.8h-4.8V46.3z"/>
	<path class="st6" d="M347.9,66.4c-1.4,0.7-2.8,1.3-4.3,1.6s-3,0.5-4.6,0.5c-1.6,0-3.1-0.2-4.6-0.8c-1.4-0.5-2.6-1.3-3.6-2.3
		c-1-1-1.9-2.3-2.4-3.6c-0.6-1.5-0.9-3.1-0.9-4.8c0-1.6,0.3-3.2,0.9-4.8c0.5-1.4,1.4-2.6,2.4-3.6c1-1,2.3-1.8,3.6-2.3
		c1.5-0.5,3-0.8,4.6-0.8c1.6,0,3.2,0.2,4.7,0.6c1.4,0.4,2.7,1.2,3.8,2.2l-3.3,3.7c-0.6-0.7-1.4-1.2-2.2-1.5c-1-0.4-2-0.6-3-0.5
		c-0.9,0-1.9,0.2-2.7,0.5c-0.8,0.3-1.5,0.8-2.1,1.5c-0.6,0.6-1.1,1.4-1.4,2.2c-0.6,1.8-0.6,3.8,0,5.6c0.3,0.8,0.8,1.6,1.4,2.2
		s1.3,1.1,2.1,1.5c0.9,0.4,1.8,0.5,2.7,0.5c0.9,0,1.8-0.1,2.6-0.3c0.6-0.2,1.2-0.4,1.8-0.7v-3.5h-3.8V55h8.3L347.9,66.4L347.9,66.4z
		"/>
	<path class="st6" d="M356.6,46.3h4.8v21.8h-4.8V46.3z"/>
	<path class="st6" d="M374.9,50.5h-6.2v-4.2H386v4.2h-6.2v17.6h-4.8L374.9,50.5L374.9,50.5z"/>
	<path class="st6" d="M397.3,46h4l9.5,21.8h-5.6l-1.8-4.5h-8.2l-1.8,4.5h-5.5L397.3,46z M399.1,52.3l-2.6,6.8h5.3L399.1,52.3z"/>
	<path class="st6" d="M417.8,46.3h4.8v17.3h9v4.5h-13.8V46.3z"/>
	<path class="st6" d="M463.3,51.5c-0.4-0.5-1-0.9-1.6-1.1c-0.6-0.2-1.2-0.3-1.9-0.3c-0.4,0-0.7,0-1.1,0.1c-0.4,0.1-0.7,0.2-1,0.4
		c-0.3,0.2-0.6,0.4-0.8,0.7c-0.2,0.3-0.3,0.7-0.3,1c0,0.6,0.2,1.2,0.7,1.5c0.6,0.4,1.2,0.7,1.9,0.9c0.8,0.2,1.6,0.5,2.4,0.7
		c0.9,0.2,1.7,0.6,2.4,1c0.8,0.5,1.4,1.1,1.9,1.8c0.5,0.9,0.8,2,0.7,3c0,1.1-0.2,2.2-0.7,3.2c-0.4,0.9-1.1,1.7-1.8,2.2
		c-0.8,0.6-1.7,1.1-2.7,1.3c-1,0.3-2.1,0.4-3.2,0.4c-1.3,0-2.7-0.2-4-0.7c-1.3-0.5-2.4-1.2-3.4-2.1l3.4-3.8c0.5,0.7,1.1,1.2,1.9,1.5
		c0.7,0.4,1.5,0.5,2.3,0.5c0.4,0,0.8-0.1,1.2-0.1c0.4-0.1,0.7-0.2,1.1-0.4c0.3-0.2,0.6-0.4,0.8-0.7c0.2-0.3,0.3-0.7,0.3-1
		c0-0.6-0.3-1.2-0.8-1.6c-0.6-0.4-1.2-0.8-1.9-1c-0.8-0.3-1.6-0.5-2.5-0.8c-0.9-0.3-1.7-0.6-2.5-1.1c-0.8-0.5-1.4-1.1-1.9-1.8
		c-0.5-0.9-0.8-1.9-0.8-2.9c0-1.1,0.2-2.1,0.7-3.1c0.5-0.9,1.1-1.6,1.9-2.2c0.8-0.6,1.7-1.1,2.7-1.3c1-0.3,2.1-0.5,3.1-0.5
		c1.2,0,2.4,0.2,3.6,0.5c1.1,0.3,2.2,1,3.1,1.8L463.3,51.5z"/>
	<path class="st6" d="M474.9,46.3h14.9v4.2h-10v4.2h9.3v4.5h-9.3v4.5h10.7v4.5h-15.6V46.3z"/>
	<path class="st6" d="M498.8,46.3h8.5c1.1,0,2.1,0.1,3.2,0.3c0.9,0.2,1.8,0.6,2.6,1.1c0.8,0.5,1.4,1.2,1.8,2c0.5,1,0.7,2.1,0.7,3.2
		c0,1.4-0.4,2.8-1.2,3.9c-0.9,1.1-2.1,1.9-3.5,2.1l5.6,9.2h-5.9l-4.5-8.7h-2.4v8.7h-4.8L498.8,46.3z M503.6,55h2.8
		c0.4,0,0.9,0,1.4,0c0.4,0,0.9-0.1,1.3-0.3c0.4-0.2,0.7-0.4,1-0.7c0.3-0.4,0.4-0.9,0.4-1.3c0-0.5-0.1-0.9-0.3-1.3
		c-0.2-0.3-0.5-0.6-0.8-0.7c-0.4-0.2-0.8-0.3-1.2-0.3c-0.4-0.1-0.9-0.1-1.3-0.1h-3.1L503.6,55z"/>
	<path class="st6" d="M521.4,46.3h5.5l5.3,14.2h0.1l5.4-14.2h5.2l-9,21.8h-3.8L521.4,46.3z"/>
	<path class="st6" d="M549.6,46.3h4.8v21.8h-4.8V46.3z"/>
	<path class="st6" d="M577.9,51.8c-0.5-0.6-1.1-1-1.7-1.3c-0.8-0.3-1.6-0.5-2.4-0.5c-1.7,0-3.4,0.7-4.5,2c-0.6,0.7-1,1.4-1.3,2.2
		c-0.6,1.8-0.6,3.8,0,5.6c0.3,0.8,0.7,1.6,1.3,2.2c0.5,0.6,1.2,1.1,2,1.5c0.8,0.3,1.6,0.5,2.4,0.5c0.9,0,1.8-0.2,2.6-0.6
		c0.8-0.4,1.4-1,1.9-1.7l4,3c-0.9,1.3-2.1,2.3-3.5,2.9c-1.4,0.6-2.9,0.9-4.4,0.9c-1.6,0-3.2-0.2-4.7-0.8c-1.4-0.5-2.7-1.3-3.7-2.3
		c-1.1-1-1.9-2.3-2.5-3.6c-0.6-1.5-0.9-3.1-0.9-4.8c0-1.6,0.3-3.2,0.9-4.8c0.5-1.4,1.4-2.6,2.5-3.6c1.1-1,2.3-1.8,3.7-2.3
		c1.5-0.5,3.1-0.8,4.7-0.8c0.7,0,1.3,0.1,1.9,0.2c0.7,0.1,1.3,0.3,2,0.5c0.7,0.2,1.3,0.6,1.9,1c0.6,0.4,1.1,0.9,1.6,1.5L577.9,51.8z
		"/>
	<path class="st6" d="M589.8,46.3h14.5v4.2h-9.7v4.2h9.3v4.5h-9.7v4.5H605v4.5h-15.2V46.3z"/>
	<g class="st1">
		<path class="st3" d="M63.4,59.7v-7.8H31.8c4.5,7.6,14.1,7.8,14,7.8H63.4z"/>
		<path class="st3" d="M63.4,38.9H17.6c2.6,6.1,9.7,9.7,12.9,9.7h32.9L63.4,38.9L63.4,38.9z"/>
		<path class="st3" d="M63.4,21.4H1.8c-0.5,0-0.9,0.5-0.8,0.9c0,0,0,0.1,0,0.1c1.5,7.2,10.6,13.9,14.9,13.9h47.5V21.4z"/>
		<path class="st3" d="M121.2,59.7v-7.8h31.6c-4.5,7.6-14.1,7.8-14,7.8H121.2z"/>
		<path class="st3" d="M121.2,38.9H167c-2.6,6.1-9.7,9.7-12.9,9.7h-32.9V38.9z"/>
		<path class="st3" d="M121.2,21.4h61.6c0.5,0,0.9,0.5,0.8,0.9c0,0,0,0.1,0,0.1c-1.5,7.2-10.6,13.9-14.9,13.9h-47.5L121.2,21.4
			L121.2,21.4z"/>
		<path class="st4" d="M34.1,22.6C34.9,47.8,60.7,68,92.5,68s57.7-20.2,58.4-45.5c0.1-0.5-0.2-1-0.8-1.1c0,0-0.1,0-0.1,0H35.1
			C34.3,21.4,34,22,34.1,22.6z"/>
		<path class="st5" d="M118.5,7.8H66.2c-1.5,0-2.8,1.2-2.8,2.8l0,0v51c-0.1,0.7,0.2,1.5,0.6,2C66.3,67.2,78,82,84.4,88
			c1,0.9,5.4,5.8,7.9,5.8s6.9-4.9,7.9-5.8c6.4-5.9,18.1-20.8,20.4-24.4c0.4-0.6,0.7-1.3,0.6-2v-51C121.2,9,120,7.8,118.5,7.8
			L118.5,7.8z"/>
		<path class="st2" d="M118.4,7.8H66.2c-1.5,0-2.8,1.2-2.8,2.7l0,0v50.4c-0.1,0.7,0.2,1.4,0.6,2c1.4,2.1,6.1,8.2,11.1,14V35h11.7
			v54.7c1.8,1.7,4.2,3.7,5.8,3.7s4-2,5.8-3.7V35h11v41.9c5-5.8,9.7-11.8,11.1-14c0.4-0.6,0.7-1.3,0.6-2V10.5
			C121.2,9,120,7.8,118.4,7.8L118.4,7.8z M77.5,25.1l-3.2-1.7l-3.2,1.7l0.7-3.5l-2.6-2.5l3.6-0.5l1.5-3.2l1.5,3.2l3.6,0.5l-2.6,2.5
			L77.5,25.1z M96.2,23l1,5.4l-4.8-2.6l-4.8,2.6l1-5.4l-4-3.8l5.5-0.7l2.4-5l2.4,5l5.5,0.7L96.2,23z M113.7,25.1l-3.2-1.7l-3.2,1.7
			l0.7-3.5l-2.6-2.5l3.6-0.5l1.5-3.2l1.5,3.2l3.6,0.5l-2.6,2.5L113.7,25.1z"/>
	</g>
</g>
<g id="Layer_2_copy_2">
	<title>Horizontal Logo</title>
	<g>
		<path class="st2" d="M227.9,53.3c0,1.4-0.2,2.8-0.7,4c-0.4,1.2-1.1,2.3-1.9,3.2c-0.9,0.9-2,1.7-3.2,2.1c-2.9,1-6.1,1-9,0
			c-1.2-0.5-2.3-1.2-3.2-2.1c-0.9-0.9-1.5-2-1.9-3.2c-0.4-1.3-0.7-2.7-0.7-4V38.2h5.5v15c0,0.7,0.1,1.4,0.4,2.1
			c0.2,0.6,0.6,1.2,1,1.7c0.4,0.5,1,0.9,1.6,1.1c0.6,0.3,1.3,0.4,2,0.4c0.7,0,1.3-0.1,2-0.4c0.6-0.3,1.1-0.6,1.5-1.1
			c0.4-0.5,0.8-1.1,1-1.7c0.2-0.7,0.4-1.4,0.4-2.1v-15h5.5L227.9,53.3L227.9,53.3z"/>
		<path class="st2" d="M231.4,60c0-0.4,0.1-0.9,0.2-1.3c0.2-0.4,0.4-0.7,0.7-1c0.3-0.3,0.6-0.5,1-0.7c0.8-0.3,1.7-0.3,2.5,0
			c0.4,0.2,0.7,0.4,1,0.7c0.3,0.3,0.5,0.7,0.7,1c0.2,0.4,0.2,0.8,0.2,1.3c0,0.9-0.3,1.7-0.9,2.3c-0.3,0.3-0.6,0.5-1,0.7
			c-0.8,0.3-1.7,0.3-2.5,0c-0.8-0.3-1.4-0.9-1.7-1.7C231.5,60.9,231.4,60.5,231.4,60z"/>
		<path class="st2" d="M257.2,44.4c-0.5-0.6-1.1-1-1.8-1.2c-0.7-0.2-1.4-0.4-2.1-0.4c-0.4,0-0.8,0-1.2,0.1c-0.4,0.1-0.8,0.2-1.2,0.4
			c-0.4,0.2-0.7,0.5-0.9,0.8c-0.2,0.3-0.4,0.8-0.4,1.2c0,0.7,0.3,1.3,0.8,1.7c0.6,0.4,1.3,0.8,2.1,1c0.9,0.3,1.8,0.6,2.7,0.8
			c1,0.3,1.9,0.7,2.7,1.2c0.9,0.5,1.6,1.2,2.1,2.1c0.6,0.9,0.8,2,0.8,3.5c0,1.2-0.2,2.5-0.8,3.6c-0.5,1-1.2,1.9-2.1,2.5
			c-0.9,0.7-1.9,1.2-3,1.5c-1.2,0.3-2.4,0.5-3.6,0.5c-1.5,0-3-0.2-4.5-0.7c-1.4-0.5-2.7-1.3-3.8-2.4l3.9-4.3
			c0.6,0.7,1.3,1.3,2.1,1.7c0.8,0.4,1.7,0.6,2.7,0.6c0.4,0,0.9,0,1.3-0.2c0.4-0.1,0.8-0.2,1.2-0.5c0.4-0.2,0.6-0.5,0.9-0.8
			c0.2-0.3,0.3-0.7,0.3-1.2c0-0.7-0.3-1.3-0.9-1.8c-0.6-0.5-1.4-0.9-2.1-1.1c-0.9-0.3-1.8-0.6-2.8-0.9c-1-0.3-1.9-0.7-2.8-1.2
			c-0.9-0.5-1.6-1.2-2.1-2c-0.6-1-0.9-2.2-0.9-3.3c0-1.2,0.2-2.4,0.8-3.5c0.5-1,1.2-1.8,2.1-2.5c0.9-0.7,1.9-1.2,3-1.5
			c1.1-0.3,2.3-0.5,3.5-0.5c1.4,0,2.7,0.2,4.1,0.6c1.3,0.4,2.5,1.1,3.5,2L257.2,44.4z"/>
		<path class="st2" d="M265,60c0-0.4,0.1-0.9,0.2-1.3c0.2-0.4,0.4-0.7,0.7-1c0.3-0.3,0.6-0.5,1-0.7c0.8-0.3,1.7-0.3,2.5,0
			c0.4,0.2,0.7,0.4,1,0.7c0.3,0.3,0.5,0.6,0.7,1c0.2,0.4,0.2,0.8,0.2,1.3c0,0.4-0.1,0.9-0.2,1.3c-0.2,0.4-0.4,0.7-0.7,1
			c-0.3,0.3-0.6,0.5-1,0.7c-0.8,0.3-1.7,0.3-2.5,0c-0.8-0.3-1.4-0.9-1.7-1.7C265.1,60.9,265,60.5,265,60z"/>
		<path class="st2" d="M293.3,38.2h8.2c1.9,0,3.8,0.2,5.6,0.7c1.7,0.4,3.3,1.1,4.7,2.2c1.4,1,2.4,2.3,3.1,3.9
			c0.8,1.8,1.2,3.8,1.2,5.8c0,1.8-0.4,3.6-1.1,5.3c-0.7,1.5-1.8,2.8-3,3.8c-1.3,1-2.8,1.8-4.4,2.3c-1.7,0.5-3.5,0.8-5.3,0.8h-8.9
			L293.3,38.2L293.3,38.2z M298.8,58.1h2.9c1.2,0,2.4-0.1,3.6-0.4c1-0.2,2-0.7,2.8-1.3c0.8-0.6,1.5-1.4,1.9-2.4
			c0.5-1.1,0.7-2.4,0.7-3.6c0-1.1-0.2-2.2-0.7-3.2c-0.4-0.9-1.1-1.7-1.9-2.2c-0.8-0.6-1.8-1.1-2.7-1.3c-1.1-0.3-2.2-0.5-3.3-0.4
			h-3.3L298.8,58.1z"/>
		<path class="st2" d="M323.9,38.5h5.5v24.7h-5.5V38.5z"/>
		<path class="st2" d="M359.6,61.2c-1.5,0.8-3.2,1.4-4.9,1.8c-1.7,0.4-3.5,0.6-5.2,0.6c-1.8,0-3.5-0.3-5.2-0.9
			c-1.5-0.6-2.9-1.5-4.1-2.6c-1.2-1.2-2.1-2.5-2.7-4.1c-0.7-1.7-1-3.5-1-5.4c0-1.8,0.3-3.7,1-5.4c0.6-1.5,1.5-2.9,2.7-4.1
			c1.2-1.2,2.6-2,4.1-2.6c1.7-0.6,3.4-0.9,5.2-0.9c1.8,0,3.6,0.2,5.3,0.7c1.6,0.5,3.1,1.3,4.3,2.5l-3.8,4.2
			c-0.7-0.8-1.5-1.3-2.5-1.8c-1.1-0.4-2.2-0.6-3.4-0.6c-1,0-2.1,0.2-3.1,0.6c-0.9,0.4-1.7,0.9-2.4,1.7c-0.7,0.7-1.2,1.6-1.5,2.5
			c-0.7,2.1-0.7,4.3,0,6.4c0.3,0.9,0.9,1.8,1.5,2.5c0.7,0.7,1.5,1.3,2.4,1.7c1,0.4,2,0.6,3.1,0.6c1,0,2-0.1,3-0.4
			c0.7-0.2,1.4-0.5,2-0.8v-4h-4.3v-5.1h9.4L359.6,61.2L359.6,61.2z"/>
		<path class="st2" d="M368.2,38.5h5.5v24.7h-5.5V38.5z"/>
		<path class="st2" d="M387.9,43.2h-7v-4.7h19.6v4.7h-7v20h-5.5L387.9,43.2L387.9,43.2z"/>
		<path class="st2" d="M413.1,38.2h4.5l10.7,24.7H422l-2.1-5.1h-9.3l-2,5.1h-6.2L413.1,38.2z M415.2,45.3l-3,7.7h6L415.2,45.3z"/>
		<path class="st2" d="M435.2,38.5h5.5v19.6h10.2v5.1h-15.6L435.2,38.5L435.2,38.5z"/>
		<path class="st2" d="M486.7,44.4c-0.5-0.6-1.1-1-1.8-1.2c-0.7-0.2-1.4-0.4-2.1-0.4c-0.4,0-0.8,0-1.2,0.1c-0.4,0.1-0.8,0.2-1.2,0.4
			c-0.4,0.2-0.7,0.5-0.9,0.8c-0.2,0.3-0.4,0.8-0.4,1.2c0,0.7,0.3,1.3,0.8,1.7c0.6,0.4,1.4,0.8,2.1,1c0.9,0.3,1.8,0.6,2.7,0.8
			c1,0.3,1.9,0.7,2.7,1.2c0.9,0.5,1.6,1.2,2.1,2.1c0.6,1,0.9,2.2,0.8,3.5c0,1.2-0.2,2.5-0.8,3.6c-0.5,1-1.2,1.9-2.1,2.5
			c-0.9,0.7-1.9,1.2-3,1.5c-1.2,0.3-2.4,0.5-3.6,0.5c-1.5,0-3-0.2-4.5-0.7c-1.4-0.5-2.7-1.3-3.8-2.4l3.9-4.3
			c0.5,0.7,1.3,1.3,2.1,1.7c0.8,0.4,1.7,0.6,2.6,0.6c0.5,0,0.9,0,1.3-0.2c0.4-0.1,0.8-0.3,1.2-0.5c0.4-0.2,0.6-0.5,0.9-0.8
			c0.2-0.3,0.3-0.7,0.3-1.2c0-0.7-0.3-1.3-0.9-1.8c-0.6-0.5-1.4-0.8-2.1-1.1c-0.9-0.3-1.8-0.6-2.8-0.9c-1-0.3-1.9-0.7-2.8-1.2
			c-0.9-0.5-1.6-1.2-2.1-2c-0.6-1-0.9-2.2-0.9-3.3c0-1.2,0.2-2.4,0.8-3.5c0.5-1,1.2-1.8,2.1-2.5c0.9-0.7,1.9-1.2,3-1.5
			c1.1-0.3,2.3-0.5,3.5-0.5c1.4,0,2.7,0.2,4,0.6c1.3,0.4,2.5,1.1,3.5,2L486.7,44.4z"/>
		<path class="st2" d="M498.7,38.5h16.8v4.7h-11.4V48h10.6V53h-10.6v5.1h12.1v5.1h-17.6L498.7,38.5z"/>
		<path class="st2" d="M524.5,38.5h9.6c1.2,0,2.4,0.1,3.6,0.4c1.1,0.2,2.1,0.6,3,1.2c0.9,0.6,1.6,1.4,2,2.3c0.5,1.1,0.8,2.4,0.8,3.6
			c0,1.6-0.4,3.1-1.4,4.4c-1,1.3-2.4,2.1-4,2.3l6.3,10.4h-6.7l-5.1-9.8H530v9.8h-5.5L524.5,38.5z M530,48.3h3.1c0.5,0,1,0,1.5,0
			c0.5,0,1-0.1,1.5-0.3c0.4-0.2,0.8-0.4,1.1-0.8c0.3-0.5,0.5-1,0.4-1.5c0-0.5-0.1-1-0.4-1.5c-0.2-0.3-0.6-0.6-1-0.8
			c-0.4-0.2-0.9-0.3-1.3-0.4c-0.5-0.1-1-0.1-1.5-0.1H530L530,48.3z"/>
		<path class="st2" d="M547.8,38.5h6.2l6,16h0.1l6.2-16h5.9l-10.2,24.7h-4.3L547.8,38.5z"/>
		<path class="st2" d="M578.7,38.5h5.5v24.7h-5.5V38.5z"/>
		<path class="st2" d="M609.5,44.8c-0.5-0.7-1.2-1.2-2-1.5c-0.8-0.4-1.8-0.5-2.7-0.5c-2,0-3.8,0.8-5.1,2.2c-0.7,0.7-1.2,1.6-1.5,2.5
			c-0.7,2.1-0.7,4.3,0,6.4c0.3,0.9,0.8,1.8,1.5,2.5c0.6,0.7,1.4,1.3,2.2,1.7c0.9,0.4,1.8,0.6,2.7,0.6c1,0,2-0.2,3-0.7
			c0.9-0.5,1.6-1.1,2.1-2l4.5,3.4c-1,1.4-2.4,2.5-4,3.2c-1.6,0.7-3.2,1-5,1c-1.8,0-3.6-0.3-5.3-0.9c-1.6-0.6-3-1.5-4.2-2.6
			c-1.2-1.2-2.2-2.5-2.8-4.1c-0.7-1.7-1-3.5-1-5.4c0-1.8,0.3-3.7,1-5.4c0.6-1.5,1.6-2.9,2.8-4.1c1.2-1.2,2.7-2,4.2-2.6
			c1.7-0.6,3.5-0.9,5.3-0.9c0.7,0,1.5,0.1,2.2,0.2c0.8,0.1,1.5,0.3,2.2,0.6c0.8,0.3,1.5,0.7,2.1,1.1c0.7,0.5,1.3,1,1.8,1.7
			L609.5,44.8z"/>
		<path class="st2" d="M621.8,38.5h16.4v4.7h-11V48h10.6V53h-11v5.1H639v5.1h-17.2L621.8,38.5z"/>
	</g>
	<g>
		<path class="st3" d="M63.4,62.6v-7.8H31.8c4.5,7.6,14.1,7.8,14,7.8H63.4z"/>
		<path class="st3" d="M63.4,41.8H17.6c2.6,6.1,9.7,9.7,12.9,9.7h32.9L63.4,41.8L63.4,41.8z"/>
		<path class="st3" d="M63.4,24.3H1.8c-0.5,0-0.9,0.4-0.8,0.9c0,0,0,0.1,0,0.1c1.5,7.2,10.6,13.9,14.9,13.9h47.5V24.3z"/>
		<path class="st3" d="M121.2,62.6v-7.8h31.6c-4.5,7.6-14.1,7.8-14,7.8H121.2z"/>
		<path class="st3" d="M121.2,41.8H167c-2.6,6.1-9.7,9.7-12.9,9.7h-32.9V41.8z"/>
		<path class="st3" d="M121.2,24.3h61.6c0.5,0,0.9,0.5,0.8,0.9c0,0,0,0.1,0,0.1c-1.5,7.2-10.6,13.9-14.9,13.9h-47.5L121.2,24.3
			L121.2,24.3z"/>
		<path class="st4" d="M34.1,25.5c0.8,25.2,26.7,45.4,58.4,45.4s57.7-20.2,58.4-45.5c0.1-0.5-0.2-1-0.8-1.1c0,0-0.1,0-0.1,0H35.1
			C34.3,24.3,34,24.9,34.1,25.5z"/>
		<path class="st5" d="M118.5,10.6H66.2c-1.5,0-2.8,1.2-2.8,2.8l0,0v51c-0.1,0.7,0.2,1.4,0.6,2c2.3,3.6,14,18.5,20.4,24.4
			c1,0.9,5.4,5.8,7.9,5.8s6.9-4.9,7.9-5.8c6.4-5.9,18.1-20.8,20.4-24.4c0.4-0.6,0.7-1.3,0.6-2v-51C121.2,11.9,120,10.6,118.5,10.6
			L118.5,10.6z"/>
		<path class="st2" d="M118.4,10.6H66.2c-1.5,0-2.8,1.2-2.8,2.7l0,0v50.4c-0.1,0.7,0.2,1.4,0.6,2c1.4,2.1,6.1,8.2,11.1,14V37.9h11.7
			v54.7c1.8,1.7,4.2,3.7,5.8,3.7s4-2,5.8-3.7V37.9h11v41.8c5-5.8,9.7-11.8,11.1-14c0.4-0.6,0.7-1.3,0.6-2V13.4
			C121.2,11.9,120,10.6,118.4,10.6L118.4,10.6z M77.5,28l-3.2-1.7L71.1,28l0.7-3.5L69.2,22l3.6-0.5l1.5-3.2l1.5,3.2l3.6,0.5
			l-2.6,2.5L77.5,28z M96.2,25.9l1,5.4l-4.8-2.6l-4.8,2.6l1-5.4l-4-3.8l5.5-0.7l2.4-5l2.4,5l5.5,0.7L96.2,25.9z M113.7,28l-3.2-1.7
			l-3.2,1.7l0.7-3.5l-2.6-2.5l3.6-0.5l1.5-3.2l1.5,3.2l3.6,0.5l-2.6,2.5L113.7,28z"/>
	</g>
</g>
<g id="Layer_3" class="st0">
	<g class="st1">
		<path class="st3" d="M62.7,60v-7.7H31.4c4.5,7.5,13.9,7.7,13.8,7.7H62.7z"/>
		<path class="st3" d="M62.7,39.6H17.4c2.6,6,9.6,9.6,12.8,9.6h32.5V39.6z"/>
		<path class="st3" d="M62.7,22.1H2.6c-0.5,0-0.8,0.4-0.8,0.9c0,0,0,0.1,0,0.1c1.4,7,10.3,13.5,14.5,13.5h46.4L62.7,22.1L62.7,22.1z
			"/>
		<path class="st3" d="M119.5,60v-7.7h31.2c-4.5,7.5-13.9,7.7-13.8,7.7H119.5z"/>
		<path class="st3" d="M119.5,39.6h45.3c-2.6,6-9.6,9.6-12.8,9.6h-32.5L119.5,39.6L119.5,39.6z"/>
		<path class="st3" d="M119.5,22.1h60.1c0.5,0,0.8,0.4,0.8,0.9c0,0,0,0.1,0,0.1c-1.5,7-10.3,13.5-14.5,13.5h-46.4V22.1z"/>
		<path class="st4" d="M32.5,23.3c0.8,25.3,26.8,45.5,58.6,45.5s57.8-20.3,58.6-45.6c0.1-0.5-0.2-1-0.8-1.2c0,0-0.1,0-0.1,0H33.5
			C32.7,22.1,32.4,22.7,32.5,23.3z"/>
		<path class="st5" d="M116.9,8.5H65.3c-1.5,0-2.7,1.2-2.7,2.7l0,0v50.4c-0.1,0.7,0.2,1.4,0.6,2c2.3,3.6,13.8,18.3,20.1,24.1
			c1,0.9,5.4,5.8,7.8,5.8s6.8-4.8,7.8-5.8c6.3-5.9,17.9-20.5,20.1-24.1c0.4-0.6,0.7-1.3,0.6-2V11.2C119.6,9.7,118.4,8.5,116.9,8.5
			L116.9,8.5z"/>
		<path class="st2" d="M116.9,8.5H65.3c-1.5,0-2.7,1.2-2.7,2.7l0,0v50.4c-0.1,0.7,0.2,1.4,0.6,2c1.3,2.1,6,8.2,10.8,13.9V35.7h11.4
			v54c1.8,1.7,4.1,3.7,5.7,3.7s3.9-2,5.7-3.7v-54h11.4v41.8c4.8-5.8,9.5-11.8,10.8-14c0.4-0.6,0.7-1.3,0.6-2V11.2
			C119.6,9.7,118.4,8.5,116.9,8.5L116.9,8.5z M76.3,25.7L73.2,24l-3.1,1.7l0.6-3.5l-2.6-2.5l3.6-0.5l1.5-3.2l1.5,3.2l3.5,0.5
			l-2.6,2.5L76.3,25.7z M94.8,23.7l1,5.4l-4.8-2.6L86.3,29l1-5.4l-3.9-3.7l5.4-0.7l2.3-4.9l2.3,4.9l5.4,0.7L94.8,23.7z M112.1,25.7
			l-3.1-1.7l-3.1,1.7l0.6-3.5l-2.6-2.5l3.6-0.5l1.5-3.2l1.5,3.2l3.6,0.5l-2.6,2.5L112.1,25.7z"/>
	</g>
	<g class="st1">
		<path class="st2" d="M224.5,38.4c0,1.2-0.2,2.3-0.6,3.4c-0.4,1-0.9,1.9-1.6,2.7c-0.8,0.8-1.7,1.4-2.8,1.8c-2.5,0.9-5.2,0.9-7.6,0
			c-1-0.4-2-1-2.8-1.8c-0.7-0.8-1.3-1.7-1.6-2.7c-0.4-1.1-0.6-2.3-0.6-3.4V25.6h4.6v12.6c0,0.6,0.1,1.2,0.3,1.8
			c0.2,0.5,0.5,1,0.9,1.4c0.4,0.4,0.8,0.7,1.3,0.9c0.5,0.2,1.1,0.3,1.7,0.3c0.6,0,1.1-0.1,1.7-0.3c0.5-0.2,0.9-0.5,1.3-0.9
			c0.4-0.4,0.7-0.9,0.9-1.4c0.2-0.6,0.3-1.2,0.3-1.8V25.6h4.6L224.5,38.4L224.5,38.4z"/>
		<path class="st2" d="M227.5,43.9c0-0.4,0.1-0.7,0.2-1.1c0.1-0.3,0.3-0.6,0.6-0.9s0.5-0.4,0.9-0.6c0.7-0.3,1.4-0.3,2.1,0
			c0.3,0.1,0.6,0.3,0.9,0.6s0.4,0.5,0.6,0.9c0.1,0.3,0.2,0.7,0.2,1.1c0,0.7-0.3,1.4-0.8,1.9c-0.2,0.2-0.6,0.4-0.9,0.6
			c-0.7,0.3-1.4,0.3-2.1,0c-0.7-0.3-1.2-0.8-1.4-1.4C227.6,44.7,227.5,44.3,227.5,43.9z"/>
		<path class="st2" d="M252.1,30.7c-0.4-0.5-0.9-0.9-1.5-1c-0.6-0.2-1.2-0.3-1.8-0.3c-0.4,0-0.7,0-1,0.1c-0.4,0.1-0.7,0.2-1,0.4
			c-0.3,0.2-0.6,0.4-0.8,0.7c-0.2,0.3-0.3,0.6-0.3,1c0,0.6,0.2,1.1,0.7,1.4c0.5,0.4,1.1,0.7,1.8,0.9c0.7,0.2,1.5,0.5,2.3,0.7
			c0.8,0.2,1.6,0.6,2.3,1c0.7,0.4,1.3,1,1.8,1.7c0.5,0.7,0.7,1.7,0.7,2.9c0,1-0.2,2.1-0.7,3c-0.4,0.8-1,1.6-1.8,2.2
			c-0.8,0.6-1.6,1-2.6,1.3c-1,0.3-2,0.4-3.1,0.4c-1.3,0-2.6-0.2-3.8-0.6c-1.2-0.4-2.3-1.1-3.2-2l3.3-3.6c0.5,0.6,1.1,1.1,1.8,1.5
			c0.7,0.3,1.5,0.5,2.2,0.5c0.4,0,0.8,0,1.1-0.1c0.4-0.1,0.7-0.2,1-0.4c0.3-0.2,0.6-0.4,0.7-0.7c0.2-0.3,0.3-0.6,0.3-1
			c0-0.6-0.2-1.1-0.7-1.5c-0.5-0.4-1.1-0.7-1.8-1c-0.7-0.3-1.5-0.5-2.4-0.8c-0.8-0.2-1.6-0.6-2.4-1c-0.7-0.4-1.3-1-1.8-1.7
			c-0.5-0.8-0.8-1.8-0.7-2.8c0-1,0.2-2,0.7-3c0.4-0.8,1-1.5,1.8-2.1c0.8-0.6,1.6-1,2.6-1.3c1-0.3,2-0.4,3-0.4c1.2,0,2.3,0.2,3.4,0.5
			c1.1,0.3,2.1,0.9,3,1.7L252.1,30.7z"/>
		<path class="st2" d="M258.8,43.9c0-0.4,0.1-0.7,0.2-1.1c0.1-0.3,0.3-0.6,0.6-0.9s0.5-0.4,0.9-0.6c0.7-0.3,1.4-0.3,2.1,0
			c0.3,0.1,0.6,0.3,0.9,0.6s0.4,0.5,0.6,0.9c0.1,0.3,0.2,0.7,0.2,1.1s-0.1,0.7-0.2,1.1c-0.1,0.3-0.3,0.6-0.6,0.9s-0.5,0.4-0.9,0.6
			c-0.7,0.3-1.4,0.3-2.1,0c-0.7-0.3-1.2-0.8-1.4-1.4C258.9,44.7,258.8,44.3,258.8,43.9z"/>
	</g>
	<g class="st1">
		<path class="st2" d="M206.9,63.6h6.9c1.6,0,3.2,0.2,4.8,0.6c1.4,0.3,2.8,0.9,3.9,1.8c1.1,0.8,2.1,2,2.7,3.3c0.7,1.5,1,3.2,1,4.9
			c0,1.5-0.3,3.1-1,4.5c-0.6,1.3-1.5,2.4-2.6,3.2c-1.1,0.9-2.4,1.6-3.7,2c-1.4,0.4-2.9,0.7-4.4,0.7h-7.5L206.9,63.6L206.9,63.6z
			 M211.5,80.2h2.4c1,0,2-0.1,3-0.3c0.9-0.2,1.7-0.6,2.4-1.1c0.7-0.5,1.2-1.2,1.6-2c0.4-0.9,0.6-2,0.6-3c0-0.9-0.2-1.8-0.6-2.7
			c-0.4-0.7-0.9-1.4-1.5-1.9c-0.7-0.5-1.5-0.9-2.3-1.1c-0.9-0.2-1.8-0.4-2.8-0.4h-2.7L211.5,80.2z"/>
		<path class="st2" d="M233.7,63.6h4.6v20.9h-4.6V63.6z"/>
		<path class="st2" d="M265.8,83c-1.3,0.7-2.8,1.2-4.2,1.5c-1.5,0.3-3,0.5-4.5,0.5c-1.5,0-3.1-0.2-4.5-0.8c-1.3-0.5-2.5-1.2-3.6-2.2
			c-1-1-1.8-2.2-2.4-3.5c-0.6-1.4-0.9-3-0.8-4.5c0-1.6,0.3-3.1,0.8-4.5c0.5-1.3,1.3-2.5,2.4-3.5c1-1,2.2-1.7,3.6-2.2
			c1.4-0.5,3-0.8,4.5-0.8c1.6,0,3.1,0.2,4.6,0.6c1.4,0.4,2.6,1.1,3.7,2.1l-3.2,3.5c-0.6-0.6-1.3-1.1-2.1-1.5c-0.9-0.4-1.9-0.5-3-0.5
			c-0.9,0-1.8,0.2-2.7,0.5c-0.8,0.3-1.5,0.8-2.1,1.4s-1,1.3-1.3,2.1c-0.6,1.7-0.6,3.6,0,5.4c0.3,0.8,0.7,1.5,1.3,2.1
			s1.3,1.1,2.1,1.4c0.9,0.3,1.8,0.5,2.7,0.5c0.9,0,1.8-0.1,2.6-0.3c0.6-0.2,1.2-0.4,1.7-0.7v-3.4h-3.8v-4.2h8.2V83z"/>
		<path class="st2" d="M274.2,63.6h4.6v20.9h-4.6V63.6z"/>
		<path class="st2" d="M291.4,67.7h-6v-4.1h16.5v4.1H296v16.8h-4.6V67.7z"/>
		<path class="st2" d="M312.9,63.6h3.8l9.1,20.9h-5.2l-1.8-4.4h-8.1l-1.7,4.4h-5.1L312.9,63.6z M314.6,69.7l-2.5,6.5h5.1L314.6,69.7
			z"/>
		<path class="st2" d="M332.4,63.6h4.6v16.6h8.5v4.2h-13.1L332.4,63.6L332.4,63.6z"/>
		<path class="st2" d="M376,68.7c-0.4-0.5-0.9-0.8-1.5-1.1c-0.6-0.2-1.2-0.3-1.8-0.3c-0.4,0-0.7,0-1,0.1c-0.4,0.1-0.7,0.2-1,0.4
			c-0.3,0.2-0.6,0.4-0.8,0.7c-0.2,0.3-0.3,0.6-0.3,1c0,0.6,0.2,1.1,0.7,1.4c0.5,0.4,1.1,0.7,1.8,0.9c0.7,0.2,1.5,0.5,2.3,0.7
			c0.8,0.2,1.6,0.6,2.3,1c0.7,0.4,1.3,1,1.8,1.7c0.5,0.9,0.8,1.9,0.7,2.9c0,1.1-0.2,2.1-0.7,3c-0.4,0.8-1,1.6-1.8,2.2
			c-0.8,0.6-1.6,1-2.6,1.3c-1,0.3-2,0.4-3.1,0.4c-1.3,0-2.6-0.2-3.8-0.6c-1.2-0.4-2.3-1.1-3.2-2l3.3-3.6c0.5,0.6,1.1,1.1,1.8,1.5
			c0.7,0.3,1.5,0.5,2.2,0.5c0.4,0,0.8,0,1.1-0.1c0.4-0.1,0.7-0.2,1-0.4c0.3-0.2,0.5-0.4,0.7-0.7c0.2-0.3,0.3-0.6,0.3-1
			c0-0.6-0.2-1.1-0.7-1.5c-0.5-0.4-1.2-0.7-1.8-0.9c-0.7-0.3-1.5-0.5-2.4-0.8c-0.8-0.2-1.6-0.6-2.4-1c-0.7-0.4-1.3-1-1.8-1.7
			c-0.5-0.8-0.8-1.8-0.7-2.8c0-1,0.2-2,0.7-2.9c0.4-0.8,1-1.6,1.8-2.1c0.8-0.6,1.6-1,2.5-1.3c1-0.3,2-0.4,3-0.4
			c1.2,0,2.3,0.2,3.4,0.5c1.1,0.3,2.1,0.9,3,1.7L376,68.7z"/>
		<path class="st2" d="M387.1,63.6h14.2v4.2h-9.6v3.9h9V76h-9v4.2h10.1v4.2h-14.7V63.6z"/>
		<path class="st2" d="M410,63.6h8.1c1,0,2,0.1,3,0.3c0.9,0.2,1.7,0.5,2.5,1c0.7,0.5,1.3,1.2,1.7,1.9c0.5,0.9,0.7,2,0.6,3.1
			c0,1.3-0.4,2.7-1.1,3.8c-0.8,1.1-2,1.8-3.4,2l5.3,8.8h-5.5l-4.4-8.3h-2.3v8.3H410L410,63.6z M414.6,72.2h2.7c0.4,0,0.9,0,1.3-0.1
			c0.4,0,0.9-0.1,1.2-0.3c0.4-0.1,0.7-0.4,0.9-0.7c0.3-0.4,0.4-0.8,0.4-1.3c0-0.4-0.1-0.9-0.3-1.3c-0.2-0.3-0.5-0.6-0.8-0.7
			c-0.4-0.2-0.8-0.3-1.1-0.3c-0.4-0.1-0.8-0.1-1.3-0.1h-3V72.2z"/>
		<path class="st2" d="M431.4,63.6h5.2l5.2,13.7h0.1l5.2-13.7h4.9l-8.6,20.9h-3.7L431.4,63.6z"/>
		<path class="st2" d="M458.6,63.6h4.6v20.9h-4.6V63.6z"/>
		<path class="st2" d="M485.4,69c-0.4-0.6-1-1-1.6-1.3c-0.7-0.3-1.5-0.5-2.3-0.4c-1.6,0-3.2,0.7-4.3,1.9c-0.6,0.6-1,1.3-1.3,2.1
			c-0.6,1.7-0.6,3.6,0,5.4c0.3,0.8,0.7,1.5,1.2,2.1c0.5,0.6,1.2,1.1,1.9,1.4c0.7,0.3,1.5,0.5,2.3,0.5c0.9,0,1.7-0.2,2.5-0.6
			c0.7-0.4,1.3-1,1.8-1.7l3.8,2.9c-0.9,1.2-2,2.2-3.4,2.7c-1.3,0.6-2.7,0.9-4.2,0.9c-1.5,0-3.1-0.2-4.5-0.8
			c-1.3-0.5-2.5-1.2-3.6-2.2c-1-1-1.8-2.2-2.4-3.5c-0.6-1.4-0.9-3-0.8-4.5c0-1.6,0.3-3.1,0.8-4.5c0.5-1.3,1.3-2.5,2.4-3.5
			c1-1,2.2-1.7,3.6-2.2c1.4-0.5,3-0.8,4.5-0.8c0.6,0,1.2,0.1,1.8,0.2c0.6,0.1,1.3,0.3,1.9,0.5c0.6,0.2,1.2,0.6,1.8,0.9
			c0.6,0.4,1.1,0.9,1.5,1.4L485.4,69z"/>
		<path class="st2" d="M496.6,63.6h14.2v4.2h-9.6v3.9h9V76h-9v4.2h10.1v4.2h-14.7V63.6z"/>
	</g>
</g>
</svg>
