<?xml version="1.0" encoding="utf-8"?>
<!-- Generator: Adobe Illustrator 24.1.0, SVG Export Plug-In . SVG Version: 6.00 Build 0)  -->
<svg version="1.1" id="ART" xmlns="http://www.w3.org/2000/svg" xmlns:xlink="http://www.w3.org/1999/xlink" x="0px" y="0px"
	 viewBox="0 0 500 350" style="enable-background:new 0 0 500 350;" xml:space="preserve">
<style type="text/css">
	.st0{fill:#103C68;}
	.st1{fill:#E0CB26;}
	.st2{fill:#A39634;}
	.st3{fill:#FFFFFF;}
</style>
<path class="st0" d="M35.6,314.2c0,1.4-0.2,2.9-0.7,4.2c-0.4,1.3-1.1,2.4-2.1,3.4c-1,1-2.1,1.7-3.4,2.2c-3.1,1.1-6.4,1.1-9.5,0
	c-1.3-0.5-2.5-1.3-3.4-2.2c-0.9-1-1.6-2.1-2.1-3.4c-0.5-1.4-0.7-2.8-0.7-4.2v-15.9h5.7V314c0,0.8,0.1,1.5,0.4,2.2
	c0.2,0.7,0.6,1.3,1.1,1.8c0.5,0.5,1,0.9,1.7,1.2c0.7,0.3,1.4,0.4,2.1,0.4c0.7,0,1.4-0.1,2.1-0.4c0.6-0.3,1.2-0.7,1.6-1.2
	c0.5-0.5,0.8-1.1,1.1-1.8c0.3-0.7,0.4-1.5,0.4-2.2v-15.7h5.7L35.6,314.2z"/>
<path class="st0" d="M39.4,321c0-0.5,0.1-0.9,0.3-1.3c0.2-0.4,0.4-0.8,0.7-1.1c1-1,2.4-1.2,3.7-0.7c0.4,0.2,0.8,0.4,1.1,0.7
	c0.3,0.3,0.6,0.7,0.7,1.1c0.3,0.8,0.3,1.8,0,2.6c-0.2,0.4-0.4,0.8-0.7,1.1c-0.3,0.3-0.7,0.6-1.1,0.7c-0.4,0.2-0.9,0.3-1.3,0.3
	c-0.5,0-0.9-0.1-1.3-0.3c-0.4-0.2-0.8-0.4-1.1-0.7c-0.3-0.3-0.6-0.7-0.7-1.1C39.5,321.9,39.4,321.5,39.4,321z"/>
<path class="st0" d="M70,304.6c-0.5-0.6-1.2-1.1-1.9-1.3c-0.7-0.3-1.5-0.4-2.2-0.4c-0.4,0-0.9,0.1-1.3,0.1c-0.4,0.1-0.9,0.2-1.2,0.5
	c-0.4,0.2-0.7,0.5-1,0.8c-0.6,1-0.4,2.3,0.5,3c0.7,0.5,1.4,0.8,2.2,1.1c0.9,0.3,1.9,0.6,2.9,0.9c1,0.3,2,0.7,2.9,1.3
	c0.9,0.5,1.7,1.3,2.2,2.2c0.6,1.1,0.9,2.4,0.9,3.6c0,1.3-0.2,2.6-0.8,3.8c-0.5,1-1.3,2-2.2,2.7c-0.9,0.7-2,1.3-3.2,1.6
	c-2.8,0.8-5.8,0.7-8.5-0.3c-1.5-0.5-2.9-1.4-4-2.5l4.1-4.5c0.6,0.8,1.3,1.4,2.2,1.8c1.3,0.6,2.8,0.8,4.2,0.5
	c0.4-0.1,0.9-0.3,1.3-0.5c0.4-0.2,0.7-0.5,0.9-0.8c0.2-0.4,0.4-0.8,0.3-1.2c0-0.7-0.3-1.4-0.9-1.9c-0.7-0.5-1.4-0.9-2.2-1.1
	c-0.9-0.3-1.9-0.6-2.9-1c-1-0.3-2-0.7-2.9-1.3c-0.9-0.5-1.7-1.3-2.3-2.1c-0.6-1-1-2.3-0.9-3.5c0-1.3,0.3-2.5,0.8-3.7
	c0.5-1,1.3-1.9,2.2-2.6c0.9-0.7,2-1.3,3.2-1.6c1.2-0.4,2.4-0.5,3.7-0.5c1.4,0,2.9,0.2,4.2,0.6c1.4,0.4,2.6,1.1,3.7,2.1L70,304.6z"/>
<path class="st0" d="M78.2,321c0-0.5,0.1-0.9,0.3-1.3c0.2-0.4,0.4-0.8,0.7-1.1c0.3-0.3,0.7-0.5,1.1-0.7c0.8-0.3,1.8-0.3,2.6,0
	c0.4,0.2,0.8,0.4,1.1,0.7c0.3,0.3,0.5,0.7,0.7,1.1c0.3,0.8,0.3,1.8,0,2.6c-0.3,0.8-1,1.5-1.8,1.8c-0.8,0.3-1.8,0.3-2.6,0
	c-0.4-0.2-0.8-0.4-1.1-0.7c-0.3-0.3-0.6-0.7-0.7-1.1C78.3,321.9,78.2,321.5,78.2,321z"/>
<path class="st0" d="M108,298.3h8.6c2,0,4,0.2,5.9,0.7c1.8,0.4,3.4,1.2,4.9,2.3c1.4,1.1,2.6,2.5,3.3,4.1c0.9,1.9,1.3,4,1.2,6
	c0,1.9-0.4,3.8-1.2,5.6c-0.8,1.6-1.9,2.9-3.2,4c-1.4,1.1-3,1.9-4.6,2.5c-1.8,0.6-3.7,0.9-5.5,0.8H108V298.3z M113.7,318.9h3
	c1.2,0,2.5-0.1,3.7-0.4c1.1-0.2,2.1-0.7,2.9-1.3c0.9-0.6,1.5-1.5,2-2.5c0.5-1.2,0.8-2.4,0.7-3.7c0-1.1-0.2-2.3-0.7-3.3
	c-0.5-0.9-1.1-1.7-1.9-2.3c-0.9-0.6-1.8-1.1-2.8-1.4c-1.1-0.3-2.3-0.5-3.4-0.5h-3.4L113.7,318.9z"/>
<path class="st0" d="M141.2,298.3h5.7v25.9h-5.7V298.3z"/>
<path class="st0" d="M181.1,322.4c-1.7,0.9-3.4,1.5-5.3,1.9c-1.8,0.4-3.7,0.6-5.6,0.6c-1.9,0-3.8-0.3-5.6-1
	c-1.6-0.6-3.2-1.5-4.4-2.7c-1.3-1.2-2.3-2.7-2.9-4.3c-1.4-3.6-1.4-7.6,0-11.3c0.7-1.6,1.6-3.1,2.9-4.3c1.3-1.2,2.8-2.1,4.4-2.7
	c1.8-0.6,3.7-1,5.6-1c1.9,0,3.9,0.2,5.8,0.7c1.7,0.5,3.3,1.4,4.6,2.6l-4,4.4c-0.7-0.8-1.6-1.4-2.6-1.8c-1.2-0.4-2.4-0.7-3.7-0.6
	c-1.1,0-2.3,0.2-3.3,0.6c-1,0.4-1.8,1-2.5,1.7c-0.7,0.8-1.3,1.7-1.6,2.7c-0.8,2.2-0.8,4.5,0,6.7c0.4,1,0.9,1.9,1.6,2.6
	c0.7,0.8,1.6,1.3,2.5,1.7c1.1,0.4,2.2,0.6,3.3,0.6c1.1,0,2.2-0.1,3.2-0.4c0.8-0.2,1.5-0.5,2.2-0.9v-4.2H171v-5.3h10.1L181.1,322.4z"
	/>
<path class="st0" d="M191.5,298.3h5.7v25.9h-5.7V298.3z"/>
<path class="st0" d="M213,303.3h-7.4v-5.1H226v5.1h-7.4v20.9H213V303.3z"/>
<path class="st0" d="M239.6,298.3h4.7l11.3,25.9h-6.4l-2.2-5.5h-10.1l-2.2,5.5h-6.3L239.6,298.3z M241.8,305.8l-3.1,8.1h6.3
	L241.8,305.8z"/>
<path class="st0" d="M263.9,298.3h5.7v20.6h10.6v5.3h-16.3V298.3z"/>
<path class="st0" d="M318.1,304.6c-0.5-0.6-1.1-1.1-1.9-1.3c-0.7-0.3-1.5-0.4-2.3-0.4c-0.4,0-0.9,0.1-1.3,0.1
	c-0.4,0.1-0.9,0.2-1.2,0.5c-0.4,0.2-0.7,0.5-1,0.8c-0.6,1-0.4,2.3,0.5,3c0.7,0.5,1.4,0.8,2.2,1.1c0.9,0.3,1.8,0.6,2.9,0.9
	c1,0.3,2,0.7,2.9,1.3c0.9,0.5,1.7,1.3,2.2,2.2c0.6,1.1,0.9,2.4,0.9,3.6c0,1.3-0.2,2.6-0.8,3.8c-0.5,1-1.3,2-2.2,2.7
	c-0.9,0.7-2,1.3-3.2,1.6c-2.8,0.8-5.8,0.7-8.5-0.3c-1.5-0.5-2.9-1.4-4-2.5l4.1-4.5c0.6,0.8,1.3,1.4,2.2,1.8c1.3,0.6,2.8,0.8,4.2,0.5
	c0.5-0.1,0.9-0.3,1.3-0.5c0.4-0.2,0.7-0.5,0.9-0.8c0.2-0.4,0.4-0.8,0.3-1.2c0-0.7-0.3-1.4-0.9-1.9c-0.7-0.5-1.4-0.9-2.2-1.2
	c-0.9-0.3-1.9-0.6-2.9-1c-1-0.3-2-0.7-2.9-1.3c-0.9-0.5-1.7-1.3-2.3-2.1c-0.6-1-1-2.3-0.9-3.5c0-1.3,0.3-2.5,0.8-3.7
	c0.5-1,1.3-1.9,2.2-2.6c0.9-0.7,2-1.3,3.2-1.6c1.2-0.4,2.4-0.5,3.7-0.5c1.4,0,2.9,0.2,4.3,0.6c1.4,0.4,2.6,1.1,3.7,2.1L318.1,304.6z
	"/>
<path class="st0" d="M332,298.3h17.6v5.2h-11.9v4.8h11.2v5.3h-11.2v5.3h12.6v5.3H332V298.3z"/>
<path class="st0" d="M360.3,298.3h10c1.3,0,2.5,0.1,3.8,0.4c1.1,0.2,2.2,0.7,3.1,1.3c0.9,0.6,1.6,1.4,2.1,2.4
	c0.6,1.2,0.8,2.5,0.8,3.8c0,1.7-0.5,3.3-1.4,4.7c-1,1.3-2.5,2.2-4.2,2.4l6.6,10.9h-6.8l-5.4-10.3H366v10.3h-5.7V298.3z M366,309h3.4
	c0.5,0,1.1,0,1.6-0.1c0.5,0,1.1-0.1,1.6-0.3c0.5-0.2,0.8-0.5,1.1-0.9c0.3-0.5,0.5-1.1,0.5-1.6c0-0.6-0.1-1.1-0.4-1.6
	c-0.3-0.4-0.6-0.7-1-0.9c-0.4-0.2-0.9-0.4-1.4-0.4c-0.5-0.1-1.1-0.1-1.6-0.1H366V309z"/>
<path class="st0" d="M387,298.3h6.5l6.4,17h0.1l6.5-17h6.1l-10.7,25.9h-4.6L387,298.3z"/>
<path class="st0" d="M420.7,298.3h5.7v25.9h-5.7V298.3z"/>
<path class="st0" d="M454.1,305c-0.6-0.7-1.3-1.2-2.1-1.6c-0.9-0.4-1.9-0.6-2.8-0.5c-2,0-4,0.8-5.4,2.4c-0.7,0.8-1.2,1.7-1.6,2.7
	c-0.8,2.2-0.8,4.5,0,6.7c0.4,1,0.9,1.9,1.6,2.6c0.6,0.7,1.4,1.3,2.3,1.7c0.9,0.4,1.9,0.6,2.9,0.6c1.1,0,2.2-0.2,3.1-0.7
	c0.9-0.5,1.7-1.2,2.2-2.1l4.8,3.6c-1.1,1.5-2.5,2.7-4.2,3.4c-1.6,0.7-3.4,1.1-5.2,1.1c-1.9,0-3.8-0.3-5.6-1
	c-1.6-0.6-3.2-1.5-4.4-2.7c-1.3-1.2-2.3-2.7-2.9-4.3c-1.4-3.6-1.4-7.6,0-11.3c0.7-1.6,1.6-3.1,2.9-4.3c1.3-1.2,2.8-2.1,4.4-2.7
	c1.8-0.6,3.7-1,5.6-1c0.8,0,1.5,0.1,2.3,0.2c0.8,0.1,1.6,0.4,2.3,0.6c0.8,0.3,1.5,0.7,2.2,1.2c0.7,0.5,1.4,1.1,1.9,1.8L454.1,305z"
	/>
<path class="st0" d="M468,298.3h17.6v5.2h-11.9v4.8h11.2v5.3h-11.2v5.3h12.6v5.3H468V298.3z"/>
<path class="st1" d="M172.1,166.4v-21.2H86.4c12.4,20.7,38.1,21.1,37.9,21.1C121.5,166.2,141.6,166.3,172.1,166.4z"/>
<path class="st1" d="M172.1,110.6H48c7,16.5,26.2,26.3,35,26.3h89.1V110.6z"/>
<path class="st1" d="M172.1,62.4H7.2c-1.3,0.1-2.3,1.2-2.2,2.5c0,0.1,0,0.3,0.1,0.4c4,19.2,28.4,37.1,39.9,37.1h127.2V62.4z"/>
<path class="st1" d="M327.9,166.4v-21.2h85.7c-12.4,20.7-38.1,21.1-37.9,21.1C378.5,166.2,358.4,166.3,327.9,166.4z"/>
<path class="st1" d="M327.9,110.6H452c-7,16.5-26.2,26.3-35,26.3h-89.1V110.6z"/>
<path class="st1" d="M327.9,62.4h164.8c1.3,0.1,2.3,1.2,2.2,2.5c0,0.1,0,0.3-0.1,0.4c-4,19.2-28.4,37.1-39.9,37.1H327.9V62.4z"/>
<path class="st2" d="M89.2,65.8c2.2,69.3,73.3,124.9,160.8,124.9s158.6-55.7,160.7-125c0.1-1.8-0.9-3.2-2.4-3.2H92.2
	C89.8,62.4,89.2,64.1,89.2,65.8z"/>
<path class="st3" d="M320.8,25.2H179.2c-4.1,0-7.4,3.3-7.4,7.4v138.1c0,3.2,0.8,4.1,1.6,5.5c6.2,9.8,37.9,50.1,55.2,66.2
	c2.7,2.5,14.7,15.8,21.4,15.8c6.7,0,18.7-13.3,21.4-15.8c17.3-16.1,49-56.3,55.2-66.2c0.9-1.4,1.6-2.3,1.6-5.5V32.6
	C328.2,28.5,324.9,25.2,320.8,25.2C320.8,25.2,320.8,25.2,320.8,25.2z"/>
<path class="st0" d="M320.8,25.2H179.2c-4.1,0-7.4,3.3-7.4,7.4v138.1c0,3.2,0.8,4.1,1.6,5.5c3.7,5.8,16.3,22.4,29.7,38.3V99.9h31.3
	v148.2c4.8,4.6,11.4,10.1,15.6,10.1s10.8-5.5,15.6-10.1V99.9H297v114.6c13.3-15.9,26-32.4,29.7-38.3c0.9-1.4,1.6-2.3,1.6-5.5V32.6
	C328.2,28.5,324.9,25.2,320.8,25.2L320.8,25.2z M209.6,72.4l-8.6-4.7l-8.6,4.7l1.8-9.6l-7.1-6.7l9.7-1.2L201,46l4.2,8.9l9.7,1.2
	l-7.1,6.7L209.6,72.4z M260.3,66.8l2.8,14.7L250,74.3l-13.1,7.2l2.8-14.7l-10.9-10.3l14.8-1.9l6.4-13.5l6.4,13.5l14.9,1.9
	L260.3,66.8z M307.6,72.4l-8.6-4.7l-8.6,4.7l1.8-9.6l-7.1-6.7l9.7-1.2L299,46l4.2,8.9l9.7,1.2l-7.1,6.7L307.6,72.4z"/>
</svg>
