<svg id="Layer_1" data-name="Layer 1" xmlns="http://www.w3.org/2000/svg" viewBox="0 0 800 600"><defs><style>.cls-1{fill:#cd263f;}.cls-2{fill:#3b9ed6;}.cls-3{fill:#fefefe;}</style></defs><title>events-code-for-america</title><path class="cls-1" d="M239,162.14a17.46,17.46,0,0,0,3.87.62c21.85,3.63,36.17,16.2,43.59,36.85a64.67,64.67,0,0,1,3.52,21c.17,10.5-1.56,20.64-6.12,30.12-8.35,17.38-22.1,27.67-41.25,30.46a57.72,57.72,0,0,1-33-4.38c-13.47-6.17-22.46-16.56-27.71-30.27a69.51,69.51,0,0,1-3.92-32.77c1.23-11.48,5-22,12.14-31.16,8.37-10.74,19.38-17.14,32.74-19.57,2.08-.38,4.2-.62,6.3-.92Zm28,59.18a38.38,38.38,0,0,0-.51-6.86C265.18,206.29,262,199,256,193.17c-9.52-9.2-20.85-11.42-33.23-7.17-10,3.43-16.22,10.94-19.73,20.65-4.32,11.95-3.22,23.75,1.95,35.19a29.44,29.44,0,0,0,15.38,15.49,34.36,34.36,0,0,0,17.73,2.33A28.76,28.76,0,0,0,259.56,247C264.88,239.27,266.82,230.53,267,221.32Z"/><path class="cls-1" d="M124.51,162.14c1.83.3,3.66.56,5.48.9a53.42,53.42,0,0,1,14.94,5.27,1.2,1.2,0,0,1,.83,1.19c0,8.41,0,16.82,0,25.23,0,.1-.05.21,0,.17l-3-2.76c-6.69-6.09-14.53-9.26-23.6-8.82-10.4.5-18.49,5.38-24.3,13.92-6.15,9-8.35,19.14-7.24,30A39.94,39.94,0,0,0,97.25,250a29.67,29.67,0,0,0,21.93,10.62c9.33.35,17.15-3.28,24-9.41.43-.38.84-.78,1.24-1.19s.76-.81,1.16-1.23a1.45,1.45,0,0,1,.2,1.09c0,8,0,16.06,0,24.08a1.43,1.43,0,0,1-1,1.55c-6.1,2.78-12.33,5.11-19,5.94a50.28,50.28,0,0,1-27.91-4.39c-15.12-7.05-25-18.86-30.35-34.52-7.35-21.62-2-46.75,13.36-63.27a52.12,52.12,0,0,1,34.55-16.94c.22,0,.47,0,.63-.2Z"/><path class="cls-2" d="M232.56,437.86c.12-.37-.1-.66-.24-1Q217.65,403.52,203,370.13c-.12-.27-.26-.54-.48-1a22.85,22.85,0,0,0-.86,4.09q-4.83,27.16-9.61,54.32c-.41,2.33-.86,4.65-1.19,7-.14,1.05-.55,1.33-1.6,1.31-3.51-.07-7,0-10.55,0-.8,0-1.2,0-1-1.08,2.09-10.39,4.11-20.8,6.15-31.21q4.29-21.9,8.57-43.8,2.78-14.16,5.53-28.31a.73.73,0,0,1,.36-.62L232.84,410c11.57-26.55,23-52.86,34.52-79.17l.23,0q1.07,5.36,2.12,10.7,2.67,13.71,5.35,27.41,3.51,18,7,35.93c1.95,9.92,3.88,19.85,5.86,29.76.18.92.05,1.2-.93,1.18-3.63-.05-7.27,0-10.9,0-.83,0-1.07-.24-1.21-1.05C273,423.68,271,412.56,269,401.44q-2.77-15.72-5.54-31.45a4.75,4.75,0,0,0-.2-.64c-.38,0-.39.36-.49.58Q248,403.58,233.21,437.22c-.09.2-.13.43-.2.64Z"/><path class="cls-2" d="M747.54,435.8c-4.28,0-8.56,0-12.85.05-.78,0-.93-.5-1.16-1-3.5-7.68-7-15.35-10.46-23a1.79,1.79,0,0,0-1.94-1.26q-21.9.06-43.81,0a1.49,1.49,0,0,0-1.61,1c-3.52,7.83-7.09,15.64-10.65,23.45-.17.38-.27.8-.84.8-4.31,0-8.62,0-13.13,0l48.11-105c.47,0,.47.43.58.67q18.44,40.23,36.86,80.47,5.1,11.15,10.21,22.28c.19.39.25.88.69,1.13Zm-48.18-77.47c-.22.44-.35.67-.45.91q-8.48,19.27-16.94,38.57c-.48,1.11-.46,1.14.85,1.14h33c1.37,0,1.36,0,.79-1.3q-5.24-12-10.49-23.9C703.93,368.69,701.69,363.63,699.36,358.33Z"/><path class="cls-2" d="M595,437.86c-2.09-.37-4.21-.62-6.26-1.15-21.19-5.39-35-18.51-39.88-39.9-5.71-25.28,7.87-50.84,32.69-60.46a53.58,53.58,0,0,1,17.74-3.6,49.55,49.55,0,0,1,26.42,6.11,1.86,1.86,0,0,1,1.12,1.88c-.05,4.09,0,8.18,0,12.27,0,.29.15.69-.17.84s-.52-.22-.74-.4a40.34,40.34,0,0,0-22.27-9c-20.19-1.88-38,12-42.29,31.73-2.92,13.48,0,25.75,8.87,36.36a37.26,37.26,0,0,0,25.86,13.64c11.37,1.08,21.31-2.38,30-9.63.17-.15.35-.27.53-.41.33.32.19.68.19,1,0,4.21,0,8.41,0,12.62a1.67,1.67,0,0,1-1,1.7,55.39,55.39,0,0,1-19.66,6.17c-.29,0-.62-.07-.84.22Z"/><path class="cls-1" d="M323.39,221.88q0-27.75,0-55.49c0-1,.27-1.3,1.3-1.3,10.86,0,21.72-.11,32.57.1,24.06.45,43.59,15.43,50.18,38.63,4.38,15.42,3.63,30.65-3.5,45.17-7.69,15.69-20.36,25.17-37.45,28.74a59.63,59.63,0,0,1-12.29,1.13c-9.82,0-19.65,0-29.47,0-1.15,0-1.34-.34-1.34-1.4Q323.41,249.69,323.39,221.88Zm22.26,0v36.59c0,.52-.14,1,.74,1a67,67,0,0,0,16.16-1.5c11.71-2.91,19.5-10,22.66-21.72a54.31,54.31,0,0,0-.12-29.09c-2.88-10.29-9.51-17.12-19.68-20.46-6-2-12.26-2.34-18.56-2.27-1.05,0-1.23.32-1.23,1.28Q345.68,203.84,345.65,221.89Z"/><path class="cls-1" d="M443.4,221.93q0-27.77,0-55.52c0-1,.23-1.32,1.3-1.32q28.15.06,56.31,0c1,0,1.33.24,1.32,1.3q-.09,8.38,0,16.75c0,1.08-.23,1.41-1.36,1.4-11.36,0-22.71,0-34.07,0-1.08,0-1.29.32-1.29,1.33q.07,11.18,0,22.36c0,1,.16,1.28,1.22,1.28,10.93-.05,21.87,0,32.8-.06,1.06,0,1.32.29,1.31,1.33q-.07,8.37,0,16.74c0,1-.22,1.35-1.3,1.34-10.9,0-21.8,0-32.69-.05-1.15,0-1.35.32-1.35,1.39q.07,14,0,28c0,1.07.21,1.39,1.35,1.39,11.35,0,22.71,0,34.06-.06,1.08,0,1.32.32,1.31,1.35-.05,5.65,0,11.31,0,17,0,.85-.2,1.09-1.07,1.09q-28.39,0-56.78,0c-1,0-1.06-.44-1.06-1.22Q443.42,249.8,443.4,221.93Z"/><path class="cls-2" d="M568.37,235c.42-.77.78-1.39,1.09-2s.75-.44,1.2-.44c3.67,0,7.34,0,11,0a1.81,1.81,0,0,0,1.79-1.05c4.62-7.74,9.29-15.46,15-22.48,5.93-7.3,12.62-13.72,20.88-18.35a31.88,31.88,0,0,1,14.73-4.15A20,20,0,0,1,645,188.85a9.82,9.82,0,0,1,4.87,11c-.76,3.56-3.28,5.39-6.45,6.5a13.74,13.74,0,0,1-6.43.7c-.91-.12-1-.38-.6-1.11a22.28,22.28,0,0,0,2.42-10.38,10.1,10.1,0,0,0-.93-4.33c-1.4-2.8-4.15-3.75-7.67-2.67a21.4,21.4,0,0,0-8.27,5.41c-5.47,5.19-9.74,11.36-13.85,17.62-4.32,6.59-8,13.57-12,20.35-.07.13-.11.27-.17.41a1.94,1.94,0,0,0,1.26.16c8.14,0,16.28,0,24.43,0,4.08,0,8.1,0,12.1-1.29a22.81,22.81,0,0,1,10.9-.54c6.82,1.24,11.49,6.1,12.73,13.14a11.74,11.74,0,0,0,3.12,6.37c2.73,2.8,7.36,2.58,10.2,1.45.5-.2.66-.72.91-1.14,3.36-5.69,6.72-11.38,10-17.1a1.74,1.74,0,0,1,1.71-1c4.66-.12,9.31-.3,14.19-.47L680.7,255.76l.27.2c1.08-1.25,2.16-2.51,3.26-3.75a90,90,0,0,1,17.59-15.65,15.2,15.2,0,0,0,2.56-2.11,11.81,11.81,0,0,1,7.81-3.64c2.57-.21,5.15-.35,7.92-.41-1,1.55-1.9,2.94-2.78,4.35-1.8,2.9-3.46,5.85-3.87,9.33a16,16,0,0,0-.07,3.66,4.74,4.74,0,0,0,4.6,4.43,10.65,10.65,0,0,0,6.92-1.94,37.67,37.67,0,0,0,6-5.12c.14-.13.27-.28.41-.4s.44-.59.84-.2.11.61-.12.87c-4.24,4.94-9.22,8.69-15.83,9.8a18,18,0,0,1-8.05-.25A9.56,9.56,0,0,1,701,245.8a12.69,12.69,0,0,1,1.75-7.69,1.29,1.29,0,0,0,.07-.39,2.23,2.23,0,0,0-1.21.62,94.06,94.06,0,0,0-20.11,19.78,146,146,0,0,0-12.93,20.13,1.9,1.9,0,0,1-2,1.16c-4-.05-8,0-12.06,0,4.81-8.4,9.92-16.89,15.15-25.6a12.63,12.63,0,0,1-7.1-.26,13.59,13.59,0,0,1-5.54-4.22,3.75,3.75,0,0,0-.54,1.47c-4.67,14.73-14.08,24.88-28.91,29.66a27.47,27.47,0,0,1-14.58.92c-7.07-1.59-11.41-7.18-11.56-14.44-.17-7.95,2.9-14.63,7.81-20.63a44.7,44.7,0,0,1,12.26-10.23l1.5-.87c-.2-.35-.49-.18-.71-.18-9,0-18,0-26.95,0a1.67,1.67,0,0,0-1.64.92c-4.89,7.9-9.12,16.16-13.64,24.27-6.55,11.76-13.55,23.24-22,33.74-8.28,10.26-18.08,18.66-30.52,23.5a52.37,52.37,0,0,1-32,2.41A21.66,21.66,0,0,1,485,314.09a14.63,14.63,0,0,1,1.34-21.77,21.71,21.71,0,0,1,13.06-4.58,28.91,28.91,0,0,1,5.5.22l.9.14c.38.07.71.13.72.68s-.34.6-.73.64a16.17,16.17,0,0,0-4.34,1c-5.67,2.33-8.76,6.55-9.2,12.67a17.5,17.5,0,0,0,1.57,9.26c2,4.08,5.49,6.1,9.84,6.83,7.9,1.33,15-.6,21.66-5,7.12-4.68,12.93-10.71,18.15-17.35,7-8.82,12.64-18.46,18.29-28.12,6.1-10.41,11.6-21.17,18-31.42.43-.7,1.44-1.57,1.12-2.09s-1.6-.21-2.45-.21C575.09,235,571.82,235,568.37,235Zm44.4,37.75c0,.8,0,1.57.13,2.33.42,3.41,2.45,5.16,5.87,5.11a10.92,10.92,0,0,0,5.42-1.59,27.78,27.78,0,0,0,6.8-5.75c6.08-7,10.14-15.11,13.09-23.82a28.28,28.28,0,0,0,1.85-11.45c-.3-3.57-2.63-5.77-6-5.55a12.29,12.29,0,0,0-5.91,2,31.32,31.32,0,0,0-7.18,6.51,70.1,70.1,0,0,0-11.2,20A38.9,38.9,0,0,0,612.77,272.75Z"/><path class="cls-2" d="M440.46,392.12,472,435.59c-.31.39-.68.23-1,.23-4.4,0-8.79,0-13.19,0a1.76,1.76,0,0,1-1.65-.91Q442,414.47,427.71,394a1.68,1.68,0,0,0-1.67-.88,18.53,18.53,0,0,1-3,0c-.94-.07-1.13.29-1.13,1.16q0,20,0,40c0,1.75.16,1.52-1.53,1.53-3.36,0-6.73,0-10.09,0-.88,0-1.08-.26-1.08-1.1,0-5.7,0-11.39,0-17.09q0-40.71,0-81.43c0-1.08.24-1.4,1.37-1.39,6.84.07,13.68,0,20.52.09,6.14.11,12.21.83,17.86,3.45,7.89,3.67,12.7,10,14.63,18.31,2.36,10.14.24,19.35-6.9,27.12a25.7,25.7,0,0,1-15.26,7.95A1.49,1.49,0,0,0,440.46,392.12ZM422,364.34v15.6c0,2.67,0,2.65,2.69,2.68A53.58,53.58,0,0,0,440.18,381c7.78-2.23,12.06-7.49,12.43-15.36.18-3.81-.27-7.48-2.41-10.78-2.38-3.66-5.93-5.64-10-6.88-5.55-1.71-11.28-1.83-17-1.84-1,0-1.3.2-1.29,1.25C422,353,422,358.69,422,364.34Z"/><path class="cls-2" d="M157,435.83h-1.21c-3.78,0-7.57,0-11.35,0a1.35,1.35,0,0,1-1.48-.9c-3.52-7.83-7.09-15.64-10.62-23.47a1.36,1.36,0,0,0-1.45-.93q-22.14,0-44.27,0a1.42,1.42,0,0,0-1.49,1c-3.5,7.72-7,15.42-10.49,23.15a1.63,1.63,0,0,1-1.8,1.12c-4,0-8.1,0-12.34,0l48.25-105.34Zm-48.2-77.44c-.19.29-.26.38-.31.48Q99.87,378.42,91.26,398c-.47,1.06.09,1,.83,1h33c1.46,0,1.47,0,.88-1.34q-6-13.62-12-27.24Z"/><path class="cls-2" d="M319.46,385.29c0-16.36,0-32.72,0-49.09,0-1.12.3-1.36,1.39-1.36q25.8.06,51.61,0c1.06,0,1.33.3,1.31,1.33q-.11,4.47,0,8.94c0,1-.23,1.29-1.26,1.28-13,0-26,0-39,0-1.06,0-1.42.18-1.41,1.34q.09,12.8,0,25.58c0,1.15.35,1.34,1.41,1.34,12.57,0,25.15,0,37.73-.05,1,0,1.35.27,1.32,1.32-.07,3.06-.06,6.12,0,9.18,0,1-.3,1.18-1.23,1.18-12.61,0-25.23,0-37.84-.05-1.09,0-1.39.24-1.39,1.37q.07,17.71,0,35.43c0,1,.23,1.34,1.3,1.33,13,0,26,0,39,0,1,0,1.39.18,1.35,1.29-.08,3-.07,6,0,8.95,0,1-.23,1.34-1.31,1.34q-24.37-.06-48.74,0c-1.15,0-2.3,0-3.44,0-.59,0-.86-.17-.79-.78,0-.3,0-.61,0-.92Z"/><path class="cls-2" d="M501.66,385.33q0-24.58,0-49.18c0-1.08.31-1.33,1.33-1.31,3.44.07,6.88.05,10.32,0,.82,0,1,.24,1,1q0,49.47,0,98.95c0,.81-.23,1-1,1-3.48,0-7-.05-10.44,0-1,0-1.19-.29-1.19-1.22Q501.69,410,501.66,385.33Z"/><path class="cls-3" d="M267,221.32c-.2,9.21-2.14,18-7.46,25.66a28.76,28.76,0,0,1-21.47,12.68,34.36,34.36,0,0,1-17.73-2.33A29.44,29.44,0,0,1,205,241.84c-5.17-11.44-6.27-23.24-1.95-35.19,3.51-9.71,9.74-17.22,19.73-20.65,12.38-4.25,23.71-2,33.23,7.17,6,5.78,9.19,13.12,10.52,21.29A38.38,38.38,0,0,1,267,221.32Z"/><path class="cls-3" d="M699.36,358.33c2.33,5.3,4.57,10.36,6.79,15.42q5.25,11.94,10.49,23.9c.57,1.3.58,1.3-.79,1.3h-33c-1.31,0-1.33,0-.85-1.14q8.46-19.29,16.94-38.57C699,359,699.14,358.77,699.36,358.33Z"/><path class="cls-3" d="M345.65,221.89q0-18.06,0-36.13c0-1,.18-1.27,1.23-1.28,6.3-.07,12.53.3,18.56,2.27,10.17,3.34,16.8,10.17,19.68,20.46a54.31,54.31,0,0,1,.12,29.09C382.05,248,374.26,255.11,362.55,258a67,67,0,0,1-16.16,1.5c-.88,0-.74-.52-.74-1V221.89Z"/><path class="cls-3" d="M612.77,272.86a38.9,38.9,0,0,1,2.89-12.27,70.23,70.23,0,0,1,11.2-20A31.79,31.79,0,0,1,634,234.1a12.29,12.29,0,0,1,5.91-2c3.35-.21,5.68,2,6,5.55a28.28,28.28,0,0,1-1.85,11.45c-3,8.71-7,16.83-13.09,23.82a27.78,27.78,0,0,1-6.8,5.75,10.82,10.82,0,0,1-5.42,1.59c-3.42.06-5.45-1.7-5.87-5.11C612.81,274.43,612.81,273.67,612.77,272.86Z"/><path class="cls-3" d="M422,364.34c0-5.65,0-11.31,0-17,0-1.05.31-1.26,1.29-1.25,5.74,0,11.47.13,17,1.84,4,1.24,7.58,3.22,10,6.88,2.14,3.3,2.59,7,2.41,10.78-.37,7.87-4.65,13.13-12.43,15.36a53.58,53.58,0,0,1-15.54,1.64c-2.69,0-2.69,0-2.69-2.68Z"/><path class="cls-3" d="M108.76,358.39l5.26,12q6,13.62,12,27.24c.59,1.33.58,1.34-.88,1.34h-33c-.74,0-1.3.05-.83-1q8.63-19.53,17.19-39.08C108.5,358.77,108.57,358.68,108.76,358.39Z"/></svg>