<svg id="Layer_1" data-name="Layer 1" xmlns="http://www.w3.org/2000/svg" viewBox="0 0 800 600"><defs><style>.cls-1{fill:#26c0ee;}</style></defs><title>events-lesbians-who-tech</title><path class="cls-1" d="M321.1,251.06c0,4.32,0,8.64,0,13,0,2.75-.11,2.86-2.77,2.87s-5.21,0-7.81,0c-1.49,0-2.09-.62-2-2.09s0-3.18,0-4.77V153.94c0-3.5,0-3.51,3.43-3.51,2.24,0,4.49.11,6.72,0s2.49,1,2.49,2.79q-.06,22.23,0,44.48a4.24,4.24,0,0,0,.35,2.66c1.18-1.54,2.27-3,3.43-4.45,6-7.41,13.92-11,23.22-12a40,40,0,0,1,24.7,4.75c10.28,5.82,16.17,14.89,18.62,26.23A48.63,48.63,0,0,1,389.16,244c-4.72,11.54-13.18,19.1-25.29,22.08-11,2.7-21.68,1.8-31.58-4.27a32.1,32.1,0,0,1-9-8.62c-.54-.75-1.06-1.52-1.59-2.28Zm58.67-21.78c.07-13.77-3.25-22.35-11.35-28.58-7.61-5.84-16.32-7-25.52-4.95a26.68,26.68,0,0,0-14.46,8.67c-5.79,6.66-7.75,14.57-7.3,23.19,1.27,24,23.88,33.61,41.68,25.85C374.74,248.26,379.56,238.18,379.77,229.28Z"/><path class="cls-1" d="M180.43,230.41H149.82c-2.88,0-3,.15-2.4,3a28.54,28.54,0,0,0,28,23.06c7.34.09,14.23-1.25,20.53-5.18a36.3,36.3,0,0,0,4.94-3.87c1.08-.95,1.8-.85,2.71.15a57.89,57.89,0,0,0,4.11,4.18c1.31,1.19,1.32,2.06,0,3.36a40.16,40.16,0,0,1-22.62,11.53c-12.5,2-24.42.65-34.91-7.17C141,252.62,136.33,243.2,134.85,232a45.81,45.81,0,0,1,3.53-25.45c5.49-12.06,14.94-19.32,27.86-21.85,9.42-1.85,18.73-1.39,27.63,2.63,8.08,3.65,13.43,9.88,16.73,18a56.19,56.19,0,0,1,3.77,23c0,2-1.15,2.14-2.68,2.14C201.27,230.39,190.85,230.41,180.43,230.41Zm20-10.42c1.27,0,2.65.07,2.4-1.84-1-7.44-3.78-13.94-10.09-18.45-6.11-4.35-13-5.6-20.36-5a27.27,27.27,0,0,0-25,22.39c-.52,2.65-.37,2.86,2.37,2.86Z"/><path class="cls-1" d="M508.61,255.11c-12.05,12.36-26.21,15.39-41.72,10.47-16.74-5.3-20.44-24.36-13.19-35.55,4-6.14,10.15-9,17.07-10.56A58.88,58.88,0,0,1,483,218.28q11.28-.12,22.57,0c2,0,2.8-.65,2.63-2.64s.05-3.79-.27-5.62c-1.59-9.14-7.41-14.12-17.12-15.26-10.73-1.26-20.08,2.26-28.84,7.93-1.54,1-2.33,1-3.17-.68-1-1.94-2.13-3.78-3.24-5.64a1.61,1.61,0,0,1,.53-2.54c13.84-9.34,28.8-12.84,45.17-8.59a25.24,25.24,0,0,1,19.09,23.19c1,14.44.21,28.91.43,43.37.07,4.26,0,8.53,0,12.8,0,1.67-.61,2.35-2.3,2.3-2.6-.08-5.2-.06-7.81,0-1.6,0-2.18-.67-2.15-2.23C508.65,261.6,508.61,258.51,508.61,255.11Zm-16.07-26.48v0c-4.34,0-8.68-.1-13,0a25.73,25.73,0,0,0-11.89,2.91,10.29,10.29,0,0,0-5.4,7.7c-1.24,7.16,2.68,13.5,9.66,15.93,4.07,1.42,8.25,1.32,12.44,1.2,14.46-.4,24.58-11.05,24.28-25.4,0-1.77-.61-2.45-2.4-2.42C501.65,228.68,497.1,228.63,492.54,228.63Z"/><path class="cls-1" d="M561.18,200.41a37.82,37.82,0,0,1,10.44-11c7.37-4.88,15.62-6.24,24.26-5.78a31,31,0,0,1,15.61,4.72c7.83,5.12,11.54,12.67,12.7,21.72a82.12,82.12,0,0,1,.39,10.4v43.41c0,2.95-.07,3-3.07,3h-6.73c-2.7,0-2.82-.12-2.82-2.83q0-21.17,0-42.33c0-1.73.09-3.48-.05-5.2-.58-7.16-3.31-13.15-9.63-17.07-9.31-5.77-24.45-4-32.35,3.64-6,5.79-8.61,12.94-8.7,21.05-.13,13.24,0,26.48,0,39.72,0,3-.05,3-3.05,3-2.54,0-5.07,0-7.6,0-1.36,0-2-.55-2-1.94,0-.5,0-1,0-1.52q0-38,0-76c0-3.49,0-3.52,3.5-3.53,2.24,0,4.49.07,6.73,0,1.77-.07,2.44.62,2.41,2.41C561.13,191,561.18,195.71,561.18,200.41Z"/><path class="cls-1" d="M639.93,327a28.15,28.15,0,0,1,8.15-9.69c9.44-6.88,27-8.06,37.17-.83,7,5,10.17,12,10.49,20.26.58,15.47.5,31,.47,46.43,0,2-.78,2.72-2.72,2.62a53.44,53.44,0,0,0-6.07,0c-2.06.13-2.59-.77-2.58-2.69,0-13.24,0-26.48,0-39.72a24.13,24.13,0,0,0-1.48-8.72,16.91,16.91,0,0,0-12.66-11.07c-6.51-1.5-12.84-1.06-18.76,2.14-7.9,4.28-11.47,11.39-12.15,20.05a212.21,212.21,0,0,0-.12,27.74c.17,3.25,0,6.52.06,9.77.06,1.9-.68,2.59-2.55,2.5-2.31-.12-4.63,0-6.94,0-1.27,0-1.88-.56-1.84-1.84,0-.57,0-1.15,0-1.73v-96.6c0-3.6,0-3.6,3.57-3.6h4.56c2.71,0,2.84.14,2.84,2.81q0,19.43,0,38.85v3.2Z"/><path class="cls-1" d="M499.71,353.3H472.8c-2.84,0-3,.26-2.46,3a25.22,25.22,0,0,0,22.36,20c9.47.93,17.92-1.35,25-7.95,1-1,1.67-.82,2.48.12,1.14,1.31,2.26,2.64,3.5,3.84s1,2.11-.11,3.26a34,34,0,0,1-15,8.79c-10.67,3.13-21.22,2.94-31.21-2.28-10.81-5.63-16.62-14.92-18.22-26.88-1.3-9.68.06-18.92,5.34-27.31,6.15-9.77,15.31-14.74,26.58-15.78a40.25,40.25,0,0,1,17.76,1.84c10.09,3.68,16,11,19,21a52.08,52.08,0,0,1,1.84,15.87c0,1.9-.72,2.51-2.57,2.5C517.93,353.26,508.82,353.3,499.71,353.3Zm-5.25-9.18c7.46,0,14.91,0,22.36,0,2.6,0,2.91-.39,2.48-2.92-1.91-11.06-8.48-17.76-19.81-19.38-14.87-2.12-26.22,6-29.3,19.55-.58,2.59-.45,2.75,2.14,2.76Z"/><path class="cls-1" d="M256.41,267.39c-11-.08-21.1-3-29.82-10-1.3-1.05-1.67-2-.83-3.49,1.06-1.9,2-3.85,2.92-5.82.65-1.4,1.25-1.62,2.57-.55a40.08,40.08,0,0,0,28,9.24c4.64-.22,9.22-1.07,12.71-4.71a10.17,10.17,0,0,0-1-15c-4.07-3.2-9-4.59-13.79-6.14-6.46-2.08-12.94-4-18.9-7.47-12.5-7.31-12.64-28.63,1.9-36a38.61,38.61,0,0,1,18.71-3.91,49.38,49.38,0,0,1,20.57,4.7c5.05,2.45,5.05,2.45,2.86,7.45-2.35,5.35-2.31,5.27-7.57,2.82-8.08-3.76-16.5-5.42-25.31-3.13-4,1.05-7.19,3.27-8.18,7.76-.85,3.85.49,6.84,3.38,9.21,4.14,3.4,9.26,4.67,14.23,6.2,6.49,2,12.95,3.95,18.87,7.54,13.11,8,12.53,29-1.26,36.61C270.5,266,264.88,267.37,256.41,267.39Z"/><path class="cls-1" d="M673.22,267.39c-10.86-.08-20.85-2.84-29.53-9.61-2.34-1.83-2.41-2.06-1.1-4.64.83-1.61,1.74-3.18,2.48-4.82s1.27-1.88,2.81-.67a41.45,41.45,0,0,0,27.41,9.13,20.84,20.84,0,0,0,11.87-3.58,10.23,10.23,0,0,0,1.57-14.93c-3.36-3.62-7.85-5-12.32-6.52-6.51-2.15-13.24-3.73-19.33-7s-10.36-7.81-11.16-14.8c-1.39-12.1,3.27-20.51,15.12-24.26,13.29-4.21,26.13-2.37,38.29,4.38,1.37.76,1.6,1.6.84,3-1,1.9-1.95,3.88-2.84,5.85-.74,1.65-1.51,2-3.3,1.06-8-4.38-16.5-6.54-25.68-5.14a18.71,18.71,0,0,0-4.57,1.33c-3.53,1.51-5.77,4-6.17,8s1.27,6.88,4.47,9c4.65,3.11,10,4.39,15.28,6,5.66,1.77,11.31,3.52,16.42,6.68,13.34,8.24,13.26,28.36-.2,36.51C687.32,266.11,680.47,267.5,673.22,267.39Z"/><path class="cls-1" d="M552.49,346.53c-.1,10.31,2.24,17.28,8.07,22.76,5.64,5.3,12.5,7.21,20.16,6.68a32.62,32.62,0,0,0,13.07-3.61,21,21,0,0,0,6-4.56c1-1.08,1.75-1,2.65.07a32.63,32.63,0,0,0,3.22,3.52c1.62,1.41,1.62,2.49.07,4.07a34.74,34.74,0,0,1-14.51,8.8,41.61,41.61,0,0,1-25.2.22c-10.57-3.25-18.13-10-21.88-20.36-5-13.95-3.93-27.41,5.32-39.44,5.84-7.59,14-11.61,23.46-12.57,10-1,19.66.4,28.23,6.23,1.49,1,2.83,2.23,4.22,3.38.82.67.83,1.38.13,2.23-1.39,1.67-2.75,3.36-4,5.14-1,1.35-1.64,1.27-2.91.24a30.54,30.54,0,0,0-27.92-6.16A24.24,24.24,0,0,0,552.49,346.53Z"/><path class="cls-1" d="M414.82,347.21c0-6.94-.07-13.89,0-20.83,0-2.11-.73-2.85-2.78-2.71-1.87.13-3.76,0-5.64,0-1.59.05-2.43-.52-2.4-2.25.13-8.37-1.13-6.74,6.56-6.88,4.61-.09,4.2.33,4.22-4.23,0-4.34.05-8.68,0-13,0-1.7.65-2.35,2.31-2.29q3.25.11,6.51,0c1.61,0,2.16.67,2.15,2.22,0,4.7,0,9.41,0,14.11,0,3.19,0,3.23,3.29,3.18,5.71-.08,11.42-.25,17.13-.33,2.76,0,3,.2,3,3-.07,7.55,1,6.45-6.34,6.53-4.85,0-9.7.06-14.54,0-1.86,0-2.54.6-2.54,2.51.07,12.65,0,25.31.07,38a20,20,0,0,0,.71,4.92c1.41,5.28,5.9,7.46,12.3,6.07a22.49,22.49,0,0,0,6.68-2.51c1.29-.75,1.95-.39,2.38,1,.58,1.87,1.26,3.7,1.93,5.53a1.9,1.9,0,0,1-.93,2.56c-6.77,4.13-14,6-21.78,3.75A15.51,15.51,0,0,1,416.28,375a25.81,25.81,0,0,1-1.48-8.72C414.85,359.94,414.82,353.58,414.82,347.21Z"/><path class="cls-1" d="M99.2,208.63V154c0-3.54,0-3.54,3.63-3.54,2.24,0,4.49.07,6.72,0,1.71-.06,2.39.68,2.27,2.33,0,.5,0,1,0,1.52V263.15c0,3.76,0,3.76-3.85,3.76-2,0-4.06-.11-6.07,0s-2.74-.74-2.73-2.78c.07-12.14,0-24.29,0-36.44Z"/><path class="cls-1" d="M427,225.55v38.39c0,2.84-.11,2.94-2.92,2.95-2.53,0-5.06,0-7.59,0-1.48,0-2.11-.59-2-2.08.61-9.82.21-19.66.26-29.48.07-16.13,0-32.25,0-48.37,0-3,.08-3,3-3,2.17,0,4.35.09,6.51,0s2.75.8,2.74,2.82C427,199.67,427,212.61,427,225.55Z"/><path class="cls-1" d="M150.29,310.46c-1.55,4.58-3,8.74-4.38,12.91q-10,29.72-20,59.45c-.35,1-.61,2.13-2.06,2.13s-1.67-1.16-2-2.17q-10.74-31.54-21.45-63.08c-1.26-3.7-2.52-7.39-3.76-11.1-.25-.76-.91-1.73.4-2.15,1.09-.34,1.79.24,2.14,1.28q2,6.07,4.07,12.15Q113.13,349.42,123,379c.22.65.22,1.44.93,1.91.77-.49.77-1.36,1-2.08Q136.48,344,148,309.19c.09-.28.17-.56.27-.83.34-.95.56-2,1.91-2s1.83.88,2.2,2q3.66,11,7.34,22,8,24,16,48a5.66,5.66,0,0,0,1.11,2.57c.82-.47.8-1.35,1-2.06Q189.44,344,201,309.21c.16-.48.33-.95.48-1.44a1.7,1.7,0,0,1,2.31-1.34c1.36.44.52,1.47.29,2.17-2.59,7.75-5.23,15.49-7.86,23.23l-17.07,50.35c-.14.41-.28.83-.41,1.24a1.91,1.91,0,0,1-2.07,1.53c-1.1-.05-1.42-.8-1.71-1.66q-4.26-12.77-8.55-25.51-7.76-23.14-15.53-46.29A8.32,8.32,0,0,0,150.29,310.46Z"/><path class="cls-1" d="M342.87,385c-21.4,0-38.67-15.2-40.78-35.84a36.58,36.58,0,0,1,8.25-27.35c8.53-10.61,19.85-15.82,33.39-15.39,22.75.72,40.52,19.64,39,42.23-1.18,17.66-15.81,33.16-33.86,35.93A34.68,34.68,0,0,1,342.87,385Zm-38.29-38.74a46.75,46.75,0,0,0,.33,5.2,37.81,37.81,0,0,0,39.92,30.91c14.81-1.17,25.73-8.47,32-21.86,5.76-12.24,4.61-24.48-3.25-35.4-8.94-12.39-21.47-17.62-36.75-15.71A37.14,37.14,0,0,0,304.58,346.23Z"/><path class="cls-1" d="M281.63,345.75v35.81c0,.57,0,1.15,0,1.73,0,.87-.25,1.61-1.33,1.58s-1.21-.84-1.24-1.67c0-.65,0-1.31,0-2q0-15.84,0-31.68c0-2.71-.14-2.86-2.8-2.86H225.86c-2.72,0-2.83.11-2.83,2.81q0,16,0,32.12c0,.72,0,1.45-.08,2.16a1.14,1.14,0,0,1-1.33,1.11,1.12,1.12,0,0,1-1.15-1.07,18.18,18.18,0,0,1-.09-1.95V309.39c0-.29,0-.58,0-.87.06-.91-.12-2.07,1.27-2.09,1.54,0,1.35,1.23,1.35,2.2,0,3.84,0,7.67,0,11.51,0,7.16,0,14.32,0,21.48,0,1.9.64,2.51,2.51,2.51q25.4-.08,50.79,0c2.07,0,2.77-.66,2.75-2.74-.07-10.42,0-20.84,0-31.25,0-.65,0-1.31,0-2,0-.92.26-1.8,1.45-1.74s1.12.95,1.13,1.76c0,3.54,0,7.09,0,10.63Q281.65,332.29,281.63,345.75Z"/><path class="cls-1" d="M111.82,418.31a13,13,0,0,1,5.78,24.79c-.55.28-1.46.32-1.47,1.09s.8,1.14,1.42,1.51c2.11,1.26,4.14.88,6.14-.3.81-.48,1.6-1.16,2.35.13s0,1.84-.93,2.43c-3.94,2.53-7.89,2.17-11.2-1.22a8.23,8.23,0,0,0-4.78-2.53C102,443,97.25,436.8,98,430S104.43,418.27,111.82,418.31Zm-10.43,12.95c-.49,5.47,4.84,10.08,10.21,10.08a10.18,10.18,0,0,0,10.21-9.92,10,10,0,0,0-10-10C105.88,421.33,101.42,425.58,101.39,431.26Z"/><path class="cls-1" d="M557.21,430.62a12.87,12.87,0,0,1,3.08,2.19,6.63,6.63,0,0,1-1.68,10.08,13,13,0,0,1-5.84,1.46c-3.1.11-6.21,0-9.31.06-1.56,0-2.23-.64-2.22-2.19q0-11,0-21.89c0-1.49.66-2.05,2.11-2,3.32.06,6.65-.05,10,.05,3.67.11,6.33,1.85,7.15,4.62C561.42,426.25,560.09,428.7,557.21,430.62Zm-7.46,1.71c-1.1,0-1.83.07-2.54,0-2.05-.24-2.7.73-2.57,2.65.11,1.51,0,3,0,4.55,0,.75.1,1.61,1,1.66,3.59.18,7.23.54,10.67-.91a3.47,3.47,0,0,0,2.17-3.66,3.56,3.56,0,0,0-2.56-3.4A15,15,0,0,0,549.75,432.33Zm.21-3.18c1.3,0,2.6.1,3.89,0a3.6,3.6,0,0,0,3.14-2c1.24-2.55-.27-5.22-3.39-5.59-2.21-.25-4.47-.06-6.7-.16-1.71-.08-2.27.7-2.25,2.33C544.73,430.07,544,429.18,550,429.15Z"/><path class="cls-1" d="M316.7,438v-9c0-3,0-5.93,0-8.9,0-1.11.42-1.79,1.66-1.74s1.43.8,1.43,1.76q0,11.26,0,22.55c0,.76-.13,1.48-1.05,1.65a2.6,2.6,0,0,1-2.73-.88c-1.33-1.72-2.64-3.44-3.94-5.18-3.08-4.1-6.14-8.22-9.22-12.33-.25-.33-.42-.77-1.05-.85a4.39,4.39,0,0,0-.26,2.46c0,4.77,0,9.54,0,14.31,0,1.16.1,2.46-1.62,2.51s-1.79-1.31-1.8-2.56c0-6.87,0-13.73,0-20.6,0-1-.45-2.35,1-2.77a3.1,3.1,0,0,1,3.56,1.41q5.78,7.86,11.63,15.66A6.77,6.77,0,0,0,316.7,438Z"/><path class="cls-1" d="M599.41,431.39c0-3.54.07-7.08,0-10.61-.06-1.91.7-2.56,2.55-2.49,2.89.1,5.78,0,8.67,0a12.87,12.87,0,0,1,12.67,11.13c.8,6.91-3.09,12.66-9.76,14.35-4.12,1-8.33.51-12.51.52-1.52,0-1.59-1.19-1.59-2.32Zm3.43,0c0,2.6,0,5.21,0,7.81,0,1.42.47,2.17,2,2.13A44.78,44.78,0,0,0,612,441a9.74,9.74,0,0,0,8.2-9.09,10,10,0,0,0-7.15-10c-2.63-.78-5.32-.35-8-.49-1.56-.08-2.24.57-2.2,2.16C602.89,426.16,602.84,428.77,602.84,431.37Z"/><path class="cls-1" d="M217.76,431.26c0-3.46.06-6.93,0-10.4-.05-1.82.53-2.65,2.47-2.57,3,.12,5.93-.07,8.88.08,7.43.37,11.27,7.14,7.78,13.56a7.77,7.77,0,0,1-3.11,2.94c-1,.61-1,1.2-.39,2.08,1.18,1.64,2.35,3.29,3.43,5,.41.65,1.61,1.48.71,2.15a2.26,2.26,0,0,1-3.26-.62,35.25,35.25,0,0,1-3.09-4.7c-1.06-2.15-2.6-2.71-4.88-2.64-5.68.18-5-.61-5.07,5.17,0,1,.43,2.26-.8,2.93s-2.59-.11-2.62-1.71c0-3.75,0-7.51,0-11.27Zm3.48-4v4.11c0,.86.23,1.67,1.26,1.68,2.87,0,5.78.42,8.59-.44a5.6,5.6,0,0,0-.16-10.7,12.44,12.44,0,0,0-3.84-.46C220.3,421.52,221.33,420.5,221.24,427.23Z"/><path class="cls-1" d="M428.81,160.56c0,4.83-3.71,8.67-8.21,8.57-4.74-.11-8-3.68-7.94-8.76s3.47-8.62,8.15-8.55S428.84,155.53,428.81,160.56Z"/><path class="cls-1" d="M486.18,444.41c-2.39,0-4.77,0-7.16,0-1.49,0-2-.72-2-2.16.36-7.06.26-14.13-.08-21.19-.1-2.05.57-2.84,2.69-2.78,4.26.12,8.53,0,12.79,0,1.09,0,2.31-.11,2.32,1.53s-1.21,1.54-2.3,1.55c-3.25,0-6.5.06-9.75,0-1.67,0-2.35.58-2.32,2.27.11,7-.83,5.82,5.78,5.93,1.73,0,3.47,0,5.2,0,1.13,0,2,.21,2,1.63s-.92,1.47-1.94,1.47c-2.89,0-5.78.07-8.67,0-1.81-.06-2.42.69-2.38,2.44.16,7.29-.95,6.06,6,6.18,2.31,0,4.62,0,6.93,0,1,0,1.89.21,1.9,1.51s-.82,1.55-1.86,1.55h-7.15Z"/><path class="cls-1" d="M191.26,431.17c0-3.54,0-7.09,0-10.63,0-1.56.54-2.24,2.14-2.22,4.49.05,9,0,13.46,0,1,0,2.16,0,2.15,1.45s-1.14,1.62-2.27,1.62c-3.33,0-6.66.08-10,0-1.81-.05-2.42.66-2.37,2.43.16,6.8-.89,5.66,5.71,5.77,1.88,0,3.76,0,5.64,0,1,0,1.64.43,1.64,1.55s-.66,1.51-1.67,1.52c-3,0-5.93.09-8.9,0-1.76-.05-2.47.55-2.42,2.37.18,7.47-1,6.12,6.09,6.26,2.32,0,4.63,0,7,0,1.1,0,2.07.13,2,1.58s-1.07,1.5-2.12,1.5l-13.9,0c-1.57,0-2.21-.6-2.18-2.19.06-3.69,0-7.38,0-11.07Z"/><path class="cls-1" d="M591.1,444.37a2.2,2.2,0,0,1-2.2-1.56c-2.74-5.92-1.36-4.85-7.75-5-1.88,0-3.49,0-5.63,0s-3.25.63-3.86,2.56l-1,2.37c-.63,1.3-.88,1.6-2.69,1.6s-.66-1.73-.36-2.42q4.74-10.68,9.56-21.34c.54-1.19,1-2.35,2.73-2.32s2.05,1.13,2.55,2.25q4.93,10.95,9.86,21.92C592.89,443.72,592.68,444.4,591.1,444.37Zm-11.38-22.19c-1.77,4.05-3.28,7.45-4.75,10.88-.46,1.07,0,1.69,1.13,1.7,2.52,0,5,0,7.56,0,1.08,0,1.4-.59,1-1.57C583.08,429.72,581.53,426.26,579.72,422.18Z"/><path class="cls-1" d="M651.32,444.37a2.19,2.19,0,0,1-2.2-1.56c-2.75-5.92-1.36-4.85-7.76-5-1.87,0-3.48,0-5.63,0s-3.25.63-3.85,2.56l-1,2.37c-.63,1.3-.88,1.6-2.69,1.6s-.66-1.73-.35-2.42q4.74-10.68,9.56-21.34c.53-1.19,1-2.35,2.72-2.32s2.06,1.13,2.56,2.25q4.94,10.95,9.85,21.92C653.11,443.72,652.89,444.4,651.32,444.37Zm-11.38-22.19c-1.77,4.05-3.28,7.45-4.75,10.88-.47,1.07,0,1.69,1.13,1.7,2.52,0,5,0,7.56,0,1.08,0,1.39-.59,1-1.57Z"/><path class="cls-1" d="M164.72,431.48c0-3.61,0-7.23,0-10.84,0-1.64.54-2.37,2.26-2.34,4.41.07,8.82,0,13.23,0,1.12,0,2,.21,2,1.64s-1,1.45-2,1.45c-3.4,0-6.8,0-10.19,0-1.55,0-2.24.54-2.22,2.15.11,7.19-.86,5.94,5.88,6.05,1.73,0,3.47,0,5.2,0,1,0,1.88.23,1.9,1.52S180,432.7,179,432.7c-2.89,0-5.78.06-8.67,0-1.73-.05-2.51.51-2.47,2.35.16,7.48-1,6.15,6.08,6.29,2.32,0,4.63,0,6.94,0,1.1,0,1.83.38,1.79,1.63s-.81,1.43-1.77,1.43H166.32c-1.25,0-1.77-.51-1.74-1.86.08-3.68,0-7.37,0-11.05Z"/><path class="cls-1" d="M692.47,418.36a12.66,12.66,0,0,1,6.69,1.43c1.16.58,1.33,1.27.84,2.44s-1.25,1.09-2.22.63a11.24,11.24,0,0,0-7.34-1.26c-1.6.33-3.19.85-3.47,2.77s.92,3,2.42,3.72a28.41,28.41,0,0,0,4.05,1.49,18.28,18.28,0,0,1,4.59,1.89c2.17,1.37,3.52,3.34,3.28,5.94a6.58,6.58,0,0,1-4.14,5.88c-5,2.14-9.61,1.07-14-1.79-1.07-.69-1.43-1.55-.59-2.72s1.63-.52,2.38,0a11.79,11.79,0,0,0,8.63,2.09c2.29-.22,3.85-1.45,4.11-3.2s-.85-3.32-3.1-4.15-4.54-1.46-6.72-2.41c-3.42-1.48-5-4-4.57-6.81.51-3.35,3-5.57,6.75-6A23.59,23.59,0,0,1,692.47,418.36Z"/><path class="cls-1" d="M419,418.27a16,16,0,0,1,6.93,1.51c1.24.54,1.3,1.29.74,2.41s-1.14,1.28-2.22.71a10.58,10.58,0,0,0-8.16-1.07,3.35,3.35,0,0,0-2.64,2.57c-.28,1.4.52,2.34,1.51,3.15a10.88,10.88,0,0,0,3.93,1.75,27.08,27.08,0,0,1,5.45,2.08,6.21,6.21,0,0,1,3.39,6.05,6.48,6.48,0,0,1-3.89,5.81c-4.11,2.12-10.83,1.16-14.35-1.83-1-.88-.86-1.69-.28-2.64.72-1.18,1.48-.49,2.17,0a11.67,11.67,0,0,0,9.23,2.11c1.75-.33,3.18-1.17,3.48-3.07s-.81-3.12-2.4-4c-2.06-1.09-4.4-1.41-6.55-2.25-2.69-1-4.89-2.58-5.24-5.74-.42-3.81,2.22-6.82,6.52-7.45C417.42,418.29,418.22,418.31,419,418.27Z"/><path class="cls-1" d="M666.72,418.32a13.86,13.86,0,0,1,7,1.37c1.16.56,1.65,1.18,1.06,2.53s-1.46,1-2.42.54a10.55,10.55,0,0,0-8-.94c-1.4.42-2.63,1.13-2.73,2.72a3.64,3.64,0,0,0,2,3.35,18,18,0,0,0,4.24,1.63,19.76,19.76,0,0,1,4.82,1.93,6.22,6.22,0,0,1,3.35,5.91,6.41,6.41,0,0,1-4.08,5.9c-5,2.09-9.6,1.2-14-1.7-1.05-.7-1.42-1.51-.67-2.72.92-1.48,1.74-.49,2.48.05a11.73,11.73,0,0,0,8.87,2c1.91-.25,3.59-1.11,3.76-3.27a3.77,3.77,0,0,0-2.82-3.92c-2.17-.8-4.4-1.44-6.55-2.28-3.68-1.45-5.42-4.09-4.89-7.22.59-3.46,3.1-5.55,7.06-5.83A13,13,0,0,1,666.72,418.32Z"/><path class="cls-1" d="M398.35,427.26c0-2.24,0-4.48,0-6.72,0-1.16.1-2.18,1.67-2.21s1.79.88,1.79,2.1a143.29,143.29,0,0,1-.4,15.37c-.64,5.88-6.28,9.62-12.84,8.53-5.34-.9-8.57-4.38-8.8-9.95-.19-4.68,0-9.39,0-14.08,0-1,.14-1.91,1.47-1.94s1.63.87,1.63,2c0,4.19-.09,8.38,0,12.57.19,6.44,5.07,9.94,10.82,7.9a6.57,6.57,0,0,0,4.61-6.2c.16-2.44,0-4.91,0-7.37Z"/><path class="cls-1" d="M133.08,427.55c0-2.17,0-4.34,0-6.51,0-1.16-.36-2.69,1.61-2.65,1.81,0,1.48,1.47,1.49,2.56,0,4.27,0,8.54.05,12.81.08,4.05,2.08,6.49,5.76,7.33,5.49,1.26,9.55-1.81,9.69-7.44.1-4,0-8,0-11.94,0-.57,0-1.15,0-1.73,0-1,.48-1.62,1.58-1.61s1.51.68,1.51,1.69c0,5.13.22,10.29-.11,15.4-.41,6.18-6.05,9.93-12.75,8.87-5.63-.88-8.8-4.53-8.88-10.27C133.05,431.89,133.08,429.72,133.08,427.55Z"/><path class="cls-1" d="M341.06,418.3a13.09,13.09,0,0,1,8,2.36c.85.6,1.94,1.12,1,2.55s-1.68.77-2.66.09a10.62,10.62,0,0,0-12-.18,9.79,9.79,0,0,0-3.84,11.09c1.87,6.28,9.58,9,15.43,5.42a6.39,6.39,0,0,1,1.89-1c.7-.16,1.15.51,1.47,1.07.52.89-.22,1.33-.76,1.77-8.15,6.43-19.58,1.74-21.47-7.32A13,13,0,0,1,341.06,418.3Z"/><path class="cls-1" d="M458.67,439.57c.7-1.69,1.42-3.39,2.1-5.11q2.75-6.84,5.46-13.69a9.15,9.15,0,0,1,.83-1.76,2,2,0,0,1,2.56-.53c1.07.4.37,1.24.14,1.82q-4.56,11.26-9.16,22.49a2.09,2.09,0,0,1-2.05,1.6,2.29,2.29,0,0,1-2.36-1.52q-4.59-11.36-9.18-22.71c-.23-.57-.63-1.32.26-1.66a2.06,2.06,0,0,1,2.41.37,5.82,5.82,0,0,1,.9,1.71q3.54,8.87,7.06,17.72C457.82,438.75,457.83,439.33,458.67,439.57Z"/><path class="cls-1" d="M361.91,430.09v8.24c0,2.95,0,3,3.07,3h6.07c1.08,0,2.12.09,2.07,1.55s-1.07,1.54-2.15,1.55c-3.39,0-6.79,0-10.18,0-1.32,0-2.06-.52-2.08-1.89q-.12-11.26-.23-22.52c0-1.17.6-1.68,1.76-1.67s1.66.68,1.66,1.79v10Z"/><path class="cls-1" d="M518.66,431.61v13.44c0,.43,0,.87,0,1.3-.09.95.28,2.28-1.24,2.3-1.7,0-1.34-1.41-1.35-2.41,0-3.83,0-7.66,0-11.49,0-5.85,0-11.71,0-17.56,0-1.11-.75-3,1.33-3,1.88,0,1.2,1.83,1.22,2.92C518.69,421.93,518.66,426.77,518.66,431.61Z"/><path class="cls-1" d="M262.09,431.39c0,4.91,0,9.83,0,14.75,0,1,.41,2.44-1.24,2.51s-1.37-1.38-1.37-2.39c0-9.9,0-19.81,0-29.71,0-.29,0-.58,0-.87,0-.89.28-1.6,1.35-1.57s1.26.8,1.27,1.66c0,3,0,6.07,0,9.11C262.1,427.05,262.09,429.22,262.09,431.39Z"/><path class="cls-1" d="M288.09,431.41V442c0,1.27-.19,2.35-1.83,2.34s-1.62-1.11-1.62-2.24q0-10.75,0-21.49c0-1.24.07-2.36,1.78-2.32s1.66,1.28,1.66,2.45C288.09,424.32,288.09,427.87,288.09,431.41Z"/><path class="cls-1" d="M439.64,431.45c0,3.61,0,7.22,0,10.82,0,1.09-.11,2.07-1.55,2.08s-1.58-1-1.58-2.05c0-7.28,0-14.57,0-21.86,0-1.07.08-2.08,1.54-2.08s1.57,1,1.57,2.05Z"/></svg>