<svg id="Layer_1" data-name="Layer 1" xmlns="http://www.w3.org/2000/svg" viewBox="0 0 800 600"><defs><style>.cls-1{fill:#306998;}</style></defs><title>events-pycon</title><g id="ueZMqR"><path class="cls-1" d="M629.67,241.37a3.71,3.71,0,0,0-.2,1.91v88.43c0,2.28,0,2.28-2.33,2.28-6.16,0-12.33,0-18.49,0-1.45,0-2-.32-2-1.91q.06-63.83,0-127.67c0-1.32.32-1.87,1.76-1.85,6,.07,12,0,18,0a2.87,2.87,0,0,1,2.54,1.24q25.38,32.82,50.83,65.6,8.74,11.3,17.52,22.57c.21.27.44.52.73.87.52-.65.31-1.31.31-1.91q0-42.93,0-85.87c0-2.48,0-2.48,2.42-2.48,6.12,0,12.23,0,18.35,0,1.32,0,1.84.34,1.84,1.77q0,63.91,0,127.83c0,1.36-.4,1.83-1.8,1.82-5.36-.07-10.72,0-16.09,0a2.62,2.62,0,0,1-2.28-1.14q-20.6-26.64-41.22-53.26-14.5-18.72-29-37.42C630.35,241.89,630.19,241.49,629.67,241.37Z"/><path class="cls-1" d="M514.45,336.14c-14.25.1-26.86-3.18-38.3-10.42a64.14,64.14,0,0,1-26.27-32.11,68.91,68.91,0,0,1-4.52-23.18c-.4-17,4.43-32.18,15.14-45.32,10.91-13.38,25.18-21.15,42.24-23.75a71.81,71.81,0,0,1,44.51,7,63.4,63.4,0,0,1,19.23,15.41A65,65,0,0,1,582.19,261c1.76,18.48-2.77,35.35-14.4,50-10.76,13.53-24.95,21.39-42,24.24-1.48.25-3,.44-4.46.61A49.16,49.16,0,0,1,514.45,336.14ZM558.26,269a49.66,49.66,0,0,0-.33-6.46C556.5,251,552,241,543.26,233.08c-11.21-10.18-24.41-13.13-39-10.41a40.55,40.55,0,0,0-23.61,13.94c-7.12,8.27-10.53,18-11.12,28.75a49.68,49.68,0,0,0,4.22,23.29A43.54,43.54,0,0,0,493.52,310a44,44,0,0,0,27.54,4.47A41.34,41.34,0,0,0,549,297.77C555.34,289.29,558.19,279.55,558.26,269Z"/><path class="cls-1" d="M81.48,268.2V204.9c0-2.28,0-2.28,2.34-2.28,15.94,0,31.87-.07,47.81,0,8.66.05,17.22,1,25.3,4.39,14.71,6.14,23.45,17,25.65,32.9a47.14,47.14,0,0,1-2.43,23.51c-4.08,10.75-11.8,18.06-22.14,22.75A64.47,64.47,0,0,1,133,291.68c-8.77.27-17.54.06-26.31.18-2,0-2,0-2,2v38c0,2.07,0,2.08-2.07,2.08h-19c-2.11,0-2.12,0-2.12-2.19Zm23.14-21c0,7.22,0,14.44,0,21.65,0,1.47.35,2,1.92,2,8.62-.07,17.25-.06,25.87,0a33.54,33.54,0,0,0,9.19-1.28c6.91-1.92,12.55-5.53,15.8-12.17a23.78,23.78,0,0,0,2-13.33c-.8-7.24-4.11-12.87-10.62-16.46-5.38-3-11.26-3.86-17.26-3.94-8.32-.12-16.64,0-25-.06-1.51,0-2,.42-2,2C104.66,232.8,104.62,240,104.62,247.24Z"/><path class="cls-1" d="M381.82,336.15c-16.24.13-30.81-4.7-43.39-15A63.56,63.56,0,0,1,319,293.9a70.75,70.75,0,0,1-4.5-23.18c-.46-16.8,4-32,14.45-45.26a63,63,0,0,1,36.95-23.16,75.51,75.51,0,0,1,44.87,3.35A64.3,64.3,0,0,1,431.36,219c2.14,2,2.12,2,.22,4.18q-5.68,6.51-11.32,13.06c-1.58,1.84-1.55,1.84-3.36.21-7.76-7-16.4-12.43-26.91-14.09-11.81-1.87-22.93.07-32.74,7.18-9,6.52-14.5,15.49-17.1,26.25a50.5,50.5,0,0,0,1.63,30.16c5.48,14.67,15.62,24.6,31.08,28a44.22,44.22,0,0,0,34.3-6.15,72.17,72.17,0,0,0,11.3-8.93c.83-.8,1.34-.88,2.18,0q6.38,6.6,12.85,13.09c.71.71.82,1.18,0,1.95-6.27,6.28-13,11.87-21.11,15.73a67.78,67.78,0,0,1-23.24,6.23C386.73,336.09,384.28,336.1,381.82,336.15Z"/><path class="cls-1" d="M239.69,307.79c0-8,0-15.94,0-23.91a5,5,0,0,0-.87-2.94q-20.42-31-40.77-62.09-4.91-7.47-9.79-15c-.21-.32-.65-.64-.44-1s.73-.21,1.11-.21c8.07,0,16.14,0,24.21,0a2.55,2.55,0,0,1,2.38,1.43q10.62,16.86,21.29,33.68c4.6,7.28,9.23,14.56,13.8,21.86.79,1.26,1.17.75,1.73-.13q11-17.31,22.1-34.59c4.53-7.09,9.08-14.18,13.59-21.28a1.81,1.81,0,0,1,1.71-.95c8,0,16,0,24.06,0,.33,0,.79-.17.95.22s-.24.72-.45,1L297,230.1q-16.62,25.14-33.26,50.29a5.06,5.06,0,0,0-.85,2.95q0,24.29,0,48.57c0,2.07,0,2.08-2.07,2.08-6.41,0-12.83,0-19.24,0-1.43,0-1.91-.4-1.9-1.87C239.72,324,239.69,315.91,239.69,307.79Z"/><path class="cls-1" d="M433.6,372.17v12.48c0,4.31,0,8.62,0,12.93,0,1-.22,1.45-1.33,1.37a28.82,28.82,0,0,0-4.05,0c-1,.07-1.24-.34-1.24-1.28,0-6.31,0-12.62,0-18.94,0-5.41,0-10.82,0-16.23,0-1.11.24-1.41,1.44-1.55,3.41-.42,5.61.76,7.67,3.64,5.14,7.16,10.7,14,16.09,21,.3.38.63.74,1.05,1.24a3,3,0,0,0,.24-1.68c0-7.42.06-14.83,0-22.25,0-1.63.48-2.07,2-1.9a15.89,15.89,0,0,0,3.16,0c1.16-.1,1.52.26,1.51,1.47-.05,10.32,0,20.64,0,31,0,1.4,0,2.81,0,4.21,0,.92-.19,1.31-1.24,1.32-4.31.05-4.31.09-7-3.37l-17-22C434.55,373.25,434.22,372.89,433.6,372.17Z"/><path class="cls-1" d="M481.69,380c0-5.81,0-11.62,0-17.43,0-1.12.2-1.57,1.46-1.55,4.75.1,9.52-.09,14.27.12a18.81,18.81,0,0,1,3.69,37.21,22.72,22.72,0,0,1-5.51.62c-4.16,0-8.32,0-12.48,0-1.12,0-1.45-.28-1.44-1.41C481.72,391.69,481.69,385.82,481.69,380Zm6.7,0c0,3.9,0,7.81,0,11.71,0,.69-.05,1.29,1,1.25,2.75-.1,5.5.12,8.25-.17A12.12,12.12,0,0,0,509,380.42c.12-7.09-4.15-12.22-11-13.15-2.74-.37-5.5-.07-8.25-.19-1-.05-1.37.21-1.35,1.3C488.43,372.23,488.39,376.09,488.39,380Z"/><path class="cls-1" d="M278.7,380c0-5.81,0-11.62,0-17.43,0-1.21.23-1.63,1.54-1.62q12.56.11,25.1,0c1.13,0,1.63.21,1.51,1.46-.14,1.43.44,3.33-.28,4.21s-2.73.28-4.17.29q-7.81.06-15.63,0c-1,0-1.41.23-1.38,1.32.08,2.45.07,4.91,0,7.36,0,1,.31,1.17,1.2,1.16,5.41,0,10.82,0,16.23,0,1.19,0,1.73.2,1.6,1.52s.46,3.36-.26,4.21-2.82.3-4.3.31c-4.36.05-8.72.06-13.07,0-1.17,0-1.44.34-1.41,1.45.08,2.5.07,5,0,7.51,0,1,.26,1.26,1.25,1.25,6.31,0,12.62,0,18.94-.05,1.26,0,1.68.32,1.54,1.57a13.68,13.68,0,0,0,0,3c.15,1.26-.4,1.46-1.52,1.46q-12.7-.07-25.4,0c-1.19,0-1.52-.32-1.51-1.49C278.73,391.65,278.7,385.84,278.7,380Z"/><path class="cls-1" d="M714,381.72a11.46,11.46,0,0,1-8.29,3.84,15.14,15.14,0,0,1-8.77-2.12c-6.08-3.89-7-13-2-18.58,5.18-5.8,17.68-6.65,23.08,1.49a17.88,17.88,0,0,1,2.75,8.48c.56,6.45.13,12.74-3.65,18.33a14,14,0,0,1-11.64,6.39,18.05,18.05,0,0,1-11.81-3.66c-.81-.61-1.15-1.07-.34-2a23.71,23.71,0,0,0,2.19-3c.5-.78.88-.86,1.62-.25a11.67,11.67,0,0,0,7,2.82,7.88,7.88,0,0,0,7.15-3C713.2,388,713.83,385.07,714,381.72Zm-8.14-15.58a6.91,6.91,0,0,0-6.23,2.94,6.84,6.84,0,0,0-.55,7.14c1.26,2.64,3.68,3.59,6.39,3.78,3.84.28,6.91-1.58,8-4.64C715.12,370.5,711.56,366.16,705.89,366.14Z"/><path class="cls-1" d="M178,380c0-5.86,0-11.72,0-17.58,0-1.12.28-1.43,1.41-1.42q12.69.08,25.4,0c1.07,0,1.39.32,1.31,1.36a20.2,20.2,0,0,0,0,3.3c.09,1.07-.32,1.34-1.35,1.34-6.16-.05-12.33,0-18.49-.06-1.36,0-1.68.38-1.62,1.67.11,2.25.09,4.51,0,6.76,0,1.11.24,1.45,1.4,1.43,5.4-.06,10.82,0,16.23-.05,1.12,0,1.52.27,1.41,1.41a14.42,14.42,0,0,0,0,3.15c.15,1.34-.42,1.54-1.61,1.52-5.31-.06-10.62,0-15.93-.05-1.15,0-1.56.26-1.51,1.48.1,2.45.1,4.91,0,7.36,0,1.18.36,1.38,1.43,1.37,6.21-.05,12.43,0,18.64-.05,1.23,0,1.88.16,1.66,1.59s.61,3.28-.32,4.17-2.68.23-4.07.23q-11,0-21.94,0c-2.31,0-2,.33-2-2.11C178,391.21,178,385.6,178,380Z"/><path class="cls-1" d="M607.42,379.89c.09-6.27,1.89-11.87,6.82-16.05a15.26,15.26,0,0,1,22.92,4.07c4.46,7.55,4.58,15.49.48,23.23-3.19,6-8.5,8.89-15.28,8.35-6.61-.53-10.8-4.54-13.28-10.48A23.06,23.06,0,0,1,607.42,379.89Zm6.88-.43c.1,4.33.81,8,3.42,11.08a8.08,8.08,0,0,0,13-.59c3.78-5.29,3.74-14.57-.08-19.86a8.09,8.09,0,0,0-13.22-.44A15.45,15.45,0,0,0,614.3,379.46Z"/><path class="cls-1" d="M404.85,398.93c-3.29,0-3.29,0-4.55-3-.73-1.75-1.5-3.49-2.19-5.26a1.33,1.33,0,0,0-1.45-1c-5.26,0-10.52,0-15.78,0a1.44,1.44,0,0,0-1.53,1.08c-1,2.31-2,4.58-2.89,6.92a1.7,1.7,0,0,1-2,1.26,26.86,26.86,0,0,0-3.91,0c-1.46.12-1.37-.43-.9-1.49,2.69-6.08,5.34-12.17,8-18.27,2.52-5.77,5.06-11.53,7.54-17.33a1.56,1.56,0,0,1,1.75-1.18,31.71,31.71,0,0,0,3.9,0,1.4,1.4,0,0,1,1.55,1q7.82,18,15.67,35.87c.43,1,.47,1.47-.82,1.34A24,24,0,0,0,404.85,398.93Zm-9.6-15.11c-2.19-5.08-4.31-10-6.53-15.11-2.2,5.15-4.31,10.07-6.46,15.11Z"/><path class="cls-1" d="M79,380c.29-8.28,3.83-14.66,11.61-17.88s15.39-2.16,22,3.51c.68.59.58,1,0,1.53a41.66,41.66,0,0,0-2.74,3.2c-.59.77-1,.83-1.75.14a14.69,14.69,0,0,0-6.37-3.51A12.5,12.5,0,0,0,86,378.61c-.25,4.92,1.1,9.25,5.17,12.34,4.64,3.53,11,3.24,16-.62,2.26-1.74,2.26-1.74,4.3.36l.2.21c2.08,2.14,2.06,2.12-.2,4.05-9.83,8.44-27.2,5.46-31.61-8.76A21.45,21.45,0,0,1,79,380Z"/><path class="cls-1" d="M571.43,393.09c5.66,0,10.86.06,16.07,0,1.44,0,2,.34,1.79,1.8-.15,1.29.4,3-.26,3.78s-2.53.28-3.85.29c-7.27,0-14.53,0-21.79,0-1.12,0-1.43-.24-1.58-1.45-.34-2.85.75-4.66,3-6.42,4.7-3.74,9.33-7.58,13.68-11.73a10.55,10.55,0,0,0,3.27-4.94c.59-2.26.44-4.42-1.26-6.18s-4-2.11-6.39-1.57c-2.71.61-4.52,2.51-6.15,4.55-.64.79-1,.83-1.75.18-1-.86-2-1.64-3.07-2.41-.5-.36-.58-.62-.22-1.18a16.07,16.07,0,0,1,16.64-7.1c10.24,2,11.46,13,6.9,18.84a40.66,40.66,0,0,1-6.32,6.19l-7.15,6C572.54,392,572.16,392.42,571.43,393.09Z"/><path class="cls-1" d="M241.73,390.11l5.19-13.29c1.91-4.89,3.83-9.78,5.7-14.69a1.44,1.44,0,0,1,1.6-1.14c2,.08,3.9,0,6,0-.89,2.2-1.71,4.23-2.54,6.25-4.2,10.17-8.42,20.34-12.57,30.53-.44,1.09-1,1.61-2.17,1.45-1.43-.18-3.18.56-4.23-.3s-1.2-2.46-1.74-3.75q-6.72-16.29-13.45-32.6c-.65-1.58-.64-1.58,1.08-1.58,1.51,0,3,.05,4.51,0,.92,0,1.29.33,1.61,1.15q5.16,13.28,10.4,26.54C241.3,389.05,241.45,389.42,241.73,390.11Z"/><path class="cls-1" d="M132.56,379.85c0-5.81,0-11.62,0-17.43,0-1.11.26-1.52,1.41-1.43a25.39,25.39,0,0,0,3.9,0c1.15-.09,1.42.31,1.41,1.43,0,8.82,0,17.63,0,26.45,0,.9.07,1.81,0,2.71-.1,1.05.28,1.35,1.33,1.34,5.61-.05,11.23,0,16.84-.06,1.46,0,2,.36,1.77,1.81s.59,3.16-.33,4-2.58.22-3.92.22c-7,0-13.93,0-20.89,0-1.22,0-1.49-.37-1.48-1.52C132.59,391.58,132.56,385.71,132.56,379.85Z"/><path class="cls-1" d="M326.9,380c0-5.87,0-11.73,0-17.59,0-1.16.33-1.48,1.43-1.4a24.31,24.31,0,0,0,3.91,0c1.2-.11,1.37.39,1.37,1.45,0,9.57,0,19.14-.06,28.71,0,1.49.4,1.81,1.82,1.78,5.56-.08,11.13,0,16.69-.06,1.22,0,1.56.36,1.46,1.51-.11,1.44.46,3.37-.27,4.22s-2.82.31-4.31.32c-6.81,0-13.63,0-20.44,0-1.22,0-1.62-.27-1.6-1.55C326.94,391.6,326.9,385.79,326.9,380Z"/><path class="cls-1" d="M671.45,379.79c0,5.91,0,11.83,0,17.74,0,1.11-.27,1.53-1.42,1.43a22.48,22.48,0,0,0-3.76,0c-1.19.09-1.52-.31-1.51-1.5.05-9.17,0-18.35,0-27.52,0-2.37,0-2.37-2.24-1.75a25.14,25.14,0,0,0-2.89.8c-1.27.52-1.95.33-2.12-1.15-.14-1.28-1.27-2.78-.66-3.68s2.29-1,3.52-1.38c3.18-1,6.25-2.43,9.75-2.11,1,.1,1.32.34,1.31,1.37C671.42,368,671.45,373.87,671.45,379.79Z"/></g></svg>