<svg id="Layer_1" data-name="Layer 1" xmlns="http://www.w3.org/2000/svg" viewBox="0 0 475 122"><defs><style>.cls-1{fill:#afafb0;}</style></defs><title>press-logo-npr</title><path class="cls-1" d="M139.47,36.42H0v70.81H208V36.42Zm-70.8,68.67H2.14V38.57H68.67Zm68.52,0H70.81V38.57h66.38Zm68.67,0H139.47V38.57h66.39Z"/><path class="cls-1" d="M27.64,64a8.89,8.89,0,0,1,3.21-2.51,8.7,8.7,0,0,1,3.86-1q3.91,0,5.64,2.06t1.73,6.55V89.34h8.21V67.78c0-4.47-1.22-8-3.64-10.47s-5.72-3.76-9.9-3.76q-6.54,0-9.89,3.87l-1.51-3.28H19.43v35.2h8.21Z"/><path class="cls-1" d="M96.36,88.49A16.07,16.07,0,0,0,103.42,90q8.06,0,12.71-4.66t4.64-13.3q0-18.51-16.82-18.52a10.57,10.57,0,0,0-7.59,3V54.14H88.14v47.35h8.22Zm0-25.63a7.22,7.22,0,0,1,5.24-2.29c3.77,0,6.48.84,8.12,2.54s2.45,4.61,2.45,8.77c0,3.88-.82,6.73-2.47,8.53s-4.36,2.7-8.14,2.7a8,8,0,0,1-5.2-1.8Z"/><path class="cls-1" d="M169.76,69.37A9.39,9.39,0,0,1,172,63.06,6.5,6.5,0,0,1,177,60.47a8.83,8.83,0,0,1,4.8,1.38l3.47-7a13,13,0,0,0-6.41-1.28,11.47,11.47,0,0,0-9.12,4V54.14h-8.21v35.2h8.21Z"/></svg>