<svg id="Layer_1" data-name="Layer 1" xmlns="http://www.w3.org/2000/svg" viewBox="0 0 475 122"><defs><style>.cls-1{fill:#afafb0;}</style></defs><title>press-logo-time</title><path id="path2" class="cls-1" d="M137.67,54.63h39.54V65h-.73l-.32-6.36h-25.9V79.26h22l.63-4.8h.94a88.68,88.68,0,0,0,0,13h-.94l-.63-5h-22v21.39h26.8l.11-7.09H178v10.54H137.59v-1.46h5.23V56.61h-5.23Zm-55.95-.1h3.5L102,94.91l16.6-40.38h3.42l9.36,50.92h4.74V107H117.5v-1.57h4.86l-5.88-32.56L101.67,107H98.26L83.52,72.89l-6.15,32.56h4.52l-.1,1.57H68.13v-1.57h4.19Zm-33.79.1h18v1.46H60.75v49.36H65.9V107h-18v-1.57h5.16V56.09h-5.2ZM0,54.63h45.7V65.07H45V58.39H27v47.06h5.25V107H14.3v-1.57h4.82V58.39H.83v6.68H0Z"/></svg>