<svg id="Layer_1" data-name="Layer 1" xmlns="http://www.w3.org/2000/svg" viewBox="0 0 475 122"><defs><style>.cls-1{fill:#adabac;}</style></defs><title>wired</title><path class="cls-1" d="M90.5,69.21v-6H65.57v6h8.68V92.89H65.57v6H90.5v-6H81V69.21Z"/><path class="cls-1" d="M131.93,69.45H122v9.78s5.36-.15,9.78-.15,5.52-1,5.52-5.37C137.29,68.66,131.93,69.45,131.93,69.45Z"/><path class="cls-1" d="M103.21,54.93v52.55h51.6V54.93Zm41.18,35.35v8.21h-7.1V90.75s0-6-4.1-6-11.2.16-11.2.16V98.65H115V63.3h20.52s8.83-.48,8.83,9.15S139,82.55,139,82.55,144.39,82.86,144.39,90.28Z"/><polygon class="cls-1" points="164.28 63.3 164.28 69.14 169.17 69.14 169.17 92.96 164.28 92.96 164.28 98.8 194.42 98.8 194.42 87.28 188.42 87.28 188.42 92.96 175.64 92.96 175.64 83.34 185.11 83.34 185.11 77.5 175.64 77.5 175.64 69.14 187.95 69.14 187.95 74.82 194.42 74.82 194.42 63.3 164.28 63.3"/><path class="cls-1" d="M235.45,69.29H224.72V93h11.2c5.37,0,5.53-6.94,5.53-6.94V76.87C241.45,68.82,235.45,69.29,235.45,69.29Z"/><path class="cls-1" d="M205.94,54.93v52.55h51.6V54.93Zm30.3,44.19c-12.94,0-18.78.16-18.78.16V63.45h15.31s15.78-1.73,15.78,12.47v9.94S249.18,99.12,236.24,99.12Z"/><path class="cls-1" d="M0,54.93v52.55H51.6V54.93ZM41,98.8H32.19L26.51,73.08,20.36,99H11.68L4.42,63.45h7.1l4.89,27,6.31-27,7.74.16,6.31,27.3L41.5,63.45h6.79Z"/></svg>