<svg id="Layer_1" data-name="Layer 1" xmlns="http://www.w3.org/2000/svg" viewBox="0 0 475 122"><defs><style>.cls-1{fill:#adabac;fill-rule:evenodd;}</style></defs><title>press-logo-mercury-news</title><path class="cls-1" d="M58.75,97.44c0,7.69-2.84,14.78-11.86,17.36l-.61-.36A11.94,11.94,0,0,0,51,104.72V87.31a47.31,47.31,0,0,0-4-2.75l-1.63,1.63v13a2.52,2.52,0,0,0,2.24,2.44v.31l-5.14,5.19-6.26-4.68v-.36c1-.29,1.42-1.1,1.42-2.34V75.35c0-1.5-.16-2.43-1.27-3v-.3l8.75-5.5.26.2V84.51s1.73-1.71,5.8-6c2.13,1.4,5.54,3.89,7.59,5.6V97.44Z"/><path class="cls-1" d="M36.5,94.69C34.79,101.76,29,108,19.8,108S1.58,103.21,1.58,91.64c0-8.16,5.6-12.86,11.7-15.53l.92.36c-3.44,3-5,6.76-5,12.21,0,7.66,4.47,12.27,14.56,12.27a14.84,14.84,0,0,0,3.36-.56V78a21,21,0,0,1-4-.51V88.73c0,3.38-.65,4.85-3.77,6.47l-6.41,3.31-.87-1.07,1.89-1c1.39-.73,1.63-1.55,1.63-4.12v-8.5c0-1.33-.16-1.85-1.23-2.35v-.4c2.59-1.21,6.41-3,7.79-3.72v0c-2.28-.61-4.73-1.48-6.92-2.19a22.08,22.08,0,0,0-5.8-1.33c-3.3,0-6.48,1.15-8.61,6.78L0,80.08c0-8.73,3.68-13.7,10.69-13.7,3.38,0,6.8,1.16,9.88,2.3,1.53.56,2.95,1.1,4.27,1.52a12.09,12.09,0,0,0,3.52.72,6.82,6.82,0,0,0,6.11-3.06l.76.4c0,5-1.61,9.52-7.18,9.73v22.09a14.6,14.6,0,0,0,7.74-6.2l.71.81Z"/><path class="cls-1" d="M80.18,86.85C76,90,73,92.25,69.54,94.79v3c1.85,1.2,3.37,2.14,5.14,3.15l2.86-2.85.86.91-8,8.15c-2.56-1.65-6.08-4-8.71-6V86.39c4.26-2.39,8.81-5.16,13-7.94,2.18,3.09,3.68,5.43,5.45,8.4Zm-6.77,3.46c-1.08-2.28-2.35-4.66-3.72-7.08l-.15.16v9.87c.83-.59,2.53-1.92,3.87-3Z"/><path class="cls-1" d="M269.15,108.89c0,4.63-5.45,8.2-12.47,8.2a32,32,0,0,1-7.64-1.32,30.48,30.48,0,0,0-6.56-1.28,5.68,5.68,0,0,0-5,2.3l-.5-.56c.67-3.65,2-8.41,7.83-8.41,3.35,0,6.3,1.73,8.61,3.57,2,1.55,4.22,3.56,6.41,3.56,2.34,0,3.57-1.37,3.57-3.26,0-3.5-5.81-4.66-5.81-9.56V102c-1.81,1.9-3.09,3.28-4.88,5.19-2.33-1.4-6.82-4.28-8.76-5.65V88c0-1.91-.79-3.21-2.34-3.41v-.2c1.35-1.42,3.8-4,5.8-5.91,2.76,1,4.38,3.3,4.38,7.13V98c1.3.83,3.58,2.09,5.35,3.06l.35-.31V87.46c0-1.88-.48-3-2.24-3.51v-.21c2.26-2.23,3.91-3.93,5.35-5.39,1.41,1.05,4.25,3.25,6.62,5.09v.2A3.29,3.29,0,0,0,265.23,87V99.47c0,4.17,3.92,4.66,3.92,9.42Z"/><path class="cls-1" d="M240.89,85.68c-1.26,1.38-3.92,3.94-5.44,5.24l-.2,0a52,52,0,0,0-3.57-6.36l-1.07,1.07V98.87c1,.64,2.58,1.6,3.82,2.24l1.88-1.89.72.77L230,107.16c-2.3-1.53-4.93-3.28-7.18-4.93V87.92c0-2-.88-3.3-2.34-3.56v-.21c1.79-1.7,3.83-3.76,5.55-5.65a6.59,6.59,0,0,1,4.48,5.91c2.47-2.52,3.8-3.9,5.85-5.91a42.91,42.91,0,0,1,4.58,7.18Z"/><path class="cls-1" d="M220.22,101.87c-2.91,3.07-5.14,5.29-5.14,5.29A6.93,6.93,0,0,1,210,100.6l-6.36,6.56c-1.91-1.17-5.55-3.69-7.28-5V88.33c0-2-.56-3.2-2.29-3.62v-.2s3-3.12,5.8-6c2.59.71,4.28,3.09,4.28,7V98.61a23.16,23.16,0,0,0,3.82,2.45l1.88-1.94V87.61c0-1.77-.28-3-2-3.66v-.26c1.69-1.68,4-3.87,5.39-5.19,1.91,1.55,4.84,3.7,6.31,4.84v.2a3.07,3.07,0,0,0-1.88,2.9V98c0,2,.72,3.21,2.54,3.67v.2Z"/><path class="cls-1" d="M193.5,85.48A74,74,0,0,1,188,91h-.2a53.92,53.92,0,0,0-4-7.53l-.46.3V98.2a32.45,32.45,0,0,0,4.73,2.8l2.6-2.6.86.87c-4.63,4.55-7.89,7.89-7.89,7.89-2.78-1.72-5.12-3.26-8.09-5.49v-15a73.17,73.17,0,0,0,13.28-8.3,71.58,71.58,0,0,1,4.69,7.08Z"/><path class="cls-1" d="M175.48,85.68c-1.27,1.38-3.93,3.94-5.45,5.24l-.25,0a50.24,50.24,0,0,0-3.52-6.36l-1.07,1.07V98.87c1,.64,2.58,1.6,3.82,2.24l1.83-1.89.77.77-7.08,7.17c-2.3-1.53-4.93-3.28-7.18-4.93V87.92c0-2-.88-3.3-2.34-3.56v-.21c1.79-1.7,3.84-3.76,5.55-5.65A6.55,6.55,0,0,1,165,84.41c2.48-2.52,3.8-3.9,5.85-5.91a43,43,0,0,1,4.64,7.18Z"/><path class="cls-1" d="M155.06,86.85c-4.22,3.14-7.22,5.4-10.64,7.94v3c1.85,1.2,3.37,2.14,5.14,3.15l2.86-2.85.91.92-8,8.14c-2.56-1.65-6.09-4-8.7-6V86.39c4.24-2.39,8.8-5.16,13-7.94,2.17,3.09,3.62,5.43,5.39,8.4Zm-6.72,3.46c-1.08-2.27-2.34-4.66-3.71-7.08l-.21.16v9.88c.83-.6,2.58-1.93,3.92-3Z"/><path class="cls-1" d="M135.66,102.07c-3.31,3.49-5.34,5.7-5.34,5.7-3.55-1.17-5.8-3.47-5.8-8.45V75.88a39,39,0,0,0-3.62-3l-.41.46V83.64h1.94L120.85,90h-.41v11.55l1.12.62v.14l-5.75,5.5-7.13-5.64V102a2.78,2.78,0,0,0,1.38-2.75V90H106.5l1.67-6.32h1.89V79.06c0-3.22-1.23-5.09-4.08-6.62v28.87c0,3.66-1.43,7.07-5.9,7.07-2.32,0-4.25-.91-6.06-1.37a19.47,19.47,0,0,0-4.89-.92c-2.46,0-4.17.75-4.89,1.73l-.71-.56c.47-4.33,2.7-8.14,7.69-8.14a8.05,8.05,0,0,1,3,.61c1.27-.8,1.53-2.34,1.53-5.4V90H94.17c-1.69,0-2.54.37-3,1.78l-.87-.31c0-.46-.1-1-.1-1.32,0-4.76,3-6.47,4.73-6.47h.72v-3.1c0-4.92,3.49-7.39,10.49-12.27,0,0,1.74-1.23,2.7-1.89,4.91,1,8.08,3.62,9.16,7.61l7.59-7.63c2.19,1.43,5.12,3.58,7,5.14V98.35c0,2.6,1.13,3.18,3,3.36v.36ZM119.53,83.64V74.2l-1.28,1.32v8.12Zm0,17.36V90h-1.28v8.7a2.78,2.78,0,0,0,1.28,2.34Zm-14.41-.51V71.83l-.41-.2a3.67,3.67,0,0,0-.81,2.8v17c0,4.8-3,7.28-8.5,8.76v.1a19.69,19.69,0,0,1,3.87,2.7,5.82,5.82,0,0,0,3.66,1.58c1.52,0,2.19-1.12,2.19-4.13Z"/><path class="cls-1" d="M367.84,83a3,3,0,0,0-2,3.11v11c-4.37,3.46-7.83,6.2-12.37,9.92-1.84-1.34-5.48-4-7.79-5.9-.7.72-4.57,4.62-5.8,5.9-1.95-1.25-6.31-4.4-8.55-6V86.9a3.06,3.06,0,0,0-2.19-3.16v-.2c1.88-1.93,3.82-3.61,5.09-5,2.34.26,4.89,3.15,4.89,6.52V97.44c1.21,1,3.35,2.49,5.19,3.67l.36-.36V87c0-1.76-.36-2.42-1.74-2.9v-.2l5.45-5.45,6,4.43v.2a2.66,2.66,0,0,0-1.89,2.75V97.29c1.43,1.11,3.82,2.77,5.45,3.82l.1,0V86.9a2.53,2.53,0,0,0-1.73-2.8v-.25l5.5-5.4,6.06,4.33V83Z"/><path class="cls-1" d="M315.66,66.89c-.74,4.94-4,7.66-7.69,7.84v33.35H306.8c-11.15-17.87-18.05-28.91-19.3-30.8h-.1V99.22a12.7,12.7,0,0,1,7.23,2.6l1.37-1.48.92.87-6.77,6.92c-1-1.1-4.43-2.29-6.21-2.29-3.21,0-5.32,1-6.31,2l-.51-.5c.9-5.16,4.57-7.91,9.31-8.15V89.4h-2a2.87,2.87,0,0,0-2.85,1.68l-.72-.31c0-.45-.05-.81-.05-1.12,0-4.9,2.75-6.57,4.84-6.57h.76v-8c-.94-1.58-2.06-2.85-3.66-2.85a2.89,2.89,0,0,0-2.5,1.07l-.66-.51c1.05-4.32,3.61-6.42,6.93-6.42s5.36,2.09,7.78,5.86c6,9.31,12.63,20.11,12.63,20.11h.1V74.73a9.19,9.19,0,0,1-5.65-1.93l-1.12,1.07-.81-.82c3.14-3.12,4.89-5,6.46-6.72a6.31,6.31,0,0,0,4.64,1.84A5.92,5.92,0,0,0,315,66.49l.71.4Z"/><path class="cls-1" d="M388,78.91c-.58,4.16-2.59,7.06-5.75,10.08,1.56,1,4.18,2.87,5.44,3.87v6.52A57.68,57.68,0,0,0,376.85,107a6.74,6.74,0,0,0-4.38-1.63,7.81,7.81,0,0,0-5.14,2.09l-.61-.36c.65-6.31,3.69-9.08,6.82-11.5-1.25-.89-3.91-2.88-5.09-3.87v-6a67.06,67.06,0,0,0,10.95-7.33,7.09,7.09,0,0,0,4.37,1.63,4.43,4.43,0,0,0,3.62-1.63l.61.46Zm-3.82,6.67-.05-.1a8.37,8.37,0,0,1-2.75.56,7,7,0,0,1-5-2l-.1,0v4.23A26.62,26.62,0,0,0,379,90.52a25.81,25.81,0,0,0,5.19-4.94Zm-4.33,15.68V96.52a31.88,31.88,0,0,0-2.9-2.13c-3,2.06-5.66,4.24-7.07,6.46l.05.05a10,10,0,0,1,4.84-1.07,8.44,8.44,0,0,1,5,1.48l.1,0Z"/><path class="cls-1" d="M329.76,86.85c-4.22,3.14-7.22,5.4-10.64,7.94v3c1.84,1.2,3.37,2.14,5.14,3.15l2.85-2.85L328,99l-8,8.14c-2.55-1.65-6.08-4-8.7-6V86.39c4.25-2.39,8.8-5.16,13-7.94,2.18,3.09,3.62,5.43,5.4,8.4ZM323,90.31c-1.09-2.27-2.35-4.66-3.72-7.08l-.2.16v9.88c.83-.6,2.58-1.93,3.92-3Z"/></svg>