<svg id="Layer_1" data-name="Layer 1" xmlns="http://www.w3.org/2000/svg" viewBox="0 0 475 122"><defs><style>.cls-1{fill:#adabac;}</style></defs><title>press-logo-ny-times</title><g id="g1140"><g id="g208"><g id="g100"><g id="g14"><g id="g12"><g id="g10"><path id="path8" class="cls-1" d="M11.41,97.15V82.93L6.74,84.8a13.07,13.07,0,0,0-.93,5.91,13.94,13.94,0,0,0,3,7.47ZM24,67.89A8.22,8.22,0,0,1,28,69.55a5.14,5.14,0,0,1,1.25,5,5.35,5.35,0,0,1-2.6,3.53,6.65,6.65,0,0,1-2.9,1.24v6.85L27,88.64l-3.21,2.9v9.34a20.32,20.32,0,0,0,4.77-6.43s.1-.21.31-.73a11.67,11.67,0,0,1-1.24,6.44,11.86,11.86,0,0,1-5.19,5.6A14.47,14.47,0,0,1,12,107.52a14.28,14.28,0,0,1-9.64-6.43A15.75,15.75,0,0,1,0,92.37c.1-6.32,5-11.72,10.58-13.79a7.87,7.87,0,0,1,1.87-.52c-.42.31-.93.62-1.56,1a12.2,12.2,0,0,0-4,5.18l10.79-4.67V94.24L9,98.5a11.75,11.75,0,0,0,6.64,3.63A12.66,12.66,0,0,0,22.93,101V91.44l-3.22-2.8,3.22-2.49V79.3A44,44,0,0,1,17.22,78c-2-.41-8.4-2.17-9.44-2.38a4.12,4.12,0,0,0-3,.52A3,3,0,0,0,3.84,79a3.08,3.08,0,0,0,.93,1.25,2.11,2.11,0,0,1-1-.42A4.68,4.68,0,0,1,1.45,76a6.43,6.43,0,0,1,2.7-5.6A8.27,8.27,0,0,1,9.86,69c3.21.42,7.47,2.18,11.3,3.11a5.29,5.29,0,0,0,3.63-.1,1.68,1.68,0,0,0,.63-2.39c-.83-1.34-2.39-1.34-3.74-1.55A10.07,10.07,0,0,1,24,67.89"/></g></g></g><g id="g28"><g id="g26"><g id="g24"><path id="path22" class="cls-1" d="M66.19,93.41l-5,3.53V85.32ZM66,82.21s-3.32,2-5.5,3.21-5.18,2.7-5.18,2.7v13.49l-2,1.55.32.31,2-1.55,6.12,5.29,10.58-8.09-.21-.31-5.91,4.46-5-4.26V97.35l9.65-6.84Z"/></g></g></g><g id="g42"><g id="g40"><g id="g38"><path id="path36" class="cls-1" d="M38.18,112.5a10.32,10.32,0,0,0,6.84-.93c3.32-1.56,4.57-5,4.57-8.41l.1-4.87V87.5l2.08-1.56-.21-.31-2.07,1.56L45,82l-6.84,5.08V69.86l-6.95,5.71c.31.21,1.86.41,1.86,1.87v24.17l-3.63,2.28.21.31,1.56-1.14L35.58,107l6.85-5.29-.21-.31-1.66,1.25-2.28-1.56V87.6L41,85.94l3.73,3.84V101.4c0,3.11-.83,6.74-2.49,8.61a6.42,6.42,0,0,1-4,2.49"/></g></g></g><g id="g56"><g id="g54"><g id="g52"><path id="path50" class="cls-1" d="M85.69,111.26c-2.7-.32-3.84-1.87-3.84-3.22a2.9,2.9,0,0,1,2.49-2.59,5.45,5.45,0,0,1,4.78,2.17l6.32-6.74-.31-.31-1.66,1.87A10.42,10.42,0,0,0,87.14,99V78.37l16.08,28.94a2.05,2.05,0,0,0,1.15.31c.62,0,.41-.41.41-.41V78.06a6.49,6.49,0,0,0,4.15-1.77c3.11-3.11,1.87-6.53,1.56-7a3.38,3.38,0,0,1-3.32,3A5.75,5.75,0,0,1,103,70.48l-6.54,7.06.31.31,1.77-2c2.17,2,3.42,2.18,5.08,2.28V95.07L91.92,73.6a6.31,6.31,0,0,0-5.4-3.32A5.8,5.8,0,0,0,81,75.05c-.31,2.49,0,3.11,0,3.11s.42-2.8,2.18-2.8c1.56,0,2.08.83,2.8,1.87v6.85c-1.66.1-5.6.31-5.91,4.66a4.82,4.82,0,0,0,2,3.84,4.25,4.25,0,0,0,2.08.73,1.94,1.94,0,0,1-.94-2.18c.42-1.25,2.8-1.45,2.91-.93v8.71c-1.35,0-5.19.1-7.16,3.63a5.88,5.88,0,0,0,.1,6.12,6.37,6.37,0,0,0,6.64,2.6"/></g></g></g><g id="g70"><g id="g68"><g id="g66"><path id="path64" class="cls-1" d="M120.55,93.41l-5.39,3.53V85.32Zm-.21-11.2s-3.32,2-5.6,3.21-4.88,2.7-4.88,2.7v13.49l-2,1.55.31.31,2-1.55,5.7,5.29,10.58-8.09-.2-.31-5.92,4.46-4.77-4.36V97.25l9.65-6.85Z"/></g></g></g><g id="g84"><g id="g82"><g id="g80"><path id="path78" class="cls-1" d="M135.28,107.52l-5.19-4.15-2.28,1.56-.21-.31,2.29-1.66V91.23c.1-4.77-4.57-3.63-4.26-8.71.11-2.28,2.39-3.94,3.53-4.46a6.24,6.24,0,0,1,2.49-.62s-2.18,1.24-1.66,3.11c.83,2.9,5.81,3.11,5.91,7v13.28l3.22,2.9.93-.72V88.54l-1.45-2,5.19-4.46,4.77,4.05L146.38,88v12.76l4.77,3.52.83-.51V88.54l-2-1.87,5.19-4.57,4.88,3.84,2-1.66.2.31-4.35,3.74v12.45l-11.1,6.64-5.71-4.26Z"/></g></g></g><g id="g98"><g id="g96"><g id="g94"><path id="path92" class="cls-1" d="M363.41,93.41l-5.5,3.53V85.32Zm-.1-11.2s-3.32,2-5.6,3.21-5.09,2.7-5.09,2.7v13.49l-2.18,1.55.32.31,2-1.55,6.12,5.29,10.58-8.09-.21-.31-5.91,4.46-4.88-4.36V97.25l9.65-6.85Z"/></g></g></g></g><polygon id="polygon102" class="cls-1" points="326.79 87.29 327.93 86.36 330.94 90.09 330.94 101.19 330.01 102.44 334.37 107.11 339.03 102.64 337.17 100.88 337.17 87.39 338.51 86.36 342.35 89.99 342.35 101.09 340.8 102.13 345.67 107.21 352.11 101.5 351.79 101.19 350.24 102.54 347.54 100.05 347.54 87.39 350.13 85.63 349.93 85.32 347.54 87.08 343.18 82.31 336.96 87.08 332.5 82.52 326.48 87.08 322.02 82.52 315.59 87.91 315.8 88.22 317.87 86.56 320.77 89.78 320.77 100.98 319.32 102.23 323.99 107.31 328.76 102.75 326.79 100.78 326.79 87.29"/><polygon id="polygon104" class="cls-1" points="317.77 101.92 317.56 101.61 315.69 103.16 313.2 100.36 313.2 87.81 315.38 86.05 315.07 85.73 312.99 87.5 308.53 82.42 301.89 87.6 302.72 87.81 304.38 86.46 307.08 89.47 307.08 102.23 305.21 103.79 305.42 104.1 307.39 102.44 311.64 107.21 317.77 101.92"/><polygon id="polygon106" class="cls-1" points="308.84 72.87 312.58 76.92 307.91 80.96 304.18 77.02 308.84 72.87"/><g id="g206"><g id="g120"><g id="g118"><g id="g116"><path id="path114" class="cls-1" d="M283.43,97.15V82.93l-4.36,1.87a13.07,13.07,0,0,0-.93,5.91,14,14,0,0,0,3,7.47Zm12.45-29.26a7.84,7.84,0,0,1,4,1.66,5.14,5.14,0,0,1,1.25,5,5.35,5.35,0,0,1-2.6,3.53,4.93,4.93,0,0,1-2.9,1v6.84l3.11,2.7-3.11,2.7v9.23a18.1,18.1,0,0,0,4.77-6.12s.1-.21.31-.73a11.58,11.58,0,0,1-1.24,6.44,11.81,11.81,0,0,1-5.19,5.6A14.45,14.45,0,0,1,284,107.52a14.28,14.28,0,0,1-9.65-6.43,15.75,15.75,0,0,1-2.39-8.72c.11-6.32,5-11.72,10.58-13.79a6.71,6.71,0,0,1,1.87-.52c-.41.31-.93.62-1.56,1a12.2,12.2,0,0,0-4,5.18l10.68-4.46V94.45l-8.5,4a11.75,11.75,0,0,0,6.64,3.63,11.26,11.26,0,0,0,7.15-1.35V91.23l-3.11-2.69,3.11-2.7V79a54.33,54.33,0,0,1-5.6-1.14c-2-.41-8.4-2.18-9.44-2.39a4.22,4.22,0,0,0-3,.52,2.55,2.55,0,0,0,0,4.15,2.09,2.09,0,0,1-1-.41,4.7,4.7,0,0,1-2.29-3.84,6.43,6.43,0,0,1,2.7-5.6,8.27,8.27,0,0,1,5.71-1.35c3.21.41,7.47,2.18,11.3,3.11a5.38,5.38,0,0,0,3.64-.1,1.69,1.69,0,0,0,.62-2.39c-.83-1.35-2.39-1.35-3.74-1.55a18.27,18.27,0,0,1,2.29-.11"/></g></g></g><g id="g134"><g id="g132"><g id="g130"><path id="path128" class="cls-1" d="M376.59,84.91v6.74l2.9,2s5-3.94,6.85-7.47c0,0-2.28,3-5.29,2.07A6.79,6.79,0,0,1,377.21,85m-5.71,17.64s2.18-3.53,6-2.81c3.63.73,5.29,4.46,5.29,4.46V95.8l-3-2.08c-2.69,2.7-7.67,6.54-8.3,8.93m3.64,6.43a4.53,4.53,0,0,1-4.47-3.63c-.72-3,1.46-5,4.67-8.2l-3.84-3.42V87.39s2.81-1.34,5-2.69S381,81.9,381,81.9s1.66,2,3.52,1.86c2.91-.2,2.8-2.49,2.7-3,.52.83,1.87,3.42-3.32,9.12L388,93.1v8.4a81.41,81.41,0,0,0-9.44,5.71s-2.59-3.11-4.77-1.66c-1.46,1.14-.73,2.8,1.35,3.53"/></g></g></g><g id="g148"><g id="g146"><g id="g144"><path id="path142" class="cls-1" d="M207.49,99.53l5.39,4.67V89.88l-5.39-4.77ZM219,87.81l1.87-1.66.31.31-2.28,1.66V101.5s-3,1.77-5.4,3.12-5,2.9-5,2.9l-6.32-5.19-1.66,1.46-.32-.32L202.4,102V87.5h-.31s3-1.35,5.5-2.7c2.28-1.24,4.77-2.7,4.77-2.7Z"/></g></g></g><g id="g162"><g id="g160"><g id="g158"><path id="path156" class="cls-1" d="M231.56,86.46l4-4a3.9,3.9,0,0,0,1,.72,3,3,0,0,0,2.59.11,4.09,4.09,0,0,0,1.35-1,6.46,6.46,0,0,1-3.32,6.22c-.83.42-3.53,1-6-1.76v14.42l3,2.18,2.18-1.66.21.31L230,107.31l-5.08-4.46-1.87,1.66-.31-.31,2.28-2.38V89.47l-1.66-2.7-1.87,1.56-.31-.31,6.43-5.6Z"/></g></g></g><g id="g176"><g id="g174"><g id="g172"><path id="path170" class="cls-1" d="M248.57,92.48,256,82a6,6,0,0,0,2.7,1.56c2.28.62,4.35-1.56,4.35-1.56-.41,2.8-1.86,6-4.87,6.54A7.67,7.67,0,0,1,253,87l-.52.73,10.38,15.14,2.07-1.76.31.31-7.16,6Z"/></g></g></g><g id="g190"><g id="g188"><g id="g186"><path id="path184" class="cls-1" d="M242.76,78.37c0-2.28-1.35-3.63-2.59-3.53l7.78-5.5v31.33l2.49,2.18,1.66-1.35.31.32-6.54,5.49-4.46-4-1.76,1.55-.31-.31,3.52-2.59V78.37Z"/></g></g></g><g id="g204"><g id="g202"><g id="g200"><path id="path198" class="cls-1" d="M190.06,87.19a3.41,3.41,0,0,1-2.28,1,2.45,2.45,0,0,1-2.08-1v4.25a2.44,2.44,0,0,1,2.08-1,3.2,3.2,0,0,1,2.28.94Zm-.21-9.13-2.59-2.7L185.7,76.5V86.56a3.35,3.35,0,0,0,2.39,1.15,1.72,1.72,0,0,0,1.76-1.15Zm-4.15,28.42a4.07,4.07,0,0,0,3.32-.62,2.49,2.49,0,0,0,.83-2.9V92.17A1.86,1.86,0,0,0,188.09,91a3.35,3.35,0,0,0-2.39,1.14ZM174.29,77.85c0-2.07-.93-3.32-2.28-3.32-2.08,0-2.6,2.8-2.6,2.8A5,5,0,0,1,171,73.18a6,6,0,0,1,6.12-2,5.3,5.3,0,0,1,4.46,5.29v29.15s.83.11,1.66.31a10.36,10.36,0,0,1,1.45.42V71.31h1v4.78L192,71l4.77,4.15,2.28-1.86.21.31-2.28,2v27.08c-.11,1.76-.42,3.52-2.18,4.56-3.84,2.18-8.51-.31-12.66-.93-3.11-.42-7.88-1-9.13,1.76a2.47,2.47,0,0,0,1,3.22c2.8,1.76,15.25-3,19.51-1.15,3.83,1.77,3.83,4.57,3.31,6.44-1,3.52-5.7,4.25-5.7,4.25s2.28-1.24,1.66-3.42c-.31-1-1-1.35-3.53-1.14-5.29.62-11.72,3.11-16,1.34a6.58,6.58,0,0,1-3.64-6.22c.11-3.74,4.67-5.29,4.67-5.29v-14c-.1-.52-2.49-.41-3.11.63-.83,1.55,1,2.28,1,2.28a3.29,3.29,0,0,1-2.7-1.14,4.27,4.27,0,0,1-.21-5.29c1.35-1.87,3-2.18,5.09-2.39Z"/></g></g></g></g></g></g></svg>