<svg id="Layer_1" data-name="Layer 1" xmlns="http://www.w3.org/2000/svg" viewBox="0 0 475 122"><defs><style>.cls-1{fill:#515051;fill-rule:evenodd;}</style></defs><title>press-logo-washington-post</title><path class="cls-1" d="M7.31,82.86A12,12,0,0,1,10.48,78a2.19,2.19,0,0,1,.56-.14c.18,0,.65,0,1.4,0a5.93,5.93,0,0,1,1.09.09,3.65,3.65,0,0,1,1,.33,13.24,13.24,0,0,1,1.18.7L10,83.45l1.35,1.07V99.64a8.07,8.07,0,0,1-3.48-3.25,15.54,15.54,0,0,1-1.68-7.78,16.63,16.63,0,0,1,1.15-5.75Zm-.53-5.79a6.58,6.58,0,0,1,1.29.16l1.45.34a15,15,0,0,0-7.28,6.89A19.48,19.48,0,0,0,0,93.65a14.58,14.58,0,0,0,4.29,10.56,14,14,0,0,0,10.44,4.39,13,13,0,0,0,10-4.53,15.45,15.45,0,0,0,4.09-10.7,8.9,8.9,0,0,1-1.26,2.15,14.26,14.26,0,0,1-2,1.94,8.83,8.83,0,0,1-1.51,1.09q-.68.36-1.74.81V79.19a10.65,10.65,0,0,0,2.16-1.14,10.6,10.6,0,0,0,1.76-1.71A10.25,10.25,0,0,0,29,70.23,17.73,17.73,0,0,1,25.8,72a12.37,12.37,0,0,1-3.22.73c-.19,0-.45,0-.79,0a17.71,17.71,0,0,1-5.85-1.54A18,18,0,0,0,9.8,69.67a8.14,8.14,0,0,0-7.11,4.15A15.69,15.69,0,0,0,.28,82.61a6.38,6.38,0,0,1,1.63-3,9.28,9.28,0,0,1,2.18-1.79,4.93,4.93,0,0,1,2.69-.78Zm27.28,31.25,4.88-5.43-2.47-2.58V85.75l1.4-1,3.92,3V107a15.72,15.72,0,0,1-.2,2.77,4.22,4.22,0,0,1-.86,2l-1.38,1.71A6.65,6.65,0,0,1,37,115.27,12.14,12.14,0,0,0,41.62,114a14.3,14.3,0,0,0,3.7-3.11,12.48,12.48,0,0,0,2.1-3.14,11.6,11.6,0,0,0,.93-3.36V82.89L46.67,83,41.4,79.47l-3.81,3.14-1.23-.67V71.3l-1.12-2.41-5,4.87v27.62l-1.51,1.79,5.32,5.15Zm16.7-6.1,9,5.71,8.58-9-4.65,3.31L58,98.13V94.32l10.2-7.62L61.68,78,51.32,85.19V101l-.56,1.23ZM80.73,74V84.52a6.45,6.45,0,0,0-1.82.39,6.41,6.41,0,0,0-3.73,5.43,6,6,0,0,0,.06.9,5.4,5.4,0,0,0,.16.78,4.49,4.49,0,0,1,1.54-.89,6.7,6.7,0,0,1,1.88-.23,3.15,3.15,0,0,1,.9.11c.22.08.56.23,1,.45v10.31l7.73,7.79,7.11-7.23,8.57,7.23,12.5-12.1V76.73l-7.73-5.94L103.19,76,95.4,70.79l-6.94,5.83V73.2c0-1.12-.81-2.39-2.41-3.81a14.9,14.9,0,0,1-1.37-1,2.17,2.17,0,0,1-.76-1.51,13.22,13.22,0,0,1-.11-1.59,3.82,3.82,0,0,1,1.29-3,7.47,7.47,0,0,0-1-.11,5.9,5.9,0,0,0-4.45,2.1,6.74,6.74,0,0,0-1.93,4.68A6.2,6.2,0,0,0,77.87,70,5.63,5.63,0,0,0,80.73,74Zm37.42,28.46,6.95,4.87,5-4.76,6,4.2,5.15-5.54h-1.79l-2.29-2.36V82.5l-1.24.22-5.82-4.87-11,7.62v16.08l-.95,1Zm33.41-23.56a10,10,0,0,1-2-1.26l-9.14,6.44V95l.84.67h5.44l-7.06,12.27a14.12,14.12,0,0,1,2.52-1.85,6.07,6.07,0,0,1,2.75-.61,8.45,8.45,0,0,1,2.91.42,7.36,7.36,0,0,1,2.3,1.48l9-7.06v-11l-.67-.67h-6v-.56l5.33-9.36a4.22,4.22,0,0,1-1.35.59,10.65,10.65,0,0,1-1.62.08h-1.18a4.91,4.91,0,0,1-2.05-.42Zm14.21,28.6,4.93-5.49-2.47-2.58V84.91l1.35-1,4,3v19.16a16.29,16.29,0,0,1-.19,2.77,4.39,4.39,0,0,1-.93,2c-.3.37-.71.92-1.23,1.63a8.15,8.15,0,0,1-2.41,1.9,12.1,12.1,0,0,0,4.57-1.26,12.86,12.86,0,0,0,3.72-3,13.13,13.13,0,0,0,2-3.17,12.43,12.43,0,0,0,1-3.39V82.05l-1.62.17-5.32-3.53-3.82,3.08-1.23-.67V70.51L167,68.05l-5,4.87v27.67l-1.52,1.74,5.33,5.21Zm26.94-33.11-5-4.09-4.09,4.49,4.26,3.86,4.87-4.26Zm-7.9,12.66v15.24L183.75,104h1.9l4.37,3.69,4.6-4.2,5.88,4.76,5.15-5.71L204,100.43V86.14l1.34-.67,3,3.25v14l5.21,4.54,5-5.71h-2.35l-1.34-2.19V84.12l.67-1.4-1.35.28-5.15-4.09-5,5.21-5.88-4.65-4.88,5.44h1.91l1.62,1.9v14l-3.25,1.12-2.07-1.63V84.63l.67-.95-5.82-4.32-4.77,5,1.63.51,1.62,2.18Zm100.73,14.74-1.63-2.08V85.47l1.35-.67,3,3.25v14.06l5.21,4.48,5-5.72h-2.35l-1.35-2.18V83.45l.67-1.34-1.34.22L289,78.24l-5,5.21L278,78.8l-4.87,5.44h1.9l1.63,1.9V100.2l-2,2.69,6.22,4.09,4.65-5.15Zm-65.88.11a6.94,6.94,0,0,1,2,.28,5.6,5.6,0,0,1,1.82,1,6.09,6.09,0,0,1,1.32,1.34,6,6,0,0,1,.7,1.77l-2.91,3.75-3.08,4.15a6.48,6.48,0,0,1,2-.82,16.62,16.62,0,0,1,2.47-.14,8.21,8.21,0,0,1,3.25.9,7.94,7.94,0,0,1,2.46,2.19,19.68,19.68,0,0,0,6.25-4.49c2.37-2.31,3.56-4.22,3.56-5.71a11.83,11.83,0,0,0-.82-2.41,11.29,11.29,0,0,1-.81-4.26V82.05l-7.79-4.87-9.8,6.94v16.59l-.67,1.23ZM239,82.78h3.24v19.44l-.78,1.51h1.9l4.09,3.14,5.27-6h-2.3l-1.51-1.62V83.17l3.31-4.09H248.9V68.38l-6.67,6.22v4.26L239,82.78Zm14.17,19.16,7,4.93,12.09-8.46V81.94l-1.23.28-5.82-4.93-11,7.62V101l-1,1ZM310,74.15v5.21a8.4,8.4,0,0,0-2.47.31,4.9,4.9,0,0,0-1.93,1.21A3.45,3.45,0,0,0,304.53,83a22.89,22.89,0,0,0-.17,3.08,7.71,7.71,0,0,1-.05,1.06,3.18,3.18,0,0,1,3.41-1.62A3.6,3.6,0,0,1,310,86.7v8.68a15.4,15.4,0,0,0-4.48,3.53,13.7,13.7,0,0,0-2.86,5.21,13.62,13.62,0,0,1,2-1.31,15,15,0,0,1,2.35-.87l1.29-.37a6.53,6.53,0,0,1,1.68-.19v16.75l7.34-6,2.46,1.8V104.4l3.14,1.07,10.59-7.34V73.48l-6.78-5.43-6.95,5.82V70.79l-1.34-1.12V74.6l-1.12.78V70.23l-5.72-4.37-6.77,6.67A3.27,3.27,0,0,1,306.6,72a4.37,4.37,0,0,1,1.4.23,3.21,3.21,0,0,1,2,1.9ZM334.5,102.5l6.95,4.87,12.15-8.46V82.5l-1.23.22-5.88-4.87-11,7.62v16.08l-.95,1Zm32.16-23.81a15.27,15.27,0,0,1-2.08-1.23l-9.07,6.38V94.71l.78.67h5.44l-7.06,12.27a19.58,19.58,0,0,1,2-1.51,6,6,0,0,1,3.36-1,8.26,8.26,0,0,1,2.86.42,7.33,7.33,0,0,1,2.29,1.48l9-7.06V89l-.68-.67h-6v-.56l5.32-9.36a4.28,4.28,0,0,1-1.34.59,12.25,12.25,0,0,1-1.63.08h-1.17a4.6,4.6,0,0,1-2-.39Zm7.61,4.37h3.25V102.5l-.78,1.51h1.91l4,3.14,5.32-6h-2.3l-1.51-1.62V83.45l3.25-4.09h-3.25V68.66l-6.67,6.22v4.26l-3.25,3.92Zm-248.5.5,4.37,3.25V99.87l-1.4,1.51-3-2.58V83.56Zm108.45,23a2.86,2.86,0,0,1,1.35,2.41,3.61,3.61,0,0,1-.11,1,6,6,0,0,1-.51.67,2,2,0,0,1-1.12.56,2.84,2.84,0,0,1-1.9-.7,6.29,6.29,0,0,0-3.53-.81,12.24,12.24,0,0,0-2.75.28,11.18,11.18,0,0,0-2.58,1l8.19-10.08v1.29a7.41,7.41,0,0,0,.19,1.85,3.19,3.19,0,0,0,.87,1.4c.63.41,1.27.8,1.9,1.17ZM227,82.89,231.26,86V98.69L230,100l-3-3V82.89ZM58,92.69V84.52l4.09,5.15-4.09,3Zm96-9.24-3.81,6.78h-2.86V82.89A6.67,6.67,0,0,0,150.92,84a9.14,9.14,0,0,0,3-.51ZM260.78,83l4.37,3.31v13l-1.4,1.51-3-2.63V83ZM148.34,94.32h4.09v7.23a11.92,11.92,0,0,0-1.76-.48,24,24,0,0,0-2.44-.08,8.88,8.88,0,0,0-2.13.22,16,16,0,0,0-2.13.73l4.37-7.62Zm169-15.24,1.12-1v32l-1.12-.68V79.08Zm2.46-1.79,3.42-2.18,2.46,1.79V98c-1.15-.67-1.79-1-1.9-1.06l-1.23-.4c-.94-.22-1.85-.44-2.75-.67V77.29ZM20.5,79.75a2.75,2.75,0,0,0,.9-.11V100a10.26,10.26,0,0,1-4.54,1.07,11.66,11.66,0,0,1-2.8-.34,6.28,6.28,0,0,1-2.18-.89l6.38-6.39v-14a2,2,0,0,0,.87.26c.32,0,.53,0,.65,0Zm321.62,3.81,4.37,3.25V99.87l-1.35,1.51-3-2.58V83.56ZM88.46,78.24l2.07-1.62L94.84,81V101.1l-1.73,1.79-4.65-4.48V78.24Zm279.09,5.32a5.6,5.6,0,0,0,1.4-.39L365.14,90h-2.85V82.61A6.93,6.93,0,0,0,366,83.68a9.63,9.63,0,0,0,1.57-.12ZM363.35,94h4.09v7.23a10.77,10.77,0,0,0-1.76-.48,21.34,21.34,0,0,0-2.44-.08,8.88,8.88,0,0,0-2.13.22,13.4,13.4,0,0,0-2.07.73L363.35,94ZM103.19,78.24l2-1.62L109.58,81V101.1l-1.8,1.79-4.59-4.48V78.24Z"/></svg>