<?xml version="1.0" encoding="utf-8"?>
<!-- Generator: Adobe Illustrator 27.7.0, SVG Export Plug-In . SVG Version: 6.00 Build 0)  -->
<svg version="1.1" id="Layer_1" xmlns="http://www.w3.org/2000/svg" xmlns:xlink="http://www.w3.org/1999/xlink" x="0px" y="0px"
	 viewBox="0 0 475 122" style="enable-background:new 0 0 475 122;" xml:space="preserve">
<style type="text/css">
	.st0{fill:#515051;}
</style>
<path class="st0" d="M76.2,82.7c0.1,0,0.2,0,0.3,0c1.9,0,3.9,0,5.8,0c0.3,0,0.4,0.1,0.4,0.3c0.8,2,1.6,4.1,2.4,6.1
	c0.5,1.3,1,2.6,1.5,3.8c0,0.1,0.1,0.1,0.2,0.2c0-0.1,0.1-0.1,0.1-0.2c1-2.1,2-4.3,3-6.4c0.6-1.2,1.1-2.4,1.7-3.6
	c0.1-0.2,0.2-0.3,0.4-0.3c0.6,0,1.1,0,1.7,0c0.1,0,0.3,0.1,0.4,0.2c1.5,3.2,3,6.4,4.5,9.6c0.1,0.2,0.2,0.4,0.3,0.7
	c0.1-0.2,0.2-0.3,0.2-0.5c1.3-3.3,2.6-6.6,3.9-9.8c0.1-0.2,0.2-0.3,0.4-0.3c1.9,0,3.9,0,5.8,0c0.1,0,0.2,0,0.3,0
	c0,0.1,0,0.2-0.1,0.3c-1.6,3.9-3.2,7.8-4.8,11.7c-1.3,3.2-2.6,6.5-3.9,9.7c-0.1,0.3-0.2,0.4-0.5,0.3c-0.5,0-1,0-1.5,0
	c-0.2,0-0.4-0.1-0.5-0.3c-1.6-3.3-3.3-6.7-4.9-10c-0.1-0.2-0.2-0.5-0.4-0.8c-0.1,0.1-0.2,0.2-0.2,0.3c-1.7,3.5-3.4,7-5.1,10.4
	c-0.1,0.3-0.3,0.4-0.6,0.4c-0.5,0-1,0-1.5,0c-0.2,0-0.4-0.1-0.5-0.3c-2.8-7-5.7-14.1-8.6-21.1C76.4,83.2,76.3,83,76.2,82.7z"/>
<path class="st0" d="M35.2,92c-0.9,0-1.8,0-2.7,0c-1.8-0.1-3.6-0.2-5.3-0.2c-1.5-0.1-2.9-0.1-4.4-0.2c-0.3,0-0.5,0-0.5,0.4
	c0,0.8,0,0.7,0.7,0.7c2,0,4-0.1,6-0.1c1.9,0,3.7,0,5.6-0.1c0.2,0,0.3,0,0.5,0c0,5.7,0,11.5,0,17.2c-0.1-0.1-0.2-0.1-0.2-0.2
	c-4.5-4.4-8.9-8.9-13.4-13.3c-0.2-0.2-0.3-0.4-0.3-0.7c0-0.4,0-0.8-0.1-1.2c0-0.3-0.1-0.4-0.3-0.6c-0.1-0.1-0.2-0.2-0.2-0.4
	c0-0.8-0.1-1.6-0.1-2.4c0-0.1,0-0.3-0.1-0.4c-0.8-1-1.7-1.9-2.6-2.9c-0.8,0.9-1.5,1.7-2.3,2.6c-2.5-2.5-4.9-4.9-7.4-7.4
	c6.3,0,12.6,0,19,0c-0.2,0.2-0.4,0.3-0.5,0.4c-1.9,1.7-3.8,3.5-5.8,5.2c-0.2,0.2-0.2,0.3,0,0.4c0.6,0.5,0.6,0.5,1.1,0
	c1.9-1.9,3.8-3.9,5.6-5.8c0.2-0.2,0.4-0.3,0.7-0.3c2.2,0,4.3,0,6.5,0c0.3,0,0.3,0.1,0.3,0.3c0,2.9,0,5.8,0,8.8
	C35.2,91.8,35.2,91.9,35.2,92z"/>
<path class="st0" d="M45.7,93.7c0,0.4,0,0.9,0,1.3c0,3.1,0,6.2,0,9.3c0,0.5,0,0.4-0.4,0.4c-1.6,0-3.1,0-4.7,0c-0.2,0-0.4,0-0.6,0
	c0-7.4,0-14.7,0-22c0.7,0,1.5,0,2.2,0c0.1,0,0.2,0.1,0.3,0.2c3.7,3.5,7.4,7,11.1,10.5c0.1,0.1,0.2,0.1,0.3,0.3c0-3.7,0-7.3,0-11
	c0.2,0,0.4,0,0.6,0c1.6,0,3.3,0,4.9,0c0.3,0,0.4,0.1,0.4,0.3c0,7.1,0,14.2,0,21.3c0,0.3-0.1,0.4-0.4,0.4c-0.4,0-0.9,0-1.3,0
	c-0.3,0-0.6-0.1-0.8-0.3c-3.4-3.3-6.9-6.6-10.3-9.9C46.4,94.2,46.1,93.9,45.7,93.7C45.8,93.7,45.8,93.7,45.7,93.7z"/>
<path class="st0" d="M62.8,77.3c-0.2,0-0.3,0-0.4,0c-1.9,0-3.8,0-5.7,0c-0.3,0-0.5-0.1-0.7-0.4c-1.5-2.1-3.1-4.2-4.6-6.3
	c-0.1-0.2-0.3-0.3-0.5-0.3c-0.7,0-1.3,0-2,0c0,0.1,0,0.3,0,0.4c0,2.1,0,4.1,0,6.2c0,0.3-0.1,0.3-0.3,0.3c-1.7,0-3.5,0-5.2,0
	c-0.3,0-0.3-0.1-0.3-0.3c0-7.1,0-14.1,0-21.2c0-0.8,0-0.8,0.7-0.8c2.8,0,5.7,0,8.5,0c1.6,0,3,0.4,4.4,1.1c2.8,1.6,4,4,3.8,7.2
	c-0.2,2.4-1.3,4.3-3.4,5.6c0,0,0,0-0.1,0.1C58.9,71.8,60.8,74.5,62.8,77.3z M48.9,65.3c1.2,0,2.3,0.1,3.4,0c1.5-0.1,2.4-1.3,2.2-2.8
	c-0.1-1.4-1.1-2.4-2.6-2.4c-0.9,0-1.8,0-2.7,0c-0.3,0-0.4,0.1-0.4,0.4c0,1,0,1.9,0,2.9C48.9,64,48.9,64.6,48.9,65.3z"/>
<path class="st0" d="M36.9,63.6c-0.2-0.3-0.4-0.6-0.6-0.9c-1.4-1.8-3.1-2.8-5.4-2.7c-3.1,0.1-5.5,2.2-5.8,5.3c-0.2,1.4,0,2.8,0.6,4
	c1.2,2.2,3.4,3.2,5.9,3.1c2.3-0.2,3.9-1.4,5.1-3.2c0.3-0.5,0.3-0.4,0.7-0.1c1.2,0.8,2.5,1.7,3.7,2.5c0.1,0.1,0.2,0.2,0.3,0.2
	c-1.1,2-2.6,3.5-4.5,4.6C32,78.9,25,78,21.2,73c-4.2-5.5-2.4-13.6,3.7-16.9c3.6-1.9,7.3-2.1,11-0.6c2.3,1,4,2.6,5.3,4.8
	c0,0.1,0,0.3,0,0.3C39.8,61.7,38.3,62.6,36.9,63.6z"/>
<path class="st0" d="M96.3,70.4c0,0.2,0,0.3,0,0.4c0,2.1,0,4.2,0,6.2c0,0.2-0.1,0.3-0.3,0.3c-1.8,0-3.6,0-5.3,0
	c-0.2,0-0.3,0-0.3-0.3c0-2.9,0-5.8,0-8.7c0-4.2,0-8.3,0-12.5c0-0.1,0-0.1,0-0.2c0-0.6,0-0.6,0.7-0.6c2.9,0,5.8,0,8.7,0
	c1.9,0,3.6,0.5,5.1,1.7c2.3,1.7,3.2,4.1,2.9,6.9c-0.3,3.1-2.5,5.5-5.6,6.4c-1,0.3-2.1,0.4-3.2,0.4C98.1,70.4,97.2,70.4,96.3,70.4z
	 M96.2,65.3c1.1,0,2.2,0,3.3,0c0.3,0,0.6-0.1,0.9-0.2c1.1-0.5,1.6-1.7,1.4-3c-0.2-1.2-1.2-2-2.4-2c-1,0-2,0-2.9,0
	c-0.3,0-0.3,0.1-0.3,0.3c0,1.4,0,2.9,0,4.3C96.2,64.9,96.2,65.1,96.2,65.3z"/>
<path class="st0" d="M76.6,87.9c-0.3,0-0.5,0-0.7,0c-2.8,0-5.6,0-8.3,0c-0.5,0-0.5,0-0.5,0.5c0,0.7,0,1.5,0,2.2
	c0,0.3,0.1,0.4,0.4,0.4c2,0,4.1,0,6.1,0c0.3,0,0.4,0.1,0.4,0.4c0,1.4,0,2.7,0,4.1c0,0.3,0,0.4-0.4,0.4c-2,0-4,0-6,0
	c-0.2,0-0.3,0-0.5,0c0,0.3,0,0.5,0,0.8c0,0.9,0,1.8,0,2.7c0,0.3,0.1,0.4,0.4,0.4c3.1,0,6.2,0,9.3,0c0.3,0,0.4,0,0.4,0.4
	c0,1.4,0,2.8,0,4.1c0,0.7,0,0.7-0.7,0.7c-3.8,0-7.7,0-11.5,0c-1.1,0-2.2,0-3.3,0c-0.3,0-0.3-0.1-0.3-0.3c0-5.1,0-10.3,0-15.4
	c0-2,0-4,0-5.9c0-0.2,0-0.4,0.3-0.4c3.9,0,7.8,0,11.7,0c0.2,0,0.5,0,0.7,0c0.3,0,0.4,0.1,0.5,0.4c0.6,1.5,1.2,2.9,1.8,4.4
	C76.5,87.6,76.6,87.7,76.6,87.9z"/>
<path class="st0" d="M77.3,70.4c0,1.2,0,2.3,0,3.5c0,1.1,0,2.3,0,3.4c-0.1,0-0.2,0-0.3,0c-1.7,0-3.4,0-5.1,0c-0.3,0-0.4-0.1-0.4-0.4
	c0-6.9,0-13.9,0-20.8c0-0.3,0-0.6,0-0.9c0-0.2,0-0.3,0.3-0.3c3.1,0,6.2,0,9.3,0c2,0.1,3.9,0.7,5.4,2.1c1.5,1.3,2.3,3,2.4,5
	c0.3,4.4-2.7,7.3-6.5,8.1c-1.3,0.3-2.6,0.2-3.9,0.2C78.1,70.4,77.7,70.4,77.3,70.4z M77.3,65.3c1,0,1.9,0,2.9,0c0.3,0,0.6,0,0.9-0.1
	c1.2-0.3,1.9-1.3,1.8-2.8c-0.1-1.1-0.9-2.1-2-2.2c-1.2-0.1-2.4,0-3.6-0.1c0,0,0,0-0.1,0C77.3,61.9,77.3,63.6,77.3,65.3z"/>
<path class="st0" d="M120.5,62.1c-0.2-0.2-0.3-0.5-0.5-0.7c-0.9-1.2-2.1-1.9-3.6-1.7c-0.3,0-0.7,0.1-1,0.3c-0.7,0.4-0.9,1.5-0.2,2
	c0.4,0.4,0.9,0.6,1.5,0.8c1.5,0.7,3.1,1.3,4.6,2.1c1.1,0.5,2.1,1.3,2.8,2.3c1.5,2.1,1.6,6.5-1.6,8.8c-1.2,0.9-2.7,1.4-4.2,1.5
	c-2.3,0.3-4.5,0-6.6-1.2c-1.5-0.8-2.7-2-3.6-3.5c-0.1-0.1-0.1-0.3,0-0.4c1.2-0.9,2.5-1.9,3.8-2.8c0.2,0.3,0.4,0.5,0.6,0.7
	c0.8,0.9,1.8,1.7,3.1,2c0.8,0.2,1.6,0.2,2.4,0c0.6-0.2,1.1-0.5,1.2-1.2c0.1-0.7-0.1-1.3-0.8-1.6c-1.2-0.6-2.5-1.2-3.7-1.7
	c-1.4-0.6-2.6-1.3-3.8-2.3c-2.8-2.5-2.5-7.2,0.5-9.4c1.2-0.8,2.5-1.3,3.9-1.5c1.7-0.2,3.4-0.1,5,0.5c1.8,0.7,3.2,2,4.1,3.7
	c0,0.1,0,0.3-0.1,0.3C123,60.2,121.8,61.1,120.5,62.1z"/>
<path class="st0" d="M5.1,69.8c0.2,0.3,0.4,0.5,0.6,0.7c0.9,0.9,1.8,1.7,3.1,2c0.8,0.2,1.6,0.2,2.5,0c0.6-0.2,1-0.5,1.1-1.2
	c0.1-0.7-0.1-1.3-0.7-1.6C10.4,69.1,9.2,68.6,8,68c-1.3-0.6-2.5-1.3-3.6-2.2c-3.3-2.7-2.7-7.9,0.9-10c2.7-1.6,6.8-1.6,9.4,0
	c1.2,0.8,2.2,1.8,2.9,3.1c0.1,0.2,0.1,0.3-0.1,0.4c-1.2,0.9-2.3,1.8-3.5,2.7c-0.2,0.1-0.2,0.1-0.4-0.1c-0.4-0.5-0.8-0.9-1.2-1.3
	c-0.9-0.8-2.1-1-3.3-0.7c-0.5,0.1-1,0.5-1,1.1C8,61.5,8.2,62,8.7,62.3c0.6,0.3,1.2,0.6,1.7,0.8c1.4,0.6,2.7,1.2,4.1,1.9
	c1.3,0.7,2.4,1.6,3.1,2.9c1.3,2.5,1,6.9-3,8.8c-1.9,1-4,1.2-6.1,0.9c-2.9-0.4-5.2-1.7-6.9-4.2c-0.5-0.7-0.4-0.7,0.2-1.2
	C2.9,71.4,4,70.6,5.1,69.8z"/>
<path class="st0" d="M117,105.2c-2.7-0.1-5.2-0.8-7.2-2.8c-0.6-0.6-1-1.3-1.6-2c-0.1-0.2-0.1-0.3,0.1-0.4c1.2-0.9,2.4-1.8,3.5-2.7
	c0.2-0.2,0.3,0,0.4,0.1c0.6,0.8,1.3,1.5,2.1,1.9c1.2,0.7,2.5,0.9,3.9,0.5c0.6-0.2,1-0.6,1.1-1.2c0.1-0.6-0.1-1.2-0.7-1.5
	c-1.1-0.6-2.3-1.1-3.4-1.6c-1.3-0.6-2.6-1.2-3.7-2.2c-1.1-1-2-2.2-2.2-3.7c-0.5-2.7,0.8-5.2,3.2-6.5c1.7-0.9,3.5-1.1,5.3-1
	c1.2,0.1,2.4,0.4,3.5,1c1.4,0.7,2.4,1.9,3.1,3.3c0,0.1,0,0.3-0.1,0.3c-1.1,0.9-2.3,1.7-3.4,2.6c-0.2,0.2-0.3,0.1-0.5-0.1
	c-0.5-0.7-1.1-1.4-2-1.8c-0.8-0.3-1.7-0.4-2.5-0.1c-1,0.3-1.3,1.6-0.5,2.2c0.5,0.4,1,0.6,1.6,0.9c1.3,0.6,2.7,1.2,4.1,1.8
	c0.9,0.4,1.7,1,2.4,1.7c1,1,1.5,2.2,1.6,3.6c0.3,4.4-2.8,6.6-5.8,7.2C118.5,105.1,117.7,105.1,117,105.2z"/>
<path class="st0" d="M1.2,92.4c0.5,0,1,0.1,1.4,0.1c3.4,0.1,6.8,0.1,10.2,0.2c0.8,0,0.8,0,0.8-0.7c0-0.3-0.1-0.4-0.3-0.3
	c-2,0.1-4.1,0.2-6.1,0.3C5.9,91.9,4.8,92,3.6,92c-0.8,0-1.6,0.1-2.4,0.1c0-4.8,0-9.5,0-14.3c0.2,0.1,0.3,0.3,0.4,0.4
	c4.4,4.4,8.8,8.8,13.2,13.2c0.1,0.1,0.2,0.3,0.2,0.5c0,0.5,0,1-0.1,1.5c0,0.1-0.1,0.3-0.2,0.3c-0.3,0.1-0.4,0.3-0.3,0.6
	c0,0.3-0.1,0.6-0.3,0.8c-2.8,3-5.6,6-8.4,9.1c-0.4,0.4-0.7,0.6-1.3,0.6c-1,0-2,0-3,0c-0.2,0-0.4-0.1-0.4-0.3c0-3.9,0-7.7,0-11.6
	C1.2,92.7,1.2,92.6,1.2,92.4z"/>
<path class="st0" d="M69.7,77.3c-0.2,0-0.5,0-0.7,0c-1.6,0-3.2,0-4.8,0c-0.3,0-0.4-0.1-0.4-0.4c0-0.2,0-0.5,0-0.7
	c0-6.8,0-13.7,0-20.5c0-0.7,0-0.7,0.7-0.7c1.6,0,3.2,0,4.8,0c0.3,0,0.4,0.1,0.3,0.4c0,7.2,0,14.5,0,21.7
	C69.7,77.2,69.7,77.2,69.7,77.3z"/>
<path class="st0" d="M5.7,104.7c2.9-2.8,5.8-5.5,8.6-8.2c0.2,0.5,0.4,0.9,0.6,1.4c0.1,0.3,0.1,0.7,0.1,1.1c-0.1,1.3-0.2,2.7-0.3,4
	c0,0.5,0,1-0.1,1.5c0,0.1-0.1,0.2-0.3,0.2c-0.1,0-0.2,0-0.3,0c-2.7,0-5.4,0-8.1,0C5.9,104.8,5.8,104.8,5.7,104.7z"/>
<path class="st0" d="M21,97.5c2.4,2.4,4.8,4.8,7.3,7.3c-0.2,0-0.4,0-0.6,0c-2.1,0-4.1,0-6.2,0c-0.3,0-0.4-0.1-0.4-0.3
	c-0.1-1.9-0.2-3.8-0.4-5.8C20.7,98.3,20.7,97.8,21,97.5z"/>
<path class="st0" d="M15.5,92.1c0-0.4,0-0.7,0-1.1c0-0.2,0.1-0.3,0.3-0.4c1.3-0.3,2.7-0.3,4,0c0.2,0.1,0.3,0.1,0.3,0.4
	c0,0.7,0,1.5,0,2.2c0,0.2-0.1,0.3-0.2,0.2c0,0,0,0-0.1,0c-0.4,0-0.8,0.1-1-0.1c-0.2-0.2-0.2-0.6-0.3-0.9c-0.1-0.3-0.1-0.6-0.2-1
	c0-0.2-0.1-0.3-0.3-0.3c-0.6,0-0.6,0-0.7,0.5c-0.1,0.5-0.2,0.9-0.3,1.4c0,0.3-0.1,0.4-0.4,0.4c-0.3,0-0.8,0.1-1-0.1
	c-0.2-0.2-0.1-0.6-0.1-0.9C15.5,92.4,15.5,92.2,15.5,92.1C15.5,92.1,15.5,92.1,15.5,92.1z"/>
</svg>
