<svg id="Layer_1" data-name="Layer 1" xmlns="http://www.w3.org/2000/svg" viewBox="0 0 475 122"><defs><style>.cls-1{fill:#afafb0;}</style></defs><title>press-logo-ars-technica</title><path class="cls-1" d="M15.64,82.93c0,2.22,1.49,3.65,4.06,3.65a11.57,11.57,0,0,0,8.12-3.83V76.41C17.76,77.38,15.64,80.12,15.64,82.93Z"/><path class="cls-1" d="M44.57,32.87A44.57,44.57,0,1,0,89.13,77.44,44.56,44.56,0,0,0,44.57,32.87ZM32.91,90.24H28.79l-.57-3.66a12.89,12.89,0,0,1-9.61,4.23c-4.91,0-8-3-8-7.6,0-6.8,5.83-9.49,17.21-10.69V71.38c0-3.43-2.06-4.63-5.2-4.63a23.51,23.51,0,0,0-9.44,2.34l-.69-4.4a26.52,26.52,0,0,1,10.58-2.28c6.63,0,9.84,2.68,9.84,8.74ZM44.75,74.12V90.24H39.66V63h4.06l.86,5.54c1.94-3.09,5.09-5.88,9.54-6.11l.8,4.86A12.46,12.46,0,0,0,44.75,74.12Zm23,16.69a22.44,22.44,0,0,1-9.95-2.57l.74-4.8a17.09,17.09,0,0,0,9.61,3.14c3.49,0,5.54-1.31,5.54-3.6,0-2.51-1.54-3.43-6.46-4.63-6.4-1.6-9-3.54-9-8.4,0-4.34,3.66-7.54,9.6-7.54a22.12,22.12,0,0,1,9,1.82L76.06,69a17.41,17.41,0,0,0-8.29-2.35c-3.09,0-4.69,1.2-4.69,3.15s1.37,2.85,5.66,3.94c6.74,1.71,9.78,3.66,9.78,8.86C78.52,87.61,74.8,90.81,67.77,90.81Z"/><path class="cls-1" d="M148.72,90.79c-6.59,0-11.69-4.94-11.69-13.5,0-8.72,5.27-13.55,11.85-13.55a14.26,14.26,0,0,1,8.45,2.63l-.6,3.62a11.89,11.89,0,0,0-8-3.12c-4.94,0-8.06,4-8.06,10.37s3.18,10.37,8.45,10.37a11.4,11.4,0,0,0,7.9-3.08l.49,3.3a13.65,13.65,0,0,1-8.83,3"/><path class="cls-1" d="M130.7,84.48a11.41,11.41,0,0,1-7.9,3.07c-4.77,0-7.82-3.25-8.35-8.64h15.38l.54-3.4H114.44c.51-5.38,3.49-8.7,8-8.7a11.88,11.88,0,0,1,8,3.13l.61-3.62a14.19,14.19,0,0,0-8.45-2.63c-6.59,0-11.85,4.82-11.85,13.55,0,8.56,5.1,13.49,11.68,13.49a13.64,13.64,0,0,0,8.84-3l-.5-3.29"/><path class="cls-1" d="M181,90.24V72.35C181,69,179.5,67,176.2,67c-2.74,0-5.54,1.7-8.39,4.5V90.24h-3.62V51.5l3.62-.65V68c2.69-2.37,5.6-4.23,9.11-4.23,5.15,0,7.73,3,7.73,7.9v18.6H181"/><path class="cls-1" d="M208.35,90.24V72.35c0-3.34-1.54-5.37-4.83-5.37-2.74,0-5.54,1.7-8.39,4.5V90.24h-3.62V64.29h2.8l.6,3.84c2.85-2.53,5.81-4.39,9.33-4.39,5.15,0,7.73,3,7.73,7.95V90.24h-3.62"/><path class="cls-1" d="M220.64,58.09a2.64,2.64,0,1,1,0-5.27,2.64,2.64,0,0,1,0,5.27m-1.81,6.2h3.56V90.24h-3.56Z"/><path class="cls-1" d="M240.93,90.79c-6.58,0-11.68-4.94-11.68-13.5,0-8.72,5.27-13.55,11.85-13.55a14.26,14.26,0,0,1,8.45,2.63L248.94,70A11.86,11.86,0,0,0,241,66.87c-4.94,0-8.07,4-8.07,10.37s3.19,10.37,8.45,10.37a11.38,11.38,0,0,0,7.9-3.08l.5,3.3a13.68,13.68,0,0,1-8.84,3"/><path class="cls-1" d="M272.26,90.24l-.61-3.46a13.35,13.35,0,0,1-9.16,4c-4.5,0-7.73-2.47-7.73-7.08,0-6.09,4.94-8.94,16.68-10.1v-1.7c0-3.51-2.09-5-5.38-5a21,21,0,0,0-8.95,2.3L256.62,66a23.1,23.1,0,0,1,9.66-2.25c5.76,0,8.72,2.69,8.72,8V90.24h-2.74m-.82-13.77c-10.21,1-13.06,3.51-13.06,7,0,2.8,1.92,4.23,4.66,4.23s5.87-1.54,8.4-3.9Z"/><path class="cls-1" d="M103.83,90.74c-4.08,0-6.78-1.6-6.78-6.39v-17H93V64.23h4v-9l3.58-.61v9.65h6l.49,3.08h-6.5V83.74c0,2.65,1.05,3.8,3.86,3.8a14.62,14.62,0,0,0,2.42-.27l.56,3a14.21,14.21,0,0,1-3.64.44"/></svg>