<?xml version="1.0" encoding="utf-8"?>
<!-- Generator: Adobe Illustrator 27.7.0, SVG Export Plug-In . SVG Version: 6.00 Build 0)  -->
<svg version="1.1" id="Layer_1" xmlns="http://www.w3.org/2000/svg" xmlns:xlink="http://www.w3.org/1999/xlink" x="0px" y="0px"
	 viewBox="0 0 475 122" style="enable-background:new 0 0 475 122;" xml:space="preserve">
<style type="text/css">
	.st0{fill:#515051;}
</style>
<path class="st0" d="M90.5,69.2v-6H65.6v6h8.7v23.7h-8.7v6h24.9v-6H81V69.2H90.5z"/>
<path class="st0" d="M131.9,69.4H122v9.8c0,0,5.4-0.2,9.8-0.2s5.5-1,5.5-5.4C137.3,68.7,131.9,69.4,131.9,69.4z"/>
<path class="st0" d="M103.2,54.9v52.5h51.6V54.9H103.2z M144.4,90.3v8.2h-7.1v-7.7c0,0,0-6-4.1-6S122,84.9,122,84.9v13.7h-7V63.3
	h20.5c0,0,8.8-0.5,8.8,9.1S139,82.6,139,82.6S144.4,82.9,144.4,90.3z"/>
<polygon class="st0" points="164.3,63.3 164.3,69.1 169.2,69.1 169.2,93 164.3,93 164.3,98.8 194.4,98.8 194.4,87.3 188.4,87.3 
	188.4,93 175.6,93 175.6,83.3 185.1,83.3 185.1,77.5 175.6,77.5 175.6,69.1 187.9,69.1 187.9,74.8 194.4,74.8 194.4,63.3 "/>
<path class="st0" d="M235.4,69.3h-10.7V93h11.2c5.4,0,5.5-6.9,5.5-6.9v-9.2C241.4,68.8,235.4,69.3,235.4,69.3z"/>
<path class="st0" d="M205.9,54.9v52.5h51.6V54.9H205.9z M236.2,99.1c-12.9,0-18.8,0.2-18.8,0.2V63.5h15.3c0,0,15.8-1.7,15.8,12.5
	v9.9C248.6,85.9,249.2,99.1,236.2,99.1z"/>
<path class="st0" d="M0,54.9v52.5h51.6V54.9H0z M41,98.8h-8.8l-5.7-25.7L20.4,99h-8.7L4.4,63.5h7.1l4.9,27l6.3-27l7.7,0.2l6.3,27.3
	l4.7-27.5h6.8L41,98.8z"/>
</svg>
