<?xml version="1.0" encoding="utf-8"?>
<!-- Generator: Adobe Illustrator 27.7.0, SVG Export Plug-In . SVG Version: 6.00 Build 0)  -->
<svg version="1.1" id="Layer_1" xmlns="http://www.w3.org/2000/svg" xmlns:xlink="http://www.w3.org/1999/xlink" x="0px" y="0px"
	 viewBox="0 0 475 122" style="enable-background:new 0 0 475 122;" xml:space="preserve">
<style type="text/css">
	.st0{fill:#515051;}
</style>
<path class="st0" d="M90.9,61.9h-5.2c-0.3,0-0.6,0.3-0.6,0.6c0,0,0,0,0,0v19.2h-7V62.5c0-0.3-0.3-0.6-0.6-0.6c0,0,0,0,0,0h-5.3
	c-0.3,0-0.6,0.3-0.6,0.6v43.6c0,0.3,0.3,0.6,0.6,0.6c0,0,0,0,0,0h5.3c0.3,0,0.6-0.3,0.6-0.6c0,0,0,0,0,0l0,0V87.3h7v18.8
	c0,0.3,0.3,0.6,0.6,0.6c0,0,0,0,0,0h5.2c0.3,0,0.6-0.3,0.6-0.6c0,0,0,0,0,0l0,0V62.5C91.5,62.2,91.2,61.9,90.9,61.9L90.9,61.9z
	 M125.2,61.9h-5c-0.3,0-0.6,0.3-0.6,0.6c0,0,0,0,0,0V88l-1-3.2l-7.5-22.4c-0.1-0.2-0.3-0.4-0.6-0.4h-4.7c-0.3,0-0.6,0.3-0.6,0.6
	c0,0,0,0,0,0v43.6c0,0.3,0.3,0.6,0.6,0.6h5c0.3,0,0.6-0.3,0.6-0.6c0,0,0,0,0,0l0,0V80.8l1.2,3.5l8.2,22.1c0.1,0.2,0.3,0.4,0.6,0.4
	h3.8c0.3,0,0.6-0.3,0.6-0.6c0,0,0,0,0,0l0,0V62.5C125.8,62.2,125.6,61.9,125.2,61.9z"/>
<path class="st0" d="M95.8,61.9h5.3c0.3,0,0.6,0.3,0.6,0.6v43.6c0,0.3-0.3,0.6-0.6,0.6h-5.3c-0.3,0-0.6-0.3-0.6-0.6V62.5
	C95.1,62.2,95.4,61.9,95.8,61.9z"/>
<path class="st0" d="M31,62.1c-0.1-0.1-0.3-0.2-0.5-0.2h-4.9c-0.3,0-0.6,0.2-0.6,0.5l-3,26.4l-3.4-26.4c0-0.3-0.3-0.5-0.6-0.5h-4.3
	c-0.3,0-0.5,0.2-0.6,0.5L9,89L6.4,62.5c0-0.3-0.3-0.5-0.6-0.5H0.6c-0.2,0-0.3,0.1-0.5,0.2C0,62.3,0,62.4,0,62.6l5.5,43.6
	c0,0.3,0.3,0.5,0.6,0.5h5c0.3,0,0.6-0.2,0.6-0.5l3.6-24.1l3.3,24.1c0,0.3,0.3,0.5,0.6,0.5h4.9c0.3,0,0.6-0.2,0.6-0.5l6.4-43.6
	C31.1,62.4,31.1,62.3,31,62.1z M41.4,62.4c0-0.3-0.3-0.5-0.6-0.5h-5.5c-0.3,0-0.5,0.2-0.6,0.5l-7.4,43.6c-0.1,0.3,0.2,0.6,0.5,0.7
	c0,0,0,0,0,0h5.1c0.3,0,0.5-0.2,0.6-0.5l1.5-8.9h5.7l1.2,8.9c0,0.3,0.3,0.5,0.6,0.5h5.4c0.3,0,0.6-0.3,0.6-0.6V106L41.4,62.4z
	 M39.8,91.7h-4l2.1-14.4L39.8,91.7z M55.8,70.1c0-2.2,1.1-3.4,3.3-3.4s3.2,1.4,3.2,4.2v4.8c0,0.3,0.3,0.6,0.6,0.6l0,0h5
	c0.3,0,0.6-0.3,0.6-0.6l0,0v-5.2c0-5.5-3.7-9.3-9.3-9.3c-6,0-9.8,3.9-9.8,10.1c0,5.7,4.8,12,7.6,15.3c3.8,4.4,5.4,7.8,5.4,11.7
	c0,2.6-1.2,3.8-3.6,3.8c-2.2,0-3.5-1.6-3.5-4.2v-4.8c0-0.3-0.3-0.6-0.6-0.6h-5.2c-0.3,0-0.6,0.3-0.6,0.6v5c0,5.5,4,9.2,9.9,9.2
	c4.5,0,9.9-2.7,9.9-10.1c0-4.7-2.2-9.2-7-14.9C57.6,77.4,55.8,74.6,55.8,70.1z M179.9,61.3c-5.9,0-9.9,4-9.9,9.7v26.7
	c0,5.8,4,9.7,9.9,9.7s9.9-4,9.9-9.7V71C189.8,65.3,185.8,61.3,179.9,61.3z M176.4,70.3c0-2.1,1.3-3.3,3.5-3.3s3.6,1.3,3.6,3.3v28
	c0,2.1-1.3,3.3-3.6,3.3s-3.5-1.2-3.5-3.3V70.3z"/>
<path class="st0" d="M217.4,61.9h5.3c0.3,0,0.6,0.3,0.6,0.6v43.6c0,0.3-0.3,0.6-0.6,0.6h-5.3c-0.3,0-0.6-0.3-0.6-0.6V62.5
	C216.8,62.2,217.1,61.9,217.4,61.9z"/>
<path class="st0" d="M239.8,62.4c0-0.3-0.3-0.5-0.6-0.5h-5.5c-0.3,0-0.6,0.2-0.6,0.5l-7.4,43.6c-0.1,0.3,0.2,0.6,0.5,0.7
	c0,0,0,0,0,0h5.1c0.3,0,0.6-0.2,0.6-0.5l1.5-8.9h5.7l1.2,8.9c0,0.3,0.3,0.5,0.6,0.5h5.4c0.3,0,0.6-0.3,0.6-0.6c0,0,0-0.1,0-0.1
	L239.8,62.4z M238.2,91.7h-4l2.1-14.4L238.2,91.7z M148.1,83.9h-9c-0.3,0-0.6,0.3-0.6,0.6l0,0v4.1c0,0.3,0.3,0.6,0.6,0.6l0,0h3.3
	v9.4c0,2.1-1.3,3.4-3.5,3.4c-3,0-3.5-2.1-3.5-3.4V70.1c0-1.4,0.9-3.1,3.5-3.1s3.4,1.6,3.4,3.1v6.7c0,0.3,0.3,0.6,0.6,0.6h4.8
	c0.3,0,0.6-0.3,0.6-0.6l0,0v-5.9c0-5.9-3.6-9.6-9.4-9.6s-9.9,3.9-9.9,9.6v27c0,5.7,3.6,9.6,9.1,9.6c2.4,0.2,4.8-0.8,6.4-2.7l0.9,1.7
	c0.1,0.2,0.3,0.3,0.5,0.3h2.3c0.3,0,0.6-0.3,0.6-0.6c0,0,0,0,0,0l0,0V84.5C148.6,84.1,148.4,83.9,148.1,83.9L148.1,83.9z
	 M269.4,61.9h-5c-0.3,0-0.6,0.3-0.6,0.6v0l0,0V88l-1-3.2l-7.5-22.4c-0.1-0.2-0.3-0.4-0.6-0.4H250c-0.3,0-0.6,0.3-0.6,0.6l0,0v43.6
	c0,0.3,0.3,0.6,0.6,0.6l0,0h5c0.3,0,0.6-0.3,0.6-0.6c0,0,0,0,0,0l0,0V80.8l1.2,3.5l8.2,22.1c0.1,0.2,0.3,0.4,0.6,0.4h3.9
	c0.3,0,0.6-0.3,0.6-0.6c0,0,0,0,0,0l0,0V62.5C270,62.2,269.7,61.9,269.4,61.9L269.4,61.9z M168.2,61.9h-17.9c-0.3,0-0.6,0.3-0.6,0.6
	v0V67c0,0.3,0.3,0.6,0.6,0.6c0,0,0,0,0,0h5.9v38.6c0,0.3,0.3,0.6,0.6,0.6h5.2c0.3,0,0.6-0.3,0.6-0.6l0,0V67.6h5.6
	c0.3,0,0.6-0.3,0.6-0.6l0,0l0,0v-4.5C168.8,62.2,168.5,61.9,168.2,61.9C168.2,61.9,168.2,61.9,168.2,61.9L168.2,61.9z M212.9,61.9
	h-5c-0.3,0-0.6,0.3-0.6,0.6c0,0,0,0,0,0l0,0V88l-1-3.2l-7.5-22.4c-0.1-0.2-0.3-0.4-0.6-0.4h-4.7c-0.3,0-0.6,0.3-0.6,0.6c0,0,0,0,0,0
	l0,0v43.6c0,0.3,0.3,0.6,0.6,0.6l0,0h5c0.3,0,0.6-0.3,0.6-0.6c0,0,0,0,0,0l0,0V80.8l1.1,3.5l8.2,22.1c0.1,0.2,0.3,0.4,0.6,0.4h3.9
	c0.3,0,0.6-0.3,0.6-0.6c0,0,0,0,0,0l0,0V62.5C213.5,62.2,213.2,61.9,212.9,61.9L212.9,61.9z"/>
</svg>
