<?xml version="1.0" encoding="utf-8"?>
<!-- Generator: Adobe Illustrator 24.1.3, SVG Export Plug-In . SVG Version: 6.00 Build 0)  -->
<svg version="1.1" id="Layer_1" xmlns="http://www.w3.org/2000/svg" xmlns:xlink="http://www.w3.org/1999/xlink" x="0px" y="0px"
	 viewBox="0 0 475 122" style="enable-background:new 0 0 475 122;" xml:space="preserve">
<style type="text/css">
	.st0{fill:#515051;}
</style>
<g id="_x31_mfnZ8_4_">
	<g>
		<g>
			<path class="st0" d="M16.8,71.9c0,1.2,0,2.3,0,3.1c2.2-1.1,4.2-2.5,6.4-3.3c5.7-2,10.7-0.2,15,3.7c7.6,6.8,7.9,19.6,1.2,27.1
				c-4.9,5.5-13,7.6-19.6,3.4c-0.9-0.6-1.7-1.3-2.7-2.2c0,3,0,5.9,0,8.9c1.6,0,3.1,0.1,4.7,0c1.2-0.1,1.5,0.4,1.5,1.5
				c-0.1,2.1-0.1,4.2,0,6.2c0,1-0.3,1.5-1.4,1.5c-6.6,0-13.1,0-19.7,0c-0.9,0-1.4-0.2-1.4-1.2c0-2.5,0-5.1,0-7.8c1.7,0,3.3,0,5,0
				c0-10.7,0-21.1,0-31.9c-1.2,0-2.4,0.1-3.7,0c-0.5,0-1.2-0.6-1.2-0.9c-0.1-2.6-0.1-5.3-0.1-8C6.2,71.9,11.4,71.9,16.8,71.9z
				 M24.9,97.5c5,0.4,8.1-4.1,8.1-7.9c0-4.4-3.5-8.1-7.9-8.1c-4.3,0-7.9,2.9-8,8.1C17,94.6,21.1,97.9,24.9,97.5z"/>
			<path class="st0" d="M257.1,89.6c0.1,10.3-8.2,18.6-19.3,18.5c-10.7-0.1-19.1-7.8-19-18.5c0.1-10.9,8-18.4,19.1-18.6
				C248.6,70.9,257.2,78.8,257.1,89.6z M245.8,89.7c0.2-4.9-3.4-8.1-7.5-8.2c-4.4-0.1-8,3.3-8.3,7.5c-0.3,5.3,4,8.5,7.5,8.7
				C242,97.8,246,94.2,245.8,89.7z"/>
			<path class="st0" d="M94.2,108.1c-9.4-0.1-17.1-5.8-18.9-14.9c-1.8-9.3,3.3-18.8,13.5-21.4c8.1-2.1,15.1-0.1,20.5,6.4
				c7.1,8.5,4.6,22.1-5.6,27.6C101.3,107,97,108.3,94.2,108.1z M94.1,97.5c4,0.4,8-3.1,7.9-8c-0.1-4.6-3.3-8-7.7-8
				c-4.5,0-8.1,3.6-8.2,8C86.1,93.5,89.5,97.9,94.1,97.5z"/>
			<path class="st0" d="M177.2,89.6c0.2,10.4-8.4,18.1-18.3,18.5c-11.2,0.4-20-7.8-20-18.5C139,78.7,147.1,71.1,158,71
				C168.5,70.9,177.4,78.7,177.2,89.6z M158,97.5c4.1,0.5,8.1-3.1,8-8c-0.1-5-3.5-8-7.9-8c-4.4-0.1-7.9,3.5-8,8
				C150,94,153.8,97.9,158,97.5z"/>
			<path class="st0" d="M216.3,92.4c-0.3,4-1.8,7.4-4.4,10c-4.8,4.9-10.7,6.5-17.4,5.2c-7.5-1.5-12.2-6-14.3-13.2
				c-2.6-9.2,2.3-20.4,12.8-23c4.7-1.2,9-0.2,12.4,3.5c0.1,0.1,0.3,0.2,0.4,0.3c0,0,0.1,0,0.3,0c0-1,0-2.1,0-3.3c3.4,0,6.7,0,10.1,0
				c0,2.5,0,4.9,0,7.4c0,2.4,0,4.8,0,7.6c-2.6,0-5-0.1-7.5,0c-1.9,0.1-3.1-0.3-4-2.2c-1.2-2.6-5-3.9-7.8-3.1c-3.4,0.9-5.8,3.7-6,6.7
				c-0.2,3.1,0.4,5.9,3,8c3.4,2.7,9.2,1.9,11.1-2.4c0.5-1.1,1.2-1.4,2.4-1.4C210.4,92.5,213.3,92.4,216.3,92.4z"/>
			<path class="st0" d="M45.8,98.5c1.7,0,3.3,0,4.9,0c0-5.9,0-11.7,0-17.6c-1.2,0-2.4,0.1-3.6,0c-0.5-0.1-1.3-0.6-1.3-0.9
				c-0.1-2.6-0.1-5.3-0.1-8c5.4,0,10.6,0,16,0c0.1,0.9,0.1,1.8,0.2,2.8c3.8-4.9,8.6-4.2,11.3-1.9c2.9,2.5,3.2,6.8,0.9,9.5
				c-3.1,3.6-7,3.4-12-0.8c0,5.6,0,11.2,0,16.9c2,0,4,0,6.1,0c0,2.8,0,5.4-0.1,8.1c0,0.4-0.8,1-1.2,1c-6.6,0.1-13.2,0.1-19.9,0
				c-0.4,0-1.2-0.6-1.3-0.9C45.8,103.9,45.8,101.3,45.8,98.5z"/>
			<path class="st0" d="M129.9,80.9c0,5.6,0,11,0,16.6c2.1,0,4.1,0,6.3,0c0,3.4,0,6.6,0,10.2c-4.1-0.2-8.2,0-12.1-0.8
				c-3.8-0.8-5.1-3.4-5.3-8.1c-0.2-5.3-0.1-10.6-0.1-15.9c0-0.6,0-1.2,0-2.1c-1.6,0-3,0-4.5,0c0-3.1,0-5.9,0-9c1.4,0,2.8,0,4.5,0
				c0-1.8,0-3.3,0-4.9c0-1.8-0.1-3.6,0-5.4c0-0.4,0.6-1.2,0.9-1.2c3.3-0.1,6.5-0.1,10-0.1c0,3.9,0,7.6,0,11.5c2.8,0,5.4,0,8.3,0
				c0,2.8,0.1,5.4-0.1,8.1c0,0.4-0.9,0.9-1.3,1C134.5,80.9,132.3,80.9,129.9,80.9z"/>
			<path class="st0" d="M257.6,66.3c0-2.8,0-5.3,0-7.7c0-0.3,0-0.6,0.1-1c5.4,0,10.8,0,16.4,0c0,13.6,0,27.1,0,40.8c1.7,0,3.3,0,5,0
				c0,2.8,0,5.3-0.1,7.9c0,0.3-0.7,0.9-1.1,0.9c-6.3,0.1-12.6,0.1-18.9,0c-0.4,0-1.1-0.6-1.2-1c-0.1-2.5-0.1-5-0.1-7.8
				c1.8,0,3.4,0,5,0c0-0.7,0.1-1.2,0.1-1.7c0-9.5,0-19,0-28.5c0-1.6-0.5-2-2-1.9C260,66.4,258.9,66.3,257.6,66.3z"/>
		</g>
	</g>
</g>
</svg>
