<?xml version="1.0" encoding="utf-8"?>
<!-- Generator: Adobe Illustrator 24.0.3, SVG Export Plug-In . SVG Version: 6.00 Build 0)  -->
<svg version="1.1" id="Layer_1" xmlns="http://www.w3.org/2000/svg" xmlns:xlink="http://www.w3.org/1999/xlink" x="0px" y="0px"
	 viewBox="0 0 475 122" style="enable-background:new 0 0 475 122;" xml:space="preserve">
<style type="text/css">
	.st0{fill:#FFFFFF;}
	.st1{fill:#515051;}
</style>
<g>
	<g>
		<g>
			<rect x="0.3" y="17.4" class="st0" width="89.8" height="93.1"/>
			<rect x="0.3" y="110.6" class="st1" width="89.8" height="10.9"/>
		</g>
		<g>
			<path class="st1" d="M65.8,42H50v45.3h10.9V51.1h4.4c5,0,8,2.4,8,6.9c0,4.3-2.9,6.9-8,6.9h-0.7v9h1.1c11.7,0,18.6-5.9,18.6-15.9
				C84.4,47.7,77.5,42,65.8,42z"/>
			<polygon class="st1" points="21,42 5.9,87.3 16.9,87.3 27,55.3 32.2,71.3 25.6,71.3 22.9,80.3 35.2,80.3 37.3,87.3 48.6,87.3 
				33.5,42 			"/>
		</g>
	</g>
	<g>
		<path class="st1" d="M125,60l5,18.9h-4l-0.9-4h-5l-0.9,4h-4l5-18.7h4.7V60z M124.4,71.7l-1.9-8.4l0,0l-1.9,8.4H124.4z"/>
		<path class="st1" d="M134.2,73.6c0,0.4,0,0.9,0.1,1.1c0,0.4,0.1,0.7,0.4,0.9c0.1,0.3,0.4,0.4,0.7,0.6s0.7,0.1,1.3,0.1
			c0.6,0,1.1-0.1,1.6-0.6c0.4-0.4,0.7-1,0.7-1.7c0-0.4,0-0.7-0.1-1.1c-0.1-0.3-0.3-0.6-0.6-0.9s-0.6-0.4-1-0.7
			c-0.4-0.1-1-0.4-1.6-0.6c-0.9-0.3-1.6-0.6-2.1-0.9s-1.1-0.7-1.6-1.1c-0.4-0.4-0.7-1-0.9-1.6c-0.1-0.6-0.3-1.3-0.3-2
			c0-1.9,0.6-3.3,1.6-4.1c1-0.9,2.4-1.4,4.3-1.4c0.9,0,1.6,0.1,2.3,0.3c0.7,0.1,1.3,0.4,1.9,0.9c0.6,0.4,0.9,1,1.1,1.6
			c0.3,0.6,0.4,1.4,0.4,2.3v0.7H139c0-0.9-0.1-1.6-0.4-2c-0.3-0.4-0.9-0.7-1.6-0.7c-0.4,0-0.7,0-1,0.1s-0.6,0.3-0.7,0.4
			c-0.1,0.1-0.3,0.4-0.3,0.7c0,0.3-0.1,0.6-0.1,0.9c0,0.6,0.1,1,0.4,1.4c0.3,0.4,0.7,0.7,1.6,1.1l2.9,1.3c0.7,0.3,1.3,0.7,1.7,1
			s0.9,0.7,1.1,1.1c0.3,0.4,0.4,0.9,0.6,1.3c0.1,0.4,0.1,1,0.1,1.6c0,2-0.6,3.4-1.7,4.3c-1.1,0.9-2.7,1.3-4.9,1.3s-3.7-0.4-4.6-1.4
			c-0.9-0.9-1.4-2.3-1.4-4V73h3.6V73.6z"/>
		<path class="st1" d="M148,73.6c0,0.4,0,0.9,0.1,1.1c0,0.4,0.1,0.7,0.4,0.9c0.1,0.3,0.4,0.4,0.7,0.6s0.7,0.1,1.3,0.1
			s1.1-0.1,1.6-0.6c0.4-0.4,0.7-1,0.7-1.7c0-0.4,0-0.7-0.1-1.1c-0.1-0.3-0.3-0.6-0.6-0.9c-0.3-0.3-0.6-0.4-1-0.7
			c-0.4-0.1-1-0.4-1.6-0.6c-0.9-0.3-1.6-0.6-2.1-0.9s-1.1-0.7-1.6-1.1c-0.4-0.4-0.7-1-0.9-1.6c-0.1-0.6-0.3-1.3-0.3-2
			c0-1.9,0.6-3.3,1.6-4.1c1-0.9,2.4-1.4,4.3-1.4c0.9,0,1.6,0.1,2.3,0.3c0.7,0.1,1.3,0.4,1.9,0.9c0.6,0.4,0.9,1,1.1,1.6
			c0.3,0.6,0.4,1.4,0.4,2.3v0.7h-3.6c0-0.9-0.1-1.6-0.4-2c-0.3-0.4-0.9-0.7-1.6-0.7c-0.4,0-0.7,0-1,0.1s-0.6,0.3-0.7,0.4
			c-0.1,0.1-0.3,0.4-0.3,0.7c0,0.3-0.1,0.6-0.1,0.9c0,0.6,0.1,1,0.4,1.4c0.3,0.4,0.7,0.7,1.6,1.1l2.9,1.3c0.7,0.3,1.3,0.7,1.7,1
			c0.4,0.3,0.9,0.7,1.1,1.1c0.3,0.4,0.4,0.9,0.6,1.3c0.1,0.4,0.1,1,0.1,1.6c0,2-0.6,3.4-1.7,4.3c-1.1,0.9-2.7,1.3-4.9,1.3
			s-3.7-0.4-4.6-1.4c-0.9-0.9-1.4-2.3-1.4-4V73h3.7v0.6H148z"/>
		<path class="st1" d="M158.3,65.6c0.1-1.1,0.4-2.3,0.9-3.1c0.4-0.9,1.1-1.6,2-2s2-0.7,3.4-0.7s2.6,0.3,3.4,0.7s1.4,1.1,2,2
			c0.4,0.9,0.7,1.9,0.9,3.1c0.1,1.1,0.1,2.6,0.1,4c0,1.4,0,2.7-0.1,4c-0.1,1.1-0.4,2.3-0.9,3.1c-0.4,0.9-1.1,1.6-2,2
			c-0.9,0.4-2,0.7-3.4,0.7s-2.6-0.3-3.4-0.7c-0.9-0.4-1.4-1.1-2-2c-0.4-0.9-0.7-1.9-0.9-3.1c-0.1-1.1-0.1-2.6-0.1-4
			C158.1,68,158.1,66.7,158.3,65.6z M162,72.7c0,0.9,0.1,1.6,0.4,2.1c0.1,0.6,0.4,1,0.9,1.1c0.3,0.3,0.9,0.4,1.3,0.4
			c0.6,0,1-0.1,1.3-0.4c0.3-0.3,0.6-0.7,0.9-1.1c0.1-0.6,0.3-1.3,0.4-2.1c0-0.9,0.1-2,0.1-3.3s0-2.3-0.1-3.1c0-0.9-0.1-1.6-0.4-2.1
			c-0.1-0.6-0.4-1-0.9-1.3c-0.3-0.3-0.9-0.4-1.3-0.4c-0.6,0-1,0.1-1.3,0.4c-0.3,0.3-0.6,0.7-0.9,1.3c-0.1,0.6-0.3,1.3-0.4,2.1
			c0,0.9-0.1,2-0.1,3.1C162,70.7,162,71.9,162,72.7z"/>
		<path class="st1" d="M180.7,63.4c-0.3-0.6-0.9-1-1.7-1c-0.4,0-0.9,0.1-1.1,0.4c-0.3,0.3-0.6,0.7-0.7,1.3c-0.1,0.6-0.3,1.3-0.4,2.3
			c0,0.9-0.1,2-0.1,3.4s0,2.6,0.1,3.4c0.1,0.9,0.3,1.6,0.4,2c0.1,0.4,0.4,0.9,0.7,1s0.7,0.3,1,0.3s0.7,0,1-0.1s0.6-0.3,0.7-0.7
			c0.1-0.3,0.4-0.9,0.6-1.4c0.1-0.6,0.1-1.4,0.1-2.4h3.7c0,1-0.1,2-0.3,2.9c-0.1,0.9-0.4,1.7-0.9,2.4c-0.4,0.7-1,1.3-1.9,1.6
			c-0.7,0.4-1.9,0.6-3,0.6c-1.4,0-2.6-0.3-3.4-0.7c-0.9-0.4-1.4-1.1-2-2c-0.4-0.9-0.7-1.9-0.9-3.1c-0.1-1.1-0.1-2.6-0.1-4
			c0-1.4,0-2.7,0.1-4c0.1-1.1,0.4-2.3,0.9-3.1c0.4-0.9,1.1-1.6,2-2s2-0.7,3.4-0.7c1.3,0,2.4,0.3,3.1,0.7c0.7,0.4,1.4,1,1.7,1.7
			c0.4,0.7,0.6,1.4,0.7,2.1c0.1,0.7,0.1,1.6,0.1,2.1h-3.9C181.1,65,181,64,180.7,63.4z"/>
		<path class="st1" d="M187.4,60h3.9v18.7h-3.9V60z"/>
		<path class="st1" d="M202.4,60l5,18.7h-4l-0.9-4h-5l-0.9,4h-4l5-18.7H202.4z M201.9,71.7l-1.9-8.4l0,0l-1.9,8.4H201.9z"/>
		<path class="st1" d="M218.2,63.1H214v15.7h-3.9V63.1H206V60h12v3.1H218.2z"/>
		<path class="st1" d="M230.3,63.1h-6.7v4.4h6.3v3.1h-6.3v5h7v3.1h-10.7V60h10.4V63.1z"/>
		<path class="st1" d="M238.9,60c1.3,0,2.4,0.3,3.1,0.7c0.9,0.4,1.4,1,1.9,1.9c0.4,0.9,0.7,1.7,0.9,2.9c0.1,1.1,0.3,2.4,0.3,3.7
			c0,1.7-0.1,3.1-0.3,4.3c-0.1,1.3-0.6,2.3-1,3c-0.4,0.9-1.1,1.4-2,1.7c-0.9,0.3-1.9,0.6-3.1,0.6h-6V60H238.9z M238.2,76
			c0.7,0,1.1-0.1,1.6-0.3c0.4-0.3,0.7-0.6,1-1.1c0.3-0.6,0.4-1.3,0.4-2.1c0.1-0.9,0.1-1.9,0.1-3.1c0-1,0-2-0.1-2.9
			c0-0.9-0.3-1.4-0.4-2c-0.3-0.6-0.6-1-1-1.1c-0.4-0.3-1-0.4-1.7-0.4h-1.6V76C236.5,76,238.2,76,238.2,76z"/>
		<path class="st1" d="M260.5,60c1,0,1.7,0.1,2.4,0.4c0.7,0.3,1.1,0.7,1.6,1.3c0.4,0.6,0.7,1.1,0.9,1.9c0.1,0.7,0.3,1.4,0.3,2
			c0,1-0.1,1.9-0.4,2.6c-0.3,0.7-0.7,1.3-1.1,1.7c-0.6,0.4-1.1,0.9-1.9,1c-0.7,0.3-1.6,0.3-2.4,0.3h-2v7.4h-3.9V60H260.5z
			 M259.3,68.6c0.7,0,1.4-0.3,1.9-0.7c0.4-0.4,0.7-1.1,0.7-2.1s-0.1-1.7-0.6-2.1c-0.4-0.4-1.1-0.7-2-0.7h-1.6v5.7H259.3z"/>
		<path class="st1" d="M274.5,60c1.6,0,2.9,0.4,3.7,1.1c0.9,0.9,1.3,2,1.3,3.6c0,1.3-0.3,2.3-0.7,3.1c-0.6,0.9-1.3,1.3-2.4,1.6l0,0
			c1,0.1,1.6,0.4,2.1,0.9c0.4,0.4,0.7,1.3,0.9,2.3c0,0.3,0,0.7,0.1,1.1c0,0.4,0,0.9,0,1.4c0,1,0.1,1.7,0.1,2.3
			c0.1,0.6,0.3,0.9,0.7,1.1v0.1h-4.1c-0.1-0.3-0.3-0.6-0.4-0.9c0-0.3-0.1-0.7-0.1-1l-0.1-3.6c0-0.7-0.3-1.3-0.6-1.7
			c-0.3-0.4-0.9-0.6-1.7-0.6h-2v8h-3.9V60H274.5z M272.9,68.3c0.9,0,1.6-0.1,2.1-0.7c0.4-0.4,0.7-1.1,0.7-2.1c0-1.7-0.9-2.6-2.6-2.6
			h-1.9v5.4H272.9z"/>
		<path class="st1" d="M292.6,63.1h-6.7v4.4h6.3v3.1h-6.3v5h7v3.1h-10.7V60h10.4V63.1z"/>
		<path class="st1" d="M297.9,73.6c0,0.4,0,0.9,0.1,1.1c0,0.4,0.1,0.7,0.4,0.9c0.1,0.3,0.4,0.4,0.7,0.6c0.3,0.1,0.7,0.1,1.3,0.1
			s1.1-0.1,1.6-0.6c0.4-0.4,0.7-1,0.7-1.7c0-0.4,0-0.7-0.1-1.1c-0.1-0.3-0.3-0.6-0.6-0.9c-0.3-0.3-0.6-0.4-1-0.7
			c-0.4-0.1-1-0.4-1.6-0.6c-0.9-0.3-1.6-0.6-2.1-0.9s-1.1-0.7-1.6-1.1c-0.4-0.4-0.7-1-0.9-1.6c-0.1-0.6-0.3-1.3-0.3-2
			c0-1.9,0.6-3.3,1.6-4.1c1-0.9,2.4-1.4,4.3-1.4c0.9,0,1.6,0.1,2.3,0.3c0.7,0.1,1.3,0.4,1.9,0.9c0.6,0.4,0.9,1,1.1,1.6
			c0.3,0.6,0.4,1.4,0.4,2.3v0.7h-3.6c0-0.9-0.1-1.6-0.4-2c-0.3-0.4-0.9-0.7-1.6-0.7c-0.4,0-0.7,0-1,0.1c-0.3,0.1-0.6,0.3-0.7,0.4
			c-0.1,0.1-0.3,0.4-0.3,0.7c0,0.3-0.1,0.6-0.1,0.9c0,0.6,0.1,1,0.4,1.4c0.3,0.4,0.7,0.7,1.6,1.1l2.9,1.3c0.7,0.3,1.3,0.7,1.7,1
			c0.4,0.3,0.9,0.7,1.1,1.1c0.3,0.4,0.4,0.9,0.6,1.3c0.1,0.4,0.1,1,0.1,1.6c0,2-0.6,3.4-1.7,4.3c-1.1,0.9-2.7,1.3-4.9,1.3
			s-3.7-0.4-4.6-1.4c-0.9-0.9-1.4-2.3-1.4-4V73h3.9v0.6H297.9z"/>
		<path class="st1" d="M311.5,73.6c0,0.4,0,0.9,0.1,1.1c0,0.4,0.1,0.7,0.4,0.9c0.1,0.3,0.4,0.4,0.7,0.6c0.3,0.1,0.7,0.1,1.3,0.1
			s1.1-0.1,1.6-0.6c0.4-0.4,0.7-1,0.7-1.7c0-0.4,0-0.7-0.1-1.1c-0.1-0.3-0.3-0.6-0.6-0.9c-0.3-0.3-0.6-0.4-1-0.7
			c-0.4-0.1-1-0.4-1.6-0.6c-0.9-0.3-1.6-0.6-2.1-0.9s-1.1-0.7-1.6-1.1c-0.4-0.4-0.7-1-0.9-1.6c-0.1-0.6-0.3-1.3-0.3-2
			c0-1.9,0.6-3.3,1.6-4.1c1-0.9,2.4-1.4,4.3-1.4c0.9,0,1.6,0.1,2.3,0.3c0.7,0.1,1.3,0.4,1.9,0.9c0.6,0.4,0.9,1,1.1,1.6
			c0.3,0.6,0.4,1.4,0.4,2.3v0.7h-3.6c0-0.9-0.1-1.6-0.4-2c-0.3-0.4-0.9-0.7-1.6-0.7c-0.4,0-0.7,0-1,0.1c-0.3,0.1-0.6,0.3-0.7,0.4
			c-0.1,0.1-0.3,0.4-0.3,0.7c0,0.3-0.1,0.6-0.1,0.9c0,0.6,0.1,1,0.4,1.4c0.3,0.4,0.7,0.7,1.6,1.1l2.9,1.3c0.7,0.3,1.3,0.7,1.7,1
			s0.9,0.7,1.1,1.1c0.3,0.4,0.4,0.9,0.6,1.3c0.1,0.4,0.1,1,0.1,1.6c0,2-0.6,3.4-1.7,4.3c-1.1,0.9-2.7,1.3-4.9,1.3s-3.7-0.4-4.6-1.4
			c-0.9-0.9-1.4-2.3-1.4-4V73h3.9v0.6H311.5z"/>
	</g>
</g>
<title>press-logo-politico</title>
</svg>
