<svg id="Layer_1" data-name="Layer 1" xmlns="http://www.w3.org/2000/svg" viewBox="0 0 475 122"><defs><style>.cls-1{fill:#afafb0;fill-rule:evenodd;}</style></defs><title>press-logo-fast-company</title><path class="cls-1" d="M137.81,76.66c0,5.83-.58,23.91-.58,23.91,0,3.5,1.16,5.05,4.47,5.05v1.56h-13v-1.56c3.31,0,5.06-1.55,5.06-5.05L134.89,71c-1-2.34-1.94-3.11-4.47-3.31V66.36h9.92L150.83,94l10.69-27.6h8.94v1.36c-2.52,0-3.88,1.17-3.88,3.89l1.16,28.57c0,4.28.78,5.44,4.28,5.44v1.56h-15v-1.56c2.92,0,4.28-1,4.08-5.44,0,0-.58-20-.77-23.52l-7.2,19.83a75.13,75.13,0,0,0-2.72,8.55l-2.33.2c-.58-2.14-2.14-6-2.14-6s-6-16.91-8.16-22.55Z"/><path class="cls-1" d="M125.56,107.37a9.61,9.61,0,0,0-2.33-.19c-1.55,0-4.28.78-7.58.78-12.63,0-22-7.58-22-21.58,0-11.85,8.74-21,22.15-21a26.63,26.63,0,0,1,9.53,1.75c.58-.58.78-1,1.36-1.56h1.17c-.2,2.14-1,9.14-1,9.14h-1.16c-.78-4.08-2.92-6.8-9.72-6.8-8.16,0-15.55,6.41-15.55,18.27,0,13.41,7.58,19.24,15.94,19.24,5.44,0,8.74-3.11,10.88-7l1.36.59-3.11,8.35Z"/><path class="cls-1" d="M88.83,73.94H87.47c-.2-3.69-1.36-4.86-4.28-4.86H77.55V99.6c0,5.05,1,6,4.28,6v1.56H67.25v-1.56c3.31,0,4.28-1,4.28-6.22V69.08H65.89c-3.69,0-4.27,1-5.25,4.86H59.28l1-8.74,1,.19c.39,1,1.16,1,3.5,1H83.58c3.5,0,4.28,0,5-1.16H89.8l-1,8.74Z"/><path class="cls-1" d="M47.62,108.15a18.57,18.57,0,0,1-6.41-1,11.24,11.24,0,0,1-3.31-1.36,10.33,10.33,0,0,0-1.36,1.75l-1.16-.39,1-9.14,1.36.2c.78,4.27,3.69,7.38,9.72,7.38a7.88,7.88,0,0,0,7.77-8.16c0-3.5-1.36-5.25-6-8.75A37.19,37.19,0,0,1,45.09,86c-4.27-2.72-7-5.83-7-10.88,0-5.83,4.86-9.72,11.27-9.72a14.73,14.73,0,0,1,6.8,1.55l1.36-1.55,1,.19-1,8.36-1.36-.19c0-3.89-2.33-5.64-6.22-5.64-3.69,0-6.41,1.94-6.41,5.64,0,3.3,2.53,5.44,5.44,7.38,1.56,1,2.72,1.75,3.89,2.53,6.8,4.86,8.36,8,8.36,12.63,0,6.81-5.25,11.86-13.61,11.86Z"/><path class="cls-1" d="M25.46,73.94H23.91c0-3.5-1.56-4.86-4.67-4.86H10.5V84.44h5.63c2.92,0,3.5-1.56,3.89-4.08h1.36V91.24H20c-.39-2.91-1-4.08-4.08-4.08H10.5v13c0,4.86,1.16,5.44,4.27,5.44v1.56H0v-1.56c3.69,0,4.28-1,4.28-5.44V71.61c0-2.72-1.17-3.89-4.28-3.89V66.36H20.21c3.5,0,4.28-.19,4.86-1.36h1.36l-1,8.94Z"/><path class="cls-1" d="M235.19,76.27V99.6c0,5.05,1.16,6,4.27,6v1.56H216.53v-1.56c1.75,0,3.3-.58,3.3-1.74a14.27,14.27,0,0,0-.58-3.5l-1.75-5.64H204.67c-.19.78-2.53,7.19-2.53,8.94,0,1.56,1.75,1.94,2.92,1.94v1.56H194.37v-1.56c1.94,0,3.5-.19,4.86-4.27l9.91-31.68a2.93,2.93,0,0,0-2.72-2V66.36h8.75L225.66,99.6c1,3.5,2,5.25,3.5,6,2.33-.77,2.92-1.55,2.92-6v-28c-1.75-2.33-2-3.89-5.25-3.89V66.36h9.91l16.33,27.8V73c0-4.28-1-5.25-4.28-5.25V66.36h21.77v1.36c-1.36,0-2.52.59-2.52,2a10.37,10.37,0,0,0,.77,3.11L275,86.19l6-13a7.07,7.07,0,0,0,1.17-3.69c0-1.16-.78-1.75-2.53-1.75V66.36H290v1.36c-2.53,0-4.08,2.33-5.25,5.06l-8,16.32V99.79c0,4.67,1.17,5.83,4.28,5.83v1.56H266.29v-1.56c3.11,0,4.27-1.16,4.27-5.83V90.66L262,72.58c-1.55-3.5-2.14-4.27-3.11-4.86-1.94.78-2.53,2.14-2.53,5.25V102.9s.2,2.34.39,5.06l-2.52.19L235.19,76.27Zm-24.3-1.94L205.45,92h11.27l-5.83-17.69Z"/><path class="cls-1" d="M186.79,92h-2.92v8.36c0,4.27,1.17,5.24,4.47,5.24v1.56h-15v-1.56c3.11,0,4.27-1.16,4.27-5.44V72.78c0-4.28-1.16-5.06-4.27-5.06V66.36h11.27c10.89,0,17.3,3.31,17.3,12.25C202,87.94,194.18,92,186.79,92Zm-1.94-22.94h-1v20h1.75c6.42,0,9.72-2.91,9.72-10.3s-2.91-9.72-10.49-9.72Z"/><path class="cls-1" d="M119,99.4c-7.38,0-12.44-5.24-12.44-12.82,0-7.2,5.25-12.83,12.44-12.83,7,0,12.25,5.44,12.25,12.83,0,7.19-5.44,12.82-12.25,12.82Zm0-23.32c-5,0-6.8,4.86-6.8,10.5,0,5.24,1.56,10.49,6.8,10.49,5.06,0,6.61-5.25,6.61-10.69,0-5.25-1.94-10.3-6.61-10.3Z"/><path class="cls-1" d="M33.43,97.07V95.71c2,0,2.33-.58,2.33-1.16a5.87,5.87,0,0,0-.38-2s-.39-1.55-.78-2.72H27l-.78,2.53a5.8,5.8,0,0,0-.39,1.94c0,.78.78,1.36,1.95,1.36v1.36H20.21V95.71c1.95,0,2.73-.58,3.5-2.72L29.54,75.5a1.77,1.77,0,0,0-1.94-1.36V72.78h6.22c5,14.77,6.41,18.66,6.41,18.66,1,3.3,2,4.27,3.5,4.27v1.36ZM30.71,78.22,27.8,87.74h6l-3.11-9.52Z"/></svg>