<svg id="Layer_1" data-name="Layer 1" xmlns="http://www.w3.org/2000/svg" viewBox="0 0 475 122"><defs><style>.cls-1{fill:#515051;}</style></defs><title>press-logo-axios</title><rect class="cls-1" x="96.95" y="57.77" width="12.23" height="49.18"/><path class="cls-1" d="M139.52,56.18A26.51,26.51,0,0,0,112.78,82.4c0,14.69,11.88,26.13,26.57,26.13a26.27,26.27,0,0,0,26.57-26.31A26,26,0,0,0,139.52,56.18Zm-.08,40.38c-7.74,0-13.46-6.68-13.46-14.25s5.72-14.16,13.46-14.16,13.46,6.6,13.46,14.16S147.18,96.56,139.44,96.56Z"/><path class="cls-1" d="M200.05,80a22.77,22.77,0,0,0-7.48-2.78l-7.12-1.32-.52-.11a5.27,5.27,0,0,1-.9-.32A3.67,3.67,0,0,1,182.32,74a3.59,3.59,0,0,1-.4-.9,4.62,4.62,0,0,1-.17-1.27c0-2,1.85-4.57,5.72-4.57a7.07,7.07,0,0,1,5.68,2.44,6.94,6.94,0,0,1,.76,1.1,7.71,7.71,0,0,1,.58,1.27,10.81,10.81,0,0,1,.55,2.14h0l10.82-3.17c-.88-6.6-6-14.34-18.48-14.34-9.76,0-18.3,6.6-18.3,16a13.54,13.54,0,0,0,7.12,12.11,22,22,0,0,0,6.87,2.5l6.86,1.32c3.26.61,4.23,2.28,4.23,4,0,2.11-1.59,4.75-6.07,4.75s-8.8-2.12-9.59-8L167.32,92c1.68,9.41,8.27,15.92,20.85,15.83a22.07,22.07,0,0,0,9.63-2,17.56,17.56,0,0,0,3-1.77,16.5,16.5,0,0,0,2.42-2.2A14.59,14.59,0,0,0,207,92.08,13.68,13.68,0,0,0,200.05,80Z"/><polygon class="cls-1" points="79 57.68 70.2 72.28 61.67 57.68 46.54 57.68 62.99 81.78 52.34 97.36 34.84 57.77 21.64 57.77 0 106.86 13.11 106.86 28.25 72.64 43.46 106.86 59.91 106.86 70.2 91.29 80.41 106.86 80.41 106.86 93.87 106.86 93.87 106.86 77.59 81.78 93.95 57.68 79 57.68"/></svg>