<svg id="Layer_1" data-name="Layer 1" xmlns="http://www.w3.org/2000/svg" viewBox="0 0 475 122"><defs><style>.cls-1{fill:#afafb0;}.cls-2{fill:#adabac;}</style></defs><title>press-logo-recode</title><path class="cls-1" d="M24.19,73.92V61.55q-8.14,0-11.46,6.88v-6H0v44.67H13.57V85.23C13.57,76.81,15.35,74,23.86,74h.33Z"/><path class="cls-2" d="M247,88.09c0-16.44-9.63-26.54-23.68-26.54a23.52,23.52,0,0,0-21.6,15.11V48H188.27V67.31c-3-3.92-7.27-5.76-12.79-5.76a21.21,21.21,0,0,0-15.2,6.27A23,23,0,0,0,154,78.11a23.46,23.46,0,0,0-6.28-10.17,23.45,23.45,0,0,0-38,8.75c-3.86-9.83-11.64-15.14-22-15.14a21.77,21.77,0,0,0-12.52,3.77L68.74,80.79C66.3,68.73,57.61,61.55,45.79,61.55A23.12,23.12,0,0,0,29.5,68.46a22.47,22.47,0,0,0-6.76,16.16A23.3,23.3,0,0,0,29.23,101,21.8,21.8,0,0,0,45.91,108,23.24,23.24,0,0,0,59,104.38l4.22-10.26H53.06a9.67,9.67,0,0,1-6.73,2.48c-5.67,0-9-2.48-10.2-7.15h29a23.3,23.3,0,0,0,6,11.52A21.76,21.76,0,0,0,87.8,108a22.72,22.72,0,0,0,21.9-15,23.21,23.21,0,0,0,5,7.93A21.84,21.84,0,0,0,131.42,108a22.94,22.94,0,0,0,16.8-6.91,21.69,21.69,0,0,0,5.67-9.47,23.26,23.26,0,0,0,7,11A20.72,20.72,0,0,0,175.18,108c5.43,0,9.5-1.45,13.48-5.34V107h13V92.86a23.63,23.63,0,0,0,5.07,8.11A21.8,21.8,0,0,0,223.41,108c9.86,0,17.19-4.68,21.45-13.91h-14.3a9.64,9.64,0,0,1-6.73,2.48c-5.67,0-9.05-2.48-10.19-7.15h33.3V88.09ZM35.74,80.28c.91-4.19,4.77-7,10.2-7,5.18,0,8.86,2.48,10.43,7ZM96.52,91.14A10.22,10.22,0,0,1,88,95.48c-6.24,0-10.49-4.19-10.49-10.92,0-6.06,4.25-10.49,10.1-10.49,4.25,0,7.3,1.62,9.11,4.67H109a22.22,22.22,0,0,0-.76,5.91,24.14,24.14,0,0,0,.88,6.49Zm35,4.85a11.22,11.22,0,1,1,10.73-11.16A11,11,0,0,1,131.54,96m46.66,0c-6.85,0-11.77-4.82-11.77-11.16a11.25,11.25,0,0,1,11.25-11.25A11,11,0,0,1,188.75,85,10.69,10.69,0,0,1,178.2,96m35.08-15.71c.9-4.19,4.76-7,10.19-7,5.19,0,8.87,2.48,10.44,7Z"/></svg>