<?xml version="1.0" encoding="utf-8"?>
<!-- Generator: Adobe Illustrator 27.7.0, SVG Export Plug-In . SVG Version: 6.00 Build 0)  -->
<svg version="1.1" id="Layer_1" xmlns="http://www.w3.org/2000/svg" xmlns:xlink="http://www.w3.org/1999/xlink" x="0px" y="0px"
	 viewBox="0 0 475 122" style="enable-background:new 0 0 475 122;" xml:space="preserve">
<style type="text/css">
	.st0{fill:#515051;}
</style>
<path class="st0" d="M183,67.6l-0.2,7.1c-8.3-0.6-10.7,1.6-10.7,8.5v0.9h-7.1V68h7.1v4.6C174.2,68.9,177.1,67.2,183,67.6z
	 M13.4,96.6h7.1V69h-7.1V96.6L13.4,96.6z M48.7,67.7c-5,0-8,2.2-9.6,4.7V57.2H1.6v6.6h30.9v20.4h6.8c0-5.8,3.4-10,7.5-10
	c3.6,0,5.2,1.8,5.2,8.1v14.3H59V79.7C59,71.6,54.9,67.7,48.7,67.7z M76.7,91.1c-4.3,0-7.1-2.6-7.6-6.9h-6.7c0.7,7.6,5.7,13,14.2,13
	c6.6,0,10.4-3,12.3-7.5L83,87C82.1,89.7,80.4,91.1,76.7,91.1L76.7,91.1z M76.5,67.8c-2.5-0.1-5.1,0.5-7.3,1.7l3.4,4.8
	c1.3-0.7,2.7-1,4.1-0.9c4,0,6,2.6,6.3,6h-6.9v4.7h13.6c0.1-0.7,0.1-1.4,0.1-2.1C89.9,71.7,83.1,67.8,76.5,67.8z M147,91.1
	c-4.3,0-7.1-2.6-7.6-6.9h-6.7c0.7,7.6,5.7,13,14.2,13c6.6,0,10.4-3,12.3-7.5l-6-2.7C152.3,89.7,150.6,91.1,147,91.1z M146.7,67.8
	c-2.5-0.1-5.1,0.5-7.3,1.7l3.4,4.8c1.3-0.7,2.7-1,4.1-0.9c4,0,6,2.6,6.3,6h-6.9v4.7H160c0.1-0.7,0.1-1.4,0.1-2.1
	C160.2,71.7,153.3,67.8,146.7,67.8L146.7,67.8z M230.2,91.1c-4.3,0-7.1-2.6-7.6-6.9h-6.7c0.7,7.6,5.7,13,14.2,13
	c6.6,0,10.4-3,12.3-7.5l-6-2.7C235.5,89.7,233.9,91.1,230.2,91.1L230.2,91.1z M229.8,67.8c-2.5-0.1-5.1,0.5-7.3,1.7l3.4,4.8
	c1.3-0.7,2.7-1,4.1-0.9c4,0,6,2.6,6.3,6h-6.9v4.7h13.6c0.1-0.7,0.1-1.4,0.1-2.1C243.3,71.7,236.4,67.8,229.8,67.8z M93.5,53.8
	l12.8,30.4h7.8L104.3,60H117v-6.2L93.5,53.8L93.5,53.8z M131.5,53.9L116.8,91l-2.2,5.6h7.5l17.6-42.7L131.5,53.9L131.5,53.9z
	 M197,95.9c3,0,5.6-0.9,7.3-2.3l-2.8-4.5c-0.9,0.4-1.9,0.5-2.9,0.5c-3.9,0-6.1-2.3-6.9-5.4h-7C185.6,90.8,190.4,95.9,197,95.9z
	 M205.8,72c-1.6-2.6-4.9-4.4-9.4-4.4c-4.5,0-8.6,2.4-10.8,6.3l5.9,3.8c1.1-2.3,3.2-3.8,6.5-3.8c4.7,0,7.8,3.6,7.8,7.9
	c0,0.8-0.1,1.6-0.3,2.4h7.5V68.1h-7.1L205.8,72z M198.9,102.3c-4.6,0-6.3-2.2-6.6-4.8h-6.8c0.1,5,3.5,10.4,13.6,10.4
	c6.8,0,11.3-3.4,13.2-8.5l-6.4-2.2C204.9,100.5,202.4,102.3,198.9,102.3L198.9,102.3z"/>
</svg>
