<?xml version="1.0" encoding="utf-8"?>
<!-- Generator: Adobe Illustrator 27.7.0, SVG Export Plug-In . SVG Version: 6.00 Build 0)  -->
<svg version="1.1" id="Layer_1" xmlns="http://www.w3.org/2000/svg" xmlns:xlink="http://www.w3.org/1999/xlink" x="0px" y="0px"
	 viewBox="0 0 475 122" style="enable-background:new 0 0 475 122;" xml:space="preserve">
<style type="text/css">
	.st0{fill-rule:evenodd;clip-rule:evenodd;fill:#515051;}
</style>
<path class="st0" d="M137.8,76.7c0,5.8-0.6,23.9-0.6,23.9c0,3.5,1.2,5.1,4.5,5.1v1.6h-13v-1.6c3.3,0,5.1-1.6,5.1-5.1l1.1-29.6
	c-1-2.3-1.9-3.1-4.5-3.3v-1.3h9.9L150.8,94l10.7-27.6h8.9v1.4c-2.5,0-3.9,1.2-3.9,3.9l1.2,28.6c0,4.3,0.8,5.4,4.3,5.4v1.6h-15v-1.6
	c2.9,0,4.3-1,4.1-5.4c0,0-0.6-20-0.8-23.5l-7.2,19.8c-1.1,2.8-2,5.6-2.7,8.6l-2.3,0.2c-0.6-2.1-2.1-6-2.1-6S139.9,82.4,137.8,76.7
	L137.8,76.7z"/>
<path class="st0" d="M125.6,107.4c-0.8-0.2-1.5-0.2-2.3-0.2c-1.6,0-4.3,0.8-7.6,0.8c-12.6,0-22-7.6-22-21.6c0-11.8,8.7-21,22.2-21
	c3.3,0,6.5,0.6,9.5,1.8c0.6-0.6,0.8-1,1.4-1.6h1.2c-0.2,2.1-1,9.1-1,9.1h-1.2c-0.8-4.1-2.9-6.8-9.7-6.8c-8.2,0-15.6,6.4-15.6,18.3
	c0,13.4,7.6,19.2,15.9,19.2c5.4,0,8.7-3.1,10.9-7l1.4,0.6L125.6,107.4L125.6,107.4z"/>
<path class="st0" d="M88.8,73.9h-1.4c-0.2-3.7-1.4-4.9-4.3-4.9h-5.6v30.5c0,5.1,1,6,4.3,6v1.6H67.2v-1.6c3.3,0,4.3-1,4.3-6.2V69.1
	h-5.6c-3.7,0-4.3,1-5.2,4.9h-1.4l1-8.7l1,0.2c0.4,1,1.2,1,3.5,1h18.8c3.5,0,4.3,0,5-1.2h1.2L88.8,73.9L88.8,73.9z"/>
<path class="st0" d="M47.6,108.2c-2.2,0-4.3-0.3-6.4-1c-1.2-0.3-2.3-0.7-3.3-1.4c-0.5,0.5-1,1.1-1.4,1.8l-1.2-0.4l1-9.1l1.4,0.2
	c0.8,4.3,3.7,7.4,9.7,7.4c4.4-0.1,7.8-3.6,7.8-8c0-0.1,0-0.1,0-0.2c0-3.5-1.4-5.2-6-8.8c-1.4-0.8-2.8-1.7-4.1-2.7
	c-4.3-2.7-7-5.8-7-10.9c0-5.8,4.9-9.7,11.3-9.7c2.4,0,4.7,0.5,6.8,1.6l1.4-1.6l1,0.2l-1,8.4l-1.4-0.2c0-3.9-2.3-5.6-6.2-5.6
	c-3.7,0-6.4,1.9-6.4,5.6c0,3.3,2.5,5.4,5.4,7.4c1.6,1,2.7,1.8,3.9,2.5c6.8,4.9,8.4,8,8.4,12.6C61.2,103.1,56,108.2,47.6,108.2
	L47.6,108.2z"/>
<path class="st0" d="M25.5,73.9h-1.5c0-3.5-1.6-4.9-4.7-4.9h-8.7v15.4h5.6c2.9,0,3.5-1.6,3.9-4.1h1.4v10.9H20
	c-0.4-2.9-1-4.1-4.1-4.1h-5.4v13c0,4.9,1.2,5.4,4.3,5.4v1.6H0v-1.6c3.7,0,4.3-1,4.3-5.4V71.6c0-2.7-1.2-3.9-4.3-3.9v-1.4h20.2
	c3.5,0,4.3-0.2,4.9-1.4h1.4L25.5,73.9L25.5,73.9z"/>
<path class="st0" d="M235.2,76.3v23.3c0,5.1,1.2,6,4.3,6v1.6h-22.9v-1.6c1.8,0,3.3-0.6,3.3-1.7c0-1.2-0.2-2.4-0.6-3.5l-1.8-5.6
	h-12.8c-0.2,0.8-2.5,7.2-2.5,8.9c0,1.6,1.8,1.9,2.9,1.9v1.6h-10.7v-1.6c1.9,0,3.5-0.2,4.9-4.3l9.9-31.7c-0.4-1.2-1.5-2-2.7-2v-1.3
	h8.8l10.5,33.2c1,3.5,2,5.2,3.5,6c2.3-0.8,2.9-1.6,2.9-6v-28c-1.8-2.3-2-3.9-5.2-3.9v-1.3h9.9l16.3,27.8V73c0-4.3-1-5.2-4.3-5.2
	v-1.4h21.8v1.4c-1.4,0-2.5,0.6-2.5,2c0.1,1.1,0.4,2.1,0.8,3.1l6.2,13.4l6-13c0.7-1.1,1.1-2.4,1.2-3.7c0-1.2-0.8-1.8-2.5-1.8v-1.4
	H290v1.4c-2.5,0-4.1,2.3-5.2,5.1l-8,16.3v10.7c0,4.7,1.2,5.8,4.3,5.8v1.6h-14.7v-1.6c3.1,0,4.3-1.2,4.3-5.8v-9.1L262,72.6
	c-1.5-3.5-2.1-4.3-3.1-4.9c-1.9,0.8-2.5,2.1-2.5,5.2v29.9c0,0,0.2,2.3,0.4,5.1l-2.5,0.2L235.2,76.3z M210.9,74.3L205.4,92h11.3
	L210.9,74.3L210.9,74.3z"/>
<path class="st0" d="M186.8,92h-2.9v8.4c0,4.3,1.2,5.2,4.5,5.2v1.6h-15v-1.6c3.1,0,4.3-1.2,4.3-5.4V72.8c0-4.3-1.2-5.1-4.3-5.1v-1.4
	h11.3c10.9,0,17.3,3.3,17.3,12.2C202,87.9,194.2,92,186.8,92z M184.8,69.1h-1v20h1.8c6.4,0,9.7-2.9,9.7-10.3S192.4,69,184.8,69.1
	L184.8,69.1z"/>
<path class="st0" d="M119,99.4c-7.4,0-12.4-5.2-12.4-12.8c0-7.2,5.2-12.8,12.4-12.8c7,0,12.2,5.4,12.2,12.8
	C131.2,93.8,125.8,99.4,119,99.4z M119,76.1c-5,0-6.8,4.9-6.8,10.5c0,5.2,1.6,10.5,6.8,10.5c5.1,0,6.6-5.2,6.6-10.7
	C125.6,81.1,123.7,76.1,119,76.1z"/>
<path class="st0" d="M33.4,97.1v-1.4c2,0,2.3-0.6,2.3-1.2c0-0.7-0.1-1.4-0.4-2c0,0-0.4-1.6-0.8-2.7H27l-0.8,2.5
	c-0.2,0.6-0.4,1.3-0.4,1.9c0,0.8,0.8,1.4,2,1.4V97h-7.6v-1.3c2,0,2.7-0.6,3.5-2.7l5.8-17.5c-0.2-0.9-1-1.5-1.9-1.4v-1.4h6.2
	c5,14.8,6.4,18.7,6.4,18.7c1,3.3,2,4.3,3.5,4.3v1.4H33.4z M30.7,78.2l-2.9,9.5h6L30.7,78.2L30.7,78.2z"/>
</svg>
