<svg id="Layer_1" data-name="Layer 1" xmlns="http://www.w3.org/2000/svg" viewBox="0 0 475 122"><defs><style>.cls-1{fill:#afafb0;}</style></defs><title>press-logo-slate</title><path class="cls-1" d="M177.59,66.54h-16v8.72h16V86.75h-16v9h16v11.49H148.05V55.05h29.54ZM141.65,55.06V66.54H130.57v40.7h-13.5V66.54H106V55.06Zm-59.08,0h9.15l19.76,52.18H97.09l-4-11.49H82.57V85.44h7l-7-20.09V55.06Zm-38.25,0h13.5V95.75H76.06v11.49H44.32ZM17.9,66.13a3.88,3.88,0,0,0-1.65,3.25,3.23,3.23,0,0,0,.83,2.28,7.17,7.17,0,0,0,2.17,1.56,17.75,17.75,0,0,0,3,1.14c1.12.33,2.23.67,3.34,1q6.6,2.22,9.67,5.92A14.67,14.67,0,0,1,38.36,91,18.8,18.8,0,0,1,37,98.24a15,15,0,0,1-3.92,5.57,18,18,0,0,1-6.34,3.6,26.31,26.31,0,0,1-8.5,1.28A31.17,31.17,0,0,1,0,102.81L5.78,91.87a23.5,23.5,0,0,0,6,4,14.4,14.4,0,0,0,5.85,1.31,6.94,6.94,0,0,0,4.92-1.52,4.63,4.63,0,0,0,1.62-3.46,4.79,4.79,0,0,0-.41-2,4.43,4.43,0,0,0-1.38-1.59,10.59,10.59,0,0,0-2.51-1.35c-1.24-.49-2.5-1-3.76-1.39Q13.52,85,11,84a16.17,16.17,0,0,1-4.47-2.67,12.26,12.26,0,0,1-3.17-4.18,15,15,0,0,1-1.2-6.4,18.57,18.57,0,0,1,1.27-7A15.6,15.6,0,0,1,7,58.34a15.93,15.93,0,0,1,5.65-3.49,21.2,21.2,0,0,1,7.47-1.25,32.29,32.29,0,0,1,8.05,1.08,35.29,35.29,0,0,1,8.06,3.14L30.85,68.41a16.72,16.72,0,0,0-4.41-2.66,11.59,11.59,0,0,0-4.27-.87,6.93,6.93,0,0,0-4.27,1.25Z"/></svg>